<?xml version="1.0" encoding="UTF-8" standalone="no"?>
<svg
   xmlns:dc="http://purl.org/dc/elements/1.1/"
   xmlns:cc="http://creativecommons.org/ns#"
   xmlns:rdf="http://www.w3.org/1999/02/22-rdf-syntax-ns#"
   xmlns:svg="http://www.w3.org/2000/svg"
   xmlns="http://www.w3.org/2000/svg"
   xmlns:xlink="http://www.w3.org/1999/xlink"
   xmlns:sodipodi="http://sodipodi.sourceforge.net/DTD/sodipodi-0.dtd"
   xmlns:inkscape="http://www.inkscape.org/namespaces/inkscape"
   width="200mm"
   height="75mm"
   viewBox="0 0 200 75"
   version="1.1"
   id="svg8"
   inkscape:version="1.0.2 (e86c8708, 2021-01-15)"
   sodipodi:docname="drawing.svg">
  <defs
     id="defs2">
    <linearGradient
       inkscape:collect="always"
       id="linearGradient988">
      <stop
         style="stop-color:#dcda00;stop-opacity:1;"
         offset="0"
         id="stop984" />
      <stop
         style="stop-color:#dcda00;stop-opacity:0;"
         offset="1"
         id="stop986" />
    </linearGradient>
    <radialGradient
       inkscape:collect="always"
       xlink:href="#linearGradient988"
       id="radialGradient990"
       cx="95.073509"
       cy="122.4143"
       fx="95.073509"
       fy="122.4143"
       r="10.40989"
       gradientTransform="matrix(1,0,0,1.0508623,-8.3707909,-104.65522)"
       gradientUnits="userSpaceOnUse" />
    <radialGradient
       inkscape:collect="always"
       xlink:href="#linearGradient988"
       id="radialGradient990-6"
       cx="95.073509"
       cy="122.4143"
       fx="95.073509"
       fy="122.4143"
       r="10.40989"
       gradientTransform="matrix(1,0,0,1.0508623,-34.829125,-104.65522)"
       gradientUnits="userSpaceOnUse" />
    <radialGradient
       inkscape:collect="always"
       xlink:href="#linearGradient988"
       id="radialGradient990-3"
       cx="95.073509"
       cy="122.4143"
       fx="95.073509"
       fy="122.4143"
       r="10.40989"
       gradientTransform="matrix(1,0,0,1.0508623,18.087542,-104.65522)"
       gradientUnits="userSpaceOnUse" />
  </defs>
  <sodipodi:namedview
     id="base"
     pagecolor="#ffffff"
     bordercolor="#666666"
     borderopacity="1.0"
     inkscape:pageopacity="0.0"
     inkscape:pageshadow="2"
     inkscape:zoom="0.91662984"
     inkscape:cx="302.58817"
     inkscape:cy="366.13841"
     inkscape:document-units="mm"
     inkscape:current-layer="layer1"
     inkscape:document-rotation="0"
     showgrid="false"
     inkscape:window-width="1626"
     inkscape:window-height="943"
     inkscape:window-x="0"
     inkscape:window-y="23"
     inkscape:window-maximized="0"
     units="mm"
     height="75mm">
    <inkscape:grid
       type="xygrid"
       id="grid855" />
  </sodipodi:namedview>
  <metadata
     id="metadata5">
    <rdf:RDF>
      <cc:Work
         rdf:about="">
        <dc:format>image/svg+xml</dc:format>
        <dc:type
           rdf:resource="http://purl.org/dc/dcmitype/StillImage" />
        <dc:title></dc:title>
      </cc:Work>
    </rdf:RDF>
  </metadata>
  <g
     inkscape:label="Layer 1"
     inkscape:groupmode="layer"
     id="layer1">
    <circle
       style="fill:#000000;fill-opacity:0.407258;stroke-width:0.264583"
       id="path857-3"
       cx="7.4706988"
       cy="22.926392"
       r="5.2916665" />
    <ellipse
       style="opacity:1;fill:url(#radialGradient990);fill-opacity:1;stroke-width:0.533566"
       id="path857-9"
       cx="86.702721"
       cy="23.985344"
       rx="10.40989"
       ry="10.939361" />
    <circle
       style="fill:#000000;fill-opacity:0.407258;stroke-width:0.264583"
       id="path857-3-8"
       cx="33.96254"
       cy="23.279373"
       r="5.2916665" />
    <ellipse
       style="fill:url(#radialGradient990-6);fill-opacity:1;stroke-width:0.533566"
       id="path857-9-1"
       cx="60.244381"
       cy="23.985344"
       rx="10.40989"
       ry="10.939361" />
    <ellipse
       style="fill:url(#radialGradient990-3);fill-opacity:1;stroke-width:0.533566"
       id="path857-9-8"
       cx="113.16106"
       cy="23.985344"
       rx="10.40989"
       ry="10.939361" />
    <circle
       style="fill:#000000;fill-opacity:0.407258;stroke-width:0.264583"
       id="path857-3-8-5"
       cx="165.91037"
       cy="23.279373"
       r="5.2916665" />
    <circle
       style="fill:#000000;fill-opacity:0.407258;stroke-width:0.264583"
       id="path857-3-8-3"
       cx="139.79283"
       cy="22.926392"
       r="5.2916665" />
    <path
       style="fill:none;stroke:#000000;stroke-width:0.394321px;stroke-linecap:butt;stroke-linejoin:miter;stroke-opacity:1"
       d="m 91.519727,66.501836 c 0.761422,0.30483 -0.60879,1.47479 -1.08564,1.24116 -1.703728,-0.83478 -3.396711,-2.5226 -3.437815,-2.48232 -0.434921,0.4262 -0.127683,1.21575 -0.361877,1.77309 -0.852845,2.02965 -1.584689,2.14913 0.542813,3.19154"
       id="path1215" />
    <path
       style="fill:none;stroke:#000000;stroke-width:0.394321px;stroke-linecap:butt;stroke-linejoin:miter;stroke-opacity:1"
       d="m 86.815335,65.260676 c -0.01265,-2.25221 0.103671,-4.50649 -0.18094,-6.73771"
       id="path1217" />
    <path
       style="fill:none;stroke:#000000;stroke-width:0.394321px;stroke-linecap:butt;stroke-linejoin:miter;stroke-opacity:1"
       d="m 90.434087,59.586806 c -1.006503,5.11476 -6.71872,0.22438 -8.685016,4.0781"
       id="path1219" />
    <path
       style="fill:none;stroke:#000000;stroke-width:0.394321px;stroke-linecap:butt;stroke-linejoin:miter;stroke-opacity:1"
       d="m 86.634395,58.522966 c -2.808066,0.27503 -5.023861,-5.00841 -1.628442,-5.67388 1.677381,-0.32875 5.676954,2.29389 4.342515,4.25541 -0.611063,0.89821 -1.81425,0.97758 -2.714073,1.41847 z"
       id="path1221" />
    <text
       xml:space="preserve"
       style="font-style:normal;font-variant:normal;font-weight:normal;font-stretch:normal;font-size:3.52778px;line-height:1.25;font-family:sans-serif;-inkscape-font-specification:'sans-serif, Normal';font-variant-ligatures:normal;font-variant-caps:normal;font-variant-numeric:normal;font-variant-east-asian:normal;fill:#000000;fill-opacity:1;stroke:none;stroke-width:0.264583"
       x="78.41021"
       y="3.9499135"
       id="text1225"><tspan
         sodipodi:role="line"
         x="78.41021"
         y="3.9499135"
         style="font-style:normal;font-variant:normal;font-weight:normal;font-stretch:normal;font-size:3.52778px;font-family:sans-serif;-inkscape-font-specification:'sans-serif, Normal';font-variant-ligatures:normal;font-variant-caps:normal;font-variant-numeric:normal;font-variant-east-asian:normal;stroke-width:0.264583"
         id="tspan1227">Motion</tspan><tspan
         sodipodi:role="line"
         x="78.41021"
         y="8.3596382"
         style="font-style:normal;font-variant:normal;font-weight:normal;font-stretch:normal;font-size:3.52778px;font-family:sans-serif;-inkscape-font-specification:'sans-serif, Normal';font-variant-ligatures:normal;font-variant-caps:normal;font-variant-numeric:normal;font-variant-east-asian:normal;stroke-width:0.264583"
         id="tspan1231">detected</tspan></text>
    <path
       style="opacity:1;fill:#000000;fill-opacity:0.407258;stroke-width:0.264583"
       id="path1237"
       d="m 5.2681441,25.203736 c 0.38056,4.61868 0.209318,9.26471 0.0087,13.88839 -0.02105,1.47599 -0.192611,2.94684 -0.219025,4.42251 -0.0167,0.93304 0.04596,1.86957 0.08317,2.80151 0.006,0.2164 0.01208,0.43281 0.01812,0.64921 0,0 3.894541,-2.01846 3.894541,-2.01846 v 0 c -0.02323,-0.20568 -0.04647,-0.41136 -0.0697,-0.61704 -0.178819,-2.3272 -0.208387,-4.66113 -0.245553,-6.99415 -0.04929,-4.71448 0.01893,-9.4323 0.452072,-14.13052 0,0 -3.922366,1.99855 -3.922366,1.99855 z" />
    <path
       style="opacity:1;fill:#000000;fill-opacity:0.407258;stroke-width:0.264583"
       id="path1239"
       d="m 31.532773,25.238026 c 0.20983,3.93109 -0.01254,7.86725 -0.09491,11.79886 -0.01066,3.39851 -0.05954,6.79721 -0.149998,10.19455 -0.04708,0.75836 0.01143,1.51622 0.09751,2.26912 0,0 3.956634,-2.09577 3.956634,-2.09577 v 0 c -0.147579,-0.70007 -0.228888,-1.40989 -0.234082,-2.12653 -0.187412,-3.31822 -0.310806,-6.64255 -0.27119,-9.96653 0.04065,-4.0458 0.193072,-8.09689 0.701313,-12.11449 0,0 -4.005273,2.04079 -4.005273,2.04079 z" />
    <path
       style="opacity:1;fill:#000000;fill-opacity:0.407258;stroke-width:0.264583"
       id="path1241"
       d="m 58.149922,26.801396 c 0.246073,2.56739 0.112866,5.14825 0.0317,7.72005 -0.08448,2.19179 -0.18202,4.38299 -0.278064,6.57428 -0.0123,0.93746 -0.05048,1.87419 -0.06164,2.81165 -0.04715,0.54595 0.05632,1.06482 0.192733,1.58893 0,0 3.981622,-2.17379 3.981622,-2.17379 v 0 c -0.155943,-0.47268 -0.216662,-0.95211 -0.179155,-1.4511 -0.01217,-0.91802 -0.04718,-1.83568 -0.03748,-2.75394 -0.03586,-2.14772 -0.0275,-4.2956 0.03645,-6.44285 0.09149,-2.63646 0.146693,-5.27602 0.308742,-7.90874 0,0 -3.994909,2.03551 -3.994908,2.03551 z" />
    <path
       style="opacity:1;fill:#000000;fill-opacity:0.407258;stroke-width:0.264583"
       id="path1243"
       d="m 84.440461,27.617206 c 0.203049,2.28173 0.144783,4.57611 0.213678,6.86373 0.252174,2.9586 0.386006,5.92422 0.413406,8.893 -0.01043,0.78278 0.03609,1.56916 -0.02384,2.35078 0.02866,0.0563 0.05733,0.11263 0.08599,0.16896 0,0 3.952626,-2.28286 3.952626,-2.28286 v 0 c 0.0037,0.0132 0.0074,0.0264 0.01103,0.0396 -0.09548,-0.74585 -0.115646,-1.50035 -0.210137,-2.2466 -0.294804,-2.92718 -0.497134,-5.86332 -0.557255,-8.80539 -0.04743,-2.34379 -0.04853,-4.69441 0.140502,-7.03254 0,0 -4.025998,2.05135 -4.025998,2.05135 z" />
    <path
       style="opacity:1;fill:#000000;fill-opacity:0.407258;stroke-width:0.264583"
       id="path1245"
       d="m 111.66938,27.345266 c 0.31831,2.77009 0.36629,5.55996 0.40612,8.345 0.0142,2.35426 0.0352,4.70299 -0.1429,7.05181 -0.13244,1.03667 -0.16265,2.08179 -0.24909,3.12202 0,0 4.01015,-2.02637 4.01015,-2.02637 v 0 c -0.019,-1.00674 0.0671,-2.01287 0.0618,-3.01976 0.0523,-2.33302 0.14724,-4.66599 -0.0332,-6.99696 -0.0973,-2.83682 -0.26358,-5.68826 -0.0372,-8.52181 0,0 -4.01564,2.04607 -4.01564,2.04607 z" />
    <path
       style="opacity:1;fill:#000000;fill-opacity:0.407258;stroke-width:0.264583"
       id="path1247"
       d="m 137.06817,24.660206 c 0.40939,2.71478 0.39666,5.4696 0.38526,8.20816 -0.0541,1.66863 -0.0174,3.33744 -0.002,5.00621 -0.0456,1.27247 0.10117,2.5404 0.18094,3.80876 0.0533,0.78014 0.0419,1.56225 0.0414,2.34356 -0.002,0.0794 -0.003,0.15878 -0.005,0.23818 0,0 4.01979,-2.05203 4.01979,-2.05203 v 0 c -0.003,-0.0779 -0.006,-0.15586 -0.008,-0.23379 -0.0198,-0.77766 -0.0833,-1.55311 -0.12416,-2.3298 -0.0959,-1.24389 -0.26863,-2.48428 -0.26174,-3.73394 0.008,-1.653 0.029,-3.307 -0.11551,-4.95596 -0.13982,-2.77557 -0.26184,-5.55654 -0.11563,-8.33486 0,0 -3.99491,2.03551 -3.99491,2.03551 z" />
    <path
       style="opacity:1;fill:#000000;fill-opacity:0.407258;stroke-width:0.264583"
       id="path1249"
       d="m 164.29709,25.917696 c 0.31463,3.72947 0.3119,7.47729 0.26627,11.21687 -0.0341,2.1114 -0.13153,4.22093 -0.21969,6.33054 0,0 3.89139,-1.98277 3.89139,-1.98277 v 0 c -0.0888,-2.03492 -0.187,-4.0698 -0.2197,-6.10665 -0.0473,-3.8303 -0.0371,-7.66721 0.26628,-11.48822 0,0 -3.98455,2.03023 -3.98455,2.03023 z" />
    <path
       style="opacity:1;fill:#000000;fill-opacity:0.407258;stroke-width:0.264583"
       id="path1251"
       d="m 189.97067,26.087786 c 0.30452,2.91109 0.14271,5.84348 0.0143,8.75957 -0.11081,2.77676 -0.32315,5.54726 -0.5686,8.31481 0,0 3.64737,-1.83332 3.64737,-1.83332 v 0 c 0.0544,-2.7444 0.15282,-5.48829 0.39416,-8.2237 0.24503,-3.02116 0.36307,-6.0444 0.53875,-9.06871 0,0 -4.02601,2.05135 -4.02601,2.05135 z" />
    <circle
       style="fill:#000000;fill-opacity:0.407258;stroke-width:0.264583"
       id="path857-3-8-5-6"
       cx="192.3687"
       cy="23.279373"
       r="5.2916665" />
    <path
       style="fill:none;stroke:#000000;stroke-width:0.264583px;stroke-linecap:butt;stroke-linejoin:miter;stroke-opacity:1"
       d="m 94.985539,5.3367055 c 0.2846,-3.791563 4.44296,-0.39227 5.935311,0.20467 1.75255,0.70102 2.3804,-1.72077 3.68399,-2.04666 2.31584,-0.57896 3.47352,1.84199 5.93532,1.84199"
       id="path1282" />
    <path
       style="fill:none;stroke:#000000;stroke-width:0.264583px;stroke-linecap:butt;stroke-linejoin:miter;stroke-opacity:1"
       d="m 109.03709,7.0701055 c 0.10321,-0.71698 1.87148,-1.32069 1.38815,-2.04569 -0.31819,-0.47729 -0.69551,-0.80653 -0.94978,-1.31509"
       id="path1284" />
    <text
       xml:space="preserve"
       style="font-style:normal;font-variant:normal;font-weight:normal;font-stretch:normal;font-size:3.52778px;line-height:1.25;font-family:sans-serif;-inkscape-font-specification:'sans-serif, Normal';font-variant-ligatures:normal;font-variant-caps:normal;font-variant-numeric:normal;font-variant-east-asian:normal;fill:#000000;fill-opacity:1;stroke:none;stroke-width:0.264583"
       x="113.20154"
       y="3.9285131"
       id="text1288"><tspan
         sodipodi:role="line"
         id="tspan1294"
         x="113.20154"
         y="3.9285131">Signaled to</tspan><tspan
         sodipodi:role="line"
         id="tspan1296"
         x="113.20154"
         y="8.3382378">neighbours</tspan></text>
    <path
       style="fill:none;stroke:#000000;stroke-width:0.252793px;stroke-linecap:butt;stroke-linejoin:miter;stroke-opacity:1"
       d="m 75.745334,5.6172855 c -0.261272,-3.77018 -4.078793,-0.39006 -5.448823,0.20352 -1.608902,0.69706 -2.185291,-1.71107 -3.382032,-2.03512 -2.126022,-0.5757 -3.188813,1.8316 -5.448833,1.8316"
       id="path1282-3" />
    <path
       style="fill:none;stroke:#000000;stroke-width:0.252793px;stroke-linecap:butt;stroke-linejoin:miter;stroke-opacity:1"
       d="m 62.845518,7.3409155 c -0.09475,-0.71294 -1.718085,-1.31325 -1.274372,-2.03416 0.292111,-0.4746 0.638504,-0.80198 0.871932,-1.30767"
       id="path1284-1" />
    <text
       xml:space="preserve"
       style="font-style:normal;font-variant:normal;font-weight:normal;font-stretch:normal;font-size:3.52778px;line-height:1.25;font-family:sans-serif;-inkscape-font-specification:'sans-serif, Normal';font-variant-ligatures:normal;font-variant-caps:normal;font-variant-numeric:normal;font-variant-east-asian:normal;fill:#000000;fill-opacity:1;stroke:none;stroke-width:0.264583"
       x="38.009125"
       y="3.9378819"
       id="text1288-1"><tspan
         sodipodi:role="line"
         id="tspan1294-4"
         x="38.009125"
         y="3.9378819">Signaled to</tspan><tspan
         sodipodi:role="line"
         id="tspan1296-9"
         x="38.009125"
         y="8.3476067">neighbours</tspan></text>
  </g>
</svg>
