G04 #@! TF.GenerationSoftware,KiCad,Pcbnew,(5.1.6-0-10_14)*
G04 #@! TF.CreationDate,2021-01-15T18:00:30+01:00*
G04 #@! TF.ProjectId,cdm324,63646d33-3234-42e6-9b69-6361645f7063,rev?*
G04 #@! TF.SameCoordinates,Original*
G04 #@! TF.FileFunction,Soldermask,Bot*
G04 #@! TF.FilePolarity,Negative*
%FSLAX46Y46*%
G04 Gerber Fmt 4.6, Leading zero omitted, Abs format (unit mm)*
G04 Created by KiCad (PCBNEW (5.1.6-0-10_14)) date 2021-01-15 18:00:30*
%MOMM*%
%LPD*%
G01*
G04 APERTURE LIST*
G04 #@! TA.AperFunction,Profile*
%ADD10C,0.150000*%
G04 #@! TD*
%ADD11C,0.150000*%
G04 APERTURE END LIST*
D10*
X85350000Y-132600000D02*
X85350000Y-68100000D01*
X114850000Y-132600000D02*
X85350000Y-132600000D01*
X114850000Y-68100000D02*
X114850000Y-132600000D01*
X85350000Y-68100000D02*
X114850000Y-68100000D01*
D11*
G36*
X108527105Y-121926508D02*
G01*
X108699994Y-121998121D01*
X108855590Y-122102087D01*
X108987913Y-122234410D01*
X109091879Y-122390006D01*
X109163492Y-122562895D01*
X109200000Y-122746433D01*
X109200000Y-122933567D01*
X109163492Y-123117105D01*
X109091879Y-123289994D01*
X108987913Y-123445590D01*
X108855590Y-123577913D01*
X108699994Y-123681879D01*
X108527105Y-123753492D01*
X108343567Y-123790000D01*
X108156433Y-123790000D01*
X107972895Y-123753492D01*
X107800006Y-123681879D01*
X107644410Y-123577913D01*
X107512087Y-123445590D01*
X107408121Y-123289994D01*
X107336508Y-123117105D01*
X107300000Y-122933567D01*
X107300000Y-122746433D01*
X107336508Y-122562895D01*
X107408121Y-122390006D01*
X107512087Y-122234410D01*
X107644410Y-122102087D01*
X107800006Y-121998121D01*
X107972895Y-121926508D01*
X108156433Y-121890000D01*
X108343567Y-121890000D01*
X108527105Y-121926508D01*
G37*
G36*
X104027105Y-121926508D02*
G01*
X104199994Y-121998121D01*
X104355590Y-122102087D01*
X104487913Y-122234410D01*
X104591879Y-122390006D01*
X104663492Y-122562895D01*
X104700000Y-122746433D01*
X104700000Y-122933567D01*
X104663492Y-123117105D01*
X104591879Y-123289994D01*
X104487913Y-123445590D01*
X104355590Y-123577913D01*
X104199994Y-123681879D01*
X104027105Y-123753492D01*
X103843567Y-123790000D01*
X103656433Y-123790000D01*
X103472895Y-123753492D01*
X103300006Y-123681879D01*
X103144410Y-123577913D01*
X103012087Y-123445590D01*
X102908121Y-123289994D01*
X102836508Y-123117105D01*
X102800000Y-122933567D01*
X102800000Y-122746433D01*
X102836508Y-122562895D01*
X102908121Y-122390006D01*
X103012087Y-122234410D01*
X103144410Y-122102087D01*
X103300006Y-121998121D01*
X103472895Y-121926508D01*
X103656433Y-121890000D01*
X103843567Y-121890000D01*
X104027105Y-121926508D01*
G37*
G36*
X114017105Y-110786508D02*
G01*
X114189994Y-110858121D01*
X114345590Y-110962087D01*
X114477913Y-111094410D01*
X114581879Y-111250006D01*
X114653492Y-111422895D01*
X114690000Y-111606433D01*
X114690000Y-111793567D01*
X114653492Y-111977105D01*
X114581879Y-112149994D01*
X114477913Y-112305590D01*
X114345590Y-112437913D01*
X114189994Y-112541879D01*
X114017105Y-112613492D01*
X113833567Y-112650000D01*
X113646433Y-112650000D01*
X113462895Y-112613492D01*
X113290006Y-112541879D01*
X113134410Y-112437913D01*
X113002087Y-112305590D01*
X112898121Y-112149994D01*
X112826508Y-111977105D01*
X112790000Y-111793567D01*
X112790000Y-111606433D01*
X112826508Y-111422895D01*
X112898121Y-111250006D01*
X113002087Y-111094410D01*
X113134410Y-110962087D01*
X113290006Y-110858121D01*
X113462895Y-110786508D01*
X113646433Y-110750000D01*
X113833567Y-110750000D01*
X114017105Y-110786508D01*
G37*
G36*
X86737105Y-110786508D02*
G01*
X86909994Y-110858121D01*
X87065590Y-110962087D01*
X87197913Y-111094410D01*
X87301879Y-111250006D01*
X87373492Y-111422895D01*
X87410000Y-111606433D01*
X87410000Y-111793567D01*
X87373492Y-111977105D01*
X87301879Y-112149994D01*
X87197913Y-112305590D01*
X87065590Y-112437913D01*
X86909994Y-112541879D01*
X86737105Y-112613492D01*
X86553567Y-112650000D01*
X86366433Y-112650000D01*
X86182895Y-112613492D01*
X86010006Y-112541879D01*
X85854410Y-112437913D01*
X85722087Y-112305590D01*
X85618121Y-112149994D01*
X85546508Y-111977105D01*
X85510000Y-111793567D01*
X85510000Y-111606433D01*
X85546508Y-111422895D01*
X85618121Y-111250006D01*
X85722087Y-111094410D01*
X85854410Y-110962087D01*
X86010006Y-110858121D01*
X86182895Y-110786508D01*
X86366433Y-110750000D01*
X86553567Y-110750000D01*
X86737105Y-110786508D01*
G37*
G36*
X114017105Y-108246508D02*
G01*
X114189994Y-108318121D01*
X114345590Y-108422087D01*
X114477913Y-108554410D01*
X114581879Y-108710006D01*
X114653492Y-108882895D01*
X114690000Y-109066433D01*
X114690000Y-109253567D01*
X114653492Y-109437105D01*
X114581879Y-109609994D01*
X114477913Y-109765590D01*
X114345590Y-109897913D01*
X114189994Y-110001879D01*
X114017105Y-110073492D01*
X113833567Y-110110000D01*
X113646433Y-110110000D01*
X113462895Y-110073492D01*
X113290006Y-110001879D01*
X113134410Y-109897913D01*
X113002087Y-109765590D01*
X112898121Y-109609994D01*
X112826508Y-109437105D01*
X112790000Y-109253567D01*
X112790000Y-109066433D01*
X112826508Y-108882895D01*
X112898121Y-108710006D01*
X113002087Y-108554410D01*
X113134410Y-108422087D01*
X113290006Y-108318121D01*
X113462895Y-108246508D01*
X113646433Y-108210000D01*
X113833567Y-108210000D01*
X114017105Y-108246508D01*
G37*
G36*
X86737105Y-108246508D02*
G01*
X86909994Y-108318121D01*
X87065590Y-108422087D01*
X87197913Y-108554410D01*
X87301879Y-108710006D01*
X87373492Y-108882895D01*
X87410000Y-109066433D01*
X87410000Y-109253567D01*
X87373492Y-109437105D01*
X87301879Y-109609994D01*
X87197913Y-109765590D01*
X87065590Y-109897913D01*
X86909994Y-110001879D01*
X86737105Y-110073492D01*
X86553567Y-110110000D01*
X86366433Y-110110000D01*
X86182895Y-110073492D01*
X86010006Y-110001879D01*
X85854410Y-109897913D01*
X85722087Y-109765590D01*
X85618121Y-109609994D01*
X85546508Y-109437105D01*
X85510000Y-109253567D01*
X85510000Y-109066433D01*
X85546508Y-108882895D01*
X85618121Y-108710006D01*
X85722087Y-108554410D01*
X85854410Y-108422087D01*
X86010006Y-108318121D01*
X86182895Y-108246508D01*
X86366433Y-108210000D01*
X86553567Y-108210000D01*
X86737105Y-108246508D01*
G37*
G36*
X114017105Y-105706508D02*
G01*
X114189994Y-105778121D01*
X114345590Y-105882087D01*
X114477913Y-106014410D01*
X114581879Y-106170006D01*
X114653492Y-106342895D01*
X114690000Y-106526433D01*
X114690000Y-106713567D01*
X114653492Y-106897105D01*
X114581879Y-107069994D01*
X114477913Y-107225590D01*
X114345590Y-107357913D01*
X114189994Y-107461879D01*
X114017105Y-107533492D01*
X113833567Y-107570000D01*
X113646433Y-107570000D01*
X113462895Y-107533492D01*
X113290006Y-107461879D01*
X113134410Y-107357913D01*
X113002087Y-107225590D01*
X112898121Y-107069994D01*
X112826508Y-106897105D01*
X112790000Y-106713567D01*
X112790000Y-106526433D01*
X112826508Y-106342895D01*
X112898121Y-106170006D01*
X113002087Y-106014410D01*
X113134410Y-105882087D01*
X113290006Y-105778121D01*
X113462895Y-105706508D01*
X113646433Y-105670000D01*
X113833567Y-105670000D01*
X114017105Y-105706508D01*
G37*
G36*
X86737105Y-105706508D02*
G01*
X86909994Y-105778121D01*
X87065590Y-105882087D01*
X87197913Y-106014410D01*
X87301879Y-106170006D01*
X87373492Y-106342895D01*
X87410000Y-106526433D01*
X87410000Y-106713567D01*
X87373492Y-106897105D01*
X87301879Y-107069994D01*
X87197913Y-107225590D01*
X87065590Y-107357913D01*
X86909994Y-107461879D01*
X86737105Y-107533492D01*
X86553567Y-107570000D01*
X86366433Y-107570000D01*
X86182895Y-107533492D01*
X86010006Y-107461879D01*
X85854410Y-107357913D01*
X85722087Y-107225590D01*
X85618121Y-107069994D01*
X85546508Y-106897105D01*
X85510000Y-106713567D01*
X85510000Y-106526433D01*
X85546508Y-106342895D01*
X85618121Y-106170006D01*
X85722087Y-106014410D01*
X85854410Y-105882087D01*
X86010006Y-105778121D01*
X86182895Y-105706508D01*
X86366433Y-105670000D01*
X86553567Y-105670000D01*
X86737105Y-105706508D01*
G37*
G36*
X86737105Y-103166508D02*
G01*
X86909994Y-103238121D01*
X87065590Y-103342087D01*
X87197913Y-103474410D01*
X87301879Y-103630006D01*
X87373492Y-103802895D01*
X87410000Y-103986433D01*
X87410000Y-104173567D01*
X87373492Y-104357105D01*
X87301879Y-104529994D01*
X87197913Y-104685590D01*
X87065590Y-104817913D01*
X86909994Y-104921879D01*
X86737105Y-104993492D01*
X86553567Y-105030000D01*
X86366433Y-105030000D01*
X86182895Y-104993492D01*
X86010006Y-104921879D01*
X85854410Y-104817913D01*
X85722087Y-104685590D01*
X85618121Y-104529994D01*
X85546508Y-104357105D01*
X85510000Y-104173567D01*
X85510000Y-103986433D01*
X85546508Y-103802895D01*
X85618121Y-103630006D01*
X85722087Y-103474410D01*
X85854410Y-103342087D01*
X86010006Y-103238121D01*
X86182895Y-103166508D01*
X86366433Y-103130000D01*
X86553567Y-103130000D01*
X86737105Y-103166508D01*
G37*
G36*
X114017105Y-103166508D02*
G01*
X114189994Y-103238121D01*
X114345590Y-103342087D01*
X114477913Y-103474410D01*
X114581879Y-103630006D01*
X114653492Y-103802895D01*
X114690000Y-103986433D01*
X114690000Y-104173567D01*
X114653492Y-104357105D01*
X114581879Y-104529994D01*
X114477913Y-104685590D01*
X114345590Y-104817913D01*
X114189994Y-104921879D01*
X114017105Y-104993492D01*
X113833567Y-105030000D01*
X113646433Y-105030000D01*
X113462895Y-104993492D01*
X113290006Y-104921879D01*
X113134410Y-104817913D01*
X113002087Y-104685590D01*
X112898121Y-104529994D01*
X112826508Y-104357105D01*
X112790000Y-104173567D01*
X112790000Y-103986433D01*
X112826508Y-103802895D01*
X112898121Y-103630006D01*
X113002087Y-103474410D01*
X113134410Y-103342087D01*
X113290006Y-103238121D01*
X113462895Y-103166508D01*
X113646433Y-103130000D01*
X113833567Y-103130000D01*
X114017105Y-103166508D01*
G37*
G36*
X86737105Y-100626508D02*
G01*
X86909994Y-100698121D01*
X87065590Y-100802087D01*
X87197913Y-100934410D01*
X87301879Y-101090006D01*
X87373492Y-101262895D01*
X87410000Y-101446433D01*
X87410000Y-101633567D01*
X87373492Y-101817105D01*
X87301879Y-101989994D01*
X87197913Y-102145590D01*
X87065590Y-102277913D01*
X86909994Y-102381879D01*
X86737105Y-102453492D01*
X86553567Y-102490000D01*
X86366433Y-102490000D01*
X86182895Y-102453492D01*
X86010006Y-102381879D01*
X85854410Y-102277913D01*
X85722087Y-102145590D01*
X85618121Y-101989994D01*
X85546508Y-101817105D01*
X85510000Y-101633567D01*
X85510000Y-101446433D01*
X85546508Y-101262895D01*
X85618121Y-101090006D01*
X85722087Y-100934410D01*
X85854410Y-100802087D01*
X86010006Y-100698121D01*
X86182895Y-100626508D01*
X86366433Y-100590000D01*
X86553567Y-100590000D01*
X86737105Y-100626508D01*
G37*
G36*
X114017105Y-100626508D02*
G01*
X114189994Y-100698121D01*
X114345590Y-100802087D01*
X114477913Y-100934410D01*
X114581879Y-101090006D01*
X114653492Y-101262895D01*
X114690000Y-101446433D01*
X114690000Y-101633567D01*
X114653492Y-101817105D01*
X114581879Y-101989994D01*
X114477913Y-102145590D01*
X114345590Y-102277913D01*
X114189994Y-102381879D01*
X114017105Y-102453492D01*
X113833567Y-102490000D01*
X113646433Y-102490000D01*
X113462895Y-102453492D01*
X113290006Y-102381879D01*
X113134410Y-102277913D01*
X113002087Y-102145590D01*
X112898121Y-101989994D01*
X112826508Y-101817105D01*
X112790000Y-101633567D01*
X112790000Y-101446433D01*
X112826508Y-101262895D01*
X112898121Y-101090006D01*
X113002087Y-100934410D01*
X113134410Y-100802087D01*
X113290006Y-100698121D01*
X113462895Y-100626508D01*
X113646433Y-100590000D01*
X113833567Y-100590000D01*
X114017105Y-100626508D01*
G37*
G36*
X86737105Y-98086508D02*
G01*
X86909994Y-98158121D01*
X87065590Y-98262087D01*
X87197913Y-98394410D01*
X87301879Y-98550006D01*
X87373492Y-98722895D01*
X87410000Y-98906433D01*
X87410000Y-99093567D01*
X87373492Y-99277105D01*
X87301879Y-99449994D01*
X87197913Y-99605590D01*
X87065590Y-99737913D01*
X86909994Y-99841879D01*
X86737105Y-99913492D01*
X86553567Y-99950000D01*
X86366433Y-99950000D01*
X86182895Y-99913492D01*
X86010006Y-99841879D01*
X85854410Y-99737913D01*
X85722087Y-99605590D01*
X85618121Y-99449994D01*
X85546508Y-99277105D01*
X85510000Y-99093567D01*
X85510000Y-98906433D01*
X85546508Y-98722895D01*
X85618121Y-98550006D01*
X85722087Y-98394410D01*
X85854410Y-98262087D01*
X86010006Y-98158121D01*
X86182895Y-98086508D01*
X86366433Y-98050000D01*
X86553567Y-98050000D01*
X86737105Y-98086508D01*
G37*
G36*
X114017105Y-98086508D02*
G01*
X114189994Y-98158121D01*
X114345590Y-98262087D01*
X114477913Y-98394410D01*
X114581879Y-98550006D01*
X114653492Y-98722895D01*
X114690000Y-98906433D01*
X114690000Y-99093567D01*
X114653492Y-99277105D01*
X114581879Y-99449994D01*
X114477913Y-99605590D01*
X114345590Y-99737913D01*
X114189994Y-99841879D01*
X114017105Y-99913492D01*
X113833567Y-99950000D01*
X113646433Y-99950000D01*
X113462895Y-99913492D01*
X113290006Y-99841879D01*
X113134410Y-99737913D01*
X113002087Y-99605590D01*
X112898121Y-99449994D01*
X112826508Y-99277105D01*
X112790000Y-99093567D01*
X112790000Y-98906433D01*
X112826508Y-98722895D01*
X112898121Y-98550006D01*
X113002087Y-98394410D01*
X113134410Y-98262087D01*
X113290006Y-98158121D01*
X113462895Y-98086508D01*
X113646433Y-98050000D01*
X113833567Y-98050000D01*
X114017105Y-98086508D01*
G37*
G36*
X86737105Y-95546508D02*
G01*
X86909994Y-95618121D01*
X87065590Y-95722087D01*
X87197913Y-95854410D01*
X87301879Y-96010006D01*
X87373492Y-96182895D01*
X87410000Y-96366433D01*
X87410000Y-96553567D01*
X87373492Y-96737105D01*
X87301879Y-96909994D01*
X87197913Y-97065590D01*
X87065590Y-97197913D01*
X86909994Y-97301879D01*
X86737105Y-97373492D01*
X86553567Y-97410000D01*
X86366433Y-97410000D01*
X86182895Y-97373492D01*
X86010006Y-97301879D01*
X85854410Y-97197913D01*
X85722087Y-97065590D01*
X85618121Y-96909994D01*
X85546508Y-96737105D01*
X85510000Y-96553567D01*
X85510000Y-96366433D01*
X85546508Y-96182895D01*
X85618121Y-96010006D01*
X85722087Y-95854410D01*
X85854410Y-95722087D01*
X86010006Y-95618121D01*
X86182895Y-95546508D01*
X86366433Y-95510000D01*
X86553567Y-95510000D01*
X86737105Y-95546508D01*
G37*
G36*
X114017105Y-95546508D02*
G01*
X114189994Y-95618121D01*
X114345590Y-95722087D01*
X114477913Y-95854410D01*
X114581879Y-96010006D01*
X114653492Y-96182895D01*
X114690000Y-96366433D01*
X114690000Y-96553567D01*
X114653492Y-96737105D01*
X114581879Y-96909994D01*
X114477913Y-97065590D01*
X114345590Y-97197913D01*
X114189994Y-97301879D01*
X114017105Y-97373492D01*
X113833567Y-97410000D01*
X113646433Y-97410000D01*
X113462895Y-97373492D01*
X113290006Y-97301879D01*
X113134410Y-97197913D01*
X113002087Y-97065590D01*
X112898121Y-96909994D01*
X112826508Y-96737105D01*
X112790000Y-96553567D01*
X112790000Y-96366433D01*
X112826508Y-96182895D01*
X112898121Y-96010006D01*
X113002087Y-95854410D01*
X113134410Y-95722087D01*
X113290006Y-95618121D01*
X113462895Y-95546508D01*
X113646433Y-95510000D01*
X113833567Y-95510000D01*
X114017105Y-95546508D01*
G37*
G36*
X103067105Y-94086508D02*
G01*
X103239994Y-94158121D01*
X103395590Y-94262087D01*
X103527913Y-94394410D01*
X103631879Y-94550006D01*
X103703492Y-94722895D01*
X103740000Y-94906433D01*
X103740000Y-95093567D01*
X103703492Y-95277105D01*
X103631879Y-95449994D01*
X103527913Y-95605590D01*
X103395590Y-95737913D01*
X103239994Y-95841879D01*
X103067105Y-95913492D01*
X102883567Y-95950000D01*
X102696433Y-95950000D01*
X102512895Y-95913492D01*
X102340006Y-95841879D01*
X102184410Y-95737913D01*
X102052087Y-95605590D01*
X101948121Y-95449994D01*
X101876508Y-95277105D01*
X101840000Y-95093567D01*
X101840000Y-94906433D01*
X101876508Y-94722895D01*
X101948121Y-94550006D01*
X102052087Y-94394410D01*
X102184410Y-94262087D01*
X102340006Y-94158121D01*
X102512895Y-94086508D01*
X102696433Y-94050000D01*
X102883567Y-94050000D01*
X103067105Y-94086508D01*
G37*
G36*
X100527105Y-94086508D02*
G01*
X100699994Y-94158121D01*
X100855590Y-94262087D01*
X100987913Y-94394410D01*
X101091879Y-94550006D01*
X101163492Y-94722895D01*
X101200000Y-94906433D01*
X101200000Y-95093567D01*
X101163492Y-95277105D01*
X101091879Y-95449994D01*
X100987913Y-95605590D01*
X100855590Y-95737913D01*
X100699994Y-95841879D01*
X100527105Y-95913492D01*
X100343567Y-95950000D01*
X100156433Y-95950000D01*
X99972895Y-95913492D01*
X99800006Y-95841879D01*
X99644410Y-95737913D01*
X99512087Y-95605590D01*
X99408121Y-95449994D01*
X99336508Y-95277105D01*
X99300000Y-95093567D01*
X99300000Y-94906433D01*
X99336508Y-94722895D01*
X99408121Y-94550006D01*
X99512087Y-94394410D01*
X99644410Y-94262087D01*
X99800006Y-94158121D01*
X99972895Y-94086508D01*
X100156433Y-94050000D01*
X100343567Y-94050000D01*
X100527105Y-94086508D01*
G37*
G36*
X97987105Y-94086508D02*
G01*
X98159994Y-94158121D01*
X98315590Y-94262087D01*
X98447913Y-94394410D01*
X98551879Y-94550006D01*
X98623492Y-94722895D01*
X98660000Y-94906433D01*
X98660000Y-95093567D01*
X98623492Y-95277105D01*
X98551879Y-95449994D01*
X98447913Y-95605590D01*
X98315590Y-95737913D01*
X98159994Y-95841879D01*
X97987105Y-95913492D01*
X97803567Y-95950000D01*
X97616433Y-95950000D01*
X97432895Y-95913492D01*
X97260006Y-95841879D01*
X97104410Y-95737913D01*
X96972087Y-95605590D01*
X96868121Y-95449994D01*
X96796508Y-95277105D01*
X96760000Y-95093567D01*
X96760000Y-94906433D01*
X96796508Y-94722895D01*
X96868121Y-94550006D01*
X96972087Y-94394410D01*
X97104410Y-94262087D01*
X97260006Y-94158121D01*
X97432895Y-94086508D01*
X97616433Y-94050000D01*
X97803567Y-94050000D01*
X97987105Y-94086508D01*
G37*
G36*
X86737105Y-93006508D02*
G01*
X86909994Y-93078121D01*
X87065590Y-93182087D01*
X87197913Y-93314410D01*
X87301879Y-93470006D01*
X87373492Y-93642895D01*
X87410000Y-93826433D01*
X87410000Y-94013567D01*
X87373492Y-94197105D01*
X87301879Y-94369994D01*
X87197913Y-94525590D01*
X87065590Y-94657913D01*
X86909994Y-94761879D01*
X86737105Y-94833492D01*
X86553567Y-94870000D01*
X86366433Y-94870000D01*
X86182895Y-94833492D01*
X86010006Y-94761879D01*
X85854410Y-94657913D01*
X85722087Y-94525590D01*
X85618121Y-94369994D01*
X85546508Y-94197105D01*
X85510000Y-94013567D01*
X85510000Y-93826433D01*
X85546508Y-93642895D01*
X85618121Y-93470006D01*
X85722087Y-93314410D01*
X85854410Y-93182087D01*
X86010006Y-93078121D01*
X86182895Y-93006508D01*
X86366433Y-92970000D01*
X86553567Y-92970000D01*
X86737105Y-93006508D01*
G37*
G36*
X114017105Y-93006508D02*
G01*
X114189994Y-93078121D01*
X114345590Y-93182087D01*
X114477913Y-93314410D01*
X114581879Y-93470006D01*
X114653492Y-93642895D01*
X114690000Y-93826433D01*
X114690000Y-94013567D01*
X114653492Y-94197105D01*
X114581879Y-94369994D01*
X114477913Y-94525590D01*
X114345590Y-94657913D01*
X114189994Y-94761879D01*
X114017105Y-94833492D01*
X113833567Y-94870000D01*
X113646433Y-94870000D01*
X113462895Y-94833492D01*
X113290006Y-94761879D01*
X113134410Y-94657913D01*
X113002087Y-94525590D01*
X112898121Y-94369994D01*
X112826508Y-94197105D01*
X112790000Y-94013567D01*
X112790000Y-93826433D01*
X112826508Y-93642895D01*
X112898121Y-93470006D01*
X113002087Y-93314410D01*
X113134410Y-93182087D01*
X113290006Y-93078121D01*
X113462895Y-93006508D01*
X113646433Y-92970000D01*
X113833567Y-92970000D01*
X114017105Y-93006508D01*
G37*
G36*
X97653708Y-92005158D02*
G01*
X97699345Y-92019001D01*
X97741400Y-92041480D01*
X97778265Y-92071735D01*
X97808520Y-92108600D01*
X97830999Y-92150655D01*
X97844842Y-92196292D01*
X97850000Y-92248658D01*
X97850000Y-93351342D01*
X97844842Y-93403708D01*
X97830999Y-93449345D01*
X97808520Y-93491400D01*
X97778265Y-93528265D01*
X97741400Y-93558520D01*
X97699345Y-93580999D01*
X97653708Y-93594842D01*
X97601342Y-93600000D01*
X96923658Y-93600000D01*
X96871292Y-93594842D01*
X96825655Y-93580999D01*
X96783600Y-93558520D01*
X96746735Y-93528265D01*
X96716480Y-93491400D01*
X96694001Y-93449345D01*
X96680158Y-93403708D01*
X96675000Y-93351342D01*
X96675000Y-92248658D01*
X96680158Y-92196292D01*
X96694001Y-92150655D01*
X96716480Y-92108600D01*
X96746735Y-92071735D01*
X96783600Y-92041480D01*
X96825655Y-92019001D01*
X96871292Y-92005158D01*
X96923658Y-92000000D01*
X97601342Y-92000000D01*
X97653708Y-92005158D01*
G37*
G36*
X99528708Y-92005158D02*
G01*
X99574345Y-92019001D01*
X99616400Y-92041480D01*
X99653265Y-92071735D01*
X99683520Y-92108600D01*
X99705999Y-92150655D01*
X99719842Y-92196292D01*
X99725000Y-92248658D01*
X99725000Y-93351342D01*
X99719842Y-93403708D01*
X99705999Y-93449345D01*
X99683520Y-93491400D01*
X99653265Y-93528265D01*
X99616400Y-93558520D01*
X99574345Y-93580999D01*
X99528708Y-93594842D01*
X99476342Y-93600000D01*
X98798658Y-93600000D01*
X98746292Y-93594842D01*
X98700655Y-93580999D01*
X98658600Y-93558520D01*
X98621735Y-93528265D01*
X98591480Y-93491400D01*
X98569001Y-93449345D01*
X98555158Y-93403708D01*
X98550000Y-93351342D01*
X98550000Y-92248658D01*
X98555158Y-92196292D01*
X98569001Y-92150655D01*
X98591480Y-92108600D01*
X98621735Y-92071735D01*
X98658600Y-92041480D01*
X98700655Y-92019001D01*
X98746292Y-92005158D01*
X98798658Y-92000000D01*
X99476342Y-92000000D01*
X99528708Y-92005158D01*
G37*
G36*
X86737105Y-90466508D02*
G01*
X86909994Y-90538121D01*
X87065590Y-90642087D01*
X87197913Y-90774410D01*
X87301879Y-90930006D01*
X87373492Y-91102895D01*
X87410000Y-91286433D01*
X87410000Y-91473567D01*
X87373492Y-91657105D01*
X87301879Y-91829994D01*
X87197913Y-91985590D01*
X87065590Y-92117913D01*
X86909994Y-92221879D01*
X86737105Y-92293492D01*
X86553567Y-92330000D01*
X86366433Y-92330000D01*
X86182895Y-92293492D01*
X86010006Y-92221879D01*
X85854410Y-92117913D01*
X85722087Y-91985590D01*
X85618121Y-91829994D01*
X85546508Y-91657105D01*
X85510000Y-91473567D01*
X85510000Y-91286433D01*
X85546508Y-91102895D01*
X85618121Y-90930006D01*
X85722087Y-90774410D01*
X85854410Y-90642087D01*
X86010006Y-90538121D01*
X86182895Y-90466508D01*
X86366433Y-90430000D01*
X86553567Y-90430000D01*
X86737105Y-90466508D01*
G37*
G36*
X114017105Y-90466508D02*
G01*
X114189994Y-90538121D01*
X114345590Y-90642087D01*
X114477913Y-90774410D01*
X114581879Y-90930006D01*
X114653492Y-91102895D01*
X114690000Y-91286433D01*
X114690000Y-91473567D01*
X114653492Y-91657105D01*
X114581879Y-91829994D01*
X114477913Y-91985590D01*
X114345590Y-92117913D01*
X114189994Y-92221879D01*
X114017105Y-92293492D01*
X113833567Y-92330000D01*
X113646433Y-92330000D01*
X113462895Y-92293492D01*
X113290006Y-92221879D01*
X113134410Y-92117913D01*
X113002087Y-91985590D01*
X112898121Y-91829994D01*
X112826508Y-91657105D01*
X112790000Y-91473567D01*
X112790000Y-91286433D01*
X112826508Y-91102895D01*
X112898121Y-90930006D01*
X113002087Y-90774410D01*
X113134410Y-90642087D01*
X113290006Y-90538121D01*
X113462895Y-90466508D01*
X113646433Y-90430000D01*
X113833567Y-90430000D01*
X114017105Y-90466508D01*
G37*
G36*
X114017105Y-87926508D02*
G01*
X114189994Y-87998121D01*
X114345590Y-88102087D01*
X114477913Y-88234410D01*
X114581879Y-88390006D01*
X114653492Y-88562895D01*
X114690000Y-88746433D01*
X114690000Y-88933567D01*
X114653492Y-89117105D01*
X114581879Y-89289994D01*
X114477913Y-89445590D01*
X114345590Y-89577913D01*
X114189994Y-89681879D01*
X114017105Y-89753492D01*
X113833567Y-89790000D01*
X113646433Y-89790000D01*
X113462895Y-89753492D01*
X113290006Y-89681879D01*
X113134410Y-89577913D01*
X113002087Y-89445590D01*
X112898121Y-89289994D01*
X112826508Y-89117105D01*
X112790000Y-88933567D01*
X112790000Y-88746433D01*
X112826508Y-88562895D01*
X112898121Y-88390006D01*
X113002087Y-88234410D01*
X113134410Y-88102087D01*
X113290006Y-87998121D01*
X113462895Y-87926508D01*
X113646433Y-87890000D01*
X113833567Y-87890000D01*
X114017105Y-87926508D01*
G37*
G36*
X86737105Y-87926508D02*
G01*
X86909994Y-87998121D01*
X87065590Y-88102087D01*
X87197913Y-88234410D01*
X87301879Y-88390006D01*
X87373492Y-88562895D01*
X87410000Y-88746433D01*
X87410000Y-88933567D01*
X87373492Y-89117105D01*
X87301879Y-89289994D01*
X87197913Y-89445590D01*
X87065590Y-89577913D01*
X86909994Y-89681879D01*
X86737105Y-89753492D01*
X86553567Y-89790000D01*
X86366433Y-89790000D01*
X86182895Y-89753492D01*
X86010006Y-89681879D01*
X85854410Y-89577913D01*
X85722087Y-89445590D01*
X85618121Y-89289994D01*
X85546508Y-89117105D01*
X85510000Y-88933567D01*
X85510000Y-88746433D01*
X85546508Y-88562895D01*
X85618121Y-88390006D01*
X85722087Y-88234410D01*
X85854410Y-88102087D01*
X86010006Y-87998121D01*
X86182895Y-87926508D01*
X86366433Y-87890000D01*
X86553567Y-87890000D01*
X86737105Y-87926508D01*
G37*
G36*
X114017105Y-85386508D02*
G01*
X114189994Y-85458121D01*
X114345590Y-85562087D01*
X114477913Y-85694410D01*
X114581879Y-85850006D01*
X114653492Y-86022895D01*
X114690000Y-86206433D01*
X114690000Y-86393567D01*
X114653492Y-86577105D01*
X114581879Y-86749994D01*
X114477913Y-86905590D01*
X114345590Y-87037913D01*
X114189994Y-87141879D01*
X114017105Y-87213492D01*
X113833567Y-87250000D01*
X113646433Y-87250000D01*
X113462895Y-87213492D01*
X113290006Y-87141879D01*
X113134410Y-87037913D01*
X113002087Y-86905590D01*
X112898121Y-86749994D01*
X112826508Y-86577105D01*
X112790000Y-86393567D01*
X112790000Y-86206433D01*
X112826508Y-86022895D01*
X112898121Y-85850006D01*
X113002087Y-85694410D01*
X113134410Y-85562087D01*
X113290006Y-85458121D01*
X113462895Y-85386508D01*
X113646433Y-85350000D01*
X113833567Y-85350000D01*
X114017105Y-85386508D01*
G37*
G36*
X86737105Y-85386508D02*
G01*
X86909994Y-85458121D01*
X87065590Y-85562087D01*
X87197913Y-85694410D01*
X87301879Y-85850006D01*
X87373492Y-86022895D01*
X87410000Y-86206433D01*
X87410000Y-86393567D01*
X87373492Y-86577105D01*
X87301879Y-86749994D01*
X87197913Y-86905590D01*
X87065590Y-87037913D01*
X86909994Y-87141879D01*
X86737105Y-87213492D01*
X86553567Y-87250000D01*
X86366433Y-87250000D01*
X86182895Y-87213492D01*
X86010006Y-87141879D01*
X85854410Y-87037913D01*
X85722087Y-86905590D01*
X85618121Y-86749994D01*
X85546508Y-86577105D01*
X85510000Y-86393567D01*
X85510000Y-86206433D01*
X85546508Y-86022895D01*
X85618121Y-85850006D01*
X85722087Y-85694410D01*
X85854410Y-85562087D01*
X86010006Y-85458121D01*
X86182895Y-85386508D01*
X86366433Y-85350000D01*
X86553567Y-85350000D01*
X86737105Y-85386508D01*
G37*
G36*
X114017105Y-82846508D02*
G01*
X114189994Y-82918121D01*
X114345590Y-83022087D01*
X114477913Y-83154410D01*
X114581879Y-83310006D01*
X114653492Y-83482895D01*
X114690000Y-83666433D01*
X114690000Y-83853567D01*
X114653492Y-84037105D01*
X114581879Y-84209994D01*
X114477913Y-84365590D01*
X114345590Y-84497913D01*
X114189994Y-84601879D01*
X114017105Y-84673492D01*
X113833567Y-84710000D01*
X113646433Y-84710000D01*
X113462895Y-84673492D01*
X113290006Y-84601879D01*
X113134410Y-84497913D01*
X113002087Y-84365590D01*
X112898121Y-84209994D01*
X112826508Y-84037105D01*
X112790000Y-83853567D01*
X112790000Y-83666433D01*
X112826508Y-83482895D01*
X112898121Y-83310006D01*
X113002087Y-83154410D01*
X113134410Y-83022087D01*
X113290006Y-82918121D01*
X113462895Y-82846508D01*
X113646433Y-82810000D01*
X113833567Y-82810000D01*
X114017105Y-82846508D01*
G37*
G36*
X86737105Y-82846508D02*
G01*
X86909994Y-82918121D01*
X87065590Y-83022087D01*
X87197913Y-83154410D01*
X87301879Y-83310006D01*
X87373492Y-83482895D01*
X87410000Y-83666433D01*
X87410000Y-83853567D01*
X87373492Y-84037105D01*
X87301879Y-84209994D01*
X87197913Y-84365590D01*
X87065590Y-84497913D01*
X86909994Y-84601879D01*
X86737105Y-84673492D01*
X86553567Y-84710000D01*
X86366433Y-84710000D01*
X86182895Y-84673492D01*
X86010006Y-84601879D01*
X85854410Y-84497913D01*
X85722087Y-84365590D01*
X85618121Y-84209994D01*
X85546508Y-84037105D01*
X85510000Y-83853567D01*
X85510000Y-83666433D01*
X85546508Y-83482895D01*
X85618121Y-83310006D01*
X85722087Y-83154410D01*
X85854410Y-83022087D01*
X86010006Y-82918121D01*
X86182895Y-82846508D01*
X86366433Y-82810000D01*
X86553567Y-82810000D01*
X86737105Y-82846508D01*
G37*
G36*
X86737105Y-80306508D02*
G01*
X86909994Y-80378121D01*
X87065590Y-80482087D01*
X87197913Y-80614410D01*
X87301879Y-80770006D01*
X87373492Y-80942895D01*
X87410000Y-81126433D01*
X87410000Y-81313567D01*
X87373492Y-81497105D01*
X87301879Y-81669994D01*
X87197913Y-81825590D01*
X87065590Y-81957913D01*
X86909994Y-82061879D01*
X86737105Y-82133492D01*
X86553567Y-82170000D01*
X86366433Y-82170000D01*
X86182895Y-82133492D01*
X86010006Y-82061879D01*
X85854410Y-81957913D01*
X85722087Y-81825590D01*
X85618121Y-81669994D01*
X85546508Y-81497105D01*
X85510000Y-81313567D01*
X85510000Y-81126433D01*
X85546508Y-80942895D01*
X85618121Y-80770006D01*
X85722087Y-80614410D01*
X85854410Y-80482087D01*
X86010006Y-80378121D01*
X86182895Y-80306508D01*
X86366433Y-80270000D01*
X86553567Y-80270000D01*
X86737105Y-80306508D01*
G37*
G36*
X114017105Y-80306508D02*
G01*
X114189994Y-80378121D01*
X114345590Y-80482087D01*
X114477913Y-80614410D01*
X114581879Y-80770006D01*
X114653492Y-80942895D01*
X114690000Y-81126433D01*
X114690000Y-81313567D01*
X114653492Y-81497105D01*
X114581879Y-81669994D01*
X114477913Y-81825590D01*
X114345590Y-81957913D01*
X114189994Y-82061879D01*
X114017105Y-82133492D01*
X113833567Y-82170000D01*
X113646433Y-82170000D01*
X113462895Y-82133492D01*
X113290006Y-82061879D01*
X113134410Y-81957913D01*
X113002087Y-81825590D01*
X112898121Y-81669994D01*
X112826508Y-81497105D01*
X112790000Y-81313567D01*
X112790000Y-81126433D01*
X112826508Y-80942895D01*
X112898121Y-80770006D01*
X113002087Y-80614410D01*
X113134410Y-80482087D01*
X113290006Y-80378121D01*
X113462895Y-80306508D01*
X113646433Y-80270000D01*
X113833567Y-80270000D01*
X114017105Y-80306508D01*
G37*
G36*
X86737105Y-77766508D02*
G01*
X86909994Y-77838121D01*
X87065590Y-77942087D01*
X87197913Y-78074410D01*
X87301879Y-78230006D01*
X87373492Y-78402895D01*
X87410000Y-78586433D01*
X87410000Y-78773567D01*
X87373492Y-78957105D01*
X87301879Y-79129994D01*
X87197913Y-79285590D01*
X87065590Y-79417913D01*
X86909994Y-79521879D01*
X86737105Y-79593492D01*
X86553567Y-79630000D01*
X86366433Y-79630000D01*
X86182895Y-79593492D01*
X86010006Y-79521879D01*
X85854410Y-79417913D01*
X85722087Y-79285590D01*
X85618121Y-79129994D01*
X85546508Y-78957105D01*
X85510000Y-78773567D01*
X85510000Y-78586433D01*
X85546508Y-78402895D01*
X85618121Y-78230006D01*
X85722087Y-78074410D01*
X85854410Y-77942087D01*
X86010006Y-77838121D01*
X86182895Y-77766508D01*
X86366433Y-77730000D01*
X86553567Y-77730000D01*
X86737105Y-77766508D01*
G37*
G36*
X114017105Y-77766508D02*
G01*
X114189994Y-77838121D01*
X114345590Y-77942087D01*
X114477913Y-78074410D01*
X114581879Y-78230006D01*
X114653492Y-78402895D01*
X114690000Y-78586433D01*
X114690000Y-78773567D01*
X114653492Y-78957105D01*
X114581879Y-79129994D01*
X114477913Y-79285590D01*
X114345590Y-79417913D01*
X114189994Y-79521879D01*
X114017105Y-79593492D01*
X113833567Y-79630000D01*
X113646433Y-79630000D01*
X113462895Y-79593492D01*
X113290006Y-79521879D01*
X113134410Y-79417913D01*
X113002087Y-79285590D01*
X112898121Y-79129994D01*
X112826508Y-78957105D01*
X112790000Y-78773567D01*
X112790000Y-78586433D01*
X112826508Y-78402895D01*
X112898121Y-78230006D01*
X113002087Y-78074410D01*
X113134410Y-77942087D01*
X113290006Y-77838121D01*
X113462895Y-77766508D01*
X113646433Y-77730000D01*
X113833567Y-77730000D01*
X114017105Y-77766508D01*
G37*
G36*
X97200000Y-70200000D02*
G01*
X95300000Y-70200000D01*
X95300000Y-68300000D01*
X97200000Y-68300000D01*
X97200000Y-70200000D01*
G37*
G36*
X99067105Y-68336508D02*
G01*
X99239994Y-68408121D01*
X99395590Y-68512087D01*
X99527913Y-68644410D01*
X99631879Y-68800006D01*
X99703492Y-68972895D01*
X99740000Y-69156433D01*
X99740000Y-69343567D01*
X99703492Y-69527105D01*
X99631879Y-69699994D01*
X99527913Y-69855590D01*
X99395590Y-69987913D01*
X99239994Y-70091879D01*
X99067105Y-70163492D01*
X98883567Y-70200000D01*
X98696433Y-70200000D01*
X98512895Y-70163492D01*
X98340006Y-70091879D01*
X98184410Y-69987913D01*
X98052087Y-69855590D01*
X97948121Y-69699994D01*
X97876508Y-69527105D01*
X97840000Y-69343567D01*
X97840000Y-69156433D01*
X97876508Y-68972895D01*
X97948121Y-68800006D01*
X98052087Y-68644410D01*
X98184410Y-68512087D01*
X98340006Y-68408121D01*
X98512895Y-68336508D01*
X98696433Y-68300000D01*
X98883567Y-68300000D01*
X99067105Y-68336508D01*
G37*
G36*
X101607105Y-68336508D02*
G01*
X101779994Y-68408121D01*
X101935590Y-68512087D01*
X102067913Y-68644410D01*
X102171879Y-68800006D01*
X102243492Y-68972895D01*
X102280000Y-69156433D01*
X102280000Y-69343567D01*
X102243492Y-69527105D01*
X102171879Y-69699994D01*
X102067913Y-69855590D01*
X101935590Y-69987913D01*
X101779994Y-70091879D01*
X101607105Y-70163492D01*
X101423567Y-70200000D01*
X101236433Y-70200000D01*
X101052895Y-70163492D01*
X100880006Y-70091879D01*
X100724410Y-69987913D01*
X100592087Y-69855590D01*
X100488121Y-69699994D01*
X100416508Y-69527105D01*
X100380000Y-69343567D01*
X100380000Y-69156433D01*
X100416508Y-68972895D01*
X100488121Y-68800006D01*
X100592087Y-68644410D01*
X100724410Y-68512087D01*
X100880006Y-68408121D01*
X101052895Y-68336508D01*
X101236433Y-68300000D01*
X101423567Y-68300000D01*
X101607105Y-68336508D01*
G37*
G36*
X104147105Y-68336508D02*
G01*
X104319994Y-68408121D01*
X104475590Y-68512087D01*
X104607913Y-68644410D01*
X104711879Y-68800006D01*
X104783492Y-68972895D01*
X104820000Y-69156433D01*
X104820000Y-69343567D01*
X104783492Y-69527105D01*
X104711879Y-69699994D01*
X104607913Y-69855590D01*
X104475590Y-69987913D01*
X104319994Y-70091879D01*
X104147105Y-70163492D01*
X103963567Y-70200000D01*
X103776433Y-70200000D01*
X103592895Y-70163492D01*
X103420006Y-70091879D01*
X103264410Y-69987913D01*
X103132087Y-69855590D01*
X103028121Y-69699994D01*
X102956508Y-69527105D01*
X102920000Y-69343567D01*
X102920000Y-69156433D01*
X102956508Y-68972895D01*
X103028121Y-68800006D01*
X103132087Y-68644410D01*
X103264410Y-68512087D01*
X103420006Y-68408121D01*
X103592895Y-68336508D01*
X103776433Y-68300000D01*
X103963567Y-68300000D01*
X104147105Y-68336508D01*
G37*
M02*
