G04 #@! TF.GenerationSoftware,KiCad,Pcbnew,(5.1.6-0-10_14)*
G04 #@! TF.CreationDate,2021-01-15T18:00:30+01:00*
G04 #@! TF.ProjectId,cdm324,63646d33-3234-42e6-9b69-6361645f7063,rev?*
G04 #@! TF.SameCoordinates,Original*
G04 #@! TF.FileFunction,Soldermask,Top*
G04 #@! TF.FilePolarity,Negative*
%FSLAX46Y46*%
G04 Gerber Fmt 4.6, Leading zero omitted, Abs format (unit mm)*
G04 Created by KiCad (PCBNEW (5.1.6-0-10_14)) date 2021-01-15 18:00:30*
%MOMM*%
%LPD*%
G01*
G04 APERTURE LIST*
G04 #@! TA.AperFunction,Profile*
%ADD10C,0.150000*%
G04 #@! TD*
%ADD11C,0.150000*%
G04 APERTURE END LIST*
D10*
X85350000Y-132600000D02*
X85350000Y-68100000D01*
X114850000Y-132600000D02*
X85350000Y-132600000D01*
X114850000Y-68100000D02*
X114850000Y-132600000D01*
X85350000Y-68100000D02*
X114850000Y-68100000D01*
D11*
G36*
X97897682Y-130229705D02*
G01*
X97938898Y-130242207D01*
X97976878Y-130262508D01*
X98010170Y-130289830D01*
X98037492Y-130323122D01*
X98057793Y-130361102D01*
X98070295Y-130402318D01*
X98075000Y-130450084D01*
X98075000Y-131624916D01*
X98070295Y-131672682D01*
X98057793Y-131713898D01*
X98037492Y-131751878D01*
X98010170Y-131785170D01*
X97976878Y-131812492D01*
X97938898Y-131832793D01*
X97897682Y-131845295D01*
X97849916Y-131850000D01*
X96350084Y-131850000D01*
X96302318Y-131845295D01*
X96261102Y-131832793D01*
X96223122Y-131812492D01*
X96189830Y-131785170D01*
X96162508Y-131751878D01*
X96142207Y-131713898D01*
X96129705Y-131672682D01*
X96125000Y-131624916D01*
X96125000Y-130450084D01*
X96129705Y-130402318D01*
X96142207Y-130361102D01*
X96162508Y-130323122D01*
X96189830Y-130289830D01*
X96223122Y-130262508D01*
X96261102Y-130242207D01*
X96302318Y-130229705D01*
X96350084Y-130225000D01*
X97849916Y-130225000D01*
X97897682Y-130229705D01*
G37*
G36*
X95550000Y-131800000D02*
G01*
X93450000Y-131800000D01*
X93450000Y-129700000D01*
X95550000Y-129700000D01*
X95550000Y-131800000D01*
G37*
G36*
X93000000Y-131800000D02*
G01*
X90900000Y-131800000D01*
X90900000Y-129700000D01*
X93000000Y-129700000D01*
X93000000Y-131800000D01*
G37*
G36*
X90600000Y-131800000D02*
G01*
X88500000Y-131800000D01*
X88500000Y-129700000D01*
X90600000Y-129700000D01*
X90600000Y-131800000D01*
G37*
G36*
X88050000Y-131800000D02*
G01*
X85950000Y-131800000D01*
X85950000Y-129700000D01*
X88050000Y-129700000D01*
X88050000Y-131800000D01*
G37*
G36*
X92350000Y-129150000D02*
G01*
X89150000Y-129150000D01*
X89150000Y-127000000D01*
X92350000Y-127000000D01*
X92350000Y-129150000D01*
G37*
G36*
X95000000Y-129100000D02*
G01*
X92700000Y-129100000D01*
X92700000Y-127300000D01*
X95000000Y-127300000D01*
X95000000Y-129100000D01*
G37*
G36*
X88800000Y-129100000D02*
G01*
X86500000Y-129100000D01*
X86500000Y-127300000D01*
X88800000Y-127300000D01*
X88800000Y-129100000D01*
G37*
G36*
X97897682Y-127254705D02*
G01*
X97938898Y-127267207D01*
X97976878Y-127287508D01*
X98010170Y-127314830D01*
X98037492Y-127348122D01*
X98057793Y-127386102D01*
X98070295Y-127427318D01*
X98075000Y-127475084D01*
X98075000Y-128649916D01*
X98070295Y-128697682D01*
X98057793Y-128738898D01*
X98037492Y-128776878D01*
X98010170Y-128810170D01*
X97976878Y-128837492D01*
X97938898Y-128857793D01*
X97897682Y-128870295D01*
X97849916Y-128875000D01*
X96350084Y-128875000D01*
X96302318Y-128870295D01*
X96261102Y-128857793D01*
X96223122Y-128837492D01*
X96189830Y-128810170D01*
X96162508Y-128776878D01*
X96142207Y-128738898D01*
X96129705Y-128697682D01*
X96125000Y-128649916D01*
X96125000Y-127475084D01*
X96129705Y-127427318D01*
X96142207Y-127386102D01*
X96162508Y-127348122D01*
X96189830Y-127314830D01*
X96223122Y-127287508D01*
X96261102Y-127267207D01*
X96302318Y-127254705D01*
X96350084Y-127250000D01*
X97849916Y-127250000D01*
X97897682Y-127254705D01*
G37*
G36*
X95300000Y-126300000D02*
G01*
X94200000Y-126300000D01*
X94200000Y-125300000D01*
X95300000Y-125300000D01*
X95300000Y-126300000D01*
G37*
G36*
X88500000Y-126300000D02*
G01*
X87400000Y-126300000D01*
X87400000Y-125300000D01*
X88500000Y-125300000D01*
X88500000Y-126300000D01*
G37*
G36*
X93548832Y-125104678D02*
G01*
X93589774Y-125117097D01*
X93627512Y-125137269D01*
X93660588Y-125164412D01*
X93687731Y-125197488D01*
X93707903Y-125235226D01*
X93720322Y-125276168D01*
X93725000Y-125323658D01*
X93725000Y-125951342D01*
X93720322Y-125998832D01*
X93707903Y-126039774D01*
X93687731Y-126077512D01*
X93660588Y-126110588D01*
X93627512Y-126137731D01*
X93589774Y-126157903D01*
X93548832Y-126170322D01*
X93501342Y-126175000D01*
X92798658Y-126175000D01*
X92751168Y-126170322D01*
X92710226Y-126157903D01*
X92672488Y-126137731D01*
X92639412Y-126110588D01*
X92612269Y-126077512D01*
X92592097Y-126039774D01*
X92579678Y-125998832D01*
X92575000Y-125951342D01*
X92575000Y-125323658D01*
X92579678Y-125276168D01*
X92592097Y-125235226D01*
X92612269Y-125197488D01*
X92639412Y-125164412D01*
X92672488Y-125137269D01*
X92710226Y-125117097D01*
X92751168Y-125104678D01*
X92798658Y-125100000D01*
X93501342Y-125100000D01*
X93548832Y-125104678D01*
G37*
G36*
X91978832Y-125094678D02*
G01*
X92019774Y-125107097D01*
X92057512Y-125127269D01*
X92090588Y-125154412D01*
X92117731Y-125187488D01*
X92137903Y-125225226D01*
X92150322Y-125266168D01*
X92155000Y-125313658D01*
X92155000Y-125941342D01*
X92150322Y-125988832D01*
X92137903Y-126029774D01*
X92117731Y-126067512D01*
X92090588Y-126100588D01*
X92057512Y-126127731D01*
X92019774Y-126147903D01*
X91978832Y-126160322D01*
X91931342Y-126165000D01*
X91228658Y-126165000D01*
X91181168Y-126160322D01*
X91140226Y-126147903D01*
X91102488Y-126127731D01*
X91069412Y-126100588D01*
X91042269Y-126067512D01*
X91022097Y-126029774D01*
X91009678Y-125988832D01*
X91005000Y-125941342D01*
X91005000Y-125313658D01*
X91009678Y-125266168D01*
X91022097Y-125225226D01*
X91042269Y-125187488D01*
X91069412Y-125154412D01*
X91102488Y-125127269D01*
X91140226Y-125107097D01*
X91181168Y-125094678D01*
X91228658Y-125090000D01*
X91931342Y-125090000D01*
X91978832Y-125094678D01*
G37*
G36*
X86748832Y-125054678D02*
G01*
X86789774Y-125067097D01*
X86827512Y-125087269D01*
X86860588Y-125114412D01*
X86887731Y-125147488D01*
X86907903Y-125185226D01*
X86920322Y-125226168D01*
X86925000Y-125273658D01*
X86925000Y-125901342D01*
X86920322Y-125948832D01*
X86907903Y-125989774D01*
X86887731Y-126027512D01*
X86860588Y-126060588D01*
X86827512Y-126087731D01*
X86789774Y-126107903D01*
X86748832Y-126120322D01*
X86701342Y-126125000D01*
X85998658Y-126125000D01*
X85951168Y-126120322D01*
X85910226Y-126107903D01*
X85872488Y-126087731D01*
X85839412Y-126060588D01*
X85812269Y-126027512D01*
X85792097Y-125989774D01*
X85779678Y-125948832D01*
X85775000Y-125901342D01*
X85775000Y-125273658D01*
X85779678Y-125226168D01*
X85792097Y-125185226D01*
X85812269Y-125147488D01*
X85839412Y-125114412D01*
X85872488Y-125087269D01*
X85910226Y-125067097D01*
X85951168Y-125054678D01*
X85998658Y-125050000D01*
X86701342Y-125050000D01*
X86748832Y-125054678D01*
G37*
G36*
X90500000Y-125350000D02*
G01*
X89400000Y-125350000D01*
X89400000Y-124350000D01*
X90500000Y-124350000D01*
X90500000Y-125350000D01*
G37*
G36*
X97300000Y-125350000D02*
G01*
X96200000Y-125350000D01*
X96200000Y-124350000D01*
X97300000Y-124350000D01*
X97300000Y-125350000D01*
G37*
G36*
X93548832Y-123529678D02*
G01*
X93589774Y-123542097D01*
X93627512Y-123562269D01*
X93660588Y-123589412D01*
X93687731Y-123622488D01*
X93707903Y-123660226D01*
X93720322Y-123701168D01*
X93725000Y-123748658D01*
X93725000Y-124376342D01*
X93720322Y-124423832D01*
X93707903Y-124464774D01*
X93687731Y-124502512D01*
X93660588Y-124535588D01*
X93627512Y-124562731D01*
X93589774Y-124582903D01*
X93548832Y-124595322D01*
X93501342Y-124600000D01*
X92798658Y-124600000D01*
X92751168Y-124595322D01*
X92710226Y-124582903D01*
X92672488Y-124562731D01*
X92639412Y-124535588D01*
X92612269Y-124502512D01*
X92592097Y-124464774D01*
X92579678Y-124423832D01*
X92575000Y-124376342D01*
X92575000Y-123748658D01*
X92579678Y-123701168D01*
X92592097Y-123660226D01*
X92612269Y-123622488D01*
X92639412Y-123589412D01*
X92672488Y-123562269D01*
X92710226Y-123542097D01*
X92751168Y-123529678D01*
X92798658Y-123525000D01*
X93501342Y-123525000D01*
X93548832Y-123529678D01*
G37*
G36*
X91978832Y-123519678D02*
G01*
X92019774Y-123532097D01*
X92057512Y-123552269D01*
X92090588Y-123579412D01*
X92117731Y-123612488D01*
X92137903Y-123650226D01*
X92150322Y-123691168D01*
X92155000Y-123738658D01*
X92155000Y-124366342D01*
X92150322Y-124413832D01*
X92137903Y-124454774D01*
X92117731Y-124492512D01*
X92090588Y-124525588D01*
X92057512Y-124552731D01*
X92019774Y-124572903D01*
X91978832Y-124585322D01*
X91931342Y-124590000D01*
X91228658Y-124590000D01*
X91181168Y-124585322D01*
X91140226Y-124572903D01*
X91102488Y-124552731D01*
X91069412Y-124525588D01*
X91042269Y-124492512D01*
X91022097Y-124454774D01*
X91009678Y-124413832D01*
X91005000Y-124366342D01*
X91005000Y-123738658D01*
X91009678Y-123691168D01*
X91022097Y-123650226D01*
X91042269Y-123612488D01*
X91069412Y-123579412D01*
X91102488Y-123552269D01*
X91140226Y-123532097D01*
X91181168Y-123519678D01*
X91228658Y-123515000D01*
X91931342Y-123515000D01*
X91978832Y-123519678D01*
G37*
G36*
X86748832Y-123479678D02*
G01*
X86789774Y-123492097D01*
X86827512Y-123512269D01*
X86860588Y-123539412D01*
X86887731Y-123572488D01*
X86907903Y-123610226D01*
X86920322Y-123651168D01*
X86925000Y-123698658D01*
X86925000Y-124326342D01*
X86920322Y-124373832D01*
X86907903Y-124414774D01*
X86887731Y-124452512D01*
X86860588Y-124485588D01*
X86827512Y-124512731D01*
X86789774Y-124532903D01*
X86748832Y-124545322D01*
X86701342Y-124550000D01*
X85998658Y-124550000D01*
X85951168Y-124545322D01*
X85910226Y-124532903D01*
X85872488Y-124512731D01*
X85839412Y-124485588D01*
X85812269Y-124452512D01*
X85792097Y-124414774D01*
X85779678Y-124373832D01*
X85775000Y-124326342D01*
X85775000Y-123698658D01*
X85779678Y-123651168D01*
X85792097Y-123610226D01*
X85812269Y-123572488D01*
X85839412Y-123539412D01*
X85872488Y-123512269D01*
X85910226Y-123492097D01*
X85951168Y-123479678D01*
X85998658Y-123475000D01*
X86701342Y-123475000D01*
X86748832Y-123479678D01*
G37*
G36*
X88500000Y-124400000D02*
G01*
X87400000Y-124400000D01*
X87400000Y-123400000D01*
X88500000Y-123400000D01*
X88500000Y-124400000D01*
G37*
G36*
X95300000Y-124400000D02*
G01*
X94200000Y-124400000D01*
X94200000Y-123400000D01*
X95300000Y-123400000D01*
X95300000Y-124400000D01*
G37*
G36*
X104027105Y-121926508D02*
G01*
X104199994Y-121998121D01*
X104355590Y-122102087D01*
X104487913Y-122234410D01*
X104591879Y-122390006D01*
X104663492Y-122562895D01*
X104700000Y-122746433D01*
X104700000Y-122933567D01*
X104663492Y-123117105D01*
X104591879Y-123289994D01*
X104487913Y-123445590D01*
X104355590Y-123577913D01*
X104199994Y-123681879D01*
X104027105Y-123753492D01*
X103843567Y-123790000D01*
X103656433Y-123790000D01*
X103472895Y-123753492D01*
X103300006Y-123681879D01*
X103144410Y-123577913D01*
X103012087Y-123445590D01*
X102908121Y-123289994D01*
X102836508Y-123117105D01*
X102800000Y-122933567D01*
X102800000Y-122746433D01*
X102836508Y-122562895D01*
X102908121Y-122390006D01*
X103012087Y-122234410D01*
X103144410Y-122102087D01*
X103300006Y-121998121D01*
X103472895Y-121926508D01*
X103656433Y-121890000D01*
X103843567Y-121890000D01*
X104027105Y-121926508D01*
G37*
G36*
X108527105Y-121926508D02*
G01*
X108699994Y-121998121D01*
X108855590Y-122102087D01*
X108987913Y-122234410D01*
X109091879Y-122390006D01*
X109163492Y-122562895D01*
X109200000Y-122746433D01*
X109200000Y-122933567D01*
X109163492Y-123117105D01*
X109091879Y-123289994D01*
X108987913Y-123445590D01*
X108855590Y-123577913D01*
X108699994Y-123681879D01*
X108527105Y-123753492D01*
X108343567Y-123790000D01*
X108156433Y-123790000D01*
X107972895Y-123753492D01*
X107800006Y-123681879D01*
X107644410Y-123577913D01*
X107512087Y-123445590D01*
X107408121Y-123289994D01*
X107336508Y-123117105D01*
X107300000Y-122933567D01*
X107300000Y-122746433D01*
X107336508Y-122562895D01*
X107408121Y-122390006D01*
X107512087Y-122234410D01*
X107644410Y-122102087D01*
X107800006Y-121998121D01*
X107972895Y-121926508D01*
X108156433Y-121890000D01*
X108343567Y-121890000D01*
X108527105Y-121926508D01*
G37*
G36*
X114700000Y-123600000D02*
G01*
X112300000Y-123600000D01*
X112300000Y-118900000D01*
X114700000Y-118900000D01*
X114700000Y-123600000D01*
G37*
G36*
X99700000Y-123600000D02*
G01*
X97300000Y-123600000D01*
X97300000Y-118900000D01*
X99700000Y-118900000D01*
X99700000Y-123600000D01*
G37*
G36*
X95550000Y-122650000D02*
G01*
X91850000Y-122650000D01*
X91850000Y-115150000D01*
X95550000Y-115150000D01*
X95550000Y-122650000D01*
G37*
G36*
X89750000Y-122650000D02*
G01*
X86050000Y-122650000D01*
X86050000Y-115150000D01*
X89750000Y-115150000D01*
X89750000Y-122650000D01*
G37*
G36*
X103160000Y-120440000D02*
G01*
X101840000Y-120440000D01*
X101840000Y-117160000D01*
X103160000Y-117160000D01*
X103160000Y-120440000D01*
G37*
G36*
X105660000Y-120440000D02*
G01*
X104340000Y-120440000D01*
X104340000Y-117160000D01*
X105660000Y-117160000D01*
X105660000Y-120440000D01*
G37*
G36*
X110160000Y-120440000D02*
G01*
X108840000Y-120440000D01*
X108840000Y-117160000D01*
X110160000Y-117160000D01*
X110160000Y-120440000D01*
G37*
G36*
X107660000Y-120440000D02*
G01*
X106340000Y-120440000D01*
X106340000Y-117160000D01*
X107660000Y-117160000D01*
X107660000Y-120440000D01*
G37*
G36*
X97857682Y-116029705D02*
G01*
X97898898Y-116042207D01*
X97936878Y-116062508D01*
X97970170Y-116089830D01*
X97997492Y-116123122D01*
X98017793Y-116161102D01*
X98030295Y-116202318D01*
X98035000Y-116250084D01*
X98035000Y-117749916D01*
X98030295Y-117797682D01*
X98017793Y-117838898D01*
X97997492Y-117876878D01*
X97970170Y-117910170D01*
X97936878Y-117937492D01*
X97898898Y-117957793D01*
X97857682Y-117970295D01*
X97809916Y-117975000D01*
X96635084Y-117975000D01*
X96587318Y-117970295D01*
X96546102Y-117957793D01*
X96508122Y-117937492D01*
X96474830Y-117910170D01*
X96447508Y-117876878D01*
X96427207Y-117838898D01*
X96414705Y-117797682D01*
X96410000Y-117749916D01*
X96410000Y-116250084D01*
X96414705Y-116202318D01*
X96427207Y-116161102D01*
X96447508Y-116123122D01*
X96474830Y-116089830D01*
X96508122Y-116062508D01*
X96546102Y-116042207D01*
X96587318Y-116029705D01*
X96635084Y-116025000D01*
X97809916Y-116025000D01*
X97857682Y-116029705D01*
G37*
G36*
X100832682Y-116029705D02*
G01*
X100873898Y-116042207D01*
X100911878Y-116062508D01*
X100945170Y-116089830D01*
X100972492Y-116123122D01*
X100992793Y-116161102D01*
X101005295Y-116202318D01*
X101010000Y-116250084D01*
X101010000Y-117749916D01*
X101005295Y-117797682D01*
X100992793Y-117838898D01*
X100972492Y-117876878D01*
X100945170Y-117910170D01*
X100911878Y-117937492D01*
X100873898Y-117957793D01*
X100832682Y-117970295D01*
X100784916Y-117975000D01*
X99610084Y-117975000D01*
X99562318Y-117970295D01*
X99521102Y-117957793D01*
X99483122Y-117937492D01*
X99449830Y-117910170D01*
X99422508Y-117876878D01*
X99402207Y-117838898D01*
X99389705Y-117797682D01*
X99385000Y-117749916D01*
X99385000Y-116250084D01*
X99389705Y-116202318D01*
X99402207Y-116161102D01*
X99422508Y-116123122D01*
X99449830Y-116089830D01*
X99483122Y-116062508D01*
X99521102Y-116042207D01*
X99562318Y-116029705D01*
X99610084Y-116025000D01*
X100784916Y-116025000D01*
X100832682Y-116029705D01*
G37*
G36*
X107623125Y-114505000D02*
G01*
X92976875Y-114505000D01*
X92976875Y-113805000D01*
X107623125Y-113805000D01*
X107623125Y-114505000D01*
G37*
G36*
X92395000Y-113223125D02*
G01*
X91695000Y-113223125D01*
X91695000Y-98576875D01*
X92395000Y-98576875D01*
X92395000Y-113223125D01*
G37*
G36*
X108905000Y-113223125D02*
G01*
X108205000Y-113223125D01*
X108205000Y-98576875D01*
X108905000Y-98576875D01*
X108905000Y-113223125D01*
G37*
G36*
X94547682Y-111529705D02*
G01*
X94588898Y-111542207D01*
X94626878Y-111562508D01*
X94660170Y-111589830D01*
X94687492Y-111623122D01*
X94707793Y-111661102D01*
X94720295Y-111702318D01*
X94725000Y-111750084D01*
X94725000Y-112924916D01*
X94720295Y-112972682D01*
X94707793Y-113013898D01*
X94687492Y-113051878D01*
X94660170Y-113085170D01*
X94626878Y-113112492D01*
X94588898Y-113132793D01*
X94547682Y-113145295D01*
X94499916Y-113150000D01*
X93000084Y-113150000D01*
X92952318Y-113145295D01*
X92911102Y-113132793D01*
X92873122Y-113112492D01*
X92839830Y-113085170D01*
X92812508Y-113051878D01*
X92792207Y-113013898D01*
X92779705Y-112972682D01*
X92775000Y-112924916D01*
X92775000Y-111750084D01*
X92779705Y-111702318D01*
X92792207Y-111661102D01*
X92812508Y-111623122D01*
X92839830Y-111589830D01*
X92873122Y-111562508D01*
X92911102Y-111542207D01*
X92952318Y-111529705D01*
X93000084Y-111525000D01*
X94499916Y-111525000D01*
X94547682Y-111529705D01*
G37*
G36*
X96947682Y-111529705D02*
G01*
X96988898Y-111542207D01*
X97026878Y-111562508D01*
X97060170Y-111589830D01*
X97087492Y-111623122D01*
X97107793Y-111661102D01*
X97120295Y-111702318D01*
X97125000Y-111750084D01*
X97125000Y-112924916D01*
X97120295Y-112972682D01*
X97107793Y-113013898D01*
X97087492Y-113051878D01*
X97060170Y-113085170D01*
X97026878Y-113112492D01*
X96988898Y-113132793D01*
X96947682Y-113145295D01*
X96899916Y-113150000D01*
X95400084Y-113150000D01*
X95352318Y-113145295D01*
X95311102Y-113132793D01*
X95273122Y-113112492D01*
X95239830Y-113085170D01*
X95212508Y-113051878D01*
X95192207Y-113013898D01*
X95179705Y-112972682D01*
X95175000Y-112924916D01*
X95175000Y-111750084D01*
X95179705Y-111702318D01*
X95192207Y-111661102D01*
X95212508Y-111623122D01*
X95239830Y-111589830D01*
X95273122Y-111562508D01*
X95311102Y-111542207D01*
X95352318Y-111529705D01*
X95400084Y-111525000D01*
X96899916Y-111525000D01*
X96947682Y-111529705D01*
G37*
G36*
X104097682Y-111529705D02*
G01*
X104138898Y-111542207D01*
X104176878Y-111562508D01*
X104210170Y-111589830D01*
X104237492Y-111623122D01*
X104257793Y-111661102D01*
X104270295Y-111702318D01*
X104275000Y-111750084D01*
X104275000Y-112924916D01*
X104270295Y-112972682D01*
X104257793Y-113013898D01*
X104237492Y-113051878D01*
X104210170Y-113085170D01*
X104176878Y-113112492D01*
X104138898Y-113132793D01*
X104097682Y-113145295D01*
X104049916Y-113150000D01*
X102550084Y-113150000D01*
X102502318Y-113145295D01*
X102461102Y-113132793D01*
X102423122Y-113112492D01*
X102389830Y-113085170D01*
X102362508Y-113051878D01*
X102342207Y-113013898D01*
X102329705Y-112972682D01*
X102325000Y-112924916D01*
X102325000Y-111750084D01*
X102329705Y-111702318D01*
X102342207Y-111661102D01*
X102362508Y-111623122D01*
X102389830Y-111589830D01*
X102423122Y-111562508D01*
X102461102Y-111542207D01*
X102502318Y-111529705D01*
X102550084Y-111525000D01*
X104049916Y-111525000D01*
X104097682Y-111529705D01*
G37*
G36*
X99347682Y-111529705D02*
G01*
X99388898Y-111542207D01*
X99426878Y-111562508D01*
X99460170Y-111589830D01*
X99487492Y-111623122D01*
X99507793Y-111661102D01*
X99520295Y-111702318D01*
X99525000Y-111750084D01*
X99525000Y-112924916D01*
X99520295Y-112972682D01*
X99507793Y-113013898D01*
X99487492Y-113051878D01*
X99460170Y-113085170D01*
X99426878Y-113112492D01*
X99388898Y-113132793D01*
X99347682Y-113145295D01*
X99299916Y-113150000D01*
X97800084Y-113150000D01*
X97752318Y-113145295D01*
X97711102Y-113132793D01*
X97673122Y-113112492D01*
X97639830Y-113085170D01*
X97612508Y-113051878D01*
X97592207Y-113013898D01*
X97579705Y-112972682D01*
X97575000Y-112924916D01*
X97575000Y-111750084D01*
X97579705Y-111702318D01*
X97592207Y-111661102D01*
X97612508Y-111623122D01*
X97639830Y-111589830D01*
X97673122Y-111562508D01*
X97711102Y-111542207D01*
X97752318Y-111529705D01*
X97800084Y-111525000D01*
X99299916Y-111525000D01*
X99347682Y-111529705D01*
G37*
G36*
X101747682Y-111529705D02*
G01*
X101788898Y-111542207D01*
X101826878Y-111562508D01*
X101860170Y-111589830D01*
X101887492Y-111623122D01*
X101907793Y-111661102D01*
X101920295Y-111702318D01*
X101925000Y-111750084D01*
X101925000Y-112924916D01*
X101920295Y-112972682D01*
X101907793Y-113013898D01*
X101887492Y-113051878D01*
X101860170Y-113085170D01*
X101826878Y-113112492D01*
X101788898Y-113132793D01*
X101747682Y-113145295D01*
X101699916Y-113150000D01*
X100200084Y-113150000D01*
X100152318Y-113145295D01*
X100111102Y-113132793D01*
X100073122Y-113112492D01*
X100039830Y-113085170D01*
X100012508Y-113051878D01*
X99992207Y-113013898D01*
X99979705Y-112972682D01*
X99975000Y-112924916D01*
X99975000Y-111750084D01*
X99979705Y-111702318D01*
X99992207Y-111661102D01*
X100012508Y-111623122D01*
X100039830Y-111589830D01*
X100073122Y-111562508D01*
X100111102Y-111542207D01*
X100152318Y-111529705D01*
X100200084Y-111525000D01*
X101699916Y-111525000D01*
X101747682Y-111529705D01*
G37*
G36*
X105823832Y-111979678D02*
G01*
X105864774Y-111992097D01*
X105902512Y-112012269D01*
X105935588Y-112039412D01*
X105962731Y-112072488D01*
X105982903Y-112110226D01*
X105995322Y-112151168D01*
X106000000Y-112198658D01*
X106000000Y-112901342D01*
X105995322Y-112948832D01*
X105982903Y-112989774D01*
X105962731Y-113027512D01*
X105935588Y-113060588D01*
X105902512Y-113087731D01*
X105864774Y-113107903D01*
X105823832Y-113120322D01*
X105776342Y-113125000D01*
X105148658Y-113125000D01*
X105101168Y-113120322D01*
X105060226Y-113107903D01*
X105022488Y-113087731D01*
X104989412Y-113060588D01*
X104962269Y-113027512D01*
X104942097Y-112989774D01*
X104929678Y-112948832D01*
X104925000Y-112901342D01*
X104925000Y-112198658D01*
X104929678Y-112151168D01*
X104942097Y-112110226D01*
X104962269Y-112072488D01*
X104989412Y-112039412D01*
X105022488Y-112012269D01*
X105060226Y-111992097D01*
X105101168Y-111979678D01*
X105148658Y-111975000D01*
X105776342Y-111975000D01*
X105823832Y-111979678D01*
G37*
G36*
X107398832Y-111979678D02*
G01*
X107439774Y-111992097D01*
X107477512Y-112012269D01*
X107510588Y-112039412D01*
X107537731Y-112072488D01*
X107557903Y-112110226D01*
X107570322Y-112151168D01*
X107575000Y-112198658D01*
X107575000Y-112901342D01*
X107570322Y-112948832D01*
X107557903Y-112989774D01*
X107537731Y-113027512D01*
X107510588Y-113060588D01*
X107477512Y-113087731D01*
X107439774Y-113107903D01*
X107398832Y-113120322D01*
X107351342Y-113125000D01*
X106723658Y-113125000D01*
X106676168Y-113120322D01*
X106635226Y-113107903D01*
X106597488Y-113087731D01*
X106564412Y-113060588D01*
X106537269Y-113027512D01*
X106517097Y-112989774D01*
X106504678Y-112948832D01*
X106500000Y-112901342D01*
X106500000Y-112198658D01*
X106504678Y-112151168D01*
X106517097Y-112110226D01*
X106537269Y-112072488D01*
X106564412Y-112039412D01*
X106597488Y-112012269D01*
X106635226Y-111992097D01*
X106676168Y-111979678D01*
X106723658Y-111975000D01*
X107351342Y-111975000D01*
X107398832Y-111979678D01*
G37*
G36*
X114017105Y-110786508D02*
G01*
X114189994Y-110858121D01*
X114345590Y-110962087D01*
X114477913Y-111094410D01*
X114581879Y-111250006D01*
X114653492Y-111422895D01*
X114690000Y-111606433D01*
X114690000Y-111793567D01*
X114653492Y-111977105D01*
X114581879Y-112149994D01*
X114477913Y-112305590D01*
X114345590Y-112437913D01*
X114189994Y-112541879D01*
X114017105Y-112613492D01*
X113833567Y-112650000D01*
X113646433Y-112650000D01*
X113462895Y-112613492D01*
X113290006Y-112541879D01*
X113134410Y-112437913D01*
X113002087Y-112305590D01*
X112898121Y-112149994D01*
X112826508Y-111977105D01*
X112790000Y-111793567D01*
X112790000Y-111606433D01*
X112826508Y-111422895D01*
X112898121Y-111250006D01*
X113002087Y-111094410D01*
X113134410Y-110962087D01*
X113290006Y-110858121D01*
X113462895Y-110786508D01*
X113646433Y-110750000D01*
X113833567Y-110750000D01*
X114017105Y-110786508D01*
G37*
G36*
X86737105Y-110786508D02*
G01*
X86909994Y-110858121D01*
X87065590Y-110962087D01*
X87197913Y-111094410D01*
X87301879Y-111250006D01*
X87373492Y-111422895D01*
X87410000Y-111606433D01*
X87410000Y-111793567D01*
X87373492Y-111977105D01*
X87301879Y-112149994D01*
X87197913Y-112305590D01*
X87065590Y-112437913D01*
X86909994Y-112541879D01*
X86737105Y-112613492D01*
X86553567Y-112650000D01*
X86366433Y-112650000D01*
X86182895Y-112613492D01*
X86010006Y-112541879D01*
X85854410Y-112437913D01*
X85722087Y-112305590D01*
X85618121Y-112149994D01*
X85546508Y-111977105D01*
X85510000Y-111793567D01*
X85510000Y-111606433D01*
X85546508Y-111422895D01*
X85618121Y-111250006D01*
X85722087Y-111094410D01*
X85854410Y-110962087D01*
X86010006Y-110858121D01*
X86182895Y-110786508D01*
X86366433Y-110750000D01*
X86553567Y-110750000D01*
X86737105Y-110786508D01*
G37*
G36*
X112253708Y-110945158D02*
G01*
X112299345Y-110959001D01*
X112341400Y-110981480D01*
X112378265Y-111011735D01*
X112408520Y-111048600D01*
X112430999Y-111090655D01*
X112444842Y-111136292D01*
X112450000Y-111188658D01*
X112450000Y-111866342D01*
X112444842Y-111918708D01*
X112430999Y-111964345D01*
X112408520Y-112006400D01*
X112378265Y-112043265D01*
X112341400Y-112073520D01*
X112299345Y-112095999D01*
X112253708Y-112109842D01*
X112201342Y-112115000D01*
X111098658Y-112115000D01*
X111046292Y-112109842D01*
X111000655Y-112095999D01*
X110958600Y-112073520D01*
X110921735Y-112043265D01*
X110891480Y-112006400D01*
X110869001Y-111964345D01*
X110855158Y-111918708D01*
X110850000Y-111866342D01*
X110850000Y-111188658D01*
X110855158Y-111136292D01*
X110869001Y-111090655D01*
X110891480Y-111048600D01*
X110921735Y-111011735D01*
X110958600Y-110981480D01*
X111000655Y-110959001D01*
X111046292Y-110945158D01*
X111098658Y-110940000D01*
X112201342Y-110940000D01*
X112253708Y-110945158D01*
G37*
G36*
X107653708Y-110055158D02*
G01*
X107699345Y-110069001D01*
X107741400Y-110091480D01*
X107778265Y-110121735D01*
X107808520Y-110158600D01*
X107830999Y-110200655D01*
X107844842Y-110246292D01*
X107850000Y-110298658D01*
X107850000Y-110976342D01*
X107844842Y-111028708D01*
X107830999Y-111074345D01*
X107808520Y-111116400D01*
X107778265Y-111153265D01*
X107741400Y-111183520D01*
X107699345Y-111205999D01*
X107653708Y-111219842D01*
X107601342Y-111225000D01*
X106498658Y-111225000D01*
X106446292Y-111219842D01*
X106400655Y-111205999D01*
X106358600Y-111183520D01*
X106321735Y-111153265D01*
X106291480Y-111116400D01*
X106269001Y-111074345D01*
X106255158Y-111028708D01*
X106250000Y-110976342D01*
X106250000Y-110298658D01*
X106255158Y-110246292D01*
X106269001Y-110200655D01*
X106291480Y-110158600D01*
X106321735Y-110121735D01*
X106358600Y-110091480D01*
X106400655Y-110069001D01*
X106446292Y-110055158D01*
X106498658Y-110050000D01*
X107601342Y-110050000D01*
X107653708Y-110055158D01*
G37*
G36*
X105648832Y-109954678D02*
G01*
X105689774Y-109967097D01*
X105727512Y-109987269D01*
X105760588Y-110014412D01*
X105787731Y-110047488D01*
X105807903Y-110085226D01*
X105820322Y-110126168D01*
X105825000Y-110173658D01*
X105825000Y-110801342D01*
X105820322Y-110848832D01*
X105807903Y-110889774D01*
X105787731Y-110927512D01*
X105760588Y-110960588D01*
X105727512Y-110987731D01*
X105689774Y-111007903D01*
X105648832Y-111020322D01*
X105601342Y-111025000D01*
X104898658Y-111025000D01*
X104851168Y-111020322D01*
X104810226Y-111007903D01*
X104772488Y-110987731D01*
X104739412Y-110960588D01*
X104712269Y-110927512D01*
X104692097Y-110889774D01*
X104679678Y-110848832D01*
X104675000Y-110801342D01*
X104675000Y-110173658D01*
X104679678Y-110126168D01*
X104692097Y-110085226D01*
X104712269Y-110047488D01*
X104739412Y-110014412D01*
X104772488Y-109987269D01*
X104810226Y-109967097D01*
X104851168Y-109954678D01*
X104898658Y-109950000D01*
X105601342Y-109950000D01*
X105648832Y-109954678D01*
G37*
G36*
X112253708Y-109070158D02*
G01*
X112299345Y-109084001D01*
X112341400Y-109106480D01*
X112378265Y-109136735D01*
X112408520Y-109173600D01*
X112430999Y-109215655D01*
X112444842Y-109261292D01*
X112450000Y-109313658D01*
X112450000Y-109991342D01*
X112444842Y-110043708D01*
X112430999Y-110089345D01*
X112408520Y-110131400D01*
X112378265Y-110168265D01*
X112341400Y-110198520D01*
X112299345Y-110220999D01*
X112253708Y-110234842D01*
X112201342Y-110240000D01*
X111098658Y-110240000D01*
X111046292Y-110234842D01*
X111000655Y-110220999D01*
X110958600Y-110198520D01*
X110921735Y-110168265D01*
X110891480Y-110131400D01*
X110869001Y-110089345D01*
X110855158Y-110043708D01*
X110850000Y-109991342D01*
X110850000Y-109313658D01*
X110855158Y-109261292D01*
X110869001Y-109215655D01*
X110891480Y-109173600D01*
X110921735Y-109136735D01*
X110958600Y-109106480D01*
X111000655Y-109084001D01*
X111046292Y-109070158D01*
X111098658Y-109065000D01*
X112201342Y-109065000D01*
X112253708Y-109070158D01*
G37*
G36*
X101747682Y-108554705D02*
G01*
X101788898Y-108567207D01*
X101826878Y-108587508D01*
X101860170Y-108614830D01*
X101887492Y-108648122D01*
X101907793Y-108686102D01*
X101920295Y-108727318D01*
X101925000Y-108775084D01*
X101925000Y-109949916D01*
X101920295Y-109997682D01*
X101907793Y-110038898D01*
X101887492Y-110076878D01*
X101860170Y-110110170D01*
X101826878Y-110137492D01*
X101788898Y-110157793D01*
X101747682Y-110170295D01*
X101699916Y-110175000D01*
X100200084Y-110175000D01*
X100152318Y-110170295D01*
X100111102Y-110157793D01*
X100073122Y-110137492D01*
X100039830Y-110110170D01*
X100012508Y-110076878D01*
X99992207Y-110038898D01*
X99979705Y-109997682D01*
X99975000Y-109949916D01*
X99975000Y-108775084D01*
X99979705Y-108727318D01*
X99992207Y-108686102D01*
X100012508Y-108648122D01*
X100039830Y-108614830D01*
X100073122Y-108587508D01*
X100111102Y-108567207D01*
X100152318Y-108554705D01*
X100200084Y-108550000D01*
X101699916Y-108550000D01*
X101747682Y-108554705D01*
G37*
G36*
X104097682Y-108554705D02*
G01*
X104138898Y-108567207D01*
X104176878Y-108587508D01*
X104210170Y-108614830D01*
X104237492Y-108648122D01*
X104257793Y-108686102D01*
X104270295Y-108727318D01*
X104275000Y-108775084D01*
X104275000Y-109949916D01*
X104270295Y-109997682D01*
X104257793Y-110038898D01*
X104237492Y-110076878D01*
X104210170Y-110110170D01*
X104176878Y-110137492D01*
X104138898Y-110157793D01*
X104097682Y-110170295D01*
X104049916Y-110175000D01*
X102550084Y-110175000D01*
X102502318Y-110170295D01*
X102461102Y-110157793D01*
X102423122Y-110137492D01*
X102389830Y-110110170D01*
X102362508Y-110076878D01*
X102342207Y-110038898D01*
X102329705Y-109997682D01*
X102325000Y-109949916D01*
X102325000Y-108775084D01*
X102329705Y-108727318D01*
X102342207Y-108686102D01*
X102362508Y-108648122D01*
X102389830Y-108614830D01*
X102423122Y-108587508D01*
X102461102Y-108567207D01*
X102502318Y-108554705D01*
X102550084Y-108550000D01*
X104049916Y-108550000D01*
X104097682Y-108554705D01*
G37*
G36*
X99347682Y-108554705D02*
G01*
X99388898Y-108567207D01*
X99426878Y-108587508D01*
X99460170Y-108614830D01*
X99487492Y-108648122D01*
X99507793Y-108686102D01*
X99520295Y-108727318D01*
X99525000Y-108775084D01*
X99525000Y-109949916D01*
X99520295Y-109997682D01*
X99507793Y-110038898D01*
X99487492Y-110076878D01*
X99460170Y-110110170D01*
X99426878Y-110137492D01*
X99388898Y-110157793D01*
X99347682Y-110170295D01*
X99299916Y-110175000D01*
X97800084Y-110175000D01*
X97752318Y-110170295D01*
X97711102Y-110157793D01*
X97673122Y-110137492D01*
X97639830Y-110110170D01*
X97612508Y-110076878D01*
X97592207Y-110038898D01*
X97579705Y-109997682D01*
X97575000Y-109949916D01*
X97575000Y-108775084D01*
X97579705Y-108727318D01*
X97592207Y-108686102D01*
X97612508Y-108648122D01*
X97639830Y-108614830D01*
X97673122Y-108587508D01*
X97711102Y-108567207D01*
X97752318Y-108554705D01*
X97800084Y-108550000D01*
X99299916Y-108550000D01*
X99347682Y-108554705D01*
G37*
G36*
X94547682Y-108554705D02*
G01*
X94588898Y-108567207D01*
X94626878Y-108587508D01*
X94660170Y-108614830D01*
X94687492Y-108648122D01*
X94707793Y-108686102D01*
X94720295Y-108727318D01*
X94725000Y-108775084D01*
X94725000Y-109949916D01*
X94720295Y-109997682D01*
X94707793Y-110038898D01*
X94687492Y-110076878D01*
X94660170Y-110110170D01*
X94626878Y-110137492D01*
X94588898Y-110157793D01*
X94547682Y-110170295D01*
X94499916Y-110175000D01*
X93000084Y-110175000D01*
X92952318Y-110170295D01*
X92911102Y-110157793D01*
X92873122Y-110137492D01*
X92839830Y-110110170D01*
X92812508Y-110076878D01*
X92792207Y-110038898D01*
X92779705Y-109997682D01*
X92775000Y-109949916D01*
X92775000Y-108775084D01*
X92779705Y-108727318D01*
X92792207Y-108686102D01*
X92812508Y-108648122D01*
X92839830Y-108614830D01*
X92873122Y-108587508D01*
X92911102Y-108567207D01*
X92952318Y-108554705D01*
X93000084Y-108550000D01*
X94499916Y-108550000D01*
X94547682Y-108554705D01*
G37*
G36*
X96947682Y-108554705D02*
G01*
X96988898Y-108567207D01*
X97026878Y-108587508D01*
X97060170Y-108614830D01*
X97087492Y-108648122D01*
X97107793Y-108686102D01*
X97120295Y-108727318D01*
X97125000Y-108775084D01*
X97125000Y-109949916D01*
X97120295Y-109997682D01*
X97107793Y-110038898D01*
X97087492Y-110076878D01*
X97060170Y-110110170D01*
X97026878Y-110137492D01*
X96988898Y-110157793D01*
X96947682Y-110170295D01*
X96899916Y-110175000D01*
X95400084Y-110175000D01*
X95352318Y-110170295D01*
X95311102Y-110157793D01*
X95273122Y-110137492D01*
X95239830Y-110110170D01*
X95212508Y-110076878D01*
X95192207Y-110038898D01*
X95179705Y-109997682D01*
X95175000Y-109949916D01*
X95175000Y-108775084D01*
X95179705Y-108727318D01*
X95192207Y-108686102D01*
X95212508Y-108648122D01*
X95239830Y-108614830D01*
X95273122Y-108587508D01*
X95311102Y-108567207D01*
X95352318Y-108554705D01*
X95400084Y-108550000D01*
X96899916Y-108550000D01*
X96947682Y-108554705D01*
G37*
G36*
X114017105Y-108246508D02*
G01*
X114189994Y-108318121D01*
X114345590Y-108422087D01*
X114477913Y-108554410D01*
X114581879Y-108710006D01*
X114653492Y-108882895D01*
X114690000Y-109066433D01*
X114690000Y-109253567D01*
X114653492Y-109437105D01*
X114581879Y-109609994D01*
X114477913Y-109765590D01*
X114345590Y-109897913D01*
X114189994Y-110001879D01*
X114017105Y-110073492D01*
X113833567Y-110110000D01*
X113646433Y-110110000D01*
X113462895Y-110073492D01*
X113290006Y-110001879D01*
X113134410Y-109897913D01*
X113002087Y-109765590D01*
X112898121Y-109609994D01*
X112826508Y-109437105D01*
X112790000Y-109253567D01*
X112790000Y-109066433D01*
X112826508Y-108882895D01*
X112898121Y-108710006D01*
X113002087Y-108554410D01*
X113134410Y-108422087D01*
X113290006Y-108318121D01*
X113462895Y-108246508D01*
X113646433Y-108210000D01*
X113833567Y-108210000D01*
X114017105Y-108246508D01*
G37*
G36*
X86737105Y-108246508D02*
G01*
X86909994Y-108318121D01*
X87065590Y-108422087D01*
X87197913Y-108554410D01*
X87301879Y-108710006D01*
X87373492Y-108882895D01*
X87410000Y-109066433D01*
X87410000Y-109253567D01*
X87373492Y-109437105D01*
X87301879Y-109609994D01*
X87197913Y-109765590D01*
X87065590Y-109897913D01*
X86909994Y-110001879D01*
X86737105Y-110073492D01*
X86553567Y-110110000D01*
X86366433Y-110110000D01*
X86182895Y-110073492D01*
X86010006Y-110001879D01*
X85854410Y-109897913D01*
X85722087Y-109765590D01*
X85618121Y-109609994D01*
X85546508Y-109437105D01*
X85510000Y-109253567D01*
X85510000Y-109066433D01*
X85546508Y-108882895D01*
X85618121Y-108710006D01*
X85722087Y-108554410D01*
X85854410Y-108422087D01*
X86010006Y-108318121D01*
X86182895Y-108246508D01*
X86366433Y-108210000D01*
X86553567Y-108210000D01*
X86737105Y-108246508D01*
G37*
G36*
X105648832Y-108379678D02*
G01*
X105689774Y-108392097D01*
X105727512Y-108412269D01*
X105760588Y-108439412D01*
X105787731Y-108472488D01*
X105807903Y-108510226D01*
X105820322Y-108551168D01*
X105825000Y-108598658D01*
X105825000Y-109226342D01*
X105820322Y-109273832D01*
X105807903Y-109314774D01*
X105787731Y-109352512D01*
X105760588Y-109385588D01*
X105727512Y-109412731D01*
X105689774Y-109432903D01*
X105648832Y-109445322D01*
X105601342Y-109450000D01*
X104898658Y-109450000D01*
X104851168Y-109445322D01*
X104810226Y-109432903D01*
X104772488Y-109412731D01*
X104739412Y-109385588D01*
X104712269Y-109352512D01*
X104692097Y-109314774D01*
X104679678Y-109273832D01*
X104675000Y-109226342D01*
X104675000Y-108598658D01*
X104679678Y-108551168D01*
X104692097Y-108510226D01*
X104712269Y-108472488D01*
X104739412Y-108439412D01*
X104772488Y-108412269D01*
X104810226Y-108392097D01*
X104851168Y-108379678D01*
X104898658Y-108375000D01*
X105601342Y-108375000D01*
X105648832Y-108379678D01*
G37*
G36*
X107653708Y-108180158D02*
G01*
X107699345Y-108194001D01*
X107741400Y-108216480D01*
X107778265Y-108246735D01*
X107808520Y-108283600D01*
X107830999Y-108325655D01*
X107844842Y-108371292D01*
X107850000Y-108423658D01*
X107850000Y-109101342D01*
X107844842Y-109153708D01*
X107830999Y-109199345D01*
X107808520Y-109241400D01*
X107778265Y-109278265D01*
X107741400Y-109308520D01*
X107699345Y-109330999D01*
X107653708Y-109344842D01*
X107601342Y-109350000D01*
X106498658Y-109350000D01*
X106446292Y-109344842D01*
X106400655Y-109330999D01*
X106358600Y-109308520D01*
X106321735Y-109278265D01*
X106291480Y-109241400D01*
X106269001Y-109199345D01*
X106255158Y-109153708D01*
X106250000Y-109101342D01*
X106250000Y-108423658D01*
X106255158Y-108371292D01*
X106269001Y-108325655D01*
X106291480Y-108283600D01*
X106321735Y-108246735D01*
X106358600Y-108216480D01*
X106400655Y-108194001D01*
X106446292Y-108180158D01*
X106498658Y-108175000D01*
X107601342Y-108175000D01*
X107653708Y-108180158D01*
G37*
G36*
X94303708Y-106305158D02*
G01*
X94349345Y-106319001D01*
X94391400Y-106341480D01*
X94428265Y-106371735D01*
X94458520Y-106408600D01*
X94480999Y-106450655D01*
X94494842Y-106496292D01*
X94500000Y-106548658D01*
X94500000Y-107651342D01*
X94494842Y-107703708D01*
X94480999Y-107749345D01*
X94458520Y-107791400D01*
X94428265Y-107828265D01*
X94391400Y-107858520D01*
X94349345Y-107880999D01*
X94303708Y-107894842D01*
X94251342Y-107900000D01*
X93573658Y-107900000D01*
X93521292Y-107894842D01*
X93475655Y-107880999D01*
X93433600Y-107858520D01*
X93396735Y-107828265D01*
X93366480Y-107791400D01*
X93344001Y-107749345D01*
X93330158Y-107703708D01*
X93325000Y-107651342D01*
X93325000Y-106548658D01*
X93330158Y-106496292D01*
X93344001Y-106450655D01*
X93366480Y-106408600D01*
X93396735Y-106371735D01*
X93433600Y-106341480D01*
X93475655Y-106319001D01*
X93521292Y-106305158D01*
X93573658Y-106300000D01*
X94251342Y-106300000D01*
X94303708Y-106305158D01*
G37*
G36*
X96178708Y-106305158D02*
G01*
X96224345Y-106319001D01*
X96266400Y-106341480D01*
X96303265Y-106371735D01*
X96333520Y-106408600D01*
X96355999Y-106450655D01*
X96369842Y-106496292D01*
X96375000Y-106548658D01*
X96375000Y-107651342D01*
X96369842Y-107703708D01*
X96355999Y-107749345D01*
X96333520Y-107791400D01*
X96303265Y-107828265D01*
X96266400Y-107858520D01*
X96224345Y-107880999D01*
X96178708Y-107894842D01*
X96126342Y-107900000D01*
X95448658Y-107900000D01*
X95396292Y-107894842D01*
X95350655Y-107880999D01*
X95308600Y-107858520D01*
X95271735Y-107828265D01*
X95241480Y-107791400D01*
X95219001Y-107749345D01*
X95205158Y-107703708D01*
X95200000Y-107651342D01*
X95200000Y-106548658D01*
X95205158Y-106496292D01*
X95219001Y-106450655D01*
X95241480Y-106408600D01*
X95271735Y-106371735D01*
X95308600Y-106341480D01*
X95350655Y-106319001D01*
X95396292Y-106305158D01*
X95448658Y-106300000D01*
X96126342Y-106300000D01*
X96178708Y-106305158D01*
G37*
G36*
X103929167Y-106908356D02*
G01*
X103957217Y-106916865D01*
X103983067Y-106930682D01*
X104005724Y-106949276D01*
X104024318Y-106971933D01*
X104038135Y-106997783D01*
X104046644Y-107025833D01*
X104050000Y-107059909D01*
X104050000Y-107550091D01*
X104046644Y-107584167D01*
X104038135Y-107612217D01*
X104024318Y-107638067D01*
X104005724Y-107660724D01*
X103983067Y-107679318D01*
X103957217Y-107693135D01*
X103929167Y-107701644D01*
X103895091Y-107705000D01*
X102054909Y-107705000D01*
X102020833Y-107701644D01*
X101992783Y-107693135D01*
X101966933Y-107679318D01*
X101944276Y-107660724D01*
X101925682Y-107638067D01*
X101911865Y-107612217D01*
X101903356Y-107584167D01*
X101900000Y-107550091D01*
X101900000Y-107059909D01*
X101903356Y-107025833D01*
X101911865Y-106997783D01*
X101925682Y-106971933D01*
X101944276Y-106949276D01*
X101966933Y-106930682D01*
X101992783Y-106916865D01*
X102020833Y-106908356D01*
X102054909Y-106905000D01*
X103895091Y-106905000D01*
X103929167Y-106908356D01*
G37*
G36*
X98979167Y-106908356D02*
G01*
X99007217Y-106916865D01*
X99033067Y-106930682D01*
X99055724Y-106949276D01*
X99074318Y-106971933D01*
X99088135Y-106997783D01*
X99096644Y-107025833D01*
X99100000Y-107059909D01*
X99100000Y-107550091D01*
X99096644Y-107584167D01*
X99088135Y-107612217D01*
X99074318Y-107638067D01*
X99055724Y-107660724D01*
X99033067Y-107679318D01*
X99007217Y-107693135D01*
X98979167Y-107701644D01*
X98945091Y-107705000D01*
X97104909Y-107705000D01*
X97070833Y-107701644D01*
X97042783Y-107693135D01*
X97016933Y-107679318D01*
X96994276Y-107660724D01*
X96975682Y-107638067D01*
X96961865Y-107612217D01*
X96953356Y-107584167D01*
X96950000Y-107550091D01*
X96950000Y-107059909D01*
X96953356Y-107025833D01*
X96961865Y-106997783D01*
X96975682Y-106971933D01*
X96994276Y-106949276D01*
X97016933Y-106930682D01*
X97042783Y-106916865D01*
X97070833Y-106908356D01*
X97104909Y-106905000D01*
X98945091Y-106905000D01*
X98979167Y-106908356D01*
G37*
G36*
X86737105Y-105706508D02*
G01*
X86909994Y-105778121D01*
X87065590Y-105882087D01*
X87197913Y-106014410D01*
X87301879Y-106170006D01*
X87373492Y-106342895D01*
X87410000Y-106526433D01*
X87410000Y-106713567D01*
X87373492Y-106897105D01*
X87301879Y-107069994D01*
X87197913Y-107225590D01*
X87065590Y-107357913D01*
X86909994Y-107461879D01*
X86737105Y-107533492D01*
X86553567Y-107570000D01*
X86366433Y-107570000D01*
X86182895Y-107533492D01*
X86010006Y-107461879D01*
X85854410Y-107357913D01*
X85722087Y-107225590D01*
X85618121Y-107069994D01*
X85546508Y-106897105D01*
X85510000Y-106713567D01*
X85510000Y-106526433D01*
X85546508Y-106342895D01*
X85618121Y-106170006D01*
X85722087Y-106014410D01*
X85854410Y-105882087D01*
X86010006Y-105778121D01*
X86182895Y-105706508D01*
X86366433Y-105670000D01*
X86553567Y-105670000D01*
X86737105Y-105706508D01*
G37*
G36*
X114017105Y-105706508D02*
G01*
X114189994Y-105778121D01*
X114345590Y-105882087D01*
X114477913Y-106014410D01*
X114581879Y-106170006D01*
X114653492Y-106342895D01*
X114690000Y-106526433D01*
X114690000Y-106713567D01*
X114653492Y-106897105D01*
X114581879Y-107069994D01*
X114477913Y-107225590D01*
X114345590Y-107357913D01*
X114189994Y-107461879D01*
X114017105Y-107533492D01*
X113833567Y-107570000D01*
X113646433Y-107570000D01*
X113462895Y-107533492D01*
X113290006Y-107461879D01*
X113134410Y-107357913D01*
X113002087Y-107225590D01*
X112898121Y-107069994D01*
X112826508Y-106897105D01*
X112790000Y-106713567D01*
X112790000Y-106526433D01*
X112826508Y-106342895D01*
X112898121Y-106170006D01*
X113002087Y-106014410D01*
X113134410Y-105882087D01*
X113290006Y-105778121D01*
X113462895Y-105706508D01*
X113646433Y-105670000D01*
X113833567Y-105670000D01*
X114017105Y-105706508D01*
G37*
G36*
X107098832Y-106304678D02*
G01*
X107139774Y-106317097D01*
X107177512Y-106337269D01*
X107210588Y-106364412D01*
X107237731Y-106397488D01*
X107257903Y-106435226D01*
X107270322Y-106476168D01*
X107275000Y-106523658D01*
X107275000Y-107151342D01*
X107270322Y-107198832D01*
X107257903Y-107239774D01*
X107237731Y-107277512D01*
X107210588Y-107310588D01*
X107177512Y-107337731D01*
X107139774Y-107357903D01*
X107098832Y-107370322D01*
X107051342Y-107375000D01*
X106348658Y-107375000D01*
X106301168Y-107370322D01*
X106260226Y-107357903D01*
X106222488Y-107337731D01*
X106189412Y-107310588D01*
X106162269Y-107277512D01*
X106142097Y-107239774D01*
X106129678Y-107198832D01*
X106125000Y-107151342D01*
X106125000Y-106523658D01*
X106129678Y-106476168D01*
X106142097Y-106435226D01*
X106162269Y-106397488D01*
X106189412Y-106364412D01*
X106222488Y-106337269D01*
X106260226Y-106317097D01*
X106301168Y-106304678D01*
X106348658Y-106300000D01*
X107051342Y-106300000D01*
X107098832Y-106304678D01*
G37*
G36*
X105628832Y-106304678D02*
G01*
X105669774Y-106317097D01*
X105707512Y-106337269D01*
X105740588Y-106364412D01*
X105767731Y-106397488D01*
X105787903Y-106435226D01*
X105800322Y-106476168D01*
X105805000Y-106523658D01*
X105805000Y-107151342D01*
X105800322Y-107198832D01*
X105787903Y-107239774D01*
X105767731Y-107277512D01*
X105740588Y-107310588D01*
X105707512Y-107337731D01*
X105669774Y-107357903D01*
X105628832Y-107370322D01*
X105581342Y-107375000D01*
X104878658Y-107375000D01*
X104831168Y-107370322D01*
X104790226Y-107357903D01*
X104752488Y-107337731D01*
X104719412Y-107310588D01*
X104692269Y-107277512D01*
X104672097Y-107239774D01*
X104659678Y-107198832D01*
X104655000Y-107151342D01*
X104655000Y-106523658D01*
X104659678Y-106476168D01*
X104672097Y-106435226D01*
X104692269Y-106397488D01*
X104719412Y-106364412D01*
X104752488Y-106337269D01*
X104790226Y-106317097D01*
X104831168Y-106304678D01*
X104878658Y-106300000D01*
X105581342Y-106300000D01*
X105628832Y-106304678D01*
G37*
G36*
X98979167Y-105638356D02*
G01*
X99007217Y-105646865D01*
X99033067Y-105660682D01*
X99055724Y-105679276D01*
X99074318Y-105701933D01*
X99088135Y-105727783D01*
X99096644Y-105755833D01*
X99100000Y-105789909D01*
X99100000Y-106280091D01*
X99096644Y-106314167D01*
X99088135Y-106342217D01*
X99074318Y-106368067D01*
X99055724Y-106390724D01*
X99033067Y-106409318D01*
X99007217Y-106423135D01*
X98979167Y-106431644D01*
X98945091Y-106435000D01*
X97104909Y-106435000D01*
X97070833Y-106431644D01*
X97042783Y-106423135D01*
X97016933Y-106409318D01*
X96994276Y-106390724D01*
X96975682Y-106368067D01*
X96961865Y-106342217D01*
X96953356Y-106314167D01*
X96950000Y-106280091D01*
X96950000Y-105789909D01*
X96953356Y-105755833D01*
X96961865Y-105727783D01*
X96975682Y-105701933D01*
X96994276Y-105679276D01*
X97016933Y-105660682D01*
X97042783Y-105646865D01*
X97070833Y-105638356D01*
X97104909Y-105635000D01*
X98945091Y-105635000D01*
X98979167Y-105638356D01*
G37*
G36*
X103929167Y-105638356D02*
G01*
X103957217Y-105646865D01*
X103983067Y-105660682D01*
X104005724Y-105679276D01*
X104024318Y-105701933D01*
X104038135Y-105727783D01*
X104046644Y-105755833D01*
X104050000Y-105789909D01*
X104050000Y-106280091D01*
X104046644Y-106314167D01*
X104038135Y-106342217D01*
X104024318Y-106368067D01*
X104005724Y-106390724D01*
X103983067Y-106409318D01*
X103957217Y-106423135D01*
X103929167Y-106431644D01*
X103895091Y-106435000D01*
X102054909Y-106435000D01*
X102020833Y-106431644D01*
X101992783Y-106423135D01*
X101966933Y-106409318D01*
X101944276Y-106390724D01*
X101925682Y-106368067D01*
X101911865Y-106342217D01*
X101903356Y-106314167D01*
X101900000Y-106280091D01*
X101900000Y-105789909D01*
X101903356Y-105755833D01*
X101911865Y-105727783D01*
X101925682Y-105701933D01*
X101944276Y-105679276D01*
X101966933Y-105660682D01*
X101992783Y-105646865D01*
X102020833Y-105638356D01*
X102054909Y-105635000D01*
X103895091Y-105635000D01*
X103929167Y-105638356D01*
G37*
G36*
X105628832Y-104729678D02*
G01*
X105669774Y-104742097D01*
X105707512Y-104762269D01*
X105740588Y-104789412D01*
X105767731Y-104822488D01*
X105787903Y-104860226D01*
X105800322Y-104901168D01*
X105805000Y-104948658D01*
X105805000Y-105576342D01*
X105800322Y-105623832D01*
X105787903Y-105664774D01*
X105767731Y-105702512D01*
X105740588Y-105735588D01*
X105707512Y-105762731D01*
X105669774Y-105782903D01*
X105628832Y-105795322D01*
X105581342Y-105800000D01*
X104878658Y-105800000D01*
X104831168Y-105795322D01*
X104790226Y-105782903D01*
X104752488Y-105762731D01*
X104719412Y-105735588D01*
X104692269Y-105702512D01*
X104672097Y-105664774D01*
X104659678Y-105623832D01*
X104655000Y-105576342D01*
X104655000Y-104948658D01*
X104659678Y-104901168D01*
X104672097Y-104860226D01*
X104692269Y-104822488D01*
X104719412Y-104789412D01*
X104752488Y-104762269D01*
X104790226Y-104742097D01*
X104831168Y-104729678D01*
X104878658Y-104725000D01*
X105581342Y-104725000D01*
X105628832Y-104729678D01*
G37*
G36*
X107098832Y-104729678D02*
G01*
X107139774Y-104742097D01*
X107177512Y-104762269D01*
X107210588Y-104789412D01*
X107237731Y-104822488D01*
X107257903Y-104860226D01*
X107270322Y-104901168D01*
X107275000Y-104948658D01*
X107275000Y-105576342D01*
X107270322Y-105623832D01*
X107257903Y-105664774D01*
X107237731Y-105702512D01*
X107210588Y-105735588D01*
X107177512Y-105762731D01*
X107139774Y-105782903D01*
X107098832Y-105795322D01*
X107051342Y-105800000D01*
X106348658Y-105800000D01*
X106301168Y-105795322D01*
X106260226Y-105782903D01*
X106222488Y-105762731D01*
X106189412Y-105735588D01*
X106162269Y-105702512D01*
X106142097Y-105664774D01*
X106129678Y-105623832D01*
X106125000Y-105576342D01*
X106125000Y-104948658D01*
X106129678Y-104901168D01*
X106142097Y-104860226D01*
X106162269Y-104822488D01*
X106189412Y-104789412D01*
X106222488Y-104762269D01*
X106260226Y-104742097D01*
X106301168Y-104729678D01*
X106348658Y-104725000D01*
X107051342Y-104725000D01*
X107098832Y-104729678D01*
G37*
G36*
X94698832Y-104254678D02*
G01*
X94739774Y-104267097D01*
X94777512Y-104287269D01*
X94810588Y-104314412D01*
X94837731Y-104347488D01*
X94857903Y-104385226D01*
X94870322Y-104426168D01*
X94875000Y-104473658D01*
X94875000Y-105101342D01*
X94870322Y-105148832D01*
X94857903Y-105189774D01*
X94837731Y-105227512D01*
X94810588Y-105260588D01*
X94777512Y-105287731D01*
X94739774Y-105307903D01*
X94698832Y-105320322D01*
X94651342Y-105325000D01*
X93948658Y-105325000D01*
X93901168Y-105320322D01*
X93860226Y-105307903D01*
X93822488Y-105287731D01*
X93789412Y-105260588D01*
X93762269Y-105227512D01*
X93742097Y-105189774D01*
X93729678Y-105148832D01*
X93725000Y-105101342D01*
X93725000Y-104473658D01*
X93729678Y-104426168D01*
X93742097Y-104385226D01*
X93762269Y-104347488D01*
X93789412Y-104314412D01*
X93822488Y-104287269D01*
X93860226Y-104267097D01*
X93901168Y-104254678D01*
X93948658Y-104250000D01*
X94651342Y-104250000D01*
X94698832Y-104254678D01*
G37*
G36*
X96208832Y-104254678D02*
G01*
X96249774Y-104267097D01*
X96287512Y-104287269D01*
X96320588Y-104314412D01*
X96347731Y-104347488D01*
X96367903Y-104385226D01*
X96380322Y-104426168D01*
X96385000Y-104473658D01*
X96385000Y-105101342D01*
X96380322Y-105148832D01*
X96367903Y-105189774D01*
X96347731Y-105227512D01*
X96320588Y-105260588D01*
X96287512Y-105287731D01*
X96249774Y-105307903D01*
X96208832Y-105320322D01*
X96161342Y-105325000D01*
X95458658Y-105325000D01*
X95411168Y-105320322D01*
X95370226Y-105307903D01*
X95332488Y-105287731D01*
X95299412Y-105260588D01*
X95272269Y-105227512D01*
X95252097Y-105189774D01*
X95239678Y-105148832D01*
X95235000Y-105101342D01*
X95235000Y-104473658D01*
X95239678Y-104426168D01*
X95252097Y-104385226D01*
X95272269Y-104347488D01*
X95299412Y-104314412D01*
X95332488Y-104287269D01*
X95370226Y-104267097D01*
X95411168Y-104254678D01*
X95458658Y-104250000D01*
X96161342Y-104250000D01*
X96208832Y-104254678D01*
G37*
G36*
X103929167Y-104368356D02*
G01*
X103957217Y-104376865D01*
X103983067Y-104390682D01*
X104005724Y-104409276D01*
X104024318Y-104431933D01*
X104038135Y-104457783D01*
X104046644Y-104485833D01*
X104050000Y-104519909D01*
X104050000Y-105010091D01*
X104046644Y-105044167D01*
X104038135Y-105072217D01*
X104024318Y-105098067D01*
X104005724Y-105120724D01*
X103983067Y-105139318D01*
X103957217Y-105153135D01*
X103929167Y-105161644D01*
X103895091Y-105165000D01*
X102054909Y-105165000D01*
X102020833Y-105161644D01*
X101992783Y-105153135D01*
X101966933Y-105139318D01*
X101944276Y-105120724D01*
X101925682Y-105098067D01*
X101911865Y-105072217D01*
X101903356Y-105044167D01*
X101900000Y-105010091D01*
X101900000Y-104519909D01*
X101903356Y-104485833D01*
X101911865Y-104457783D01*
X101925682Y-104431933D01*
X101944276Y-104409276D01*
X101966933Y-104390682D01*
X101992783Y-104376865D01*
X102020833Y-104368356D01*
X102054909Y-104365000D01*
X103895091Y-104365000D01*
X103929167Y-104368356D01*
G37*
G36*
X98979167Y-104368356D02*
G01*
X99007217Y-104376865D01*
X99033067Y-104390682D01*
X99055724Y-104409276D01*
X99074318Y-104431933D01*
X99088135Y-104457783D01*
X99096644Y-104485833D01*
X99100000Y-104519909D01*
X99100000Y-105010091D01*
X99096644Y-105044167D01*
X99088135Y-105072217D01*
X99074318Y-105098067D01*
X99055724Y-105120724D01*
X99033067Y-105139318D01*
X99007217Y-105153135D01*
X98979167Y-105161644D01*
X98945091Y-105165000D01*
X97104909Y-105165000D01*
X97070833Y-105161644D01*
X97042783Y-105153135D01*
X97016933Y-105139318D01*
X96994276Y-105120724D01*
X96975682Y-105098067D01*
X96961865Y-105072217D01*
X96953356Y-105044167D01*
X96950000Y-105010091D01*
X96950000Y-104519909D01*
X96953356Y-104485833D01*
X96961865Y-104457783D01*
X96975682Y-104431933D01*
X96994276Y-104409276D01*
X97016933Y-104390682D01*
X97042783Y-104376865D01*
X97070833Y-104368356D01*
X97104909Y-104365000D01*
X98945091Y-104365000D01*
X98979167Y-104368356D01*
G37*
G36*
X114017105Y-103166508D02*
G01*
X114189994Y-103238121D01*
X114345590Y-103342087D01*
X114477913Y-103474410D01*
X114581879Y-103630006D01*
X114653492Y-103802895D01*
X114690000Y-103986433D01*
X114690000Y-104173567D01*
X114653492Y-104357105D01*
X114581879Y-104529994D01*
X114477913Y-104685590D01*
X114345590Y-104817913D01*
X114189994Y-104921879D01*
X114017105Y-104993492D01*
X113833567Y-105030000D01*
X113646433Y-105030000D01*
X113462895Y-104993492D01*
X113290006Y-104921879D01*
X113134410Y-104817913D01*
X113002087Y-104685590D01*
X112898121Y-104529994D01*
X112826508Y-104357105D01*
X112790000Y-104173567D01*
X112790000Y-103986433D01*
X112826508Y-103802895D01*
X112898121Y-103630006D01*
X113002087Y-103474410D01*
X113134410Y-103342087D01*
X113290006Y-103238121D01*
X113462895Y-103166508D01*
X113646433Y-103130000D01*
X113833567Y-103130000D01*
X114017105Y-103166508D01*
G37*
G36*
X86737105Y-103166508D02*
G01*
X86909994Y-103238121D01*
X87065590Y-103342087D01*
X87197913Y-103474410D01*
X87301879Y-103630006D01*
X87373492Y-103802895D01*
X87410000Y-103986433D01*
X87410000Y-104173567D01*
X87373492Y-104357105D01*
X87301879Y-104529994D01*
X87197913Y-104685590D01*
X87065590Y-104817913D01*
X86909994Y-104921879D01*
X86737105Y-104993492D01*
X86553567Y-105030000D01*
X86366433Y-105030000D01*
X86182895Y-104993492D01*
X86010006Y-104921879D01*
X85854410Y-104817913D01*
X85722087Y-104685590D01*
X85618121Y-104529994D01*
X85546508Y-104357105D01*
X85510000Y-104173567D01*
X85510000Y-103986433D01*
X85546508Y-103802895D01*
X85618121Y-103630006D01*
X85722087Y-103474410D01*
X85854410Y-103342087D01*
X86010006Y-103238121D01*
X86182895Y-103166508D01*
X86366433Y-103130000D01*
X86553567Y-103130000D01*
X86737105Y-103166508D01*
G37*
G36*
X107136332Y-103029678D02*
G01*
X107177274Y-103042097D01*
X107215012Y-103062269D01*
X107248088Y-103089412D01*
X107275231Y-103122488D01*
X107295403Y-103160226D01*
X107307822Y-103201168D01*
X107312500Y-103248658D01*
X107312500Y-103951342D01*
X107307822Y-103998832D01*
X107295403Y-104039774D01*
X107275231Y-104077512D01*
X107248088Y-104110588D01*
X107215012Y-104137731D01*
X107177274Y-104157903D01*
X107136332Y-104170322D01*
X107088842Y-104175000D01*
X106461158Y-104175000D01*
X106413668Y-104170322D01*
X106372726Y-104157903D01*
X106334988Y-104137731D01*
X106301912Y-104110588D01*
X106274769Y-104077512D01*
X106254597Y-104039774D01*
X106242178Y-103998832D01*
X106237500Y-103951342D01*
X106237500Y-103248658D01*
X106242178Y-103201168D01*
X106254597Y-103160226D01*
X106274769Y-103122488D01*
X106301912Y-103089412D01*
X106334988Y-103062269D01*
X106372726Y-103042097D01*
X106413668Y-103029678D01*
X106461158Y-103025000D01*
X107088842Y-103025000D01*
X107136332Y-103029678D01*
G37*
G36*
X105561332Y-103029678D02*
G01*
X105602274Y-103042097D01*
X105640012Y-103062269D01*
X105673088Y-103089412D01*
X105700231Y-103122488D01*
X105720403Y-103160226D01*
X105732822Y-103201168D01*
X105737500Y-103248658D01*
X105737500Y-103951342D01*
X105732822Y-103998832D01*
X105720403Y-104039774D01*
X105700231Y-104077512D01*
X105673088Y-104110588D01*
X105640012Y-104137731D01*
X105602274Y-104157903D01*
X105561332Y-104170322D01*
X105513842Y-104175000D01*
X104886158Y-104175000D01*
X104838668Y-104170322D01*
X104797726Y-104157903D01*
X104759988Y-104137731D01*
X104726912Y-104110588D01*
X104699769Y-104077512D01*
X104679597Y-104039774D01*
X104667178Y-103998832D01*
X104662500Y-103951342D01*
X104662500Y-103248658D01*
X104667178Y-103201168D01*
X104679597Y-103160226D01*
X104699769Y-103122488D01*
X104726912Y-103089412D01*
X104759988Y-103062269D01*
X104797726Y-103042097D01*
X104838668Y-103029678D01*
X104886158Y-103025000D01*
X105513842Y-103025000D01*
X105561332Y-103029678D01*
G37*
G36*
X103929167Y-103098356D02*
G01*
X103957217Y-103106865D01*
X103983067Y-103120682D01*
X104005724Y-103139276D01*
X104024318Y-103161933D01*
X104038135Y-103187783D01*
X104046644Y-103215833D01*
X104050000Y-103249909D01*
X104050000Y-103740091D01*
X104046644Y-103774167D01*
X104038135Y-103802217D01*
X104024318Y-103828067D01*
X104005724Y-103850724D01*
X103983067Y-103869318D01*
X103957217Y-103883135D01*
X103929167Y-103891644D01*
X103895091Y-103895000D01*
X102054909Y-103895000D01*
X102020833Y-103891644D01*
X101992783Y-103883135D01*
X101966933Y-103869318D01*
X101944276Y-103850724D01*
X101925682Y-103828067D01*
X101911865Y-103802217D01*
X101903356Y-103774167D01*
X101900000Y-103740091D01*
X101900000Y-103249909D01*
X101903356Y-103215833D01*
X101911865Y-103187783D01*
X101925682Y-103161933D01*
X101944276Y-103139276D01*
X101966933Y-103120682D01*
X101992783Y-103106865D01*
X102020833Y-103098356D01*
X102054909Y-103095000D01*
X103895091Y-103095000D01*
X103929167Y-103098356D01*
G37*
G36*
X98979167Y-103098356D02*
G01*
X99007217Y-103106865D01*
X99033067Y-103120682D01*
X99055724Y-103139276D01*
X99074318Y-103161933D01*
X99088135Y-103187783D01*
X99096644Y-103215833D01*
X99100000Y-103249909D01*
X99100000Y-103740091D01*
X99096644Y-103774167D01*
X99088135Y-103802217D01*
X99074318Y-103828067D01*
X99055724Y-103850724D01*
X99033067Y-103869318D01*
X99007217Y-103883135D01*
X98979167Y-103891644D01*
X98945091Y-103895000D01*
X97104909Y-103895000D01*
X97070833Y-103891644D01*
X97042783Y-103883135D01*
X97016933Y-103869318D01*
X96994276Y-103850724D01*
X96975682Y-103828067D01*
X96961865Y-103802217D01*
X96953356Y-103774167D01*
X96950000Y-103740091D01*
X96950000Y-103249909D01*
X96953356Y-103215833D01*
X96961865Y-103187783D01*
X96975682Y-103161933D01*
X96994276Y-103139276D01*
X97016933Y-103120682D01*
X97042783Y-103106865D01*
X97070833Y-103098356D01*
X97104909Y-103095000D01*
X98945091Y-103095000D01*
X98979167Y-103098356D01*
G37*
G36*
X96208832Y-102679678D02*
G01*
X96249774Y-102692097D01*
X96287512Y-102712269D01*
X96320588Y-102739412D01*
X96347731Y-102772488D01*
X96367903Y-102810226D01*
X96380322Y-102851168D01*
X96385000Y-102898658D01*
X96385000Y-103526342D01*
X96380322Y-103573832D01*
X96367903Y-103614774D01*
X96347731Y-103652512D01*
X96320588Y-103685588D01*
X96287512Y-103712731D01*
X96249774Y-103732903D01*
X96208832Y-103745322D01*
X96161342Y-103750000D01*
X95458658Y-103750000D01*
X95411168Y-103745322D01*
X95370226Y-103732903D01*
X95332488Y-103712731D01*
X95299412Y-103685588D01*
X95272269Y-103652512D01*
X95252097Y-103614774D01*
X95239678Y-103573832D01*
X95235000Y-103526342D01*
X95235000Y-102898658D01*
X95239678Y-102851168D01*
X95252097Y-102810226D01*
X95272269Y-102772488D01*
X95299412Y-102739412D01*
X95332488Y-102712269D01*
X95370226Y-102692097D01*
X95411168Y-102679678D01*
X95458658Y-102675000D01*
X96161342Y-102675000D01*
X96208832Y-102679678D01*
G37*
G36*
X94698832Y-102679678D02*
G01*
X94739774Y-102692097D01*
X94777512Y-102712269D01*
X94810588Y-102739412D01*
X94837731Y-102772488D01*
X94857903Y-102810226D01*
X94870322Y-102851168D01*
X94875000Y-102898658D01*
X94875000Y-103526342D01*
X94870322Y-103573832D01*
X94857903Y-103614774D01*
X94837731Y-103652512D01*
X94810588Y-103685588D01*
X94777512Y-103712731D01*
X94739774Y-103732903D01*
X94698832Y-103745322D01*
X94651342Y-103750000D01*
X93948658Y-103750000D01*
X93901168Y-103745322D01*
X93860226Y-103732903D01*
X93822488Y-103712731D01*
X93789412Y-103685588D01*
X93762269Y-103652512D01*
X93742097Y-103614774D01*
X93729678Y-103573832D01*
X93725000Y-103526342D01*
X93725000Y-102898658D01*
X93729678Y-102851168D01*
X93742097Y-102810226D01*
X93762269Y-102772488D01*
X93789412Y-102739412D01*
X93822488Y-102712269D01*
X93860226Y-102692097D01*
X93901168Y-102679678D01*
X93948658Y-102675000D01*
X94651342Y-102675000D01*
X94698832Y-102679678D01*
G37*
G36*
X107203708Y-101355158D02*
G01*
X107249345Y-101369001D01*
X107291400Y-101391480D01*
X107328265Y-101421735D01*
X107358520Y-101458600D01*
X107380999Y-101500655D01*
X107394842Y-101546292D01*
X107400000Y-101598658D01*
X107400000Y-102276342D01*
X107394842Y-102328708D01*
X107380999Y-102374345D01*
X107358520Y-102416400D01*
X107328265Y-102453265D01*
X107291400Y-102483520D01*
X107249345Y-102505999D01*
X107203708Y-102519842D01*
X107151342Y-102525000D01*
X106048658Y-102525000D01*
X105996292Y-102519842D01*
X105950655Y-102505999D01*
X105908600Y-102483520D01*
X105871735Y-102453265D01*
X105841480Y-102416400D01*
X105819001Y-102374345D01*
X105805158Y-102328708D01*
X105800000Y-102276342D01*
X105800000Y-101598658D01*
X105805158Y-101546292D01*
X105819001Y-101500655D01*
X105841480Y-101458600D01*
X105871735Y-101421735D01*
X105908600Y-101391480D01*
X105950655Y-101369001D01*
X105996292Y-101355158D01*
X106048658Y-101350000D01*
X107151342Y-101350000D01*
X107203708Y-101355158D01*
G37*
G36*
X86737105Y-100626508D02*
G01*
X86909994Y-100698121D01*
X87065590Y-100802087D01*
X87197913Y-100934410D01*
X87301879Y-101090006D01*
X87373492Y-101262895D01*
X87410000Y-101446433D01*
X87410000Y-101633567D01*
X87373492Y-101817105D01*
X87301879Y-101989994D01*
X87197913Y-102145590D01*
X87065590Y-102277913D01*
X86909994Y-102381879D01*
X86737105Y-102453492D01*
X86553567Y-102490000D01*
X86366433Y-102490000D01*
X86182895Y-102453492D01*
X86010006Y-102381879D01*
X85854410Y-102277913D01*
X85722087Y-102145590D01*
X85618121Y-101989994D01*
X85546508Y-101817105D01*
X85510000Y-101633567D01*
X85510000Y-101446433D01*
X85546508Y-101262895D01*
X85618121Y-101090006D01*
X85722087Y-100934410D01*
X85854410Y-100802087D01*
X86010006Y-100698121D01*
X86182895Y-100626508D01*
X86366433Y-100590000D01*
X86553567Y-100590000D01*
X86737105Y-100626508D01*
G37*
G36*
X114017105Y-100626508D02*
G01*
X114189994Y-100698121D01*
X114345590Y-100802087D01*
X114477913Y-100934410D01*
X114581879Y-101090006D01*
X114653492Y-101262895D01*
X114690000Y-101446433D01*
X114690000Y-101633567D01*
X114653492Y-101817105D01*
X114581879Y-101989994D01*
X114477913Y-102145590D01*
X114345590Y-102277913D01*
X114189994Y-102381879D01*
X114017105Y-102453492D01*
X113833567Y-102490000D01*
X113646433Y-102490000D01*
X113462895Y-102453492D01*
X113290006Y-102381879D01*
X113134410Y-102277913D01*
X113002087Y-102145590D01*
X112898121Y-101989994D01*
X112826508Y-101817105D01*
X112790000Y-101633567D01*
X112790000Y-101446433D01*
X112826508Y-101262895D01*
X112898121Y-101090006D01*
X113002087Y-100934410D01*
X113134410Y-100802087D01*
X113290006Y-100698121D01*
X113462895Y-100626508D01*
X113646433Y-100590000D01*
X113833567Y-100590000D01*
X114017105Y-100626508D01*
G37*
G36*
X102098832Y-101154678D02*
G01*
X102139774Y-101167097D01*
X102177512Y-101187269D01*
X102210588Y-101214412D01*
X102237731Y-101247488D01*
X102257903Y-101285226D01*
X102270322Y-101326168D01*
X102275000Y-101373658D01*
X102275000Y-102001342D01*
X102270322Y-102048832D01*
X102257903Y-102089774D01*
X102237731Y-102127512D01*
X102210588Y-102160588D01*
X102177512Y-102187731D01*
X102139774Y-102207903D01*
X102098832Y-102220322D01*
X102051342Y-102225000D01*
X101348658Y-102225000D01*
X101301168Y-102220322D01*
X101260226Y-102207903D01*
X101222488Y-102187731D01*
X101189412Y-102160588D01*
X101162269Y-102127512D01*
X101142097Y-102089774D01*
X101129678Y-102048832D01*
X101125000Y-102001342D01*
X101125000Y-101373658D01*
X101129678Y-101326168D01*
X101142097Y-101285226D01*
X101162269Y-101247488D01*
X101189412Y-101214412D01*
X101222488Y-101187269D01*
X101260226Y-101167097D01*
X101301168Y-101154678D01*
X101348658Y-101150000D01*
X102051342Y-101150000D01*
X102098832Y-101154678D01*
G37*
G36*
X104203708Y-101055158D02*
G01*
X104249345Y-101069001D01*
X104291400Y-101091480D01*
X104328265Y-101121735D01*
X104358520Y-101158600D01*
X104380999Y-101200655D01*
X104394842Y-101246292D01*
X104400000Y-101298658D01*
X104400000Y-101976342D01*
X104394842Y-102028708D01*
X104380999Y-102074345D01*
X104358520Y-102116400D01*
X104328265Y-102153265D01*
X104291400Y-102183520D01*
X104249345Y-102205999D01*
X104203708Y-102219842D01*
X104151342Y-102225000D01*
X103048658Y-102225000D01*
X102996292Y-102219842D01*
X102950655Y-102205999D01*
X102908600Y-102183520D01*
X102871735Y-102153265D01*
X102841480Y-102116400D01*
X102819001Y-102074345D01*
X102805158Y-102028708D01*
X102800000Y-101976342D01*
X102800000Y-101298658D01*
X102805158Y-101246292D01*
X102819001Y-101200655D01*
X102841480Y-101158600D01*
X102871735Y-101121735D01*
X102908600Y-101091480D01*
X102950655Y-101069001D01*
X102996292Y-101055158D01*
X103048658Y-101050000D01*
X104151342Y-101050000D01*
X104203708Y-101055158D01*
G37*
G36*
X100530000Y-101975000D02*
G01*
X99270000Y-101975000D01*
X99270000Y-99225000D01*
X100530000Y-99225000D01*
X100530000Y-101975000D01*
G37*
G36*
X98330000Y-101975000D02*
G01*
X97070000Y-101975000D01*
X97070000Y-101125000D01*
X98330000Y-101125000D01*
X98330000Y-101975000D01*
G37*
G36*
X107203708Y-99480158D02*
G01*
X107249345Y-99494001D01*
X107291400Y-99516480D01*
X107328265Y-99546735D01*
X107358520Y-99583600D01*
X107380999Y-99625655D01*
X107394842Y-99671292D01*
X107400000Y-99723658D01*
X107400000Y-100401342D01*
X107394842Y-100453708D01*
X107380999Y-100499345D01*
X107358520Y-100541400D01*
X107328265Y-100578265D01*
X107291400Y-100608520D01*
X107249345Y-100630999D01*
X107203708Y-100644842D01*
X107151342Y-100650000D01*
X106048658Y-100650000D01*
X105996292Y-100644842D01*
X105950655Y-100630999D01*
X105908600Y-100608520D01*
X105871735Y-100578265D01*
X105841480Y-100541400D01*
X105819001Y-100499345D01*
X105805158Y-100453708D01*
X105800000Y-100401342D01*
X105800000Y-99723658D01*
X105805158Y-99671292D01*
X105819001Y-99625655D01*
X105841480Y-99583600D01*
X105871735Y-99546735D01*
X105908600Y-99516480D01*
X105950655Y-99494001D01*
X105996292Y-99480158D01*
X106048658Y-99475000D01*
X107151342Y-99475000D01*
X107203708Y-99480158D01*
G37*
G36*
X102098832Y-99579678D02*
G01*
X102139774Y-99592097D01*
X102177512Y-99612269D01*
X102210588Y-99639412D01*
X102237731Y-99672488D01*
X102257903Y-99710226D01*
X102270322Y-99751168D01*
X102275000Y-99798658D01*
X102275000Y-100426342D01*
X102270322Y-100473832D01*
X102257903Y-100514774D01*
X102237731Y-100552512D01*
X102210588Y-100585588D01*
X102177512Y-100612731D01*
X102139774Y-100632903D01*
X102098832Y-100645322D01*
X102051342Y-100650000D01*
X101348658Y-100650000D01*
X101301168Y-100645322D01*
X101260226Y-100632903D01*
X101222488Y-100612731D01*
X101189412Y-100585588D01*
X101162269Y-100552512D01*
X101142097Y-100514774D01*
X101129678Y-100473832D01*
X101125000Y-100426342D01*
X101125000Y-99798658D01*
X101129678Y-99751168D01*
X101142097Y-99710226D01*
X101162269Y-99672488D01*
X101189412Y-99639412D01*
X101222488Y-99612269D01*
X101260226Y-99592097D01*
X101301168Y-99579678D01*
X101348658Y-99575000D01*
X102051342Y-99575000D01*
X102098832Y-99579678D01*
G37*
G36*
X104203708Y-99180158D02*
G01*
X104249345Y-99194001D01*
X104291400Y-99216480D01*
X104328265Y-99246735D01*
X104358520Y-99283600D01*
X104380999Y-99325655D01*
X104394842Y-99371292D01*
X104400000Y-99423658D01*
X104400000Y-100101342D01*
X104394842Y-100153708D01*
X104380999Y-100199345D01*
X104358520Y-100241400D01*
X104328265Y-100278265D01*
X104291400Y-100308520D01*
X104249345Y-100330999D01*
X104203708Y-100344842D01*
X104151342Y-100350000D01*
X103048658Y-100350000D01*
X102996292Y-100344842D01*
X102950655Y-100330999D01*
X102908600Y-100308520D01*
X102871735Y-100278265D01*
X102841480Y-100241400D01*
X102819001Y-100199345D01*
X102805158Y-100153708D01*
X102800000Y-100101342D01*
X102800000Y-99423658D01*
X102805158Y-99371292D01*
X102819001Y-99325655D01*
X102841480Y-99283600D01*
X102871735Y-99246735D01*
X102908600Y-99216480D01*
X102950655Y-99194001D01*
X102996292Y-99180158D01*
X103048658Y-99175000D01*
X104151342Y-99175000D01*
X104203708Y-99180158D01*
G37*
G36*
X98330000Y-100075000D02*
G01*
X97070000Y-100075000D01*
X97070000Y-99225000D01*
X98330000Y-99225000D01*
X98330000Y-100075000D01*
G37*
G36*
X86737105Y-98086508D02*
G01*
X86909994Y-98158121D01*
X87065590Y-98262087D01*
X87197913Y-98394410D01*
X87301879Y-98550006D01*
X87373492Y-98722895D01*
X87410000Y-98906433D01*
X87410000Y-99093567D01*
X87373492Y-99277105D01*
X87301879Y-99449994D01*
X87197913Y-99605590D01*
X87065590Y-99737913D01*
X86909994Y-99841879D01*
X86737105Y-99913492D01*
X86553567Y-99950000D01*
X86366433Y-99950000D01*
X86182895Y-99913492D01*
X86010006Y-99841879D01*
X85854410Y-99737913D01*
X85722087Y-99605590D01*
X85618121Y-99449994D01*
X85546508Y-99277105D01*
X85510000Y-99093567D01*
X85510000Y-98906433D01*
X85546508Y-98722895D01*
X85618121Y-98550006D01*
X85722087Y-98394410D01*
X85854410Y-98262087D01*
X86010006Y-98158121D01*
X86182895Y-98086508D01*
X86366433Y-98050000D01*
X86553567Y-98050000D01*
X86737105Y-98086508D01*
G37*
G36*
X114017105Y-98086508D02*
G01*
X114189994Y-98158121D01*
X114345590Y-98262087D01*
X114477913Y-98394410D01*
X114581879Y-98550006D01*
X114653492Y-98722895D01*
X114690000Y-98906433D01*
X114690000Y-99093567D01*
X114653492Y-99277105D01*
X114581879Y-99449994D01*
X114477913Y-99605590D01*
X114345590Y-99737913D01*
X114189994Y-99841879D01*
X114017105Y-99913492D01*
X113833567Y-99950000D01*
X113646433Y-99950000D01*
X113462895Y-99913492D01*
X113290006Y-99841879D01*
X113134410Y-99737913D01*
X113002087Y-99605590D01*
X112898121Y-99449994D01*
X112826508Y-99277105D01*
X112790000Y-99093567D01*
X112790000Y-98906433D01*
X112826508Y-98722895D01*
X112898121Y-98550006D01*
X113002087Y-98394410D01*
X113134410Y-98262087D01*
X113290006Y-98158121D01*
X113462895Y-98086508D01*
X113646433Y-98050000D01*
X113833567Y-98050000D01*
X114017105Y-98086508D01*
G37*
G36*
X107623125Y-97995000D02*
G01*
X92976875Y-97995000D01*
X92976875Y-97295000D01*
X107623125Y-97295000D01*
X107623125Y-97995000D01*
G37*
G36*
X114017105Y-95546508D02*
G01*
X114189994Y-95618121D01*
X114345590Y-95722087D01*
X114477913Y-95854410D01*
X114581879Y-96010006D01*
X114653492Y-96182895D01*
X114690000Y-96366433D01*
X114690000Y-96553567D01*
X114653492Y-96737105D01*
X114581879Y-96909994D01*
X114477913Y-97065590D01*
X114345590Y-97197913D01*
X114189994Y-97301879D01*
X114017105Y-97373492D01*
X113833567Y-97410000D01*
X113646433Y-97410000D01*
X113462895Y-97373492D01*
X113290006Y-97301879D01*
X113134410Y-97197913D01*
X113002087Y-97065590D01*
X112898121Y-96909994D01*
X112826508Y-96737105D01*
X112790000Y-96553567D01*
X112790000Y-96366433D01*
X112826508Y-96182895D01*
X112898121Y-96010006D01*
X113002087Y-95854410D01*
X113134410Y-95722087D01*
X113290006Y-95618121D01*
X113462895Y-95546508D01*
X113646433Y-95510000D01*
X113833567Y-95510000D01*
X114017105Y-95546508D01*
G37*
G36*
X86737105Y-95546508D02*
G01*
X86909994Y-95618121D01*
X87065590Y-95722087D01*
X87197913Y-95854410D01*
X87301879Y-96010006D01*
X87373492Y-96182895D01*
X87410000Y-96366433D01*
X87410000Y-96553567D01*
X87373492Y-96737105D01*
X87301879Y-96909994D01*
X87197913Y-97065590D01*
X87065590Y-97197913D01*
X86909994Y-97301879D01*
X86737105Y-97373492D01*
X86553567Y-97410000D01*
X86366433Y-97410000D01*
X86182895Y-97373492D01*
X86010006Y-97301879D01*
X85854410Y-97197913D01*
X85722087Y-97065590D01*
X85618121Y-96909994D01*
X85546508Y-96737105D01*
X85510000Y-96553567D01*
X85510000Y-96366433D01*
X85546508Y-96182895D01*
X85618121Y-96010006D01*
X85722087Y-95854410D01*
X85854410Y-95722087D01*
X86010006Y-95618121D01*
X86182895Y-95546508D01*
X86366433Y-95510000D01*
X86553567Y-95510000D01*
X86737105Y-95546508D01*
G37*
G36*
X111000000Y-94750000D02*
G01*
X103830733Y-94750000D01*
X103811224Y-94751921D01*
X103792465Y-94757612D01*
X103775177Y-94766853D01*
X103760023Y-94779289D01*
X103747587Y-94794443D01*
X103738346Y-94811731D01*
X103732655Y-94830490D01*
X103730734Y-94849999D01*
X103732655Y-94869507D01*
X103740000Y-94906433D01*
X103740000Y-95093567D01*
X103703492Y-95277105D01*
X103631879Y-95449994D01*
X103527913Y-95605590D01*
X103395590Y-95737913D01*
X103239994Y-95841879D01*
X103067105Y-95913492D01*
X102883567Y-95950000D01*
X102696433Y-95950000D01*
X102512895Y-95913492D01*
X102340006Y-95841879D01*
X102184410Y-95737913D01*
X102052087Y-95605590D01*
X101948121Y-95449994D01*
X101876508Y-95277105D01*
X101840000Y-95093567D01*
X101840000Y-94906433D01*
X101847345Y-94869507D01*
X101849266Y-94849998D01*
X101847344Y-94830489D01*
X101841654Y-94811730D01*
X101832413Y-94794442D01*
X101819976Y-94779289D01*
X101804823Y-94766852D01*
X101787534Y-94757612D01*
X101768775Y-94751921D01*
X101749267Y-94750000D01*
X101290733Y-94750000D01*
X101271224Y-94751921D01*
X101252465Y-94757612D01*
X101235177Y-94766853D01*
X101220023Y-94779289D01*
X101207587Y-94794443D01*
X101198346Y-94811731D01*
X101192655Y-94830490D01*
X101190734Y-94849999D01*
X101192655Y-94869507D01*
X101200000Y-94906433D01*
X101200000Y-95093567D01*
X101163492Y-95277105D01*
X101091879Y-95449994D01*
X100987913Y-95605590D01*
X100855590Y-95737913D01*
X100699994Y-95841879D01*
X100527105Y-95913492D01*
X100343567Y-95950000D01*
X100156433Y-95950000D01*
X99972895Y-95913492D01*
X99800006Y-95841879D01*
X99644410Y-95737913D01*
X99512087Y-95605590D01*
X99408121Y-95449994D01*
X99336508Y-95277105D01*
X99300000Y-95093567D01*
X99300000Y-94906433D01*
X99307345Y-94869507D01*
X99309266Y-94849998D01*
X99307344Y-94830489D01*
X99301654Y-94811730D01*
X99292413Y-94794442D01*
X99279976Y-94779289D01*
X99264823Y-94766852D01*
X99247534Y-94757612D01*
X99228775Y-94751921D01*
X99209267Y-94750000D01*
X98750733Y-94750000D01*
X98731224Y-94751921D01*
X98712465Y-94757612D01*
X98695177Y-94766853D01*
X98680023Y-94779289D01*
X98667587Y-94794443D01*
X98658346Y-94811731D01*
X98652655Y-94830490D01*
X98650734Y-94849999D01*
X98652655Y-94869507D01*
X98660000Y-94906433D01*
X98660000Y-95093567D01*
X98623492Y-95277105D01*
X98551879Y-95449994D01*
X98447913Y-95605590D01*
X98315590Y-95737913D01*
X98159994Y-95841879D01*
X97987105Y-95913492D01*
X97803567Y-95950000D01*
X97616433Y-95950000D01*
X97432895Y-95913492D01*
X97260006Y-95841879D01*
X97104410Y-95737913D01*
X96972087Y-95605590D01*
X96868121Y-95449994D01*
X96796508Y-95277105D01*
X96760000Y-95093567D01*
X96760000Y-94906433D01*
X96767345Y-94869507D01*
X96769266Y-94849998D01*
X96767344Y-94830489D01*
X96761654Y-94811730D01*
X96752413Y-94794442D01*
X96739976Y-94779289D01*
X96724823Y-94766852D01*
X96707534Y-94757612D01*
X96688775Y-94751921D01*
X96669267Y-94750000D01*
X89500000Y-94750000D01*
X89500000Y-73000000D01*
X111000000Y-73000000D01*
X111000000Y-94750000D01*
G37*
G36*
X114017105Y-93006508D02*
G01*
X114189994Y-93078121D01*
X114345590Y-93182087D01*
X114477913Y-93314410D01*
X114581879Y-93470006D01*
X114653492Y-93642895D01*
X114690000Y-93826433D01*
X114690000Y-94013567D01*
X114653492Y-94197105D01*
X114581879Y-94369994D01*
X114477913Y-94525590D01*
X114345590Y-94657913D01*
X114189994Y-94761879D01*
X114017105Y-94833492D01*
X113833567Y-94870000D01*
X113646433Y-94870000D01*
X113462895Y-94833492D01*
X113290006Y-94761879D01*
X113134410Y-94657913D01*
X113002087Y-94525590D01*
X112898121Y-94369994D01*
X112826508Y-94197105D01*
X112790000Y-94013567D01*
X112790000Y-93826433D01*
X112826508Y-93642895D01*
X112898121Y-93470006D01*
X113002087Y-93314410D01*
X113134410Y-93182087D01*
X113290006Y-93078121D01*
X113462895Y-93006508D01*
X113646433Y-92970000D01*
X113833567Y-92970000D01*
X114017105Y-93006508D01*
G37*
G36*
X86737105Y-93006508D02*
G01*
X86909994Y-93078121D01*
X87065590Y-93182087D01*
X87197913Y-93314410D01*
X87301879Y-93470006D01*
X87373492Y-93642895D01*
X87410000Y-93826433D01*
X87410000Y-94013567D01*
X87373492Y-94197105D01*
X87301879Y-94369994D01*
X87197913Y-94525590D01*
X87065590Y-94657913D01*
X86909994Y-94761879D01*
X86737105Y-94833492D01*
X86553567Y-94870000D01*
X86366433Y-94870000D01*
X86182895Y-94833492D01*
X86010006Y-94761879D01*
X85854410Y-94657913D01*
X85722087Y-94525590D01*
X85618121Y-94369994D01*
X85546508Y-94197105D01*
X85510000Y-94013567D01*
X85510000Y-93826433D01*
X85546508Y-93642895D01*
X85618121Y-93470006D01*
X85722087Y-93314410D01*
X85854410Y-93182087D01*
X86010006Y-93078121D01*
X86182895Y-93006508D01*
X86366433Y-92970000D01*
X86553567Y-92970000D01*
X86737105Y-93006508D01*
G37*
G36*
X86737105Y-90466508D02*
G01*
X86909994Y-90538121D01*
X87065590Y-90642087D01*
X87197913Y-90774410D01*
X87301879Y-90930006D01*
X87373492Y-91102895D01*
X87410000Y-91286433D01*
X87410000Y-91473567D01*
X87373492Y-91657105D01*
X87301879Y-91829994D01*
X87197913Y-91985590D01*
X87065590Y-92117913D01*
X86909994Y-92221879D01*
X86737105Y-92293492D01*
X86553567Y-92330000D01*
X86366433Y-92330000D01*
X86182895Y-92293492D01*
X86010006Y-92221879D01*
X85854410Y-92117913D01*
X85722087Y-91985590D01*
X85618121Y-91829994D01*
X85546508Y-91657105D01*
X85510000Y-91473567D01*
X85510000Y-91286433D01*
X85546508Y-91102895D01*
X85618121Y-90930006D01*
X85722087Y-90774410D01*
X85854410Y-90642087D01*
X86010006Y-90538121D01*
X86182895Y-90466508D01*
X86366433Y-90430000D01*
X86553567Y-90430000D01*
X86737105Y-90466508D01*
G37*
G36*
X114017105Y-90466508D02*
G01*
X114189994Y-90538121D01*
X114345590Y-90642087D01*
X114477913Y-90774410D01*
X114581879Y-90930006D01*
X114653492Y-91102895D01*
X114690000Y-91286433D01*
X114690000Y-91473567D01*
X114653492Y-91657105D01*
X114581879Y-91829994D01*
X114477913Y-91985590D01*
X114345590Y-92117913D01*
X114189994Y-92221879D01*
X114017105Y-92293492D01*
X113833567Y-92330000D01*
X113646433Y-92330000D01*
X113462895Y-92293492D01*
X113290006Y-92221879D01*
X113134410Y-92117913D01*
X113002087Y-91985590D01*
X112898121Y-91829994D01*
X112826508Y-91657105D01*
X112790000Y-91473567D01*
X112790000Y-91286433D01*
X112826508Y-91102895D01*
X112898121Y-90930006D01*
X113002087Y-90774410D01*
X113134410Y-90642087D01*
X113290006Y-90538121D01*
X113462895Y-90466508D01*
X113646433Y-90430000D01*
X113833567Y-90430000D01*
X114017105Y-90466508D01*
G37*
G36*
X86737105Y-87926508D02*
G01*
X86909994Y-87998121D01*
X87065590Y-88102087D01*
X87197913Y-88234410D01*
X87301879Y-88390006D01*
X87373492Y-88562895D01*
X87410000Y-88746433D01*
X87410000Y-88933567D01*
X87373492Y-89117105D01*
X87301879Y-89289994D01*
X87197913Y-89445590D01*
X87065590Y-89577913D01*
X86909994Y-89681879D01*
X86737105Y-89753492D01*
X86553567Y-89790000D01*
X86366433Y-89790000D01*
X86182895Y-89753492D01*
X86010006Y-89681879D01*
X85854410Y-89577913D01*
X85722087Y-89445590D01*
X85618121Y-89289994D01*
X85546508Y-89117105D01*
X85510000Y-88933567D01*
X85510000Y-88746433D01*
X85546508Y-88562895D01*
X85618121Y-88390006D01*
X85722087Y-88234410D01*
X85854410Y-88102087D01*
X86010006Y-87998121D01*
X86182895Y-87926508D01*
X86366433Y-87890000D01*
X86553567Y-87890000D01*
X86737105Y-87926508D01*
G37*
G36*
X114017105Y-87926508D02*
G01*
X114189994Y-87998121D01*
X114345590Y-88102087D01*
X114477913Y-88234410D01*
X114581879Y-88390006D01*
X114653492Y-88562895D01*
X114690000Y-88746433D01*
X114690000Y-88933567D01*
X114653492Y-89117105D01*
X114581879Y-89289994D01*
X114477913Y-89445590D01*
X114345590Y-89577913D01*
X114189994Y-89681879D01*
X114017105Y-89753492D01*
X113833567Y-89790000D01*
X113646433Y-89790000D01*
X113462895Y-89753492D01*
X113290006Y-89681879D01*
X113134410Y-89577913D01*
X113002087Y-89445590D01*
X112898121Y-89289994D01*
X112826508Y-89117105D01*
X112790000Y-88933567D01*
X112790000Y-88746433D01*
X112826508Y-88562895D01*
X112898121Y-88390006D01*
X113002087Y-88234410D01*
X113134410Y-88102087D01*
X113290006Y-87998121D01*
X113462895Y-87926508D01*
X113646433Y-87890000D01*
X113833567Y-87890000D01*
X114017105Y-87926508D01*
G37*
G36*
X86737105Y-85386508D02*
G01*
X86909994Y-85458121D01*
X87065590Y-85562087D01*
X87197913Y-85694410D01*
X87301879Y-85850006D01*
X87373492Y-86022895D01*
X87410000Y-86206433D01*
X87410000Y-86393567D01*
X87373492Y-86577105D01*
X87301879Y-86749994D01*
X87197913Y-86905590D01*
X87065590Y-87037913D01*
X86909994Y-87141879D01*
X86737105Y-87213492D01*
X86553567Y-87250000D01*
X86366433Y-87250000D01*
X86182895Y-87213492D01*
X86010006Y-87141879D01*
X85854410Y-87037913D01*
X85722087Y-86905590D01*
X85618121Y-86749994D01*
X85546508Y-86577105D01*
X85510000Y-86393567D01*
X85510000Y-86206433D01*
X85546508Y-86022895D01*
X85618121Y-85850006D01*
X85722087Y-85694410D01*
X85854410Y-85562087D01*
X86010006Y-85458121D01*
X86182895Y-85386508D01*
X86366433Y-85350000D01*
X86553567Y-85350000D01*
X86737105Y-85386508D01*
G37*
G36*
X114017105Y-85386508D02*
G01*
X114189994Y-85458121D01*
X114345590Y-85562087D01*
X114477913Y-85694410D01*
X114581879Y-85850006D01*
X114653492Y-86022895D01*
X114690000Y-86206433D01*
X114690000Y-86393567D01*
X114653492Y-86577105D01*
X114581879Y-86749994D01*
X114477913Y-86905590D01*
X114345590Y-87037913D01*
X114189994Y-87141879D01*
X114017105Y-87213492D01*
X113833567Y-87250000D01*
X113646433Y-87250000D01*
X113462895Y-87213492D01*
X113290006Y-87141879D01*
X113134410Y-87037913D01*
X113002087Y-86905590D01*
X112898121Y-86749994D01*
X112826508Y-86577105D01*
X112790000Y-86393567D01*
X112790000Y-86206433D01*
X112826508Y-86022895D01*
X112898121Y-85850006D01*
X113002087Y-85694410D01*
X113134410Y-85562087D01*
X113290006Y-85458121D01*
X113462895Y-85386508D01*
X113646433Y-85350000D01*
X113833567Y-85350000D01*
X114017105Y-85386508D01*
G37*
G36*
X86737105Y-82846508D02*
G01*
X86909994Y-82918121D01*
X87065590Y-83022087D01*
X87197913Y-83154410D01*
X87301879Y-83310006D01*
X87373492Y-83482895D01*
X87410000Y-83666433D01*
X87410000Y-83853567D01*
X87373492Y-84037105D01*
X87301879Y-84209994D01*
X87197913Y-84365590D01*
X87065590Y-84497913D01*
X86909994Y-84601879D01*
X86737105Y-84673492D01*
X86553567Y-84710000D01*
X86366433Y-84710000D01*
X86182895Y-84673492D01*
X86010006Y-84601879D01*
X85854410Y-84497913D01*
X85722087Y-84365590D01*
X85618121Y-84209994D01*
X85546508Y-84037105D01*
X85510000Y-83853567D01*
X85510000Y-83666433D01*
X85546508Y-83482895D01*
X85618121Y-83310006D01*
X85722087Y-83154410D01*
X85854410Y-83022087D01*
X86010006Y-82918121D01*
X86182895Y-82846508D01*
X86366433Y-82810000D01*
X86553567Y-82810000D01*
X86737105Y-82846508D01*
G37*
G36*
X114017105Y-82846508D02*
G01*
X114189994Y-82918121D01*
X114345590Y-83022087D01*
X114477913Y-83154410D01*
X114581879Y-83310006D01*
X114653492Y-83482895D01*
X114690000Y-83666433D01*
X114690000Y-83853567D01*
X114653492Y-84037105D01*
X114581879Y-84209994D01*
X114477913Y-84365590D01*
X114345590Y-84497913D01*
X114189994Y-84601879D01*
X114017105Y-84673492D01*
X113833567Y-84710000D01*
X113646433Y-84710000D01*
X113462895Y-84673492D01*
X113290006Y-84601879D01*
X113134410Y-84497913D01*
X113002087Y-84365590D01*
X112898121Y-84209994D01*
X112826508Y-84037105D01*
X112790000Y-83853567D01*
X112790000Y-83666433D01*
X112826508Y-83482895D01*
X112898121Y-83310006D01*
X113002087Y-83154410D01*
X113134410Y-83022087D01*
X113290006Y-82918121D01*
X113462895Y-82846508D01*
X113646433Y-82810000D01*
X113833567Y-82810000D01*
X114017105Y-82846508D01*
G37*
G36*
X86737105Y-80306508D02*
G01*
X86909994Y-80378121D01*
X87065590Y-80482087D01*
X87197913Y-80614410D01*
X87301879Y-80770006D01*
X87373492Y-80942895D01*
X87410000Y-81126433D01*
X87410000Y-81313567D01*
X87373492Y-81497105D01*
X87301879Y-81669994D01*
X87197913Y-81825590D01*
X87065590Y-81957913D01*
X86909994Y-82061879D01*
X86737105Y-82133492D01*
X86553567Y-82170000D01*
X86366433Y-82170000D01*
X86182895Y-82133492D01*
X86010006Y-82061879D01*
X85854410Y-81957913D01*
X85722087Y-81825590D01*
X85618121Y-81669994D01*
X85546508Y-81497105D01*
X85510000Y-81313567D01*
X85510000Y-81126433D01*
X85546508Y-80942895D01*
X85618121Y-80770006D01*
X85722087Y-80614410D01*
X85854410Y-80482087D01*
X86010006Y-80378121D01*
X86182895Y-80306508D01*
X86366433Y-80270000D01*
X86553567Y-80270000D01*
X86737105Y-80306508D01*
G37*
G36*
X114017105Y-80306508D02*
G01*
X114189994Y-80378121D01*
X114345590Y-80482087D01*
X114477913Y-80614410D01*
X114581879Y-80770006D01*
X114653492Y-80942895D01*
X114690000Y-81126433D01*
X114690000Y-81313567D01*
X114653492Y-81497105D01*
X114581879Y-81669994D01*
X114477913Y-81825590D01*
X114345590Y-81957913D01*
X114189994Y-82061879D01*
X114017105Y-82133492D01*
X113833567Y-82170000D01*
X113646433Y-82170000D01*
X113462895Y-82133492D01*
X113290006Y-82061879D01*
X113134410Y-81957913D01*
X113002087Y-81825590D01*
X112898121Y-81669994D01*
X112826508Y-81497105D01*
X112790000Y-81313567D01*
X112790000Y-81126433D01*
X112826508Y-80942895D01*
X112898121Y-80770006D01*
X113002087Y-80614410D01*
X113134410Y-80482087D01*
X113290006Y-80378121D01*
X113462895Y-80306508D01*
X113646433Y-80270000D01*
X113833567Y-80270000D01*
X114017105Y-80306508D01*
G37*
G36*
X114017105Y-77766508D02*
G01*
X114189994Y-77838121D01*
X114345590Y-77942087D01*
X114477913Y-78074410D01*
X114581879Y-78230006D01*
X114653492Y-78402895D01*
X114690000Y-78586433D01*
X114690000Y-78773567D01*
X114653492Y-78957105D01*
X114581879Y-79129994D01*
X114477913Y-79285590D01*
X114345590Y-79417913D01*
X114189994Y-79521879D01*
X114017105Y-79593492D01*
X113833567Y-79630000D01*
X113646433Y-79630000D01*
X113462895Y-79593492D01*
X113290006Y-79521879D01*
X113134410Y-79417913D01*
X113002087Y-79285590D01*
X112898121Y-79129994D01*
X112826508Y-78957105D01*
X112790000Y-78773567D01*
X112790000Y-78586433D01*
X112826508Y-78402895D01*
X112898121Y-78230006D01*
X113002087Y-78074410D01*
X113134410Y-77942087D01*
X113290006Y-77838121D01*
X113462895Y-77766508D01*
X113646433Y-77730000D01*
X113833567Y-77730000D01*
X114017105Y-77766508D01*
G37*
G36*
X86737105Y-77766508D02*
G01*
X86909994Y-77838121D01*
X87065590Y-77942087D01*
X87197913Y-78074410D01*
X87301879Y-78230006D01*
X87373492Y-78402895D01*
X87410000Y-78586433D01*
X87410000Y-78773567D01*
X87373492Y-78957105D01*
X87301879Y-79129994D01*
X87197913Y-79285590D01*
X87065590Y-79417913D01*
X86909994Y-79521879D01*
X86737105Y-79593492D01*
X86553567Y-79630000D01*
X86366433Y-79630000D01*
X86182895Y-79593492D01*
X86010006Y-79521879D01*
X85854410Y-79417913D01*
X85722087Y-79285590D01*
X85618121Y-79129994D01*
X85546508Y-78957105D01*
X85510000Y-78773567D01*
X85510000Y-78586433D01*
X85546508Y-78402895D01*
X85618121Y-78230006D01*
X85722087Y-78074410D01*
X85854410Y-77942087D01*
X86010006Y-77838121D01*
X86182895Y-77766508D01*
X86366433Y-77730000D01*
X86553567Y-77730000D01*
X86737105Y-77766508D01*
G37*
G36*
X101607105Y-68336508D02*
G01*
X101779994Y-68408121D01*
X101935590Y-68512087D01*
X102067913Y-68644410D01*
X102171879Y-68800006D01*
X102243492Y-68972895D01*
X102280000Y-69156433D01*
X102280000Y-69343567D01*
X102243492Y-69527105D01*
X102171879Y-69699994D01*
X102067913Y-69855590D01*
X101935590Y-69987913D01*
X101779994Y-70091879D01*
X101607105Y-70163492D01*
X101423567Y-70200000D01*
X101236433Y-70200000D01*
X101052895Y-70163492D01*
X100880006Y-70091879D01*
X100724410Y-69987913D01*
X100592087Y-69855590D01*
X100488121Y-69699994D01*
X100416508Y-69527105D01*
X100380000Y-69343567D01*
X100380000Y-69156433D01*
X100416508Y-68972895D01*
X100488121Y-68800006D01*
X100592087Y-68644410D01*
X100724410Y-68512087D01*
X100880006Y-68408121D01*
X101052895Y-68336508D01*
X101236433Y-68300000D01*
X101423567Y-68300000D01*
X101607105Y-68336508D01*
G37*
G36*
X99067105Y-68336508D02*
G01*
X99239994Y-68408121D01*
X99395590Y-68512087D01*
X99527913Y-68644410D01*
X99631879Y-68800006D01*
X99703492Y-68972895D01*
X99740000Y-69156433D01*
X99740000Y-69343567D01*
X99703492Y-69527105D01*
X99631879Y-69699994D01*
X99527913Y-69855590D01*
X99395590Y-69987913D01*
X99239994Y-70091879D01*
X99067105Y-70163492D01*
X98883567Y-70200000D01*
X98696433Y-70200000D01*
X98512895Y-70163492D01*
X98340006Y-70091879D01*
X98184410Y-69987913D01*
X98052087Y-69855590D01*
X97948121Y-69699994D01*
X97876508Y-69527105D01*
X97840000Y-69343567D01*
X97840000Y-69156433D01*
X97876508Y-68972895D01*
X97948121Y-68800006D01*
X98052087Y-68644410D01*
X98184410Y-68512087D01*
X98340006Y-68408121D01*
X98512895Y-68336508D01*
X98696433Y-68300000D01*
X98883567Y-68300000D01*
X99067105Y-68336508D01*
G37*
G36*
X97200000Y-70200000D02*
G01*
X95300000Y-70200000D01*
X95300000Y-68300000D01*
X97200000Y-68300000D01*
X97200000Y-70200000D01*
G37*
G36*
X104147105Y-68336508D02*
G01*
X104319994Y-68408121D01*
X104475590Y-68512087D01*
X104607913Y-68644410D01*
X104711879Y-68800006D01*
X104783492Y-68972895D01*
X104820000Y-69156433D01*
X104820000Y-69343567D01*
X104783492Y-69527105D01*
X104711879Y-69699994D01*
X104607913Y-69855590D01*
X104475590Y-69987913D01*
X104319994Y-70091879D01*
X104147105Y-70163492D01*
X103963567Y-70200000D01*
X103776433Y-70200000D01*
X103592895Y-70163492D01*
X103420006Y-70091879D01*
X103264410Y-69987913D01*
X103132087Y-69855590D01*
X103028121Y-69699994D01*
X102956508Y-69527105D01*
X102920000Y-69343567D01*
X102920000Y-69156433D01*
X102956508Y-68972895D01*
X103028121Y-68800006D01*
X103132087Y-68644410D01*
X103264410Y-68512087D01*
X103420006Y-68408121D01*
X103592895Y-68336508D01*
X103776433Y-68300000D01*
X103963567Y-68300000D01*
X104147105Y-68336508D01*
G37*
M02*
