M48
; DRILL file {KiCad (5.1.6-0-10_14)} date Friday, January 15, 2021 at 05:53:42 PM
; FORMAT={-:-/ absolute / inch / decimal}
; #@! TF.CreationDate,2021-01-15T17:53:42+01:00
; #@! TF.GenerationSoftware,Kicad,Pcbnew,(5.1.6-0-10_14)
; #@! TF.FileFunction,Plated,1,4,PTH
FMAT,2
INCH
T1C0.0118
T2C0.0394
T3C0.0591
%
G90
G05
T1
X3.3839Y-5.0492
X3.4134Y-4.9902
X3.437Y-4.4961
X3.4449Y-2.7559
X3.4488Y-3.4488
X3.4488Y-3.5472
X3.4488Y-3.6457
X3.4488Y-3.748
X3.4488Y-3.8465
X3.4488Y-3.9488
X3.4488Y-4.0472
X3.4488Y-4.1496
X3.4488Y-4.248
X3.4488Y-4.3425
X3.5335Y-4.1142
X3.5335Y-4.1732
X3.5394Y-3.7657
X3.5394Y-3.8346
X3.5433Y-4.498
X3.5669Y-4.9528
X3.5677Y-4.8492
X3.5709Y-4.0512
X3.5709Y-4.1417
X3.5709Y-4.2323
X3.5709Y-4.3346
X3.5748Y-3.9724
X3.5827Y-4.4961
X3.624Y-3.8287
X3.6295Y-4.4862
X3.6417Y-2.7559
X3.6417Y-2.9528
X3.6417Y-3.1496
X3.6417Y-3.3465
X3.6417Y-3.5433
X3.6614Y-3.9783
X3.6791Y-4.9902
X3.6811Y-4.185
X3.689Y-4.3465
X3.7205Y-3.8976
X3.7618Y-5.0492
X3.7972Y-3.9685
X3.8228Y-4.5354
X3.8386Y-2.9528
X3.8386Y-3.1496
X3.8386Y-3.3465
X3.8386Y-3.5433
X3.8614Y-4.9516
X3.8819Y-3.9606
X3.8917Y-3.8957
X3.8917Y-4.0276
X3.9213Y-4.1693
X3.9232Y-4.2264
X3.937Y-4.9213
X3.937Y-5.1181
X3.9409Y-2.7756
X3.9449Y-4.815
X3.9547Y-3.8012
X3.9843Y-4.1732
X3.9882Y-4.0728
X3.9921Y-4.2126
X4.0039Y-4.5276
X4.0059Y-3.8976
X4.0059Y-3.8976
X4.0354Y-2.9528
X4.0354Y-3.1496
X4.0354Y-3.3465
X4.0354Y-3.5433
X4.0713Y-4.5902
X4.1339Y-3.9291
X4.1339Y-4.9213
X4.1339Y-5.1181
X4.1378Y-4.0276
X4.1535Y-4.5276
X4.1969Y-3.8937
X4.2323Y-2.7559
X4.2323Y-2.9528
X4.2323Y-3.1496
X4.2323Y-3.3465
X4.2323Y-3.5433
X4.2736Y-4.4941
X4.2756Y-3.8445
X4.3091Y-4.1398
X4.311Y-3.939
X4.311Y-4.0118
X4.311Y-4.0768
X4.311Y-4.2087
X4.311Y-4.4272
X4.3307Y-4.9213
X4.3307Y-5.1181
X4.3701Y-4.628
X4.3819Y-4.2677
X4.4291Y-2.7559
X4.4331Y-4.4488
X4.437Y-3.3465
X4.437Y-3.4488
X4.4626Y-4.6299
X4.4882Y-4.9213
X4.4882Y-5.1181
T2
X3.8469Y-3.7402
X3.9469Y-3.7402
X4.0469Y-3.7402
X3.7894Y-2.7264
X3.8894Y-2.7264
X3.9894Y-2.7264
X4.0894Y-2.7264
X3.4039Y-3.0976
X3.4039Y-3.1976
X3.4039Y-3.2976
X3.4039Y-3.3976
X3.4039Y-3.4976
X3.4039Y-3.5976
X3.4039Y-3.6976
X3.4039Y-3.7976
X3.4039Y-3.8976
X3.4039Y-3.9976
X3.4039Y-4.0976
X3.4039Y-4.1976
X3.4039Y-4.2976
X3.4039Y-4.3976
X4.478Y-3.0976
X4.478Y-3.1976
X4.478Y-3.2976
X4.478Y-3.3976
X4.478Y-3.4976
X4.478Y-3.5976
X4.478Y-3.6976
X4.478Y-3.7976
X4.478Y-3.8976
X4.478Y-3.9976
X4.478Y-4.0976
X4.478Y-4.1976
X4.478Y-4.2976
X4.478Y-4.3976
T3
X4.0846Y-4.8362
X4.2618Y-4.8362
T0
M30
