G04 #@! TF.GenerationSoftware,KiCad,Pcbnew,(5.1.6-0-10_14)*
G04 #@! TF.CreationDate,2021-01-15T18:00:30+01:00*
G04 #@! TF.ProjectId,cdm324,63646d33-3234-42e6-9b69-6361645f7063,rev?*
G04 #@! TF.SameCoordinates,Original*
G04 #@! TF.FileFunction,Legend,Bot*
G04 #@! TF.FilePolarity,Positive*
%FSLAX46Y46*%
G04 Gerber Fmt 4.6, Leading zero omitted, Abs format (unit mm)*
G04 Created by KiCad (PCBNEW (5.1.6-0-10_14)) date 2021-01-15 18:00:30*
%MOMM*%
%LPD*%
G01*
G04 APERTURE LIST*
%ADD10C,0.153000*%
G04 #@! TA.AperFunction,Profile*
%ADD11C,0.150000*%
G04 #@! TD*
%ADD12C,0.120000*%
%ADD13C,0.150000*%
G04 APERTURE END LIST*
D10*
X104095238Y-77381904D02*
X104095238Y-77953333D01*
X104133333Y-78067619D01*
X104209523Y-78143809D01*
X104323809Y-78181904D01*
X104400000Y-78181904D01*
X103333333Y-78181904D02*
X103714285Y-78181904D01*
X103714285Y-77381904D01*
X102609523Y-78105714D02*
X102647619Y-78143809D01*
X102761904Y-78181904D01*
X102838095Y-78181904D01*
X102952380Y-78143809D01*
X103028571Y-78067619D01*
X103066666Y-77991428D01*
X103104761Y-77839047D01*
X103104761Y-77724761D01*
X103066666Y-77572380D01*
X103028571Y-77496190D01*
X102952380Y-77420000D01*
X102838095Y-77381904D01*
X102761904Y-77381904D01*
X102647619Y-77420000D01*
X102609523Y-77458095D01*
X102038095Y-77381904D02*
X102038095Y-77953333D01*
X102076190Y-78067619D01*
X102152380Y-78143809D01*
X102266666Y-78181904D01*
X102342857Y-78181904D01*
X101276190Y-78181904D02*
X101657142Y-78181904D01*
X101657142Y-77381904D01*
X100552380Y-78105714D02*
X100590476Y-78143809D01*
X100704761Y-78181904D01*
X100780952Y-78181904D01*
X100895238Y-78143809D01*
X100971428Y-78067619D01*
X101009523Y-77991428D01*
X101047619Y-77839047D01*
X101047619Y-77724761D01*
X101009523Y-77572380D01*
X100971428Y-77496190D01*
X100895238Y-77420000D01*
X100780952Y-77381904D01*
X100704761Y-77381904D01*
X100590476Y-77420000D01*
X100552380Y-77458095D01*
X99980952Y-77381904D02*
X99980952Y-77953333D01*
X100019047Y-78067619D01*
X100095238Y-78143809D01*
X100209523Y-78181904D01*
X100285714Y-78181904D01*
X99219047Y-78181904D02*
X99600000Y-78181904D01*
X99600000Y-77381904D01*
X98495238Y-78105714D02*
X98533333Y-78143809D01*
X98647619Y-78181904D01*
X98723809Y-78181904D01*
X98838095Y-78143809D01*
X98914285Y-78067619D01*
X98952380Y-77991428D01*
X98990476Y-77839047D01*
X98990476Y-77724761D01*
X98952380Y-77572380D01*
X98914285Y-77496190D01*
X98838095Y-77420000D01*
X98723809Y-77381904D01*
X98647619Y-77381904D01*
X98533333Y-77420000D01*
X98495238Y-77458095D01*
X97923809Y-77381904D02*
X97923809Y-77953333D01*
X97961904Y-78067619D01*
X98038095Y-78143809D01*
X98152380Y-78181904D01*
X98228571Y-78181904D01*
X97161904Y-78181904D02*
X97542857Y-78181904D01*
X97542857Y-77381904D01*
X96438095Y-78105714D02*
X96476190Y-78143809D01*
X96590476Y-78181904D01*
X96666666Y-78181904D01*
X96780952Y-78143809D01*
X96857142Y-78067619D01*
X96895238Y-77991428D01*
X96933333Y-77839047D01*
X96933333Y-77724761D01*
X96895238Y-77572380D01*
X96857142Y-77496190D01*
X96780952Y-77420000D01*
X96666666Y-77381904D01*
X96590476Y-77381904D01*
X96476190Y-77420000D01*
X96438095Y-77458095D01*
D11*
X85350000Y-132600000D02*
X85350000Y-68100000D01*
X114850000Y-132600000D02*
X85350000Y-132600000D01*
X114850000Y-68100000D02*
X114850000Y-132600000D01*
X85350000Y-68100000D02*
X114850000Y-68100000D01*
D12*
X98458578Y-92090000D02*
X97941422Y-92090000D01*
X98458578Y-93510000D02*
X97941422Y-93510000D01*
X94920000Y-69250000D02*
X94920000Y-70360000D01*
X94920000Y-70360000D02*
X96250000Y-70360000D01*
X94920000Y-59160000D02*
X105200000Y-59160000D01*
X105200000Y-59160000D02*
X105200000Y-67790000D01*
X94920000Y-67790000D02*
X105200000Y-67790000D01*
X94920000Y-59160000D02*
X94920000Y-67790000D01*
X102600000Y-59160000D02*
X102600000Y-67790000D01*
X100060000Y-59160000D02*
X100060000Y-67790000D01*
X97520000Y-59160000D02*
X97520000Y-67790000D01*
X104230000Y-67790000D02*
X104230000Y-68200000D01*
X103510000Y-67790000D02*
X103510000Y-68200000D01*
X101690000Y-67790000D02*
X101690000Y-68200000D01*
X100970000Y-67790000D02*
X100970000Y-68200000D01*
X99150000Y-67790000D02*
X99150000Y-68200000D01*
X98430000Y-67790000D02*
X98430000Y-68200000D01*
X96610000Y-67790000D02*
X96610000Y-68140000D01*
X95890000Y-67790000D02*
X95890000Y-68140000D01*
X97401900Y-59160000D02*
X97401900Y-67790000D01*
X97283805Y-59160000D02*
X97283805Y-67790000D01*
X97165710Y-59160000D02*
X97165710Y-67790000D01*
X97047615Y-59160000D02*
X97047615Y-67790000D01*
X96929520Y-59160000D02*
X96929520Y-67790000D01*
X96811425Y-59160000D02*
X96811425Y-67790000D01*
X96693330Y-59160000D02*
X96693330Y-67790000D01*
X96575235Y-59160000D02*
X96575235Y-67790000D01*
X96457140Y-59160000D02*
X96457140Y-67790000D01*
X96339045Y-59160000D02*
X96339045Y-67790000D01*
X96220950Y-59160000D02*
X96220950Y-67790000D01*
X96102855Y-59160000D02*
X96102855Y-67790000D01*
X95984760Y-59160000D02*
X95984760Y-67790000D01*
X95866665Y-59160000D02*
X95866665Y-67790000D01*
X95748570Y-59160000D02*
X95748570Y-67790000D01*
X95630475Y-59160000D02*
X95630475Y-67790000D01*
X95512380Y-59160000D02*
X95512380Y-67790000D01*
X95394285Y-59160000D02*
X95394285Y-67790000D01*
X95276190Y-59160000D02*
X95276190Y-67790000D01*
X95158095Y-59160000D02*
X95158095Y-67790000D01*
X95040000Y-59160000D02*
X95040000Y-67790000D01*
D13*
X98333333Y-91435714D02*
X98371428Y-91473809D01*
X98485714Y-91511904D01*
X98561904Y-91511904D01*
X98676190Y-91473809D01*
X98752380Y-91397619D01*
X98790476Y-91321428D01*
X98828571Y-91169047D01*
X98828571Y-91054761D01*
X98790476Y-90902380D01*
X98752380Y-90826190D01*
X98676190Y-90750000D01*
X98561904Y-90711904D01*
X98485714Y-90711904D01*
X98371428Y-90750000D01*
X98333333Y-90788095D01*
X97876190Y-91054761D02*
X97952380Y-91016666D01*
X97990476Y-90978571D01*
X98028571Y-90902380D01*
X98028571Y-90864285D01*
X97990476Y-90788095D01*
X97952380Y-90750000D01*
X97876190Y-90711904D01*
X97723809Y-90711904D01*
X97647619Y-90750000D01*
X97609523Y-90788095D01*
X97571428Y-90864285D01*
X97571428Y-90902380D01*
X97609523Y-90978571D01*
X97647619Y-91016666D01*
X97723809Y-91054761D01*
X97876190Y-91054761D01*
X97952380Y-91092857D01*
X97990476Y-91130952D01*
X98028571Y-91207142D01*
X98028571Y-91359523D01*
X97990476Y-91435714D01*
X97952380Y-91473809D01*
X97876190Y-91511904D01*
X97723809Y-91511904D01*
X97647619Y-91473809D01*
X97609523Y-91435714D01*
X97571428Y-91359523D01*
X97571428Y-91207142D01*
X97609523Y-91130952D01*
X97647619Y-91092857D01*
X97723809Y-91054761D01*
D10*
X101599523Y-81021904D02*
X101599523Y-81669523D01*
X101561428Y-81745714D01*
X101523333Y-81783809D01*
X101447142Y-81821904D01*
X101294761Y-81821904D01*
X101218571Y-81783809D01*
X101180476Y-81745714D01*
X101142380Y-81669523D01*
X101142380Y-81021904D01*
X100799523Y-81098095D02*
X100761428Y-81060000D01*
X100685238Y-81021904D01*
X100494761Y-81021904D01*
X100418571Y-81060000D01*
X100380476Y-81098095D01*
X100342380Y-81174285D01*
X100342380Y-81250476D01*
X100380476Y-81364761D01*
X100837619Y-81821904D01*
X100342380Y-81821904D01*
X93918095Y-65136666D02*
X93346666Y-65136666D01*
X93232380Y-65174761D01*
X93156190Y-65250952D01*
X93118095Y-65365238D01*
X93118095Y-65441428D01*
X93918095Y-64831904D02*
X93918095Y-64336666D01*
X93613333Y-64603333D01*
X93613333Y-64489047D01*
X93575238Y-64412857D01*
X93537142Y-64374761D01*
X93460952Y-64336666D01*
X93270476Y-64336666D01*
X93194285Y-64374761D01*
X93156190Y-64412857D01*
X93118095Y-64489047D01*
X93118095Y-64717619D01*
X93156190Y-64793809D01*
X93194285Y-64831904D01*
M02*
