G04 #@! TF.GenerationSoftware,KiCad,Pcbnew,(5.1.6-0-10_14)*
G04 #@! TF.CreationDate,2021-01-15T18:00:30+01:00*
G04 #@! TF.ProjectId,cdm324,63646d33-3234-42e6-9b69-6361645f7063,rev?*
G04 #@! TF.SameCoordinates,Original*
G04 #@! TF.FileFunction,Copper,L4,Bot*
G04 #@! TF.FilePolarity,Positive*
%FSLAX46Y46*%
G04 Gerber Fmt 4.6, Leading zero omitted, Abs format (unit mm)*
G04 Created by KiCad (PCBNEW (5.1.6-0-10_14)) date 2021-01-15 18:00:30*
%MOMM*%
%LPD*%
G01*
G04 APERTURE LIST*
G04 #@! TA.AperFunction,Profile*
%ADD10C,0.150000*%
G04 #@! TD*
G04 #@! TA.AperFunction,ComponentPad*
%ADD11C,1.700000*%
G04 #@! TD*
G04 #@! TA.AperFunction,ComponentPad*
%ADD12O,1.700000X1.700000*%
G04 #@! TD*
G04 #@! TA.AperFunction,ComponentPad*
%ADD13R,1.700000X1.700000*%
G04 #@! TD*
G04 #@! TA.AperFunction,ViaPad*
%ADD14C,0.700000*%
G04 #@! TD*
G04 #@! TA.AperFunction,Conductor*
%ADD15C,0.300000*%
G04 #@! TD*
G04 #@! TA.AperFunction,Conductor*
%ADD16C,0.400000*%
G04 #@! TD*
G04 APERTURE END LIST*
D10*
X85350000Y-132600000D02*
X85350000Y-68100000D01*
X114850000Y-132600000D02*
X85350000Y-132600000D01*
X114850000Y-68100000D02*
X114850000Y-132600000D01*
X85350000Y-68100000D02*
X114850000Y-68100000D01*
D11*
X113740000Y-106620000D03*
X113740000Y-109160000D03*
X113740000Y-101540000D03*
X113740000Y-78680000D03*
X113740000Y-88840000D03*
X113740000Y-91380000D03*
X113740000Y-81220000D03*
X113740000Y-93920000D03*
X113740000Y-99000000D03*
X113740000Y-83760000D03*
X113740000Y-96460000D03*
X113740000Y-86300000D03*
X113740000Y-111700000D03*
X113740000Y-104080000D03*
X86460000Y-78680000D03*
X86460000Y-81220000D03*
X86460000Y-83760000D03*
X86460000Y-86300000D03*
X86460000Y-88840000D03*
X86460000Y-91380000D03*
X86460000Y-93920000D03*
X86460000Y-96460000D03*
X86460000Y-99000000D03*
X86460000Y-101540000D03*
X86460000Y-104080000D03*
X86460000Y-106620000D03*
X86460000Y-109160000D03*
X86460000Y-111700000D03*
G04 #@! TA.AperFunction,SMDPad,CuDef*
G36*
G01*
X97750000Y-92343750D02*
X97750000Y-93256250D01*
G75*
G02*
X97506250Y-93500000I-243750J0D01*
G01*
X97018750Y-93500000D01*
G75*
G02*
X96775000Y-93256250I0J243750D01*
G01*
X96775000Y-92343750D01*
G75*
G02*
X97018750Y-92100000I243750J0D01*
G01*
X97506250Y-92100000D01*
G75*
G02*
X97750000Y-92343750I0J-243750D01*
G01*
G37*
G04 #@! TD.AperFunction*
G04 #@! TA.AperFunction,SMDPad,CuDef*
G36*
G01*
X99625000Y-92343750D02*
X99625000Y-93256250D01*
G75*
G02*
X99381250Y-93500000I-243750J0D01*
G01*
X98893750Y-93500000D01*
G75*
G02*
X98650000Y-93256250I0J243750D01*
G01*
X98650000Y-92343750D01*
G75*
G02*
X98893750Y-92100000I243750J0D01*
G01*
X99381250Y-92100000D01*
G75*
G02*
X99625000Y-92343750I0J-243750D01*
G01*
G37*
G04 #@! TD.AperFunction*
X108250000Y-122840000D03*
X103750000Y-122840000D03*
X97710000Y-95000000D03*
X100250000Y-95000000D03*
X102790000Y-95000000D03*
D12*
X103870000Y-69250000D03*
X101330000Y-69250000D03*
X98790000Y-69250000D03*
D13*
X96250000Y-69250000D03*
D14*
X105100000Y-102300000D03*
X87500000Y-70000000D03*
X92500000Y-70000000D03*
X92500000Y-75000000D03*
X92500000Y-80000000D03*
X92500000Y-85000000D03*
X92500000Y-90000000D03*
X97500000Y-75000000D03*
X102500000Y-75000000D03*
X107500000Y-75000000D03*
X112500000Y-70000000D03*
X107500000Y-70000000D03*
X97500000Y-80000000D03*
X102500000Y-80000000D03*
X107500000Y-80000000D03*
X107500000Y-85000000D03*
X102500000Y-85000000D03*
X97500000Y-85000000D03*
X97500000Y-90000000D03*
X102500000Y-90000000D03*
X107500000Y-90000000D03*
X100000000Y-130000000D03*
X105000000Y-130000000D03*
X110000000Y-130000000D03*
X105000000Y-125000000D03*
X100000000Y-125000000D03*
X110000000Y-125000000D03*
X103410000Y-116590000D03*
X85950000Y-128250000D03*
X95550000Y-128250000D03*
X113350000Y-117600000D03*
X114000000Y-130000000D03*
X114000000Y-125000000D03*
X93500000Y-106300000D03*
X98080000Y-125770000D03*
X87600000Y-110300000D03*
X87600000Y-107900000D03*
X87600000Y-105400000D03*
X87600000Y-100300000D03*
X87600000Y-102800000D03*
X87600000Y-97700000D03*
X87600000Y-95200000D03*
X87600000Y-92600000D03*
X87600000Y-90100000D03*
X87600000Y-87600000D03*
X100100000Y-70500000D03*
X112700000Y-85000000D03*
X112700000Y-87600000D03*
X112600000Y-113000000D03*
X90000000Y-114250000D03*
X86700000Y-126750000D03*
X93450000Y-126750000D03*
X109500000Y-112450000D03*
X108550000Y-114150000D03*
X92190000Y-113950000D03*
X92050000Y-97250000D03*
X108600000Y-97650000D03*
X96450000Y-100800000D03*
X99650000Y-107350000D03*
X101750000Y-99000000D03*
X101750000Y-99000000D03*
X105000000Y-99800000D03*
X100450000Y-96550000D03*
X101300000Y-103450000D03*
X101200000Y-106000000D03*
X109500000Y-106900000D03*
X109450000Y-105150000D03*
X109500000Y-103550000D03*
X109500000Y-100050000D03*
X109500000Y-101900000D03*
X98850000Y-102300000D03*
X93000000Y-101050000D03*
X89900000Y-97400000D03*
X89900000Y-95650000D03*
X87300000Y-114200000D03*
X111000000Y-117550000D03*
X90800000Y-100900000D03*
X90700000Y-102900000D03*
X90700000Y-105200000D03*
X90700000Y-107500000D03*
X90700000Y-110100000D03*
X97100000Y-115200000D03*
X105500000Y-115000000D03*
X101700000Y-115000000D03*
X94500000Y-99000000D03*
X111300000Y-108400000D03*
X98600000Y-100600000D03*
X100200000Y-122300000D03*
X90620000Y-123170000D03*
X91000000Y-114200000D03*
X93700000Y-110400000D03*
X98850000Y-98950000D03*
X89750000Y-104500000D03*
X106600000Y-98900000D03*
X89750000Y-106000000D03*
X90600000Y-125800000D03*
X101400000Y-107000000D03*
X99600000Y-105900000D03*
D15*
X111999999Y-70899999D02*
X110350000Y-69250000D01*
X111999999Y-109959999D02*
X111999999Y-70899999D01*
X110350000Y-69250000D02*
X103870000Y-69250000D01*
X113740000Y-111700000D02*
X111999999Y-109959999D01*
D16*
X98960001Y-98839999D02*
X98960001Y-93477499D01*
X98850000Y-98950000D02*
X98960001Y-98839999D01*
X91000000Y-113100000D02*
X91000000Y-114200000D01*
X93700000Y-110400000D02*
X91000000Y-113100000D01*
X100590000Y-92800000D02*
X99137500Y-92800000D01*
X102790000Y-95000000D02*
X100590000Y-92800000D01*
D15*
X87630000Y-106620000D02*
X86460000Y-106620000D01*
X89750000Y-104500000D02*
X87630000Y-106620000D01*
D16*
X100250000Y-95000000D02*
X104150000Y-98900000D01*
X104150000Y-98900000D02*
X106600000Y-98900000D01*
D15*
X88500000Y-123700000D02*
X88500000Y-113750000D01*
X90600000Y-125800000D02*
X88500000Y-123700000D01*
X89750000Y-112500000D02*
X88500000Y-113750000D01*
X89750000Y-106000000D02*
X89750000Y-112500000D01*
X87662081Y-88840000D02*
X86460000Y-88840000D01*
X100350001Y-105613999D02*
X97899999Y-103163997D01*
X97899999Y-99077918D02*
X87662081Y-88840000D01*
X100350001Y-106444975D02*
X100350001Y-105613999D01*
X100905026Y-107000000D02*
X100350001Y-106444975D01*
X97899999Y-103163997D02*
X97899999Y-99077918D01*
X101400000Y-107000000D02*
X100905026Y-107000000D01*
X86460000Y-96460000D02*
X90160000Y-96460000D01*
X90160000Y-96460000D02*
X99600000Y-105900000D01*
G36*
X94742000Y-68981500D02*
G01*
X94906500Y-69146000D01*
X96146000Y-69146000D01*
X96146000Y-69126000D01*
X96354000Y-69126000D01*
X96354000Y-69146000D01*
X96374000Y-69146000D01*
X96374000Y-69354000D01*
X96354000Y-69354000D01*
X96354000Y-70593500D01*
X96518500Y-70758000D01*
X97100000Y-70761184D01*
X97228991Y-70748480D01*
X97353024Y-70710854D01*
X97467334Y-70649754D01*
X97567528Y-70567528D01*
X97649754Y-70467334D01*
X97710854Y-70353024D01*
X97748480Y-70228991D01*
X97761184Y-70100000D01*
X97760909Y-70049795D01*
X97780224Y-70078702D01*
X97961298Y-70259776D01*
X98174219Y-70402045D01*
X98410804Y-70500042D01*
X98661961Y-70550000D01*
X98918039Y-70550000D01*
X99169196Y-70500042D01*
X99405781Y-70402045D01*
X99618702Y-70259776D01*
X99799776Y-70078702D01*
X99942045Y-69865781D01*
X100040042Y-69629196D01*
X100060000Y-69528860D01*
X100079958Y-69629196D01*
X100177955Y-69865781D01*
X100320224Y-70078702D01*
X100501298Y-70259776D01*
X100714219Y-70402045D01*
X100950804Y-70500042D01*
X101201961Y-70550000D01*
X101458039Y-70550000D01*
X101709196Y-70500042D01*
X101945781Y-70402045D01*
X102158702Y-70259776D01*
X102339776Y-70078702D01*
X102482045Y-69865781D01*
X102580042Y-69629196D01*
X102600000Y-69528860D01*
X102619958Y-69629196D01*
X102717955Y-69865781D01*
X102860224Y-70078702D01*
X103041298Y-70259776D01*
X103254219Y-70402045D01*
X103490804Y-70500042D01*
X103741961Y-70550000D01*
X103998039Y-70550000D01*
X104249196Y-70500042D01*
X104485781Y-70402045D01*
X104698702Y-70259776D01*
X104879776Y-70078702D01*
X105022045Y-69865781D01*
X105028582Y-69850000D01*
X110101473Y-69850000D01*
X111400000Y-71148528D01*
X111399999Y-109930525D01*
X111397096Y-109959999D01*
X111399999Y-109989472D01*
X111408681Y-110077619D01*
X111442989Y-110190719D01*
X111498703Y-110294953D01*
X111573682Y-110386316D01*
X111596585Y-110405112D01*
X112496495Y-111305022D01*
X112489958Y-111320804D01*
X112440000Y-111571961D01*
X112440000Y-111828039D01*
X112489958Y-112079196D01*
X112587955Y-112315781D01*
X112730224Y-112528702D01*
X112911298Y-112709776D01*
X113124219Y-112852045D01*
X113360804Y-112950042D01*
X113611961Y-113000000D01*
X113868039Y-113000000D01*
X114119196Y-112950042D01*
X114325001Y-112864795D01*
X114325001Y-132075000D01*
X85875000Y-132075000D01*
X85875000Y-112864795D01*
X86080804Y-112950042D01*
X86331961Y-113000000D01*
X86588039Y-113000000D01*
X86839196Y-112950042D01*
X87075781Y-112852045D01*
X87288702Y-112709776D01*
X87469776Y-112528702D01*
X87612045Y-112315781D01*
X87710042Y-112079196D01*
X87760000Y-111828039D01*
X87760000Y-111571961D01*
X87710042Y-111320804D01*
X87612045Y-111084219D01*
X87469776Y-110871298D01*
X87288702Y-110690224D01*
X87075781Y-110547955D01*
X87070478Y-110545758D01*
X87080805Y-110542291D01*
X87264432Y-110444140D01*
X87338783Y-110185861D01*
X86460000Y-109307078D01*
X86445858Y-109321221D01*
X86298780Y-109174143D01*
X86312922Y-109160000D01*
X86607078Y-109160000D01*
X87485861Y-110038783D01*
X87744140Y-109964432D01*
X87876402Y-109698451D01*
X87954233Y-109411779D01*
X87974642Y-109115430D01*
X87936843Y-108820795D01*
X87842291Y-108539195D01*
X87744140Y-108355568D01*
X87485861Y-108281217D01*
X86607078Y-109160000D01*
X86312922Y-109160000D01*
X86298780Y-109145858D01*
X86445858Y-108998780D01*
X86460000Y-109012922D01*
X87338783Y-108134139D01*
X87264432Y-107875860D01*
X87064803Y-107776592D01*
X87075781Y-107772045D01*
X87288702Y-107629776D01*
X87469776Y-107448702D01*
X87612045Y-107235781D01*
X87617874Y-107221709D01*
X87630000Y-107222903D01*
X87659474Y-107220000D01*
X87747621Y-107211318D01*
X87860721Y-107177010D01*
X87964955Y-107121296D01*
X88056317Y-107046317D01*
X88075113Y-107023414D01*
X88961570Y-106136958D01*
X88980743Y-106233351D01*
X89041049Y-106378942D01*
X89128599Y-106509970D01*
X89150000Y-106531371D01*
X89150001Y-112251471D01*
X88096581Y-113304891D01*
X88073684Y-113323683D01*
X87998705Y-113415045D01*
X87973143Y-113462868D01*
X87942991Y-113519279D01*
X87908682Y-113632380D01*
X87897097Y-113750000D01*
X87900001Y-113779484D01*
X87900000Y-123670526D01*
X87897097Y-123700000D01*
X87900000Y-123729473D01*
X87908682Y-123817620D01*
X87942990Y-123930720D01*
X87998704Y-124034954D01*
X88073683Y-124126317D01*
X88096586Y-124145113D01*
X89800000Y-125848528D01*
X89800000Y-125878793D01*
X89830743Y-126033351D01*
X89891049Y-126178942D01*
X89978599Y-126309970D01*
X90090030Y-126421401D01*
X90221058Y-126508951D01*
X90366649Y-126569257D01*
X90521207Y-126600000D01*
X90678793Y-126600000D01*
X90833351Y-126569257D01*
X90978942Y-126508951D01*
X91109970Y-126421401D01*
X91221401Y-126309970D01*
X91308951Y-126178942D01*
X91369257Y-126033351D01*
X91400000Y-125878793D01*
X91400000Y-125721207D01*
X91369257Y-125566649D01*
X91308951Y-125421058D01*
X91221401Y-125290030D01*
X91109970Y-125178599D01*
X90978942Y-125091049D01*
X90833351Y-125030743D01*
X90678793Y-125000000D01*
X90648528Y-125000000D01*
X89100000Y-123451473D01*
X89100000Y-122711961D01*
X102450000Y-122711961D01*
X102450000Y-122968039D01*
X102499958Y-123219196D01*
X102597955Y-123455781D01*
X102740224Y-123668702D01*
X102921298Y-123849776D01*
X103134219Y-123992045D01*
X103370804Y-124090042D01*
X103621961Y-124140000D01*
X103878039Y-124140000D01*
X104129196Y-124090042D01*
X104365781Y-123992045D01*
X104578702Y-123849776D01*
X104759776Y-123668702D01*
X104902045Y-123455781D01*
X105000042Y-123219196D01*
X105050000Y-122968039D01*
X105050000Y-122711961D01*
X106950000Y-122711961D01*
X106950000Y-122968039D01*
X106999958Y-123219196D01*
X107097955Y-123455781D01*
X107240224Y-123668702D01*
X107421298Y-123849776D01*
X107634219Y-123992045D01*
X107870804Y-124090042D01*
X108121961Y-124140000D01*
X108378039Y-124140000D01*
X108629196Y-124090042D01*
X108865781Y-123992045D01*
X109078702Y-123849776D01*
X109259776Y-123668702D01*
X109402045Y-123455781D01*
X109500042Y-123219196D01*
X109550000Y-122968039D01*
X109550000Y-122711961D01*
X109500042Y-122460804D01*
X109402045Y-122224219D01*
X109259776Y-122011298D01*
X109078702Y-121830224D01*
X108865781Y-121687955D01*
X108629196Y-121589958D01*
X108378039Y-121540000D01*
X108121961Y-121540000D01*
X107870804Y-121589958D01*
X107634219Y-121687955D01*
X107421298Y-121830224D01*
X107240224Y-122011298D01*
X107097955Y-122224219D01*
X106999958Y-122460804D01*
X106950000Y-122711961D01*
X105050000Y-122711961D01*
X105000042Y-122460804D01*
X104902045Y-122224219D01*
X104759776Y-122011298D01*
X104578702Y-121830224D01*
X104365781Y-121687955D01*
X104129196Y-121589958D01*
X103878039Y-121540000D01*
X103621961Y-121540000D01*
X103370804Y-121589958D01*
X103134219Y-121687955D01*
X102921298Y-121830224D01*
X102740224Y-122011298D01*
X102597955Y-122224219D01*
X102499958Y-122460804D01*
X102450000Y-122711961D01*
X89100000Y-122711961D01*
X89100000Y-114121207D01*
X90200000Y-114121207D01*
X90200000Y-114278793D01*
X90230743Y-114433351D01*
X90291049Y-114578942D01*
X90378599Y-114709970D01*
X90490030Y-114821401D01*
X90621058Y-114908951D01*
X90766649Y-114969257D01*
X90921207Y-115000000D01*
X91078793Y-115000000D01*
X91233351Y-114969257D01*
X91378942Y-114908951D01*
X91509970Y-114821401D01*
X91621401Y-114709970D01*
X91708951Y-114578942D01*
X91769257Y-114433351D01*
X91800000Y-114278793D01*
X91800000Y-114121207D01*
X91769257Y-113966649D01*
X91708951Y-113821058D01*
X91650000Y-113732831D01*
X91650000Y-113369238D01*
X93829281Y-111189957D01*
X93933351Y-111169257D01*
X94078942Y-111108951D01*
X94209970Y-111021401D01*
X94321401Y-110909970D01*
X94408951Y-110778942D01*
X94469257Y-110633351D01*
X94500000Y-110478793D01*
X94500000Y-110321207D01*
X94469257Y-110166649D01*
X94408951Y-110021058D01*
X94321401Y-109890030D01*
X94209970Y-109778599D01*
X94078942Y-109691049D01*
X93933351Y-109630743D01*
X93778793Y-109600000D01*
X93621207Y-109600000D01*
X93466649Y-109630743D01*
X93321058Y-109691049D01*
X93190030Y-109778599D01*
X93078599Y-109890030D01*
X92991049Y-110021058D01*
X92930743Y-110166649D01*
X92910043Y-110270719D01*
X90562962Y-112617800D01*
X90538157Y-112638157D01*
X90517802Y-112662960D01*
X90456930Y-112737132D01*
X90404643Y-112834955D01*
X90396573Y-112850053D01*
X90359405Y-112972579D01*
X90350000Y-113068069D01*
X90350000Y-113068079D01*
X90346856Y-113100000D01*
X90350000Y-113131922D01*
X90350001Y-113732831D01*
X90291049Y-113821058D01*
X90230743Y-113966649D01*
X90200000Y-114121207D01*
X89100000Y-114121207D01*
X89100000Y-113998527D01*
X90153419Y-112945109D01*
X90176317Y-112926317D01*
X90251296Y-112834955D01*
X90307010Y-112730721D01*
X90341318Y-112617621D01*
X90350000Y-112529474D01*
X90352903Y-112500000D01*
X90350000Y-112470526D01*
X90350000Y-106531371D01*
X90371401Y-106509970D01*
X90458951Y-106378942D01*
X90519257Y-106233351D01*
X90550000Y-106078793D01*
X90550000Y-105921207D01*
X90519257Y-105766649D01*
X90458951Y-105621058D01*
X90371401Y-105490030D01*
X90259970Y-105378599D01*
X90128942Y-105291049D01*
X90029841Y-105250000D01*
X90128942Y-105208951D01*
X90259970Y-105121401D01*
X90371401Y-105009970D01*
X90458951Y-104878942D01*
X90519257Y-104733351D01*
X90550000Y-104578793D01*
X90550000Y-104421207D01*
X90519257Y-104266649D01*
X90458951Y-104121058D01*
X90371401Y-103990030D01*
X90259970Y-103878599D01*
X90128942Y-103791049D01*
X89983351Y-103730743D01*
X89828793Y-103700000D01*
X89671207Y-103700000D01*
X89516649Y-103730743D01*
X89371058Y-103791049D01*
X89240030Y-103878599D01*
X89128599Y-103990030D01*
X89041049Y-104121058D01*
X88980743Y-104266649D01*
X88950000Y-104421207D01*
X88950000Y-104451472D01*
X87526012Y-105875461D01*
X87469776Y-105791298D01*
X87288702Y-105610224D01*
X87075781Y-105467955D01*
X86839196Y-105369958D01*
X86738860Y-105350000D01*
X86839196Y-105330042D01*
X87075781Y-105232045D01*
X87288702Y-105089776D01*
X87469776Y-104908702D01*
X87612045Y-104695781D01*
X87710042Y-104459196D01*
X87760000Y-104208039D01*
X87760000Y-103951961D01*
X87710042Y-103700804D01*
X87612045Y-103464219D01*
X87469776Y-103251298D01*
X87288702Y-103070224D01*
X87075781Y-102927955D01*
X86839196Y-102829958D01*
X86738860Y-102810000D01*
X86839196Y-102790042D01*
X87075781Y-102692045D01*
X87288702Y-102549776D01*
X87469776Y-102368702D01*
X87612045Y-102155781D01*
X87710042Y-101919196D01*
X87760000Y-101668039D01*
X87760000Y-101411961D01*
X87710042Y-101160804D01*
X87612045Y-100924219D01*
X87469776Y-100711298D01*
X87288702Y-100530224D01*
X87075781Y-100387955D01*
X86839196Y-100289958D01*
X86738860Y-100270000D01*
X86839196Y-100250042D01*
X87075781Y-100152045D01*
X87288702Y-100009776D01*
X87469776Y-99828702D01*
X87612045Y-99615781D01*
X87710042Y-99379196D01*
X87760000Y-99128039D01*
X87760000Y-98871961D01*
X87710042Y-98620804D01*
X87612045Y-98384219D01*
X87469776Y-98171298D01*
X87288702Y-97990224D01*
X87075781Y-97847955D01*
X86839196Y-97749958D01*
X86738860Y-97730000D01*
X86839196Y-97710042D01*
X87075781Y-97612045D01*
X87288702Y-97469776D01*
X87469776Y-97288702D01*
X87612045Y-97075781D01*
X87618582Y-97060000D01*
X89911473Y-97060000D01*
X98800000Y-105948528D01*
X98800000Y-105978793D01*
X98830743Y-106133351D01*
X98891049Y-106278942D01*
X98978599Y-106409970D01*
X99090030Y-106521401D01*
X99221058Y-106608951D01*
X99366649Y-106669257D01*
X99521207Y-106700000D01*
X99678793Y-106700000D01*
X99793759Y-106677132D01*
X99848705Y-106779929D01*
X99923684Y-106871292D01*
X99946587Y-106890088D01*
X100459917Y-107403419D01*
X100478709Y-107426317D01*
X100570071Y-107501296D01*
X100637997Y-107537603D01*
X100674304Y-107557010D01*
X100787405Y-107591318D01*
X100867873Y-107599244D01*
X100890030Y-107621401D01*
X101021058Y-107708951D01*
X101166649Y-107769257D01*
X101321207Y-107800000D01*
X101478793Y-107800000D01*
X101633351Y-107769257D01*
X101778942Y-107708951D01*
X101909970Y-107621401D01*
X102021401Y-107509970D01*
X102108951Y-107378942D01*
X102169257Y-107233351D01*
X102200000Y-107078793D01*
X102200000Y-106921207D01*
X102169257Y-106766649D01*
X102108951Y-106621058D01*
X102021401Y-106490030D01*
X101909970Y-106378599D01*
X101778942Y-106291049D01*
X101633351Y-106230743D01*
X101478793Y-106200000D01*
X101321207Y-106200000D01*
X101166649Y-106230743D01*
X101037706Y-106284153D01*
X100950001Y-106196448D01*
X100950001Y-105643472D01*
X100952904Y-105613998D01*
X100941319Y-105496378D01*
X100914717Y-105408682D01*
X100907011Y-105383278D01*
X100851297Y-105279044D01*
X100776318Y-105187682D01*
X100753420Y-105168890D01*
X98499999Y-102915470D01*
X98499999Y-99670939D01*
X98616649Y-99719257D01*
X98771207Y-99750000D01*
X98928793Y-99750000D01*
X99083351Y-99719257D01*
X99228942Y-99658951D01*
X99359970Y-99571401D01*
X99471401Y-99459970D01*
X99558951Y-99328942D01*
X99619257Y-99183351D01*
X99650000Y-99028793D01*
X99650000Y-98871207D01*
X99619257Y-98716649D01*
X99610001Y-98694303D01*
X99610001Y-96135863D01*
X99634219Y-96152045D01*
X99870804Y-96250042D01*
X100121961Y-96300000D01*
X100378039Y-96300000D01*
X100588833Y-96258071D01*
X103667800Y-99337038D01*
X103688157Y-99361843D01*
X103712960Y-99382198D01*
X103787131Y-99443070D01*
X103857334Y-99480594D01*
X103900052Y-99503427D01*
X104022578Y-99540595D01*
X104118068Y-99550000D01*
X104118079Y-99550000D01*
X104150000Y-99553144D01*
X104181921Y-99550000D01*
X106132831Y-99550000D01*
X106221058Y-99608951D01*
X106366649Y-99669257D01*
X106521207Y-99700000D01*
X106678793Y-99700000D01*
X106833351Y-99669257D01*
X106978942Y-99608951D01*
X107109970Y-99521401D01*
X107221401Y-99409970D01*
X107308951Y-99278942D01*
X107369257Y-99133351D01*
X107400000Y-98978793D01*
X107400000Y-98821207D01*
X107369257Y-98666649D01*
X107308951Y-98521058D01*
X107221401Y-98390030D01*
X107109970Y-98278599D01*
X106978942Y-98191049D01*
X106833351Y-98130743D01*
X106678793Y-98100000D01*
X106521207Y-98100000D01*
X106366649Y-98130743D01*
X106221058Y-98191049D01*
X106132831Y-98250000D01*
X104419238Y-98250000D01*
X102421385Y-96252147D01*
X102661961Y-96300000D01*
X102918039Y-96300000D01*
X103169196Y-96250042D01*
X103405781Y-96152045D01*
X103618702Y-96009776D01*
X103799776Y-95828702D01*
X103942045Y-95615781D01*
X104040042Y-95379196D01*
X104090000Y-95128039D01*
X104090000Y-94871961D01*
X104040042Y-94620804D01*
X103942045Y-94384219D01*
X103799776Y-94171298D01*
X103618702Y-93990224D01*
X103405781Y-93847955D01*
X103169196Y-93749958D01*
X102918039Y-93700000D01*
X102661961Y-93700000D01*
X102451167Y-93741929D01*
X101072200Y-92362962D01*
X101051843Y-92338157D01*
X100952868Y-92256930D01*
X100839948Y-92196573D01*
X100717422Y-92159405D01*
X100621932Y-92150000D01*
X100621921Y-92150000D01*
X100590000Y-92146856D01*
X100558079Y-92150000D01*
X100046217Y-92150000D01*
X100024203Y-92077430D01*
X99959892Y-91957114D01*
X99873345Y-91851655D01*
X99767886Y-91765108D01*
X99647570Y-91700797D01*
X99517019Y-91661195D01*
X99381250Y-91647823D01*
X98893750Y-91647823D01*
X98757981Y-91661195D01*
X98627430Y-91700797D01*
X98507114Y-91765108D01*
X98401655Y-91851655D01*
X98372902Y-91886691D01*
X98360854Y-91846976D01*
X98299754Y-91732666D01*
X98217528Y-91632472D01*
X98117334Y-91550246D01*
X98003024Y-91489146D01*
X97878991Y-91451520D01*
X97750000Y-91438816D01*
X97531000Y-91442000D01*
X97366500Y-91606500D01*
X97366500Y-92696000D01*
X97386500Y-92696000D01*
X97386500Y-92904000D01*
X97366500Y-92904000D01*
X97366500Y-92924000D01*
X97158500Y-92924000D01*
X97158500Y-92904000D01*
X96281500Y-92904000D01*
X96117000Y-93068500D01*
X96113816Y-93500000D01*
X96126520Y-93628991D01*
X96164146Y-93753024D01*
X96225246Y-93867334D01*
X96307472Y-93967528D01*
X96407666Y-94049754D01*
X96521976Y-94110854D01*
X96618462Y-94140123D01*
X96425860Y-94195568D01*
X96293598Y-94461549D01*
X96215767Y-94748221D01*
X96195358Y-95044570D01*
X96233157Y-95339205D01*
X96327709Y-95620805D01*
X96425860Y-95804432D01*
X96684139Y-95878783D01*
X97562922Y-95000000D01*
X97548780Y-94985858D01*
X97695858Y-94838780D01*
X97710000Y-94852922D01*
X97724143Y-94838780D01*
X97871221Y-94985858D01*
X97857078Y-95000000D01*
X97871221Y-95014143D01*
X97724143Y-95161221D01*
X97710000Y-95147078D01*
X96831217Y-96025861D01*
X96905568Y-96284140D01*
X97171549Y-96416402D01*
X97458221Y-96494233D01*
X97754570Y-96514642D01*
X98049205Y-96476843D01*
X98310001Y-96389276D01*
X98310001Y-98358628D01*
X98228599Y-98440030D01*
X98181351Y-98510742D01*
X91770609Y-92100000D01*
X96113816Y-92100000D01*
X96117000Y-92531500D01*
X96281500Y-92696000D01*
X97158500Y-92696000D01*
X97158500Y-91606500D01*
X96994000Y-91442000D01*
X96775000Y-91438816D01*
X96646009Y-91451520D01*
X96521976Y-91489146D01*
X96407666Y-91550246D01*
X96307472Y-91632472D01*
X96225246Y-91732666D01*
X96164146Y-91846976D01*
X96126520Y-91971009D01*
X96113816Y-92100000D01*
X91770609Y-92100000D01*
X88107194Y-88436586D01*
X88088398Y-88413683D01*
X87997036Y-88338704D01*
X87892802Y-88282990D01*
X87779702Y-88248682D01*
X87691555Y-88240000D01*
X87662081Y-88237097D01*
X87632607Y-88240000D01*
X87618582Y-88240000D01*
X87612045Y-88224219D01*
X87469776Y-88011298D01*
X87288702Y-87830224D01*
X87075781Y-87687955D01*
X86839196Y-87589958D01*
X86738860Y-87570000D01*
X86839196Y-87550042D01*
X87075781Y-87452045D01*
X87288702Y-87309776D01*
X87469776Y-87128702D01*
X87612045Y-86915781D01*
X87710042Y-86679196D01*
X87760000Y-86428039D01*
X87760000Y-86171961D01*
X87710042Y-85920804D01*
X87612045Y-85684219D01*
X87469776Y-85471298D01*
X87288702Y-85290224D01*
X87075781Y-85147955D01*
X86839196Y-85049958D01*
X86738860Y-85030000D01*
X86839196Y-85010042D01*
X87075781Y-84912045D01*
X87288702Y-84769776D01*
X87469776Y-84588702D01*
X87612045Y-84375781D01*
X87710042Y-84139196D01*
X87760000Y-83888039D01*
X87760000Y-83631961D01*
X87710042Y-83380804D01*
X87612045Y-83144219D01*
X87469776Y-82931298D01*
X87288702Y-82750224D01*
X87075781Y-82607955D01*
X86839196Y-82509958D01*
X86738860Y-82490000D01*
X86839196Y-82470042D01*
X87075781Y-82372045D01*
X87288702Y-82229776D01*
X87469776Y-82048702D01*
X87612045Y-81835781D01*
X87710042Y-81599196D01*
X87760000Y-81348039D01*
X87760000Y-81091961D01*
X87710042Y-80840804D01*
X87612045Y-80604219D01*
X87469776Y-80391298D01*
X87288702Y-80210224D01*
X87075781Y-80067955D01*
X86839196Y-79969958D01*
X86738860Y-79950000D01*
X86839196Y-79930042D01*
X87075781Y-79832045D01*
X87288702Y-79689776D01*
X87469776Y-79508702D01*
X87612045Y-79295781D01*
X87710042Y-79059196D01*
X87760000Y-78808039D01*
X87760000Y-78551961D01*
X87710042Y-78300804D01*
X87612045Y-78064219D01*
X87469776Y-77851298D01*
X87288702Y-77670224D01*
X87075781Y-77527955D01*
X86839196Y-77429958D01*
X86588039Y-77380000D01*
X86331961Y-77380000D01*
X86080804Y-77429958D01*
X85875000Y-77515205D01*
X85875000Y-70100000D01*
X94738816Y-70100000D01*
X94751520Y-70228991D01*
X94789146Y-70353024D01*
X94850246Y-70467334D01*
X94932472Y-70567528D01*
X95032666Y-70649754D01*
X95146976Y-70710854D01*
X95271009Y-70748480D01*
X95400000Y-70761184D01*
X95981500Y-70758000D01*
X96146000Y-70593500D01*
X96146000Y-69354000D01*
X94906500Y-69354000D01*
X94742000Y-69518500D01*
X94738816Y-70100000D01*
X85875000Y-70100000D01*
X85875000Y-68625000D01*
X94740048Y-68625000D01*
X94742000Y-68981500D01*
G37*
X94742000Y-68981500D02*
X94906500Y-69146000D01*
X96146000Y-69146000D01*
X96146000Y-69126000D01*
X96354000Y-69126000D01*
X96354000Y-69146000D01*
X96374000Y-69146000D01*
X96374000Y-69354000D01*
X96354000Y-69354000D01*
X96354000Y-70593500D01*
X96518500Y-70758000D01*
X97100000Y-70761184D01*
X97228991Y-70748480D01*
X97353024Y-70710854D01*
X97467334Y-70649754D01*
X97567528Y-70567528D01*
X97649754Y-70467334D01*
X97710854Y-70353024D01*
X97748480Y-70228991D01*
X97761184Y-70100000D01*
X97760909Y-70049795D01*
X97780224Y-70078702D01*
X97961298Y-70259776D01*
X98174219Y-70402045D01*
X98410804Y-70500042D01*
X98661961Y-70550000D01*
X98918039Y-70550000D01*
X99169196Y-70500042D01*
X99405781Y-70402045D01*
X99618702Y-70259776D01*
X99799776Y-70078702D01*
X99942045Y-69865781D01*
X100040042Y-69629196D01*
X100060000Y-69528860D01*
X100079958Y-69629196D01*
X100177955Y-69865781D01*
X100320224Y-70078702D01*
X100501298Y-70259776D01*
X100714219Y-70402045D01*
X100950804Y-70500042D01*
X101201961Y-70550000D01*
X101458039Y-70550000D01*
X101709196Y-70500042D01*
X101945781Y-70402045D01*
X102158702Y-70259776D01*
X102339776Y-70078702D01*
X102482045Y-69865781D01*
X102580042Y-69629196D01*
X102600000Y-69528860D01*
X102619958Y-69629196D01*
X102717955Y-69865781D01*
X102860224Y-70078702D01*
X103041298Y-70259776D01*
X103254219Y-70402045D01*
X103490804Y-70500042D01*
X103741961Y-70550000D01*
X103998039Y-70550000D01*
X104249196Y-70500042D01*
X104485781Y-70402045D01*
X104698702Y-70259776D01*
X104879776Y-70078702D01*
X105022045Y-69865781D01*
X105028582Y-69850000D01*
X110101473Y-69850000D01*
X111400000Y-71148528D01*
X111399999Y-109930525D01*
X111397096Y-109959999D01*
X111399999Y-109989472D01*
X111408681Y-110077619D01*
X111442989Y-110190719D01*
X111498703Y-110294953D01*
X111573682Y-110386316D01*
X111596585Y-110405112D01*
X112496495Y-111305022D01*
X112489958Y-111320804D01*
X112440000Y-111571961D01*
X112440000Y-111828039D01*
X112489958Y-112079196D01*
X112587955Y-112315781D01*
X112730224Y-112528702D01*
X112911298Y-112709776D01*
X113124219Y-112852045D01*
X113360804Y-112950042D01*
X113611961Y-113000000D01*
X113868039Y-113000000D01*
X114119196Y-112950042D01*
X114325001Y-112864795D01*
X114325001Y-132075000D01*
X85875000Y-132075000D01*
X85875000Y-112864795D01*
X86080804Y-112950042D01*
X86331961Y-113000000D01*
X86588039Y-113000000D01*
X86839196Y-112950042D01*
X87075781Y-112852045D01*
X87288702Y-112709776D01*
X87469776Y-112528702D01*
X87612045Y-112315781D01*
X87710042Y-112079196D01*
X87760000Y-111828039D01*
X87760000Y-111571961D01*
X87710042Y-111320804D01*
X87612045Y-111084219D01*
X87469776Y-110871298D01*
X87288702Y-110690224D01*
X87075781Y-110547955D01*
X87070478Y-110545758D01*
X87080805Y-110542291D01*
X87264432Y-110444140D01*
X87338783Y-110185861D01*
X86460000Y-109307078D01*
X86445858Y-109321221D01*
X86298780Y-109174143D01*
X86312922Y-109160000D01*
X86607078Y-109160000D01*
X87485861Y-110038783D01*
X87744140Y-109964432D01*
X87876402Y-109698451D01*
X87954233Y-109411779D01*
X87974642Y-109115430D01*
X87936843Y-108820795D01*
X87842291Y-108539195D01*
X87744140Y-108355568D01*
X87485861Y-108281217D01*
X86607078Y-109160000D01*
X86312922Y-109160000D01*
X86298780Y-109145858D01*
X86445858Y-108998780D01*
X86460000Y-109012922D01*
X87338783Y-108134139D01*
X87264432Y-107875860D01*
X87064803Y-107776592D01*
X87075781Y-107772045D01*
X87288702Y-107629776D01*
X87469776Y-107448702D01*
X87612045Y-107235781D01*
X87617874Y-107221709D01*
X87630000Y-107222903D01*
X87659474Y-107220000D01*
X87747621Y-107211318D01*
X87860721Y-107177010D01*
X87964955Y-107121296D01*
X88056317Y-107046317D01*
X88075113Y-107023414D01*
X88961570Y-106136958D01*
X88980743Y-106233351D01*
X89041049Y-106378942D01*
X89128599Y-106509970D01*
X89150000Y-106531371D01*
X89150001Y-112251471D01*
X88096581Y-113304891D01*
X88073684Y-113323683D01*
X87998705Y-113415045D01*
X87973143Y-113462868D01*
X87942991Y-113519279D01*
X87908682Y-113632380D01*
X87897097Y-113750000D01*
X87900001Y-113779484D01*
X87900000Y-123670526D01*
X87897097Y-123700000D01*
X87900000Y-123729473D01*
X87908682Y-123817620D01*
X87942990Y-123930720D01*
X87998704Y-124034954D01*
X88073683Y-124126317D01*
X88096586Y-124145113D01*
X89800000Y-125848528D01*
X89800000Y-125878793D01*
X89830743Y-126033351D01*
X89891049Y-126178942D01*
X89978599Y-126309970D01*
X90090030Y-126421401D01*
X90221058Y-126508951D01*
X90366649Y-126569257D01*
X90521207Y-126600000D01*
X90678793Y-126600000D01*
X90833351Y-126569257D01*
X90978942Y-126508951D01*
X91109970Y-126421401D01*
X91221401Y-126309970D01*
X91308951Y-126178942D01*
X91369257Y-126033351D01*
X91400000Y-125878793D01*
X91400000Y-125721207D01*
X91369257Y-125566649D01*
X91308951Y-125421058D01*
X91221401Y-125290030D01*
X91109970Y-125178599D01*
X90978942Y-125091049D01*
X90833351Y-125030743D01*
X90678793Y-125000000D01*
X90648528Y-125000000D01*
X89100000Y-123451473D01*
X89100000Y-122711961D01*
X102450000Y-122711961D01*
X102450000Y-122968039D01*
X102499958Y-123219196D01*
X102597955Y-123455781D01*
X102740224Y-123668702D01*
X102921298Y-123849776D01*
X103134219Y-123992045D01*
X103370804Y-124090042D01*
X103621961Y-124140000D01*
X103878039Y-124140000D01*
X104129196Y-124090042D01*
X104365781Y-123992045D01*
X104578702Y-123849776D01*
X104759776Y-123668702D01*
X104902045Y-123455781D01*
X105000042Y-123219196D01*
X105050000Y-122968039D01*
X105050000Y-122711961D01*
X106950000Y-122711961D01*
X106950000Y-122968039D01*
X106999958Y-123219196D01*
X107097955Y-123455781D01*
X107240224Y-123668702D01*
X107421298Y-123849776D01*
X107634219Y-123992045D01*
X107870804Y-124090042D01*
X108121961Y-124140000D01*
X108378039Y-124140000D01*
X108629196Y-124090042D01*
X108865781Y-123992045D01*
X109078702Y-123849776D01*
X109259776Y-123668702D01*
X109402045Y-123455781D01*
X109500042Y-123219196D01*
X109550000Y-122968039D01*
X109550000Y-122711961D01*
X109500042Y-122460804D01*
X109402045Y-122224219D01*
X109259776Y-122011298D01*
X109078702Y-121830224D01*
X108865781Y-121687955D01*
X108629196Y-121589958D01*
X108378039Y-121540000D01*
X108121961Y-121540000D01*
X107870804Y-121589958D01*
X107634219Y-121687955D01*
X107421298Y-121830224D01*
X107240224Y-122011298D01*
X107097955Y-122224219D01*
X106999958Y-122460804D01*
X106950000Y-122711961D01*
X105050000Y-122711961D01*
X105000042Y-122460804D01*
X104902045Y-122224219D01*
X104759776Y-122011298D01*
X104578702Y-121830224D01*
X104365781Y-121687955D01*
X104129196Y-121589958D01*
X103878039Y-121540000D01*
X103621961Y-121540000D01*
X103370804Y-121589958D01*
X103134219Y-121687955D01*
X102921298Y-121830224D01*
X102740224Y-122011298D01*
X102597955Y-122224219D01*
X102499958Y-122460804D01*
X102450000Y-122711961D01*
X89100000Y-122711961D01*
X89100000Y-114121207D01*
X90200000Y-114121207D01*
X90200000Y-114278793D01*
X90230743Y-114433351D01*
X90291049Y-114578942D01*
X90378599Y-114709970D01*
X90490030Y-114821401D01*
X90621058Y-114908951D01*
X90766649Y-114969257D01*
X90921207Y-115000000D01*
X91078793Y-115000000D01*
X91233351Y-114969257D01*
X91378942Y-114908951D01*
X91509970Y-114821401D01*
X91621401Y-114709970D01*
X91708951Y-114578942D01*
X91769257Y-114433351D01*
X91800000Y-114278793D01*
X91800000Y-114121207D01*
X91769257Y-113966649D01*
X91708951Y-113821058D01*
X91650000Y-113732831D01*
X91650000Y-113369238D01*
X93829281Y-111189957D01*
X93933351Y-111169257D01*
X94078942Y-111108951D01*
X94209970Y-111021401D01*
X94321401Y-110909970D01*
X94408951Y-110778942D01*
X94469257Y-110633351D01*
X94500000Y-110478793D01*
X94500000Y-110321207D01*
X94469257Y-110166649D01*
X94408951Y-110021058D01*
X94321401Y-109890030D01*
X94209970Y-109778599D01*
X94078942Y-109691049D01*
X93933351Y-109630743D01*
X93778793Y-109600000D01*
X93621207Y-109600000D01*
X93466649Y-109630743D01*
X93321058Y-109691049D01*
X93190030Y-109778599D01*
X93078599Y-109890030D01*
X92991049Y-110021058D01*
X92930743Y-110166649D01*
X92910043Y-110270719D01*
X90562962Y-112617800D01*
X90538157Y-112638157D01*
X90517802Y-112662960D01*
X90456930Y-112737132D01*
X90404643Y-112834955D01*
X90396573Y-112850053D01*
X90359405Y-112972579D01*
X90350000Y-113068069D01*
X90350000Y-113068079D01*
X90346856Y-113100000D01*
X90350000Y-113131922D01*
X90350001Y-113732831D01*
X90291049Y-113821058D01*
X90230743Y-113966649D01*
X90200000Y-114121207D01*
X89100000Y-114121207D01*
X89100000Y-113998527D01*
X90153419Y-112945109D01*
X90176317Y-112926317D01*
X90251296Y-112834955D01*
X90307010Y-112730721D01*
X90341318Y-112617621D01*
X90350000Y-112529474D01*
X90352903Y-112500000D01*
X90350000Y-112470526D01*
X90350000Y-106531371D01*
X90371401Y-106509970D01*
X90458951Y-106378942D01*
X90519257Y-106233351D01*
X90550000Y-106078793D01*
X90550000Y-105921207D01*
X90519257Y-105766649D01*
X90458951Y-105621058D01*
X90371401Y-105490030D01*
X90259970Y-105378599D01*
X90128942Y-105291049D01*
X90029841Y-105250000D01*
X90128942Y-105208951D01*
X90259970Y-105121401D01*
X90371401Y-105009970D01*
X90458951Y-104878942D01*
X90519257Y-104733351D01*
X90550000Y-104578793D01*
X90550000Y-104421207D01*
X90519257Y-104266649D01*
X90458951Y-104121058D01*
X90371401Y-103990030D01*
X90259970Y-103878599D01*
X90128942Y-103791049D01*
X89983351Y-103730743D01*
X89828793Y-103700000D01*
X89671207Y-103700000D01*
X89516649Y-103730743D01*
X89371058Y-103791049D01*
X89240030Y-103878599D01*
X89128599Y-103990030D01*
X89041049Y-104121058D01*
X88980743Y-104266649D01*
X88950000Y-104421207D01*
X88950000Y-104451472D01*
X87526012Y-105875461D01*
X87469776Y-105791298D01*
X87288702Y-105610224D01*
X87075781Y-105467955D01*
X86839196Y-105369958D01*
X86738860Y-105350000D01*
X86839196Y-105330042D01*
X87075781Y-105232045D01*
X87288702Y-105089776D01*
X87469776Y-104908702D01*
X87612045Y-104695781D01*
X87710042Y-104459196D01*
X87760000Y-104208039D01*
X87760000Y-103951961D01*
X87710042Y-103700804D01*
X87612045Y-103464219D01*
X87469776Y-103251298D01*
X87288702Y-103070224D01*
X87075781Y-102927955D01*
X86839196Y-102829958D01*
X86738860Y-102810000D01*
X86839196Y-102790042D01*
X87075781Y-102692045D01*
X87288702Y-102549776D01*
X87469776Y-102368702D01*
X87612045Y-102155781D01*
X87710042Y-101919196D01*
X87760000Y-101668039D01*
X87760000Y-101411961D01*
X87710042Y-101160804D01*
X87612045Y-100924219D01*
X87469776Y-100711298D01*
X87288702Y-100530224D01*
X87075781Y-100387955D01*
X86839196Y-100289958D01*
X86738860Y-100270000D01*
X86839196Y-100250042D01*
X87075781Y-100152045D01*
X87288702Y-100009776D01*
X87469776Y-99828702D01*
X87612045Y-99615781D01*
X87710042Y-99379196D01*
X87760000Y-99128039D01*
X87760000Y-98871961D01*
X87710042Y-98620804D01*
X87612045Y-98384219D01*
X87469776Y-98171298D01*
X87288702Y-97990224D01*
X87075781Y-97847955D01*
X86839196Y-97749958D01*
X86738860Y-97730000D01*
X86839196Y-97710042D01*
X87075781Y-97612045D01*
X87288702Y-97469776D01*
X87469776Y-97288702D01*
X87612045Y-97075781D01*
X87618582Y-97060000D01*
X89911473Y-97060000D01*
X98800000Y-105948528D01*
X98800000Y-105978793D01*
X98830743Y-106133351D01*
X98891049Y-106278942D01*
X98978599Y-106409970D01*
X99090030Y-106521401D01*
X99221058Y-106608951D01*
X99366649Y-106669257D01*
X99521207Y-106700000D01*
X99678793Y-106700000D01*
X99793759Y-106677132D01*
X99848705Y-106779929D01*
X99923684Y-106871292D01*
X99946587Y-106890088D01*
X100459917Y-107403419D01*
X100478709Y-107426317D01*
X100570071Y-107501296D01*
X100637997Y-107537603D01*
X100674304Y-107557010D01*
X100787405Y-107591318D01*
X100867873Y-107599244D01*
X100890030Y-107621401D01*
X101021058Y-107708951D01*
X101166649Y-107769257D01*
X101321207Y-107800000D01*
X101478793Y-107800000D01*
X101633351Y-107769257D01*
X101778942Y-107708951D01*
X101909970Y-107621401D01*
X102021401Y-107509970D01*
X102108951Y-107378942D01*
X102169257Y-107233351D01*
X102200000Y-107078793D01*
X102200000Y-106921207D01*
X102169257Y-106766649D01*
X102108951Y-106621058D01*
X102021401Y-106490030D01*
X101909970Y-106378599D01*
X101778942Y-106291049D01*
X101633351Y-106230743D01*
X101478793Y-106200000D01*
X101321207Y-106200000D01*
X101166649Y-106230743D01*
X101037706Y-106284153D01*
X100950001Y-106196448D01*
X100950001Y-105643472D01*
X100952904Y-105613998D01*
X100941319Y-105496378D01*
X100914717Y-105408682D01*
X100907011Y-105383278D01*
X100851297Y-105279044D01*
X100776318Y-105187682D01*
X100753420Y-105168890D01*
X98499999Y-102915470D01*
X98499999Y-99670939D01*
X98616649Y-99719257D01*
X98771207Y-99750000D01*
X98928793Y-99750000D01*
X99083351Y-99719257D01*
X99228942Y-99658951D01*
X99359970Y-99571401D01*
X99471401Y-99459970D01*
X99558951Y-99328942D01*
X99619257Y-99183351D01*
X99650000Y-99028793D01*
X99650000Y-98871207D01*
X99619257Y-98716649D01*
X99610001Y-98694303D01*
X99610001Y-96135863D01*
X99634219Y-96152045D01*
X99870804Y-96250042D01*
X100121961Y-96300000D01*
X100378039Y-96300000D01*
X100588833Y-96258071D01*
X103667800Y-99337038D01*
X103688157Y-99361843D01*
X103712960Y-99382198D01*
X103787131Y-99443070D01*
X103857334Y-99480594D01*
X103900052Y-99503427D01*
X104022578Y-99540595D01*
X104118068Y-99550000D01*
X104118079Y-99550000D01*
X104150000Y-99553144D01*
X104181921Y-99550000D01*
X106132831Y-99550000D01*
X106221058Y-99608951D01*
X106366649Y-99669257D01*
X106521207Y-99700000D01*
X106678793Y-99700000D01*
X106833351Y-99669257D01*
X106978942Y-99608951D01*
X107109970Y-99521401D01*
X107221401Y-99409970D01*
X107308951Y-99278942D01*
X107369257Y-99133351D01*
X107400000Y-98978793D01*
X107400000Y-98821207D01*
X107369257Y-98666649D01*
X107308951Y-98521058D01*
X107221401Y-98390030D01*
X107109970Y-98278599D01*
X106978942Y-98191049D01*
X106833351Y-98130743D01*
X106678793Y-98100000D01*
X106521207Y-98100000D01*
X106366649Y-98130743D01*
X106221058Y-98191049D01*
X106132831Y-98250000D01*
X104419238Y-98250000D01*
X102421385Y-96252147D01*
X102661961Y-96300000D01*
X102918039Y-96300000D01*
X103169196Y-96250042D01*
X103405781Y-96152045D01*
X103618702Y-96009776D01*
X103799776Y-95828702D01*
X103942045Y-95615781D01*
X104040042Y-95379196D01*
X104090000Y-95128039D01*
X104090000Y-94871961D01*
X104040042Y-94620804D01*
X103942045Y-94384219D01*
X103799776Y-94171298D01*
X103618702Y-93990224D01*
X103405781Y-93847955D01*
X103169196Y-93749958D01*
X102918039Y-93700000D01*
X102661961Y-93700000D01*
X102451167Y-93741929D01*
X101072200Y-92362962D01*
X101051843Y-92338157D01*
X100952868Y-92256930D01*
X100839948Y-92196573D01*
X100717422Y-92159405D01*
X100621932Y-92150000D01*
X100621921Y-92150000D01*
X100590000Y-92146856D01*
X100558079Y-92150000D01*
X100046217Y-92150000D01*
X100024203Y-92077430D01*
X99959892Y-91957114D01*
X99873345Y-91851655D01*
X99767886Y-91765108D01*
X99647570Y-91700797D01*
X99517019Y-91661195D01*
X99381250Y-91647823D01*
X98893750Y-91647823D01*
X98757981Y-91661195D01*
X98627430Y-91700797D01*
X98507114Y-91765108D01*
X98401655Y-91851655D01*
X98372902Y-91886691D01*
X98360854Y-91846976D01*
X98299754Y-91732666D01*
X98217528Y-91632472D01*
X98117334Y-91550246D01*
X98003024Y-91489146D01*
X97878991Y-91451520D01*
X97750000Y-91438816D01*
X97531000Y-91442000D01*
X97366500Y-91606500D01*
X97366500Y-92696000D01*
X97386500Y-92696000D01*
X97386500Y-92904000D01*
X97366500Y-92904000D01*
X97366500Y-92924000D01*
X97158500Y-92924000D01*
X97158500Y-92904000D01*
X96281500Y-92904000D01*
X96117000Y-93068500D01*
X96113816Y-93500000D01*
X96126520Y-93628991D01*
X96164146Y-93753024D01*
X96225246Y-93867334D01*
X96307472Y-93967528D01*
X96407666Y-94049754D01*
X96521976Y-94110854D01*
X96618462Y-94140123D01*
X96425860Y-94195568D01*
X96293598Y-94461549D01*
X96215767Y-94748221D01*
X96195358Y-95044570D01*
X96233157Y-95339205D01*
X96327709Y-95620805D01*
X96425860Y-95804432D01*
X96684139Y-95878783D01*
X97562922Y-95000000D01*
X97548780Y-94985858D01*
X97695858Y-94838780D01*
X97710000Y-94852922D01*
X97724143Y-94838780D01*
X97871221Y-94985858D01*
X97857078Y-95000000D01*
X97871221Y-95014143D01*
X97724143Y-95161221D01*
X97710000Y-95147078D01*
X96831217Y-96025861D01*
X96905568Y-96284140D01*
X97171549Y-96416402D01*
X97458221Y-96494233D01*
X97754570Y-96514642D01*
X98049205Y-96476843D01*
X98310001Y-96389276D01*
X98310001Y-98358628D01*
X98228599Y-98440030D01*
X98181351Y-98510742D01*
X91770609Y-92100000D01*
X96113816Y-92100000D01*
X96117000Y-92531500D01*
X96281500Y-92696000D01*
X97158500Y-92696000D01*
X97158500Y-91606500D01*
X96994000Y-91442000D01*
X96775000Y-91438816D01*
X96646009Y-91451520D01*
X96521976Y-91489146D01*
X96407666Y-91550246D01*
X96307472Y-91632472D01*
X96225246Y-91732666D01*
X96164146Y-91846976D01*
X96126520Y-91971009D01*
X96113816Y-92100000D01*
X91770609Y-92100000D01*
X88107194Y-88436586D01*
X88088398Y-88413683D01*
X87997036Y-88338704D01*
X87892802Y-88282990D01*
X87779702Y-88248682D01*
X87691555Y-88240000D01*
X87662081Y-88237097D01*
X87632607Y-88240000D01*
X87618582Y-88240000D01*
X87612045Y-88224219D01*
X87469776Y-88011298D01*
X87288702Y-87830224D01*
X87075781Y-87687955D01*
X86839196Y-87589958D01*
X86738860Y-87570000D01*
X86839196Y-87550042D01*
X87075781Y-87452045D01*
X87288702Y-87309776D01*
X87469776Y-87128702D01*
X87612045Y-86915781D01*
X87710042Y-86679196D01*
X87760000Y-86428039D01*
X87760000Y-86171961D01*
X87710042Y-85920804D01*
X87612045Y-85684219D01*
X87469776Y-85471298D01*
X87288702Y-85290224D01*
X87075781Y-85147955D01*
X86839196Y-85049958D01*
X86738860Y-85030000D01*
X86839196Y-85010042D01*
X87075781Y-84912045D01*
X87288702Y-84769776D01*
X87469776Y-84588702D01*
X87612045Y-84375781D01*
X87710042Y-84139196D01*
X87760000Y-83888039D01*
X87760000Y-83631961D01*
X87710042Y-83380804D01*
X87612045Y-83144219D01*
X87469776Y-82931298D01*
X87288702Y-82750224D01*
X87075781Y-82607955D01*
X86839196Y-82509958D01*
X86738860Y-82490000D01*
X86839196Y-82470042D01*
X87075781Y-82372045D01*
X87288702Y-82229776D01*
X87469776Y-82048702D01*
X87612045Y-81835781D01*
X87710042Y-81599196D01*
X87760000Y-81348039D01*
X87760000Y-81091961D01*
X87710042Y-80840804D01*
X87612045Y-80604219D01*
X87469776Y-80391298D01*
X87288702Y-80210224D01*
X87075781Y-80067955D01*
X86839196Y-79969958D01*
X86738860Y-79950000D01*
X86839196Y-79930042D01*
X87075781Y-79832045D01*
X87288702Y-79689776D01*
X87469776Y-79508702D01*
X87612045Y-79295781D01*
X87710042Y-79059196D01*
X87760000Y-78808039D01*
X87760000Y-78551961D01*
X87710042Y-78300804D01*
X87612045Y-78064219D01*
X87469776Y-77851298D01*
X87288702Y-77670224D01*
X87075781Y-77527955D01*
X86839196Y-77429958D01*
X86588039Y-77380000D01*
X86331961Y-77380000D01*
X86080804Y-77429958D01*
X85875000Y-77515205D01*
X85875000Y-70100000D01*
X94738816Y-70100000D01*
X94751520Y-70228991D01*
X94789146Y-70353024D01*
X94850246Y-70467334D01*
X94932472Y-70567528D01*
X95032666Y-70649754D01*
X95146976Y-70710854D01*
X95271009Y-70748480D01*
X95400000Y-70761184D01*
X95981500Y-70758000D01*
X96146000Y-70593500D01*
X96146000Y-69354000D01*
X94906500Y-69354000D01*
X94742000Y-69518500D01*
X94738816Y-70100000D01*
X85875000Y-70100000D01*
X85875000Y-68625000D01*
X94740048Y-68625000D01*
X94742000Y-68981500D01*
G36*
X112730224Y-107448702D02*
G01*
X112911298Y-107629776D01*
X113124219Y-107772045D01*
X113129522Y-107774242D01*
X113119195Y-107777709D01*
X112935568Y-107875860D01*
X112861217Y-108134139D01*
X113740000Y-109012922D01*
X113754143Y-108998780D01*
X113901221Y-109145858D01*
X113887078Y-109160000D01*
X113901221Y-109174143D01*
X113754143Y-109321221D01*
X113740000Y-109307078D01*
X113725858Y-109321221D01*
X113578780Y-109174143D01*
X113592922Y-109160000D01*
X112714139Y-108281217D01*
X112599999Y-108314075D01*
X112599999Y-107253806D01*
X112730224Y-107448702D01*
G37*
X112730224Y-107448702D02*
X112911298Y-107629776D01*
X113124219Y-107772045D01*
X113129522Y-107774242D01*
X113119195Y-107777709D01*
X112935568Y-107875860D01*
X112861217Y-108134139D01*
X113740000Y-109012922D01*
X113754143Y-108998780D01*
X113901221Y-109145858D01*
X113887078Y-109160000D01*
X113901221Y-109174143D01*
X113754143Y-109321221D01*
X113740000Y-109307078D01*
X113725858Y-109321221D01*
X113578780Y-109174143D01*
X113592922Y-109160000D01*
X112714139Y-108281217D01*
X112599999Y-108314075D01*
X112599999Y-107253806D01*
X112730224Y-107448702D01*
G36*
X97300000Y-99326447D02*
G01*
X97299999Y-102751471D01*
X90605113Y-96056586D01*
X90586317Y-96033683D01*
X90494955Y-95958704D01*
X90390721Y-95902990D01*
X90277621Y-95868682D01*
X90189474Y-95860000D01*
X90160000Y-95857097D01*
X90130526Y-95860000D01*
X87618582Y-95860000D01*
X87612045Y-95844219D01*
X87469776Y-95631298D01*
X87288702Y-95450224D01*
X87075781Y-95307955D01*
X86839196Y-95209958D01*
X86738860Y-95190000D01*
X86839196Y-95170042D01*
X87075781Y-95072045D01*
X87288702Y-94929776D01*
X87469776Y-94748702D01*
X87612045Y-94535781D01*
X87710042Y-94299196D01*
X87760000Y-94048039D01*
X87760000Y-93791961D01*
X87710042Y-93540804D01*
X87612045Y-93304219D01*
X87469776Y-93091298D01*
X87288702Y-92910224D01*
X87075781Y-92767955D01*
X86839196Y-92669958D01*
X86738860Y-92650000D01*
X86839196Y-92630042D01*
X87075781Y-92532045D01*
X87288702Y-92389776D01*
X87469776Y-92208702D01*
X87612045Y-91995781D01*
X87710042Y-91759196D01*
X87760000Y-91508039D01*
X87760000Y-91251961D01*
X87710042Y-91000804D01*
X87612045Y-90764219D01*
X87469776Y-90551298D01*
X87288702Y-90370224D01*
X87075781Y-90227955D01*
X86839196Y-90129958D01*
X86738860Y-90110000D01*
X86839196Y-90090042D01*
X87075781Y-89992045D01*
X87288702Y-89849776D01*
X87469776Y-89668702D01*
X87538862Y-89565308D01*
X97300000Y-99326447D01*
G37*
X97300000Y-99326447D02*
X97299999Y-102751471D01*
X90605113Y-96056586D01*
X90586317Y-96033683D01*
X90494955Y-95958704D01*
X90390721Y-95902990D01*
X90277621Y-95868682D01*
X90189474Y-95860000D01*
X90160000Y-95857097D01*
X90130526Y-95860000D01*
X87618582Y-95860000D01*
X87612045Y-95844219D01*
X87469776Y-95631298D01*
X87288702Y-95450224D01*
X87075781Y-95307955D01*
X86839196Y-95209958D01*
X86738860Y-95190000D01*
X86839196Y-95170042D01*
X87075781Y-95072045D01*
X87288702Y-94929776D01*
X87469776Y-94748702D01*
X87612045Y-94535781D01*
X87710042Y-94299196D01*
X87760000Y-94048039D01*
X87760000Y-93791961D01*
X87710042Y-93540804D01*
X87612045Y-93304219D01*
X87469776Y-93091298D01*
X87288702Y-92910224D01*
X87075781Y-92767955D01*
X86839196Y-92669958D01*
X86738860Y-92650000D01*
X86839196Y-92630042D01*
X87075781Y-92532045D01*
X87288702Y-92389776D01*
X87469776Y-92208702D01*
X87612045Y-91995781D01*
X87710042Y-91759196D01*
X87760000Y-91508039D01*
X87760000Y-91251961D01*
X87710042Y-91000804D01*
X87612045Y-90764219D01*
X87469776Y-90551298D01*
X87288702Y-90370224D01*
X87075781Y-90227955D01*
X86839196Y-90129958D01*
X86738860Y-90110000D01*
X86839196Y-90090042D01*
X87075781Y-89992045D01*
X87288702Y-89849776D01*
X87469776Y-89668702D01*
X87538862Y-89565308D01*
X97300000Y-99326447D01*
G36*
X112730224Y-87128702D02*
G01*
X112911298Y-87309776D01*
X113124219Y-87452045D01*
X113360804Y-87550042D01*
X113461140Y-87570000D01*
X113360804Y-87589958D01*
X113124219Y-87687955D01*
X112911298Y-87830224D01*
X112730224Y-88011298D01*
X112599999Y-88206194D01*
X112599999Y-86933806D01*
X112730224Y-87128702D01*
G37*
X112730224Y-87128702D02*
X112911298Y-87309776D01*
X113124219Y-87452045D01*
X113360804Y-87550042D01*
X113461140Y-87570000D01*
X113360804Y-87589958D01*
X113124219Y-87687955D01*
X112911298Y-87830224D01*
X112730224Y-88011298D01*
X112599999Y-88206194D01*
X112599999Y-86933806D01*
X112730224Y-87128702D01*
G36*
X112730224Y-84588702D02*
G01*
X112911298Y-84769776D01*
X113124219Y-84912045D01*
X113360804Y-85010042D01*
X113461140Y-85030000D01*
X113360804Y-85049958D01*
X113124219Y-85147955D01*
X112911298Y-85290224D01*
X112730224Y-85471298D01*
X112599999Y-85666194D01*
X112599999Y-84393806D01*
X112730224Y-84588702D01*
G37*
X112730224Y-84588702D02*
X112911298Y-84769776D01*
X113124219Y-84912045D01*
X113360804Y-85010042D01*
X113461140Y-85030000D01*
X113360804Y-85049958D01*
X113124219Y-85147955D01*
X112911298Y-85290224D01*
X112730224Y-85471298D01*
X112599999Y-85666194D01*
X112599999Y-84393806D01*
X112730224Y-84588702D01*
G36*
X114325000Y-77515205D02*
G01*
X114119196Y-77429958D01*
X113868039Y-77380000D01*
X113611961Y-77380000D01*
X113360804Y-77429958D01*
X113124219Y-77527955D01*
X112911298Y-77670224D01*
X112730224Y-77851298D01*
X112599999Y-78046194D01*
X112599999Y-70929473D01*
X112602902Y-70899999D01*
X112591317Y-70782378D01*
X112581034Y-70748480D01*
X112557009Y-70669278D01*
X112501295Y-70565044D01*
X112426316Y-70473682D01*
X112403418Y-70454890D01*
X110795113Y-68846586D01*
X110776317Y-68823683D01*
X110684955Y-68748704D01*
X110580721Y-68692990D01*
X110467621Y-68658682D01*
X110379474Y-68650000D01*
X110350000Y-68647097D01*
X110320526Y-68650000D01*
X105028582Y-68650000D01*
X105022045Y-68634219D01*
X105015885Y-68625000D01*
X114325000Y-68625000D01*
X114325000Y-77515205D01*
G37*
X114325000Y-77515205D02*
X114119196Y-77429958D01*
X113868039Y-77380000D01*
X113611961Y-77380000D01*
X113360804Y-77429958D01*
X113124219Y-77527955D01*
X112911298Y-77670224D01*
X112730224Y-77851298D01*
X112599999Y-78046194D01*
X112599999Y-70929473D01*
X112602902Y-70899999D01*
X112591317Y-70782378D01*
X112581034Y-70748480D01*
X112557009Y-70669278D01*
X112501295Y-70565044D01*
X112426316Y-70473682D01*
X112403418Y-70454890D01*
X110795113Y-68846586D01*
X110776317Y-68823683D01*
X110684955Y-68748704D01*
X110580721Y-68692990D01*
X110467621Y-68658682D01*
X110379474Y-68650000D01*
X110350000Y-68647097D01*
X110320526Y-68650000D01*
X105028582Y-68650000D01*
X105022045Y-68634219D01*
X105015885Y-68625000D01*
X114325000Y-68625000D01*
X114325000Y-77515205D01*
M02*
