G04 #@! TF.GenerationSoftware,KiCad,Pcbnew,(5.1.6-0-10_14)*
G04 #@! TF.CreationDate,2020-12-22T18:49:04+01:00*
G04 #@! TF.ProjectId,cdm324,63646d33-3234-42e6-9b69-6361645f7063,rev?*
G04 #@! TF.SameCoordinates,Original*
G04 #@! TF.FileFunction,Soldermask,Top*
G04 #@! TF.FilePolarity,Negative*
%FSLAX46Y46*%
G04 Gerber Fmt 4.6, Leading zero omitted, Abs format (unit mm)*
G04 Created by KiCad (PCBNEW (5.1.6-0-10_14)) date 2020-12-22 18:49:04*
%MOMM*%
%LPD*%
G01*
G04 APERTURE LIST*
%ADD10C,0.100000*%
G04 APERTURE END LIST*
D10*
G36*
X97897682Y-130229705D02*
G01*
X97938898Y-130242207D01*
X97976878Y-130262508D01*
X98010170Y-130289830D01*
X98037492Y-130323122D01*
X98057793Y-130361102D01*
X98070295Y-130402318D01*
X98075000Y-130450084D01*
X98075000Y-131624916D01*
X98070295Y-131672682D01*
X98057793Y-131713898D01*
X98037492Y-131751878D01*
X98010170Y-131785170D01*
X97976878Y-131812492D01*
X97938898Y-131832793D01*
X97897682Y-131845295D01*
X97849916Y-131850000D01*
X96350084Y-131850000D01*
X96302318Y-131845295D01*
X96261102Y-131832793D01*
X96223122Y-131812492D01*
X96189830Y-131785170D01*
X96162508Y-131751878D01*
X96142207Y-131713898D01*
X96129705Y-131672682D01*
X96125000Y-131624916D01*
X96125000Y-130450084D01*
X96129705Y-130402318D01*
X96142207Y-130361102D01*
X96162508Y-130323122D01*
X96189830Y-130289830D01*
X96223122Y-130262508D01*
X96261102Y-130242207D01*
X96302318Y-130229705D01*
X96350084Y-130225000D01*
X97849916Y-130225000D01*
X97897682Y-130229705D01*
G37*
G36*
X93000000Y-131800000D02*
G01*
X90900000Y-131800000D01*
X90900000Y-129700000D01*
X93000000Y-129700000D01*
X93000000Y-131800000D01*
G37*
G36*
X90600000Y-131800000D02*
G01*
X88500000Y-131800000D01*
X88500000Y-129700000D01*
X90600000Y-129700000D01*
X90600000Y-131800000D01*
G37*
G36*
X88050000Y-131800000D02*
G01*
X85950000Y-131800000D01*
X85950000Y-129700000D01*
X88050000Y-129700000D01*
X88050000Y-131800000D01*
G37*
G36*
X95550000Y-131800000D02*
G01*
X93450000Y-131800000D01*
X93450000Y-129700000D01*
X95550000Y-129700000D01*
X95550000Y-131800000D01*
G37*
G36*
X92350000Y-129150000D02*
G01*
X89150000Y-129150000D01*
X89150000Y-127000000D01*
X92350000Y-127000000D01*
X92350000Y-129150000D01*
G37*
G36*
X95000000Y-129100000D02*
G01*
X92700000Y-129100000D01*
X92700000Y-127300000D01*
X95000000Y-127300000D01*
X95000000Y-129100000D01*
G37*
G36*
X88800000Y-129100000D02*
G01*
X86500000Y-129100000D01*
X86500000Y-127300000D01*
X88800000Y-127300000D01*
X88800000Y-129100000D01*
G37*
G36*
X97897682Y-127254705D02*
G01*
X97938898Y-127267207D01*
X97976878Y-127287508D01*
X98010170Y-127314830D01*
X98037492Y-127348122D01*
X98057793Y-127386102D01*
X98070295Y-127427318D01*
X98075000Y-127475084D01*
X98075000Y-128649916D01*
X98070295Y-128697682D01*
X98057793Y-128738898D01*
X98037492Y-128776878D01*
X98010170Y-128810170D01*
X97976878Y-128837492D01*
X97938898Y-128857793D01*
X97897682Y-128870295D01*
X97849916Y-128875000D01*
X96350084Y-128875000D01*
X96302318Y-128870295D01*
X96261102Y-128857793D01*
X96223122Y-128837492D01*
X96189830Y-128810170D01*
X96162508Y-128776878D01*
X96142207Y-128738898D01*
X96129705Y-128697682D01*
X96125000Y-128649916D01*
X96125000Y-127475084D01*
X96129705Y-127427318D01*
X96142207Y-127386102D01*
X96162508Y-127348122D01*
X96189830Y-127314830D01*
X96223122Y-127287508D01*
X96261102Y-127267207D01*
X96302318Y-127254705D01*
X96350084Y-127250000D01*
X97849916Y-127250000D01*
X97897682Y-127254705D01*
G37*
G36*
X91933736Y-125105037D02*
G01*
X91978204Y-125118527D01*
X92019177Y-125140427D01*
X92055096Y-125169904D01*
X92084573Y-125205823D01*
X92106473Y-125246796D01*
X92119963Y-125291264D01*
X92125000Y-125342408D01*
X92125000Y-126107592D01*
X92119963Y-126158736D01*
X92106473Y-126203204D01*
X92084573Y-126244177D01*
X92055096Y-126280096D01*
X92019177Y-126309573D01*
X91978204Y-126331473D01*
X91933736Y-126344963D01*
X91882592Y-126350000D01*
X91217408Y-126350000D01*
X91166264Y-126344963D01*
X91121796Y-126331473D01*
X91080823Y-126309573D01*
X91044904Y-126280096D01*
X91015427Y-126244177D01*
X90993527Y-126203204D01*
X90980037Y-126158736D01*
X90975000Y-126107592D01*
X90975000Y-125342408D01*
X90980037Y-125291264D01*
X90993527Y-125246796D01*
X91015427Y-125205823D01*
X91044904Y-125169904D01*
X91080823Y-125140427D01*
X91121796Y-125118527D01*
X91166264Y-125105037D01*
X91217408Y-125100000D01*
X91882592Y-125100000D01*
X91933736Y-125105037D01*
G37*
G36*
X93533736Y-125105037D02*
G01*
X93578204Y-125118527D01*
X93619177Y-125140427D01*
X93655096Y-125169904D01*
X93684573Y-125205823D01*
X93706473Y-125246796D01*
X93719963Y-125291264D01*
X93725000Y-125342408D01*
X93725000Y-126107592D01*
X93719963Y-126158736D01*
X93706473Y-126203204D01*
X93684573Y-126244177D01*
X93655096Y-126280096D01*
X93619177Y-126309573D01*
X93578204Y-126331473D01*
X93533736Y-126344963D01*
X93482592Y-126350000D01*
X92817408Y-126350000D01*
X92766264Y-126344963D01*
X92721796Y-126331473D01*
X92680823Y-126309573D01*
X92644904Y-126280096D01*
X92615427Y-126244177D01*
X92593527Y-126203204D01*
X92580037Y-126158736D01*
X92575000Y-126107592D01*
X92575000Y-125342408D01*
X92580037Y-125291264D01*
X92593527Y-125246796D01*
X92615427Y-125205823D01*
X92644904Y-125169904D01*
X92680823Y-125140427D01*
X92721796Y-125118527D01*
X92766264Y-125105037D01*
X92817408Y-125100000D01*
X93482592Y-125100000D01*
X93533736Y-125105037D01*
G37*
G36*
X95300000Y-126300000D02*
G01*
X94200000Y-126300000D01*
X94200000Y-125300000D01*
X95300000Y-125300000D01*
X95300000Y-126300000D01*
G37*
G36*
X88500000Y-126300000D02*
G01*
X87400000Y-126300000D01*
X87400000Y-125300000D01*
X88500000Y-125300000D01*
X88500000Y-126300000D01*
G37*
G36*
X86733736Y-125055037D02*
G01*
X86778204Y-125068527D01*
X86819177Y-125090427D01*
X86855096Y-125119904D01*
X86884573Y-125155823D01*
X86906473Y-125196796D01*
X86919963Y-125241264D01*
X86925000Y-125292408D01*
X86925000Y-126057592D01*
X86919963Y-126108736D01*
X86906473Y-126153204D01*
X86884573Y-126194177D01*
X86855096Y-126230096D01*
X86819177Y-126259573D01*
X86778204Y-126281473D01*
X86733736Y-126294963D01*
X86682592Y-126300000D01*
X86017408Y-126300000D01*
X85966264Y-126294963D01*
X85921796Y-126281473D01*
X85880823Y-126259573D01*
X85844904Y-126230096D01*
X85815427Y-126194177D01*
X85793527Y-126153204D01*
X85780037Y-126108736D01*
X85775000Y-126057592D01*
X85775000Y-125292408D01*
X85780037Y-125241264D01*
X85793527Y-125196796D01*
X85815427Y-125155823D01*
X85844904Y-125119904D01*
X85880823Y-125090427D01*
X85921796Y-125068527D01*
X85966264Y-125055037D01*
X86017408Y-125050000D01*
X86682592Y-125050000D01*
X86733736Y-125055037D01*
G37*
G36*
X90500000Y-125350000D02*
G01*
X89400000Y-125350000D01*
X89400000Y-124350000D01*
X90500000Y-124350000D01*
X90500000Y-125350000D01*
G37*
G36*
X97300000Y-125350000D02*
G01*
X96200000Y-125350000D01*
X96200000Y-124350000D01*
X97300000Y-124350000D01*
X97300000Y-125350000D01*
G37*
G36*
X91933736Y-123355037D02*
G01*
X91978204Y-123368527D01*
X92019177Y-123390427D01*
X92055096Y-123419904D01*
X92084573Y-123455823D01*
X92106473Y-123496796D01*
X92119963Y-123541264D01*
X92125000Y-123592408D01*
X92125000Y-124357592D01*
X92119963Y-124408736D01*
X92106473Y-124453204D01*
X92084573Y-124494177D01*
X92055096Y-124530096D01*
X92019177Y-124559573D01*
X91978204Y-124581473D01*
X91933736Y-124594963D01*
X91882592Y-124600000D01*
X91217408Y-124600000D01*
X91166264Y-124594963D01*
X91121796Y-124581473D01*
X91080823Y-124559573D01*
X91044904Y-124530096D01*
X91015427Y-124494177D01*
X90993527Y-124453204D01*
X90980037Y-124408736D01*
X90975000Y-124357592D01*
X90975000Y-123592408D01*
X90980037Y-123541264D01*
X90993527Y-123496796D01*
X91015427Y-123455823D01*
X91044904Y-123419904D01*
X91080823Y-123390427D01*
X91121796Y-123368527D01*
X91166264Y-123355037D01*
X91217408Y-123350000D01*
X91882592Y-123350000D01*
X91933736Y-123355037D01*
G37*
G36*
X93533736Y-123355037D02*
G01*
X93578204Y-123368527D01*
X93619177Y-123390427D01*
X93655096Y-123419904D01*
X93684573Y-123455823D01*
X93706473Y-123496796D01*
X93719963Y-123541264D01*
X93725000Y-123592408D01*
X93725000Y-124357592D01*
X93719963Y-124408736D01*
X93706473Y-124453204D01*
X93684573Y-124494177D01*
X93655096Y-124530096D01*
X93619177Y-124559573D01*
X93578204Y-124581473D01*
X93533736Y-124594963D01*
X93482592Y-124600000D01*
X92817408Y-124600000D01*
X92766264Y-124594963D01*
X92721796Y-124581473D01*
X92680823Y-124559573D01*
X92644904Y-124530096D01*
X92615427Y-124494177D01*
X92593527Y-124453204D01*
X92580037Y-124408736D01*
X92575000Y-124357592D01*
X92575000Y-123592408D01*
X92580037Y-123541264D01*
X92593527Y-123496796D01*
X92615427Y-123455823D01*
X92644904Y-123419904D01*
X92680823Y-123390427D01*
X92721796Y-123368527D01*
X92766264Y-123355037D01*
X92817408Y-123350000D01*
X93482592Y-123350000D01*
X93533736Y-123355037D01*
G37*
G36*
X86733736Y-123305037D02*
G01*
X86778204Y-123318527D01*
X86819177Y-123340427D01*
X86855096Y-123369904D01*
X86884573Y-123405823D01*
X86906473Y-123446796D01*
X86919963Y-123491264D01*
X86925000Y-123542408D01*
X86925000Y-124307592D01*
X86919963Y-124358736D01*
X86906473Y-124403204D01*
X86884573Y-124444177D01*
X86855096Y-124480096D01*
X86819177Y-124509573D01*
X86778204Y-124531473D01*
X86733736Y-124544963D01*
X86682592Y-124550000D01*
X86017408Y-124550000D01*
X85966264Y-124544963D01*
X85921796Y-124531473D01*
X85880823Y-124509573D01*
X85844904Y-124480096D01*
X85815427Y-124444177D01*
X85793527Y-124403204D01*
X85780037Y-124358736D01*
X85775000Y-124307592D01*
X85775000Y-123542408D01*
X85780037Y-123491264D01*
X85793527Y-123446796D01*
X85815427Y-123405823D01*
X85844904Y-123369904D01*
X85880823Y-123340427D01*
X85921796Y-123318527D01*
X85966264Y-123305037D01*
X86017408Y-123300000D01*
X86682592Y-123300000D01*
X86733736Y-123305037D01*
G37*
G36*
X88500000Y-124400000D02*
G01*
X87400000Y-124400000D01*
X87400000Y-123400000D01*
X88500000Y-123400000D01*
X88500000Y-124400000D01*
G37*
G36*
X95300000Y-124400000D02*
G01*
X94200000Y-124400000D01*
X94200000Y-123400000D01*
X95300000Y-123400000D01*
X95300000Y-124400000D01*
G37*
G36*
X108527105Y-121926508D02*
G01*
X108699994Y-121998121D01*
X108855590Y-122102087D01*
X108987913Y-122234410D01*
X109091879Y-122390006D01*
X109163492Y-122562895D01*
X109200000Y-122746433D01*
X109200000Y-122933567D01*
X109163492Y-123117105D01*
X109091879Y-123289994D01*
X108987913Y-123445590D01*
X108855590Y-123577913D01*
X108699994Y-123681879D01*
X108527105Y-123753492D01*
X108343567Y-123790000D01*
X108156433Y-123790000D01*
X107972895Y-123753492D01*
X107800006Y-123681879D01*
X107644410Y-123577913D01*
X107512087Y-123445590D01*
X107408121Y-123289994D01*
X107336508Y-123117105D01*
X107300000Y-122933567D01*
X107300000Y-122746433D01*
X107336508Y-122562895D01*
X107408121Y-122390006D01*
X107512087Y-122234410D01*
X107644410Y-122102087D01*
X107800006Y-121998121D01*
X107972895Y-121926508D01*
X108156433Y-121890000D01*
X108343567Y-121890000D01*
X108527105Y-121926508D01*
G37*
G36*
X104027105Y-121926508D02*
G01*
X104199994Y-121998121D01*
X104355590Y-122102087D01*
X104487913Y-122234410D01*
X104591879Y-122390006D01*
X104663492Y-122562895D01*
X104700000Y-122746433D01*
X104700000Y-122933567D01*
X104663492Y-123117105D01*
X104591879Y-123289994D01*
X104487913Y-123445590D01*
X104355590Y-123577913D01*
X104199994Y-123681879D01*
X104027105Y-123753492D01*
X103843567Y-123790000D01*
X103656433Y-123790000D01*
X103472895Y-123753492D01*
X103300006Y-123681879D01*
X103144410Y-123577913D01*
X103012087Y-123445590D01*
X102908121Y-123289994D01*
X102836508Y-123117105D01*
X102800000Y-122933567D01*
X102800000Y-122746433D01*
X102836508Y-122562895D01*
X102908121Y-122390006D01*
X103012087Y-122234410D01*
X103144410Y-122102087D01*
X103300006Y-121998121D01*
X103472895Y-121926508D01*
X103656433Y-121890000D01*
X103843567Y-121890000D01*
X104027105Y-121926508D01*
G37*
G36*
X99700000Y-123600000D02*
G01*
X97300000Y-123600000D01*
X97300000Y-118900000D01*
X99700000Y-118900000D01*
X99700000Y-123600000D01*
G37*
G36*
X114700000Y-123600000D02*
G01*
X112300000Y-123600000D01*
X112300000Y-118900000D01*
X114700000Y-118900000D01*
X114700000Y-123600000D01*
G37*
G36*
X88800000Y-120600000D02*
G01*
X85600000Y-120600000D01*
X85600000Y-117400000D01*
X88800000Y-117400000D01*
X88800000Y-120600000D01*
G37*
G36*
X95800000Y-120600000D02*
G01*
X92600000Y-120600000D01*
X92600000Y-117400000D01*
X95800000Y-117400000D01*
X95800000Y-120600000D01*
G37*
G36*
X103160000Y-120440000D02*
G01*
X101840000Y-120440000D01*
X101840000Y-117160000D01*
X103160000Y-117160000D01*
X103160000Y-120440000D01*
G37*
G36*
X107660000Y-120440000D02*
G01*
X106340000Y-120440000D01*
X106340000Y-117160000D01*
X107660000Y-117160000D01*
X107660000Y-120440000D01*
G37*
G36*
X110160000Y-120440000D02*
G01*
X108840000Y-120440000D01*
X108840000Y-117160000D01*
X110160000Y-117160000D01*
X110160000Y-120440000D01*
G37*
G36*
X105660000Y-120440000D02*
G01*
X104340000Y-120440000D01*
X104340000Y-117160000D01*
X105660000Y-117160000D01*
X105660000Y-120440000D01*
G37*
G36*
X97897682Y-115979705D02*
G01*
X97938898Y-115992207D01*
X97976878Y-116012508D01*
X98010170Y-116039830D01*
X98037492Y-116073122D01*
X98057793Y-116111102D01*
X98070295Y-116152318D01*
X98075000Y-116200084D01*
X98075000Y-117699916D01*
X98070295Y-117747682D01*
X98057793Y-117788898D01*
X98037492Y-117826878D01*
X98010170Y-117860170D01*
X97976878Y-117887492D01*
X97938898Y-117907793D01*
X97897682Y-117920295D01*
X97849916Y-117925000D01*
X96675084Y-117925000D01*
X96627318Y-117920295D01*
X96586102Y-117907793D01*
X96548122Y-117887492D01*
X96514830Y-117860170D01*
X96487508Y-117826878D01*
X96467207Y-117788898D01*
X96454705Y-117747682D01*
X96450000Y-117699916D01*
X96450000Y-116200084D01*
X96454705Y-116152318D01*
X96467207Y-116111102D01*
X96487508Y-116073122D01*
X96514830Y-116039830D01*
X96548122Y-116012508D01*
X96586102Y-115992207D01*
X96627318Y-115979705D01*
X96675084Y-115975000D01*
X97849916Y-115975000D01*
X97897682Y-115979705D01*
G37*
G36*
X100872682Y-115979705D02*
G01*
X100913898Y-115992207D01*
X100951878Y-116012508D01*
X100985170Y-116039830D01*
X101012492Y-116073122D01*
X101032793Y-116111102D01*
X101045295Y-116152318D01*
X101050000Y-116200084D01*
X101050000Y-117699916D01*
X101045295Y-117747682D01*
X101032793Y-117788898D01*
X101012492Y-117826878D01*
X100985170Y-117860170D01*
X100951878Y-117887492D01*
X100913898Y-117907793D01*
X100872682Y-117920295D01*
X100824916Y-117925000D01*
X99650084Y-117925000D01*
X99602318Y-117920295D01*
X99561102Y-117907793D01*
X99523122Y-117887492D01*
X99489830Y-117860170D01*
X99462508Y-117826878D01*
X99442207Y-117788898D01*
X99429705Y-117747682D01*
X99425000Y-117699916D01*
X99425000Y-116200084D01*
X99429705Y-116152318D01*
X99442207Y-116111102D01*
X99462508Y-116073122D01*
X99489830Y-116039830D01*
X99523122Y-116012508D01*
X99561102Y-115992207D01*
X99602318Y-115979705D01*
X99650084Y-115975000D01*
X100824916Y-115975000D01*
X100872682Y-115979705D01*
G37*
G36*
X107623125Y-114505000D02*
G01*
X92976875Y-114505000D01*
X92976875Y-113805000D01*
X107623125Y-113805000D01*
X107623125Y-114505000D01*
G37*
G36*
X108905000Y-113223125D02*
G01*
X108205000Y-113223125D01*
X108205000Y-98576875D01*
X108905000Y-98576875D01*
X108905000Y-113223125D01*
G37*
G36*
X92395000Y-113223125D02*
G01*
X91695000Y-113223125D01*
X91695000Y-98576875D01*
X92395000Y-98576875D01*
X92395000Y-113223125D01*
G37*
G36*
X101747682Y-111529705D02*
G01*
X101788898Y-111542207D01*
X101826878Y-111562508D01*
X101860170Y-111589830D01*
X101887492Y-111623122D01*
X101907793Y-111661102D01*
X101920295Y-111702318D01*
X101925000Y-111750084D01*
X101925000Y-112924916D01*
X101920295Y-112972682D01*
X101907793Y-113013898D01*
X101887492Y-113051878D01*
X101860170Y-113085170D01*
X101826878Y-113112492D01*
X101788898Y-113132793D01*
X101747682Y-113145295D01*
X101699916Y-113150000D01*
X100200084Y-113150000D01*
X100152318Y-113145295D01*
X100111102Y-113132793D01*
X100073122Y-113112492D01*
X100039830Y-113085170D01*
X100012508Y-113051878D01*
X99992207Y-113013898D01*
X99979705Y-112972682D01*
X99975000Y-112924916D01*
X99975000Y-111750084D01*
X99979705Y-111702318D01*
X99992207Y-111661102D01*
X100012508Y-111623122D01*
X100039830Y-111589830D01*
X100073122Y-111562508D01*
X100111102Y-111542207D01*
X100152318Y-111529705D01*
X100200084Y-111525000D01*
X101699916Y-111525000D01*
X101747682Y-111529705D01*
G37*
G36*
X96947682Y-111529705D02*
G01*
X96988898Y-111542207D01*
X97026878Y-111562508D01*
X97060170Y-111589830D01*
X97087492Y-111623122D01*
X97107793Y-111661102D01*
X97120295Y-111702318D01*
X97125000Y-111750084D01*
X97125000Y-112924916D01*
X97120295Y-112972682D01*
X97107793Y-113013898D01*
X97087492Y-113051878D01*
X97060170Y-113085170D01*
X97026878Y-113112492D01*
X96988898Y-113132793D01*
X96947682Y-113145295D01*
X96899916Y-113150000D01*
X95400084Y-113150000D01*
X95352318Y-113145295D01*
X95311102Y-113132793D01*
X95273122Y-113112492D01*
X95239830Y-113085170D01*
X95212508Y-113051878D01*
X95192207Y-113013898D01*
X95179705Y-112972682D01*
X95175000Y-112924916D01*
X95175000Y-111750084D01*
X95179705Y-111702318D01*
X95192207Y-111661102D01*
X95212508Y-111623122D01*
X95239830Y-111589830D01*
X95273122Y-111562508D01*
X95311102Y-111542207D01*
X95352318Y-111529705D01*
X95400084Y-111525000D01*
X96899916Y-111525000D01*
X96947682Y-111529705D01*
G37*
G36*
X104097682Y-111529705D02*
G01*
X104138898Y-111542207D01*
X104176878Y-111562508D01*
X104210170Y-111589830D01*
X104237492Y-111623122D01*
X104257793Y-111661102D01*
X104270295Y-111702318D01*
X104275000Y-111750084D01*
X104275000Y-112924916D01*
X104270295Y-112972682D01*
X104257793Y-113013898D01*
X104237492Y-113051878D01*
X104210170Y-113085170D01*
X104176878Y-113112492D01*
X104138898Y-113132793D01*
X104097682Y-113145295D01*
X104049916Y-113150000D01*
X102550084Y-113150000D01*
X102502318Y-113145295D01*
X102461102Y-113132793D01*
X102423122Y-113112492D01*
X102389830Y-113085170D01*
X102362508Y-113051878D01*
X102342207Y-113013898D01*
X102329705Y-112972682D01*
X102325000Y-112924916D01*
X102325000Y-111750084D01*
X102329705Y-111702318D01*
X102342207Y-111661102D01*
X102362508Y-111623122D01*
X102389830Y-111589830D01*
X102423122Y-111562508D01*
X102461102Y-111542207D01*
X102502318Y-111529705D01*
X102550084Y-111525000D01*
X104049916Y-111525000D01*
X104097682Y-111529705D01*
G37*
G36*
X99347682Y-111529705D02*
G01*
X99388898Y-111542207D01*
X99426878Y-111562508D01*
X99460170Y-111589830D01*
X99487492Y-111623122D01*
X99507793Y-111661102D01*
X99520295Y-111702318D01*
X99525000Y-111750084D01*
X99525000Y-112924916D01*
X99520295Y-112972682D01*
X99507793Y-113013898D01*
X99487492Y-113051878D01*
X99460170Y-113085170D01*
X99426878Y-113112492D01*
X99388898Y-113132793D01*
X99347682Y-113145295D01*
X99299916Y-113150000D01*
X97800084Y-113150000D01*
X97752318Y-113145295D01*
X97711102Y-113132793D01*
X97673122Y-113112492D01*
X97639830Y-113085170D01*
X97612508Y-113051878D01*
X97592207Y-113013898D01*
X97579705Y-112972682D01*
X97575000Y-112924916D01*
X97575000Y-111750084D01*
X97579705Y-111702318D01*
X97592207Y-111661102D01*
X97612508Y-111623122D01*
X97639830Y-111589830D01*
X97673122Y-111562508D01*
X97711102Y-111542207D01*
X97752318Y-111529705D01*
X97800084Y-111525000D01*
X99299916Y-111525000D01*
X99347682Y-111529705D01*
G37*
G36*
X94547682Y-111529705D02*
G01*
X94588898Y-111542207D01*
X94626878Y-111562508D01*
X94660170Y-111589830D01*
X94687492Y-111623122D01*
X94707793Y-111661102D01*
X94720295Y-111702318D01*
X94725000Y-111750084D01*
X94725000Y-112924916D01*
X94720295Y-112972682D01*
X94707793Y-113013898D01*
X94687492Y-113051878D01*
X94660170Y-113085170D01*
X94626878Y-113112492D01*
X94588898Y-113132793D01*
X94547682Y-113145295D01*
X94499916Y-113150000D01*
X93000084Y-113150000D01*
X92952318Y-113145295D01*
X92911102Y-113132793D01*
X92873122Y-113112492D01*
X92839830Y-113085170D01*
X92812508Y-113051878D01*
X92792207Y-113013898D01*
X92779705Y-112972682D01*
X92775000Y-112924916D01*
X92775000Y-111750084D01*
X92779705Y-111702318D01*
X92792207Y-111661102D01*
X92812508Y-111623122D01*
X92839830Y-111589830D01*
X92873122Y-111562508D01*
X92911102Y-111542207D01*
X92952318Y-111529705D01*
X93000084Y-111525000D01*
X94499916Y-111525000D01*
X94547682Y-111529705D01*
G37*
G36*
X107558736Y-111980037D02*
G01*
X107603204Y-111993527D01*
X107644177Y-112015427D01*
X107680096Y-112044904D01*
X107709573Y-112080823D01*
X107731473Y-112121796D01*
X107744963Y-112166264D01*
X107750000Y-112217408D01*
X107750000Y-112882592D01*
X107744963Y-112933736D01*
X107731473Y-112978204D01*
X107709573Y-113019177D01*
X107680096Y-113055096D01*
X107644177Y-113084573D01*
X107603204Y-113106473D01*
X107558736Y-113119963D01*
X107507592Y-113125000D01*
X106742408Y-113125000D01*
X106691264Y-113119963D01*
X106646796Y-113106473D01*
X106605823Y-113084573D01*
X106569904Y-113055096D01*
X106540427Y-113019177D01*
X106518527Y-112978204D01*
X106505037Y-112933736D01*
X106500000Y-112882592D01*
X106500000Y-112217408D01*
X106505037Y-112166264D01*
X106518527Y-112121796D01*
X106540427Y-112080823D01*
X106569904Y-112044904D01*
X106605823Y-112015427D01*
X106646796Y-111993527D01*
X106691264Y-111980037D01*
X106742408Y-111975000D01*
X107507592Y-111975000D01*
X107558736Y-111980037D01*
G37*
G36*
X105808736Y-111980037D02*
G01*
X105853204Y-111993527D01*
X105894177Y-112015427D01*
X105930096Y-112044904D01*
X105959573Y-112080823D01*
X105981473Y-112121796D01*
X105994963Y-112166264D01*
X106000000Y-112217408D01*
X106000000Y-112882592D01*
X105994963Y-112933736D01*
X105981473Y-112978204D01*
X105959573Y-113019177D01*
X105930096Y-113055096D01*
X105894177Y-113084573D01*
X105853204Y-113106473D01*
X105808736Y-113119963D01*
X105757592Y-113125000D01*
X104992408Y-113125000D01*
X104941264Y-113119963D01*
X104896796Y-113106473D01*
X104855823Y-113084573D01*
X104819904Y-113055096D01*
X104790427Y-113019177D01*
X104768527Y-112978204D01*
X104755037Y-112933736D01*
X104750000Y-112882592D01*
X104750000Y-112217408D01*
X104755037Y-112166264D01*
X104768527Y-112121796D01*
X104790427Y-112080823D01*
X104819904Y-112044904D01*
X104855823Y-112015427D01*
X104896796Y-111993527D01*
X104941264Y-111980037D01*
X104992408Y-111975000D01*
X105757592Y-111975000D01*
X105808736Y-111980037D01*
G37*
G36*
X86737105Y-110786508D02*
G01*
X86909994Y-110858121D01*
X87065590Y-110962087D01*
X87197913Y-111094410D01*
X87301879Y-111250006D01*
X87373492Y-111422895D01*
X87410000Y-111606433D01*
X87410000Y-111793567D01*
X87373492Y-111977105D01*
X87301879Y-112149994D01*
X87197913Y-112305590D01*
X87065590Y-112437913D01*
X86909994Y-112541879D01*
X86737105Y-112613492D01*
X86553567Y-112650000D01*
X86366433Y-112650000D01*
X86182895Y-112613492D01*
X86010006Y-112541879D01*
X85854410Y-112437913D01*
X85722087Y-112305590D01*
X85618121Y-112149994D01*
X85546508Y-111977105D01*
X85510000Y-111793567D01*
X85510000Y-111606433D01*
X85546508Y-111422895D01*
X85618121Y-111250006D01*
X85722087Y-111094410D01*
X85854410Y-110962087D01*
X86010006Y-110858121D01*
X86182895Y-110786508D01*
X86366433Y-110750000D01*
X86553567Y-110750000D01*
X86737105Y-110786508D01*
G37*
G36*
X114017105Y-110786508D02*
G01*
X114189994Y-110858121D01*
X114345590Y-110962087D01*
X114477913Y-111094410D01*
X114581879Y-111250006D01*
X114653492Y-111422895D01*
X114690000Y-111606433D01*
X114690000Y-111793567D01*
X114653492Y-111977105D01*
X114581879Y-112149994D01*
X114477913Y-112305590D01*
X114345590Y-112437913D01*
X114189994Y-112541879D01*
X114017105Y-112613492D01*
X113833567Y-112650000D01*
X113646433Y-112650000D01*
X113462895Y-112613492D01*
X113290006Y-112541879D01*
X113134410Y-112437913D01*
X113002087Y-112305590D01*
X112898121Y-112149994D01*
X112826508Y-111977105D01*
X112790000Y-111793567D01*
X112790000Y-111606433D01*
X112826508Y-111422895D01*
X112898121Y-111250006D01*
X113002087Y-111094410D01*
X113134410Y-110962087D01*
X113290006Y-110858121D01*
X113462895Y-110786508D01*
X113646433Y-110750000D01*
X113833567Y-110750000D01*
X114017105Y-110786508D01*
G37*
G36*
X111909179Y-111055028D02*
G01*
X111953540Y-111068485D01*
X111994419Y-111090335D01*
X112030255Y-111119745D01*
X112059665Y-111155581D01*
X112081515Y-111196460D01*
X112094972Y-111240821D01*
X112100000Y-111291873D01*
X112100000Y-112158127D01*
X112094972Y-112209179D01*
X112081515Y-112253540D01*
X112059665Y-112294419D01*
X112030255Y-112330255D01*
X111994419Y-112359665D01*
X111953540Y-112381515D01*
X111909179Y-112394972D01*
X111858127Y-112400000D01*
X110741873Y-112400000D01*
X110690821Y-112394972D01*
X110646460Y-112381515D01*
X110605581Y-112359665D01*
X110569745Y-112330255D01*
X110540335Y-112294419D01*
X110518485Y-112253540D01*
X110505028Y-112209179D01*
X110500000Y-112158127D01*
X110500000Y-111291873D01*
X110505028Y-111240821D01*
X110518485Y-111196460D01*
X110540335Y-111155581D01*
X110569745Y-111119745D01*
X110605581Y-111090335D01*
X110646460Y-111068485D01*
X110690821Y-111055028D01*
X110741873Y-111050000D01*
X111858127Y-111050000D01*
X111909179Y-111055028D01*
G37*
G36*
X107659179Y-110055028D02*
G01*
X107703540Y-110068485D01*
X107744419Y-110090335D01*
X107780255Y-110119745D01*
X107809665Y-110155581D01*
X107831515Y-110196460D01*
X107844972Y-110240821D01*
X107850000Y-110291873D01*
X107850000Y-111158127D01*
X107844972Y-111209179D01*
X107831515Y-111253540D01*
X107809665Y-111294419D01*
X107780255Y-111330255D01*
X107744419Y-111359665D01*
X107703540Y-111381515D01*
X107659179Y-111394972D01*
X107608127Y-111400000D01*
X106491873Y-111400000D01*
X106440821Y-111394972D01*
X106396460Y-111381515D01*
X106355581Y-111359665D01*
X106319745Y-111330255D01*
X106290335Y-111294419D01*
X106268485Y-111253540D01*
X106255028Y-111209179D01*
X106250000Y-111158127D01*
X106250000Y-110291873D01*
X106255028Y-110240821D01*
X106268485Y-110196460D01*
X106290335Y-110155581D01*
X106319745Y-110119745D01*
X106355581Y-110090335D01*
X106396460Y-110068485D01*
X106440821Y-110055028D01*
X106491873Y-110050000D01*
X107608127Y-110050000D01*
X107659179Y-110055028D01*
G37*
G36*
X105633736Y-109955037D02*
G01*
X105678204Y-109968527D01*
X105719177Y-109990427D01*
X105755096Y-110019904D01*
X105784573Y-110055823D01*
X105806473Y-110096796D01*
X105819963Y-110141264D01*
X105825000Y-110192408D01*
X105825000Y-110957592D01*
X105819963Y-111008736D01*
X105806473Y-111053204D01*
X105784573Y-111094177D01*
X105755096Y-111130096D01*
X105719177Y-111159573D01*
X105678204Y-111181473D01*
X105633736Y-111194963D01*
X105582592Y-111200000D01*
X104917408Y-111200000D01*
X104866264Y-111194963D01*
X104821796Y-111181473D01*
X104780823Y-111159573D01*
X104744904Y-111130096D01*
X104715427Y-111094177D01*
X104693527Y-111053204D01*
X104680037Y-111008736D01*
X104675000Y-110957592D01*
X104675000Y-110192408D01*
X104680037Y-110141264D01*
X104693527Y-110096796D01*
X104715427Y-110055823D01*
X104744904Y-110019904D01*
X104780823Y-109990427D01*
X104821796Y-109968527D01*
X104866264Y-109955037D01*
X104917408Y-109950000D01*
X105582592Y-109950000D01*
X105633736Y-109955037D01*
G37*
G36*
X111909179Y-109005028D02*
G01*
X111953540Y-109018485D01*
X111994419Y-109040335D01*
X112030255Y-109069745D01*
X112059665Y-109105581D01*
X112081515Y-109146460D01*
X112094972Y-109190821D01*
X112100000Y-109241873D01*
X112100000Y-110108127D01*
X112094972Y-110159179D01*
X112081515Y-110203540D01*
X112059665Y-110244419D01*
X112030255Y-110280255D01*
X111994419Y-110309665D01*
X111953540Y-110331515D01*
X111909179Y-110344972D01*
X111858127Y-110350000D01*
X110741873Y-110350000D01*
X110690821Y-110344972D01*
X110646460Y-110331515D01*
X110605581Y-110309665D01*
X110569745Y-110280255D01*
X110540335Y-110244419D01*
X110518485Y-110203540D01*
X110505028Y-110159179D01*
X110500000Y-110108127D01*
X110500000Y-109241873D01*
X110505028Y-109190821D01*
X110518485Y-109146460D01*
X110540335Y-109105581D01*
X110569745Y-109069745D01*
X110605581Y-109040335D01*
X110646460Y-109018485D01*
X110690821Y-109005028D01*
X110741873Y-109000000D01*
X111858127Y-109000000D01*
X111909179Y-109005028D01*
G37*
G36*
X94547682Y-108554705D02*
G01*
X94588898Y-108567207D01*
X94626878Y-108587508D01*
X94660170Y-108614830D01*
X94687492Y-108648122D01*
X94707793Y-108686102D01*
X94720295Y-108727318D01*
X94725000Y-108775084D01*
X94725000Y-109949916D01*
X94720295Y-109997682D01*
X94707793Y-110038898D01*
X94687492Y-110076878D01*
X94660170Y-110110170D01*
X94626878Y-110137492D01*
X94588898Y-110157793D01*
X94547682Y-110170295D01*
X94499916Y-110175000D01*
X93000084Y-110175000D01*
X92952318Y-110170295D01*
X92911102Y-110157793D01*
X92873122Y-110137492D01*
X92839830Y-110110170D01*
X92812508Y-110076878D01*
X92792207Y-110038898D01*
X92779705Y-109997682D01*
X92775000Y-109949916D01*
X92775000Y-108775084D01*
X92779705Y-108727318D01*
X92792207Y-108686102D01*
X92812508Y-108648122D01*
X92839830Y-108614830D01*
X92873122Y-108587508D01*
X92911102Y-108567207D01*
X92952318Y-108554705D01*
X93000084Y-108550000D01*
X94499916Y-108550000D01*
X94547682Y-108554705D01*
G37*
G36*
X104097682Y-108554705D02*
G01*
X104138898Y-108567207D01*
X104176878Y-108587508D01*
X104210170Y-108614830D01*
X104237492Y-108648122D01*
X104257793Y-108686102D01*
X104270295Y-108727318D01*
X104275000Y-108775084D01*
X104275000Y-109949916D01*
X104270295Y-109997682D01*
X104257793Y-110038898D01*
X104237492Y-110076878D01*
X104210170Y-110110170D01*
X104176878Y-110137492D01*
X104138898Y-110157793D01*
X104097682Y-110170295D01*
X104049916Y-110175000D01*
X102550084Y-110175000D01*
X102502318Y-110170295D01*
X102461102Y-110157793D01*
X102423122Y-110137492D01*
X102389830Y-110110170D01*
X102362508Y-110076878D01*
X102342207Y-110038898D01*
X102329705Y-109997682D01*
X102325000Y-109949916D01*
X102325000Y-108775084D01*
X102329705Y-108727318D01*
X102342207Y-108686102D01*
X102362508Y-108648122D01*
X102389830Y-108614830D01*
X102423122Y-108587508D01*
X102461102Y-108567207D01*
X102502318Y-108554705D01*
X102550084Y-108550000D01*
X104049916Y-108550000D01*
X104097682Y-108554705D01*
G37*
G36*
X101747682Y-108554705D02*
G01*
X101788898Y-108567207D01*
X101826878Y-108587508D01*
X101860170Y-108614830D01*
X101887492Y-108648122D01*
X101907793Y-108686102D01*
X101920295Y-108727318D01*
X101925000Y-108775084D01*
X101925000Y-109949916D01*
X101920295Y-109997682D01*
X101907793Y-110038898D01*
X101887492Y-110076878D01*
X101860170Y-110110170D01*
X101826878Y-110137492D01*
X101788898Y-110157793D01*
X101747682Y-110170295D01*
X101699916Y-110175000D01*
X100200084Y-110175000D01*
X100152318Y-110170295D01*
X100111102Y-110157793D01*
X100073122Y-110137492D01*
X100039830Y-110110170D01*
X100012508Y-110076878D01*
X99992207Y-110038898D01*
X99979705Y-109997682D01*
X99975000Y-109949916D01*
X99975000Y-108775084D01*
X99979705Y-108727318D01*
X99992207Y-108686102D01*
X100012508Y-108648122D01*
X100039830Y-108614830D01*
X100073122Y-108587508D01*
X100111102Y-108567207D01*
X100152318Y-108554705D01*
X100200084Y-108550000D01*
X101699916Y-108550000D01*
X101747682Y-108554705D01*
G37*
G36*
X99347682Y-108554705D02*
G01*
X99388898Y-108567207D01*
X99426878Y-108587508D01*
X99460170Y-108614830D01*
X99487492Y-108648122D01*
X99507793Y-108686102D01*
X99520295Y-108727318D01*
X99525000Y-108775084D01*
X99525000Y-109949916D01*
X99520295Y-109997682D01*
X99507793Y-110038898D01*
X99487492Y-110076878D01*
X99460170Y-110110170D01*
X99426878Y-110137492D01*
X99388898Y-110157793D01*
X99347682Y-110170295D01*
X99299916Y-110175000D01*
X97800084Y-110175000D01*
X97752318Y-110170295D01*
X97711102Y-110157793D01*
X97673122Y-110137492D01*
X97639830Y-110110170D01*
X97612508Y-110076878D01*
X97592207Y-110038898D01*
X97579705Y-109997682D01*
X97575000Y-109949916D01*
X97575000Y-108775084D01*
X97579705Y-108727318D01*
X97592207Y-108686102D01*
X97612508Y-108648122D01*
X97639830Y-108614830D01*
X97673122Y-108587508D01*
X97711102Y-108567207D01*
X97752318Y-108554705D01*
X97800084Y-108550000D01*
X99299916Y-108550000D01*
X99347682Y-108554705D01*
G37*
G36*
X96947682Y-108554705D02*
G01*
X96988898Y-108567207D01*
X97026878Y-108587508D01*
X97060170Y-108614830D01*
X97087492Y-108648122D01*
X97107793Y-108686102D01*
X97120295Y-108727318D01*
X97125000Y-108775084D01*
X97125000Y-109949916D01*
X97120295Y-109997682D01*
X97107793Y-110038898D01*
X97087492Y-110076878D01*
X97060170Y-110110170D01*
X97026878Y-110137492D01*
X96988898Y-110157793D01*
X96947682Y-110170295D01*
X96899916Y-110175000D01*
X95400084Y-110175000D01*
X95352318Y-110170295D01*
X95311102Y-110157793D01*
X95273122Y-110137492D01*
X95239830Y-110110170D01*
X95212508Y-110076878D01*
X95192207Y-110038898D01*
X95179705Y-109997682D01*
X95175000Y-109949916D01*
X95175000Y-108775084D01*
X95179705Y-108727318D01*
X95192207Y-108686102D01*
X95212508Y-108648122D01*
X95239830Y-108614830D01*
X95273122Y-108587508D01*
X95311102Y-108567207D01*
X95352318Y-108554705D01*
X95400084Y-108550000D01*
X96899916Y-108550000D01*
X96947682Y-108554705D01*
G37*
G36*
X86737105Y-108246508D02*
G01*
X86909994Y-108318121D01*
X87065590Y-108422087D01*
X87197913Y-108554410D01*
X87301879Y-108710006D01*
X87373492Y-108882895D01*
X87410000Y-109066433D01*
X87410000Y-109253567D01*
X87373492Y-109437105D01*
X87301879Y-109609994D01*
X87197913Y-109765590D01*
X87065590Y-109897913D01*
X86909994Y-110001879D01*
X86737105Y-110073492D01*
X86553567Y-110110000D01*
X86366433Y-110110000D01*
X86182895Y-110073492D01*
X86010006Y-110001879D01*
X85854410Y-109897913D01*
X85722087Y-109765590D01*
X85618121Y-109609994D01*
X85546508Y-109437105D01*
X85510000Y-109253567D01*
X85510000Y-109066433D01*
X85546508Y-108882895D01*
X85618121Y-108710006D01*
X85722087Y-108554410D01*
X85854410Y-108422087D01*
X86010006Y-108318121D01*
X86182895Y-108246508D01*
X86366433Y-108210000D01*
X86553567Y-108210000D01*
X86737105Y-108246508D01*
G37*
G36*
X114017105Y-108246508D02*
G01*
X114189994Y-108318121D01*
X114345590Y-108422087D01*
X114477913Y-108554410D01*
X114581879Y-108710006D01*
X114653492Y-108882895D01*
X114690000Y-109066433D01*
X114690000Y-109253567D01*
X114653492Y-109437105D01*
X114581879Y-109609994D01*
X114477913Y-109765590D01*
X114345590Y-109897913D01*
X114189994Y-110001879D01*
X114017105Y-110073492D01*
X113833567Y-110110000D01*
X113646433Y-110110000D01*
X113462895Y-110073492D01*
X113290006Y-110001879D01*
X113134410Y-109897913D01*
X113002087Y-109765590D01*
X112898121Y-109609994D01*
X112826508Y-109437105D01*
X112790000Y-109253567D01*
X112790000Y-109066433D01*
X112826508Y-108882895D01*
X112898121Y-108710006D01*
X113002087Y-108554410D01*
X113134410Y-108422087D01*
X113290006Y-108318121D01*
X113462895Y-108246508D01*
X113646433Y-108210000D01*
X113833567Y-108210000D01*
X114017105Y-108246508D01*
G37*
G36*
X105633736Y-108205037D02*
G01*
X105678204Y-108218527D01*
X105719177Y-108240427D01*
X105755096Y-108269904D01*
X105784573Y-108305823D01*
X105806473Y-108346796D01*
X105819963Y-108391264D01*
X105825000Y-108442408D01*
X105825000Y-109207592D01*
X105819963Y-109258736D01*
X105806473Y-109303204D01*
X105784573Y-109344177D01*
X105755096Y-109380096D01*
X105719177Y-109409573D01*
X105678204Y-109431473D01*
X105633736Y-109444963D01*
X105582592Y-109450000D01*
X104917408Y-109450000D01*
X104866264Y-109444963D01*
X104821796Y-109431473D01*
X104780823Y-109409573D01*
X104744904Y-109380096D01*
X104715427Y-109344177D01*
X104693527Y-109303204D01*
X104680037Y-109258736D01*
X104675000Y-109207592D01*
X104675000Y-108442408D01*
X104680037Y-108391264D01*
X104693527Y-108346796D01*
X104715427Y-108305823D01*
X104744904Y-108269904D01*
X104780823Y-108240427D01*
X104821796Y-108218527D01*
X104866264Y-108205037D01*
X104917408Y-108200000D01*
X105582592Y-108200000D01*
X105633736Y-108205037D01*
G37*
G36*
X107659179Y-108005028D02*
G01*
X107703540Y-108018485D01*
X107744419Y-108040335D01*
X107780255Y-108069745D01*
X107809665Y-108105581D01*
X107831515Y-108146460D01*
X107844972Y-108190821D01*
X107850000Y-108241873D01*
X107850000Y-109108127D01*
X107844972Y-109159179D01*
X107831515Y-109203540D01*
X107809665Y-109244419D01*
X107780255Y-109280255D01*
X107744419Y-109309665D01*
X107703540Y-109331515D01*
X107659179Y-109344972D01*
X107608127Y-109350000D01*
X106491873Y-109350000D01*
X106440821Y-109344972D01*
X106396460Y-109331515D01*
X106355581Y-109309665D01*
X106319745Y-109280255D01*
X106290335Y-109244419D01*
X106268485Y-109203540D01*
X106255028Y-109159179D01*
X106250000Y-109108127D01*
X106250000Y-108241873D01*
X106255028Y-108190821D01*
X106268485Y-108146460D01*
X106290335Y-108105581D01*
X106319745Y-108069745D01*
X106355581Y-108040335D01*
X106396460Y-108018485D01*
X106440821Y-108005028D01*
X106491873Y-108000000D01*
X107608127Y-108000000D01*
X107659179Y-108005028D01*
G37*
G36*
X94608736Y-106930037D02*
G01*
X94653204Y-106943527D01*
X94694177Y-106965427D01*
X94730096Y-106994904D01*
X94759573Y-107030823D01*
X94781473Y-107071796D01*
X94794963Y-107116264D01*
X94800000Y-107167408D01*
X94800000Y-107832592D01*
X94794963Y-107883736D01*
X94781473Y-107928204D01*
X94759573Y-107969177D01*
X94730096Y-108005096D01*
X94694177Y-108034573D01*
X94653204Y-108056473D01*
X94608736Y-108069963D01*
X94557592Y-108075000D01*
X93792408Y-108075000D01*
X93741264Y-108069963D01*
X93696796Y-108056473D01*
X93655823Y-108034573D01*
X93619904Y-108005096D01*
X93590427Y-107969177D01*
X93568527Y-107928204D01*
X93555037Y-107883736D01*
X93550000Y-107832592D01*
X93550000Y-107167408D01*
X93555037Y-107116264D01*
X93568527Y-107071796D01*
X93590427Y-107030823D01*
X93619904Y-106994904D01*
X93655823Y-106965427D01*
X93696796Y-106943527D01*
X93741264Y-106930037D01*
X93792408Y-106925000D01*
X94557592Y-106925000D01*
X94608736Y-106930037D01*
G37*
G36*
X96358736Y-106930037D02*
G01*
X96403204Y-106943527D01*
X96444177Y-106965427D01*
X96480096Y-106994904D01*
X96509573Y-107030823D01*
X96531473Y-107071796D01*
X96544963Y-107116264D01*
X96550000Y-107167408D01*
X96550000Y-107832592D01*
X96544963Y-107883736D01*
X96531473Y-107928204D01*
X96509573Y-107969177D01*
X96480096Y-108005096D01*
X96444177Y-108034573D01*
X96403204Y-108056473D01*
X96358736Y-108069963D01*
X96307592Y-108075000D01*
X95542408Y-108075000D01*
X95491264Y-108069963D01*
X95446796Y-108056473D01*
X95405823Y-108034573D01*
X95369904Y-108005096D01*
X95340427Y-107969177D01*
X95318527Y-107928204D01*
X95305037Y-107883736D01*
X95300000Y-107832592D01*
X95300000Y-107167408D01*
X95305037Y-107116264D01*
X95318527Y-107071796D01*
X95340427Y-107030823D01*
X95369904Y-106994904D01*
X95405823Y-106965427D01*
X95446796Y-106943527D01*
X95491264Y-106930037D01*
X95542408Y-106925000D01*
X96307592Y-106925000D01*
X96358736Y-106930037D01*
G37*
G36*
X98979167Y-106908356D02*
G01*
X99007217Y-106916865D01*
X99033067Y-106930682D01*
X99055724Y-106949276D01*
X99074318Y-106971933D01*
X99088135Y-106997783D01*
X99096644Y-107025833D01*
X99100000Y-107059909D01*
X99100000Y-107550091D01*
X99096644Y-107584167D01*
X99088135Y-107612217D01*
X99074318Y-107638067D01*
X99055724Y-107660724D01*
X99033067Y-107679318D01*
X99007217Y-107693135D01*
X98979167Y-107701644D01*
X98945091Y-107705000D01*
X97104909Y-107705000D01*
X97070833Y-107701644D01*
X97042783Y-107693135D01*
X97016933Y-107679318D01*
X96994276Y-107660724D01*
X96975682Y-107638067D01*
X96961865Y-107612217D01*
X96953356Y-107584167D01*
X96950000Y-107550091D01*
X96950000Y-107059909D01*
X96953356Y-107025833D01*
X96961865Y-106997783D01*
X96975682Y-106971933D01*
X96994276Y-106949276D01*
X97016933Y-106930682D01*
X97042783Y-106916865D01*
X97070833Y-106908356D01*
X97104909Y-106905000D01*
X98945091Y-106905000D01*
X98979167Y-106908356D01*
G37*
G36*
X103929167Y-106908356D02*
G01*
X103957217Y-106916865D01*
X103983067Y-106930682D01*
X104005724Y-106949276D01*
X104024318Y-106971933D01*
X104038135Y-106997783D01*
X104046644Y-107025833D01*
X104050000Y-107059909D01*
X104050000Y-107550091D01*
X104046644Y-107584167D01*
X104038135Y-107612217D01*
X104024318Y-107638067D01*
X104005724Y-107660724D01*
X103983067Y-107679318D01*
X103957217Y-107693135D01*
X103929167Y-107701644D01*
X103895091Y-107705000D01*
X102054909Y-107705000D01*
X102020833Y-107701644D01*
X101992783Y-107693135D01*
X101966933Y-107679318D01*
X101944276Y-107660724D01*
X101925682Y-107638067D01*
X101911865Y-107612217D01*
X101903356Y-107584167D01*
X101900000Y-107550091D01*
X101900000Y-107059909D01*
X101903356Y-107025833D01*
X101911865Y-106997783D01*
X101925682Y-106971933D01*
X101944276Y-106949276D01*
X101966933Y-106930682D01*
X101992783Y-106916865D01*
X102020833Y-106908356D01*
X102054909Y-106905000D01*
X103895091Y-106905000D01*
X103929167Y-106908356D01*
G37*
G36*
X114017105Y-105706508D02*
G01*
X114189994Y-105778121D01*
X114345590Y-105882087D01*
X114477913Y-106014410D01*
X114581879Y-106170006D01*
X114653492Y-106342895D01*
X114690000Y-106526433D01*
X114690000Y-106713567D01*
X114653492Y-106897105D01*
X114581879Y-107069994D01*
X114477913Y-107225590D01*
X114345590Y-107357913D01*
X114189994Y-107461879D01*
X114017105Y-107533492D01*
X113833567Y-107570000D01*
X113646433Y-107570000D01*
X113462895Y-107533492D01*
X113290006Y-107461879D01*
X113134410Y-107357913D01*
X113002087Y-107225590D01*
X112898121Y-107069994D01*
X112826508Y-106897105D01*
X112790000Y-106713567D01*
X112790000Y-106526433D01*
X112826508Y-106342895D01*
X112898121Y-106170006D01*
X113002087Y-106014410D01*
X113134410Y-105882087D01*
X113290006Y-105778121D01*
X113462895Y-105706508D01*
X113646433Y-105670000D01*
X113833567Y-105670000D01*
X114017105Y-105706508D01*
G37*
G36*
X86737105Y-105706508D02*
G01*
X86909994Y-105778121D01*
X87065590Y-105882087D01*
X87197913Y-106014410D01*
X87301879Y-106170006D01*
X87373492Y-106342895D01*
X87410000Y-106526433D01*
X87410000Y-106713567D01*
X87373492Y-106897105D01*
X87301879Y-107069994D01*
X87197913Y-107225590D01*
X87065590Y-107357913D01*
X86909994Y-107461879D01*
X86737105Y-107533492D01*
X86553567Y-107570000D01*
X86366433Y-107570000D01*
X86182895Y-107533492D01*
X86010006Y-107461879D01*
X85854410Y-107357913D01*
X85722087Y-107225590D01*
X85618121Y-107069994D01*
X85546508Y-106897105D01*
X85510000Y-106713567D01*
X85510000Y-106526433D01*
X85546508Y-106342895D01*
X85618121Y-106170006D01*
X85722087Y-106014410D01*
X85854410Y-105882087D01*
X86010006Y-105778121D01*
X86182895Y-105706508D01*
X86366433Y-105670000D01*
X86553567Y-105670000D01*
X86737105Y-105706508D01*
G37*
G36*
X107553736Y-106305037D02*
G01*
X107598204Y-106318527D01*
X107639177Y-106340427D01*
X107675096Y-106369904D01*
X107704573Y-106405823D01*
X107726473Y-106446796D01*
X107739963Y-106491264D01*
X107745000Y-106542408D01*
X107745000Y-107307592D01*
X107739963Y-107358736D01*
X107726473Y-107403204D01*
X107704573Y-107444177D01*
X107675096Y-107480096D01*
X107639177Y-107509573D01*
X107598204Y-107531473D01*
X107553736Y-107544963D01*
X107502592Y-107550000D01*
X106837408Y-107550000D01*
X106786264Y-107544963D01*
X106741796Y-107531473D01*
X106700823Y-107509573D01*
X106664904Y-107480096D01*
X106635427Y-107444177D01*
X106613527Y-107403204D01*
X106600037Y-107358736D01*
X106595000Y-107307592D01*
X106595000Y-106542408D01*
X106600037Y-106491264D01*
X106613527Y-106446796D01*
X106635427Y-106405823D01*
X106664904Y-106369904D01*
X106700823Y-106340427D01*
X106741796Y-106318527D01*
X106786264Y-106305037D01*
X106837408Y-106300000D01*
X107502592Y-106300000D01*
X107553736Y-106305037D01*
G37*
G36*
X105713736Y-106305037D02*
G01*
X105758204Y-106318527D01*
X105799177Y-106340427D01*
X105835096Y-106369904D01*
X105864573Y-106405823D01*
X105886473Y-106446796D01*
X105899963Y-106491264D01*
X105905000Y-106542408D01*
X105905000Y-107307592D01*
X105899963Y-107358736D01*
X105886473Y-107403204D01*
X105864573Y-107444177D01*
X105835096Y-107480096D01*
X105799177Y-107509573D01*
X105758204Y-107531473D01*
X105713736Y-107544963D01*
X105662592Y-107550000D01*
X104997408Y-107550000D01*
X104946264Y-107544963D01*
X104901796Y-107531473D01*
X104860823Y-107509573D01*
X104824904Y-107480096D01*
X104795427Y-107444177D01*
X104773527Y-107403204D01*
X104760037Y-107358736D01*
X104755000Y-107307592D01*
X104755000Y-106542408D01*
X104760037Y-106491264D01*
X104773527Y-106446796D01*
X104795427Y-106405823D01*
X104824904Y-106369904D01*
X104860823Y-106340427D01*
X104901796Y-106318527D01*
X104946264Y-106305037D01*
X104997408Y-106300000D01*
X105662592Y-106300000D01*
X105713736Y-106305037D01*
G37*
G36*
X103929167Y-105638356D02*
G01*
X103957217Y-105646865D01*
X103983067Y-105660682D01*
X104005724Y-105679276D01*
X104024318Y-105701933D01*
X104038135Y-105727783D01*
X104046644Y-105755833D01*
X104050000Y-105789909D01*
X104050000Y-106280091D01*
X104046644Y-106314167D01*
X104038135Y-106342217D01*
X104024318Y-106368067D01*
X104005724Y-106390724D01*
X103983067Y-106409318D01*
X103957217Y-106423135D01*
X103929167Y-106431644D01*
X103895091Y-106435000D01*
X102054909Y-106435000D01*
X102020833Y-106431644D01*
X101992783Y-106423135D01*
X101966933Y-106409318D01*
X101944276Y-106390724D01*
X101925682Y-106368067D01*
X101911865Y-106342217D01*
X101903356Y-106314167D01*
X101900000Y-106280091D01*
X101900000Y-105789909D01*
X101903356Y-105755833D01*
X101911865Y-105727783D01*
X101925682Y-105701933D01*
X101944276Y-105679276D01*
X101966933Y-105660682D01*
X101992783Y-105646865D01*
X102020833Y-105638356D01*
X102054909Y-105635000D01*
X103895091Y-105635000D01*
X103929167Y-105638356D01*
G37*
G36*
X98979167Y-105638356D02*
G01*
X99007217Y-105646865D01*
X99033067Y-105660682D01*
X99055724Y-105679276D01*
X99074318Y-105701933D01*
X99088135Y-105727783D01*
X99096644Y-105755833D01*
X99100000Y-105789909D01*
X99100000Y-106280091D01*
X99096644Y-106314167D01*
X99088135Y-106342217D01*
X99074318Y-106368067D01*
X99055724Y-106390724D01*
X99033067Y-106409318D01*
X99007217Y-106423135D01*
X98979167Y-106431644D01*
X98945091Y-106435000D01*
X97104909Y-106435000D01*
X97070833Y-106431644D01*
X97042783Y-106423135D01*
X97016933Y-106409318D01*
X96994276Y-106390724D01*
X96975682Y-106368067D01*
X96961865Y-106342217D01*
X96953356Y-106314167D01*
X96950000Y-106280091D01*
X96950000Y-105789909D01*
X96953356Y-105755833D01*
X96961865Y-105727783D01*
X96975682Y-105701933D01*
X96994276Y-105679276D01*
X97016933Y-105660682D01*
X97042783Y-105646865D01*
X97070833Y-105638356D01*
X97104909Y-105635000D01*
X98945091Y-105635000D01*
X98979167Y-105638356D01*
G37*
G36*
X94533736Y-104855037D02*
G01*
X94578204Y-104868527D01*
X94619177Y-104890427D01*
X94655096Y-104919904D01*
X94684573Y-104955823D01*
X94706473Y-104996796D01*
X94719963Y-105041264D01*
X94725000Y-105092408D01*
X94725000Y-105857592D01*
X94719963Y-105908736D01*
X94706473Y-105953204D01*
X94684573Y-105994177D01*
X94655096Y-106030096D01*
X94619177Y-106059573D01*
X94578204Y-106081473D01*
X94533736Y-106094963D01*
X94482592Y-106100000D01*
X93817408Y-106100000D01*
X93766264Y-106094963D01*
X93721796Y-106081473D01*
X93680823Y-106059573D01*
X93644904Y-106030096D01*
X93615427Y-105994177D01*
X93593527Y-105953204D01*
X93580037Y-105908736D01*
X93575000Y-105857592D01*
X93575000Y-105092408D01*
X93580037Y-105041264D01*
X93593527Y-104996796D01*
X93615427Y-104955823D01*
X93644904Y-104919904D01*
X93680823Y-104890427D01*
X93721796Y-104868527D01*
X93766264Y-104855037D01*
X93817408Y-104850000D01*
X94482592Y-104850000D01*
X94533736Y-104855037D01*
G37*
G36*
X96233736Y-104855037D02*
G01*
X96278204Y-104868527D01*
X96319177Y-104890427D01*
X96355096Y-104919904D01*
X96384573Y-104955823D01*
X96406473Y-104996796D01*
X96419963Y-105041264D01*
X96425000Y-105092408D01*
X96425000Y-105857592D01*
X96419963Y-105908736D01*
X96406473Y-105953204D01*
X96384573Y-105994177D01*
X96355096Y-106030096D01*
X96319177Y-106059573D01*
X96278204Y-106081473D01*
X96233736Y-106094963D01*
X96182592Y-106100000D01*
X95517408Y-106100000D01*
X95466264Y-106094963D01*
X95421796Y-106081473D01*
X95380823Y-106059573D01*
X95344904Y-106030096D01*
X95315427Y-105994177D01*
X95293527Y-105953204D01*
X95280037Y-105908736D01*
X95275000Y-105857592D01*
X95275000Y-105092408D01*
X95280037Y-105041264D01*
X95293527Y-104996796D01*
X95315427Y-104955823D01*
X95344904Y-104919904D01*
X95380823Y-104890427D01*
X95421796Y-104868527D01*
X95466264Y-104855037D01*
X95517408Y-104850000D01*
X96182592Y-104850000D01*
X96233736Y-104855037D01*
G37*
G36*
X107553736Y-104555037D02*
G01*
X107598204Y-104568527D01*
X107639177Y-104590427D01*
X107675096Y-104619904D01*
X107704573Y-104655823D01*
X107726473Y-104696796D01*
X107739963Y-104741264D01*
X107745000Y-104792408D01*
X107745000Y-105557592D01*
X107739963Y-105608736D01*
X107726473Y-105653204D01*
X107704573Y-105694177D01*
X107675096Y-105730096D01*
X107639177Y-105759573D01*
X107598204Y-105781473D01*
X107553736Y-105794963D01*
X107502592Y-105800000D01*
X106837408Y-105800000D01*
X106786264Y-105794963D01*
X106741796Y-105781473D01*
X106700823Y-105759573D01*
X106664904Y-105730096D01*
X106635427Y-105694177D01*
X106613527Y-105653204D01*
X106600037Y-105608736D01*
X106595000Y-105557592D01*
X106595000Y-104792408D01*
X106600037Y-104741264D01*
X106613527Y-104696796D01*
X106635427Y-104655823D01*
X106664904Y-104619904D01*
X106700823Y-104590427D01*
X106741796Y-104568527D01*
X106786264Y-104555037D01*
X106837408Y-104550000D01*
X107502592Y-104550000D01*
X107553736Y-104555037D01*
G37*
G36*
X105713736Y-104555037D02*
G01*
X105758204Y-104568527D01*
X105799177Y-104590427D01*
X105835096Y-104619904D01*
X105864573Y-104655823D01*
X105886473Y-104696796D01*
X105899963Y-104741264D01*
X105905000Y-104792408D01*
X105905000Y-105557592D01*
X105899963Y-105608736D01*
X105886473Y-105653204D01*
X105864573Y-105694177D01*
X105835096Y-105730096D01*
X105799177Y-105759573D01*
X105758204Y-105781473D01*
X105713736Y-105794963D01*
X105662592Y-105800000D01*
X104997408Y-105800000D01*
X104946264Y-105794963D01*
X104901796Y-105781473D01*
X104860823Y-105759573D01*
X104824904Y-105730096D01*
X104795427Y-105694177D01*
X104773527Y-105653204D01*
X104760037Y-105608736D01*
X104755000Y-105557592D01*
X104755000Y-104792408D01*
X104760037Y-104741264D01*
X104773527Y-104696796D01*
X104795427Y-104655823D01*
X104824904Y-104619904D01*
X104860823Y-104590427D01*
X104901796Y-104568527D01*
X104946264Y-104555037D01*
X104997408Y-104550000D01*
X105662592Y-104550000D01*
X105713736Y-104555037D01*
G37*
G36*
X103929167Y-104368356D02*
G01*
X103957217Y-104376865D01*
X103983067Y-104390682D01*
X104005724Y-104409276D01*
X104024318Y-104431933D01*
X104038135Y-104457783D01*
X104046644Y-104485833D01*
X104050000Y-104519909D01*
X104050000Y-105010091D01*
X104046644Y-105044167D01*
X104038135Y-105072217D01*
X104024318Y-105098067D01*
X104005724Y-105120724D01*
X103983067Y-105139318D01*
X103957217Y-105153135D01*
X103929167Y-105161644D01*
X103895091Y-105165000D01*
X102054909Y-105165000D01*
X102020833Y-105161644D01*
X101992783Y-105153135D01*
X101966933Y-105139318D01*
X101944276Y-105120724D01*
X101925682Y-105098067D01*
X101911865Y-105072217D01*
X101903356Y-105044167D01*
X101900000Y-105010091D01*
X101900000Y-104519909D01*
X101903356Y-104485833D01*
X101911865Y-104457783D01*
X101925682Y-104431933D01*
X101944276Y-104409276D01*
X101966933Y-104390682D01*
X101992783Y-104376865D01*
X102020833Y-104368356D01*
X102054909Y-104365000D01*
X103895091Y-104365000D01*
X103929167Y-104368356D01*
G37*
G36*
X98979167Y-104368356D02*
G01*
X99007217Y-104376865D01*
X99033067Y-104390682D01*
X99055724Y-104409276D01*
X99074318Y-104431933D01*
X99088135Y-104457783D01*
X99096644Y-104485833D01*
X99100000Y-104519909D01*
X99100000Y-105010091D01*
X99096644Y-105044167D01*
X99088135Y-105072217D01*
X99074318Y-105098067D01*
X99055724Y-105120724D01*
X99033067Y-105139318D01*
X99007217Y-105153135D01*
X98979167Y-105161644D01*
X98945091Y-105165000D01*
X97104909Y-105165000D01*
X97070833Y-105161644D01*
X97042783Y-105153135D01*
X97016933Y-105139318D01*
X96994276Y-105120724D01*
X96975682Y-105098067D01*
X96961865Y-105072217D01*
X96953356Y-105044167D01*
X96950000Y-105010091D01*
X96950000Y-104519909D01*
X96953356Y-104485833D01*
X96961865Y-104457783D01*
X96975682Y-104431933D01*
X96994276Y-104409276D01*
X97016933Y-104390682D01*
X97042783Y-104376865D01*
X97070833Y-104368356D01*
X97104909Y-104365000D01*
X98945091Y-104365000D01*
X98979167Y-104368356D01*
G37*
G36*
X86737105Y-103166508D02*
G01*
X86909994Y-103238121D01*
X87065590Y-103342087D01*
X87197913Y-103474410D01*
X87301879Y-103630006D01*
X87373492Y-103802895D01*
X87410000Y-103986433D01*
X87410000Y-104173567D01*
X87373492Y-104357105D01*
X87301879Y-104529994D01*
X87197913Y-104685590D01*
X87065590Y-104817913D01*
X86909994Y-104921879D01*
X86737105Y-104993492D01*
X86553567Y-105030000D01*
X86366433Y-105030000D01*
X86182895Y-104993492D01*
X86010006Y-104921879D01*
X85854410Y-104817913D01*
X85722087Y-104685590D01*
X85618121Y-104529994D01*
X85546508Y-104357105D01*
X85510000Y-104173567D01*
X85510000Y-103986433D01*
X85546508Y-103802895D01*
X85618121Y-103630006D01*
X85722087Y-103474410D01*
X85854410Y-103342087D01*
X86010006Y-103238121D01*
X86182895Y-103166508D01*
X86366433Y-103130000D01*
X86553567Y-103130000D01*
X86737105Y-103166508D01*
G37*
G36*
X114017105Y-103166508D02*
G01*
X114189994Y-103238121D01*
X114345590Y-103342087D01*
X114477913Y-103474410D01*
X114581879Y-103630006D01*
X114653492Y-103802895D01*
X114690000Y-103986433D01*
X114690000Y-104173567D01*
X114653492Y-104357105D01*
X114581879Y-104529994D01*
X114477913Y-104685590D01*
X114345590Y-104817913D01*
X114189994Y-104921879D01*
X114017105Y-104993492D01*
X113833567Y-105030000D01*
X113646433Y-105030000D01*
X113462895Y-104993492D01*
X113290006Y-104921879D01*
X113134410Y-104817913D01*
X113002087Y-104685590D01*
X112898121Y-104529994D01*
X112826508Y-104357105D01*
X112790000Y-104173567D01*
X112790000Y-103986433D01*
X112826508Y-103802895D01*
X112898121Y-103630006D01*
X113002087Y-103474410D01*
X113134410Y-103342087D01*
X113290006Y-103238121D01*
X113462895Y-103166508D01*
X113646433Y-103130000D01*
X113833567Y-103130000D01*
X114017105Y-103166508D01*
G37*
G36*
X94533736Y-103105037D02*
G01*
X94578204Y-103118527D01*
X94619177Y-103140427D01*
X94655096Y-103169904D01*
X94684573Y-103205823D01*
X94706473Y-103246796D01*
X94719963Y-103291264D01*
X94725000Y-103342408D01*
X94725000Y-104107592D01*
X94719963Y-104158736D01*
X94706473Y-104203204D01*
X94684573Y-104244177D01*
X94655096Y-104280096D01*
X94619177Y-104309573D01*
X94578204Y-104331473D01*
X94533736Y-104344963D01*
X94482592Y-104350000D01*
X93817408Y-104350000D01*
X93766264Y-104344963D01*
X93721796Y-104331473D01*
X93680823Y-104309573D01*
X93644904Y-104280096D01*
X93615427Y-104244177D01*
X93593527Y-104203204D01*
X93580037Y-104158736D01*
X93575000Y-104107592D01*
X93575000Y-103342408D01*
X93580037Y-103291264D01*
X93593527Y-103246796D01*
X93615427Y-103205823D01*
X93644904Y-103169904D01*
X93680823Y-103140427D01*
X93721796Y-103118527D01*
X93766264Y-103105037D01*
X93817408Y-103100000D01*
X94482592Y-103100000D01*
X94533736Y-103105037D01*
G37*
G36*
X96233736Y-103105037D02*
G01*
X96278204Y-103118527D01*
X96319177Y-103140427D01*
X96355096Y-103169904D01*
X96384573Y-103205823D01*
X96406473Y-103246796D01*
X96419963Y-103291264D01*
X96425000Y-103342408D01*
X96425000Y-104107592D01*
X96419963Y-104158736D01*
X96406473Y-104203204D01*
X96384573Y-104244177D01*
X96355096Y-104280096D01*
X96319177Y-104309573D01*
X96278204Y-104331473D01*
X96233736Y-104344963D01*
X96182592Y-104350000D01*
X95517408Y-104350000D01*
X95466264Y-104344963D01*
X95421796Y-104331473D01*
X95380823Y-104309573D01*
X95344904Y-104280096D01*
X95315427Y-104244177D01*
X95293527Y-104203204D01*
X95280037Y-104158736D01*
X95275000Y-104107592D01*
X95275000Y-103342408D01*
X95280037Y-103291264D01*
X95293527Y-103246796D01*
X95315427Y-103205823D01*
X95344904Y-103169904D01*
X95380823Y-103140427D01*
X95421796Y-103118527D01*
X95466264Y-103105037D01*
X95517408Y-103100000D01*
X96182592Y-103100000D01*
X96233736Y-103105037D01*
G37*
G36*
X105758736Y-102830037D02*
G01*
X105803204Y-102843527D01*
X105844177Y-102865427D01*
X105880096Y-102894904D01*
X105909573Y-102930823D01*
X105931473Y-102971796D01*
X105944963Y-103016264D01*
X105950000Y-103067408D01*
X105950000Y-103732592D01*
X105944963Y-103783736D01*
X105931473Y-103828204D01*
X105909573Y-103869177D01*
X105880096Y-103905096D01*
X105844177Y-103934573D01*
X105803204Y-103956473D01*
X105758736Y-103969963D01*
X105707592Y-103975000D01*
X104942408Y-103975000D01*
X104891264Y-103969963D01*
X104846796Y-103956473D01*
X104805823Y-103934573D01*
X104769904Y-103905096D01*
X104740427Y-103869177D01*
X104718527Y-103828204D01*
X104705037Y-103783736D01*
X104700000Y-103732592D01*
X104700000Y-103067408D01*
X104705037Y-103016264D01*
X104718527Y-102971796D01*
X104740427Y-102930823D01*
X104769904Y-102894904D01*
X104805823Y-102865427D01*
X104846796Y-102843527D01*
X104891264Y-102830037D01*
X104942408Y-102825000D01*
X105707592Y-102825000D01*
X105758736Y-102830037D01*
G37*
G36*
X107508736Y-102830037D02*
G01*
X107553204Y-102843527D01*
X107594177Y-102865427D01*
X107630096Y-102894904D01*
X107659573Y-102930823D01*
X107681473Y-102971796D01*
X107694963Y-103016264D01*
X107700000Y-103067408D01*
X107700000Y-103732592D01*
X107694963Y-103783736D01*
X107681473Y-103828204D01*
X107659573Y-103869177D01*
X107630096Y-103905096D01*
X107594177Y-103934573D01*
X107553204Y-103956473D01*
X107508736Y-103969963D01*
X107457592Y-103975000D01*
X106692408Y-103975000D01*
X106641264Y-103969963D01*
X106596796Y-103956473D01*
X106555823Y-103934573D01*
X106519904Y-103905096D01*
X106490427Y-103869177D01*
X106468527Y-103828204D01*
X106455037Y-103783736D01*
X106450000Y-103732592D01*
X106450000Y-103067408D01*
X106455037Y-103016264D01*
X106468527Y-102971796D01*
X106490427Y-102930823D01*
X106519904Y-102894904D01*
X106555823Y-102865427D01*
X106596796Y-102843527D01*
X106641264Y-102830037D01*
X106692408Y-102825000D01*
X107457592Y-102825000D01*
X107508736Y-102830037D01*
G37*
G36*
X98979167Y-103098356D02*
G01*
X99007217Y-103106865D01*
X99033067Y-103120682D01*
X99055724Y-103139276D01*
X99074318Y-103161933D01*
X99088135Y-103187783D01*
X99096644Y-103215833D01*
X99100000Y-103249909D01*
X99100000Y-103740091D01*
X99096644Y-103774167D01*
X99088135Y-103802217D01*
X99074318Y-103828067D01*
X99055724Y-103850724D01*
X99033067Y-103869318D01*
X99007217Y-103883135D01*
X98979167Y-103891644D01*
X98945091Y-103895000D01*
X97104909Y-103895000D01*
X97070833Y-103891644D01*
X97042783Y-103883135D01*
X97016933Y-103869318D01*
X96994276Y-103850724D01*
X96975682Y-103828067D01*
X96961865Y-103802217D01*
X96953356Y-103774167D01*
X96950000Y-103740091D01*
X96950000Y-103249909D01*
X96953356Y-103215833D01*
X96961865Y-103187783D01*
X96975682Y-103161933D01*
X96994276Y-103139276D01*
X97016933Y-103120682D01*
X97042783Y-103106865D01*
X97070833Y-103098356D01*
X97104909Y-103095000D01*
X98945091Y-103095000D01*
X98979167Y-103098356D01*
G37*
G36*
X103929167Y-103098356D02*
G01*
X103957217Y-103106865D01*
X103983067Y-103120682D01*
X104005724Y-103139276D01*
X104024318Y-103161933D01*
X104038135Y-103187783D01*
X104046644Y-103215833D01*
X104050000Y-103249909D01*
X104050000Y-103740091D01*
X104046644Y-103774167D01*
X104038135Y-103802217D01*
X104024318Y-103828067D01*
X104005724Y-103850724D01*
X103983067Y-103869318D01*
X103957217Y-103883135D01*
X103929167Y-103891644D01*
X103895091Y-103895000D01*
X102054909Y-103895000D01*
X102020833Y-103891644D01*
X101992783Y-103883135D01*
X101966933Y-103869318D01*
X101944276Y-103850724D01*
X101925682Y-103828067D01*
X101911865Y-103802217D01*
X101903356Y-103774167D01*
X101900000Y-103740091D01*
X101900000Y-103249909D01*
X101903356Y-103215833D01*
X101911865Y-103187783D01*
X101925682Y-103161933D01*
X101944276Y-103139276D01*
X101966933Y-103120682D01*
X101992783Y-103106865D01*
X102020833Y-103098356D01*
X102054909Y-103095000D01*
X103895091Y-103095000D01*
X103929167Y-103098356D01*
G37*
G36*
X114017105Y-100626508D02*
G01*
X114189994Y-100698121D01*
X114345590Y-100802087D01*
X114477913Y-100934410D01*
X114581879Y-101090006D01*
X114653492Y-101262895D01*
X114690000Y-101446433D01*
X114690000Y-101633567D01*
X114653492Y-101817105D01*
X114581879Y-101989994D01*
X114477913Y-102145590D01*
X114345590Y-102277913D01*
X114189994Y-102381879D01*
X114017105Y-102453492D01*
X113833567Y-102490000D01*
X113646433Y-102490000D01*
X113462895Y-102453492D01*
X113290006Y-102381879D01*
X113134410Y-102277913D01*
X113002087Y-102145590D01*
X112898121Y-101989994D01*
X112826508Y-101817105D01*
X112790000Y-101633567D01*
X112790000Y-101446433D01*
X112826508Y-101262895D01*
X112898121Y-101090006D01*
X113002087Y-100934410D01*
X113134410Y-100802087D01*
X113290006Y-100698121D01*
X113462895Y-100626508D01*
X113646433Y-100590000D01*
X113833567Y-100590000D01*
X114017105Y-100626508D01*
G37*
G36*
X86737105Y-100626508D02*
G01*
X86909994Y-100698121D01*
X87065590Y-100802087D01*
X87197913Y-100934410D01*
X87301879Y-101090006D01*
X87373492Y-101262895D01*
X87410000Y-101446433D01*
X87410000Y-101633567D01*
X87373492Y-101817105D01*
X87301879Y-101989994D01*
X87197913Y-102145590D01*
X87065590Y-102277913D01*
X86909994Y-102381879D01*
X86737105Y-102453492D01*
X86553567Y-102490000D01*
X86366433Y-102490000D01*
X86182895Y-102453492D01*
X86010006Y-102381879D01*
X85854410Y-102277913D01*
X85722087Y-102145590D01*
X85618121Y-101989994D01*
X85546508Y-101817105D01*
X85510000Y-101633567D01*
X85510000Y-101446433D01*
X85546508Y-101262895D01*
X85618121Y-101090006D01*
X85722087Y-100934410D01*
X85854410Y-100802087D01*
X86010006Y-100698121D01*
X86182895Y-100626508D01*
X86366433Y-100590000D01*
X86553567Y-100590000D01*
X86737105Y-100626508D01*
G37*
G36*
X96383736Y-101155037D02*
G01*
X96428204Y-101168527D01*
X96469177Y-101190427D01*
X96505096Y-101219904D01*
X96534573Y-101255823D01*
X96556473Y-101296796D01*
X96569963Y-101341264D01*
X96575000Y-101392408D01*
X96575000Y-102157592D01*
X96569963Y-102208736D01*
X96556473Y-102253204D01*
X96534573Y-102294177D01*
X96505096Y-102330096D01*
X96469177Y-102359573D01*
X96428204Y-102381473D01*
X96383736Y-102394963D01*
X96332592Y-102400000D01*
X95667408Y-102400000D01*
X95616264Y-102394963D01*
X95571796Y-102381473D01*
X95530823Y-102359573D01*
X95494904Y-102330096D01*
X95465427Y-102294177D01*
X95443527Y-102253204D01*
X95430037Y-102208736D01*
X95425000Y-102157592D01*
X95425000Y-101392408D01*
X95430037Y-101341264D01*
X95443527Y-101296796D01*
X95465427Y-101255823D01*
X95494904Y-101219904D01*
X95530823Y-101190427D01*
X95571796Y-101168527D01*
X95616264Y-101155037D01*
X95667408Y-101150000D01*
X96332592Y-101150000D01*
X96383736Y-101155037D01*
G37*
G36*
X107509179Y-101055028D02*
G01*
X107553540Y-101068485D01*
X107594419Y-101090335D01*
X107630255Y-101119745D01*
X107659665Y-101155581D01*
X107681515Y-101196460D01*
X107694972Y-101240821D01*
X107700000Y-101291873D01*
X107700000Y-102158127D01*
X107694972Y-102209179D01*
X107681515Y-102253540D01*
X107659665Y-102294419D01*
X107630255Y-102330255D01*
X107594419Y-102359665D01*
X107553540Y-102381515D01*
X107509179Y-102394972D01*
X107458127Y-102400000D01*
X106341873Y-102400000D01*
X106290821Y-102394972D01*
X106246460Y-102381515D01*
X106205581Y-102359665D01*
X106169745Y-102330255D01*
X106140335Y-102294419D01*
X106118485Y-102253540D01*
X106105028Y-102209179D01*
X106100000Y-102158127D01*
X106100000Y-101291873D01*
X106105028Y-101240821D01*
X106118485Y-101196460D01*
X106140335Y-101155581D01*
X106169745Y-101119745D01*
X106205581Y-101090335D01*
X106246460Y-101068485D01*
X106290821Y-101055028D01*
X106341873Y-101050000D01*
X107458127Y-101050000D01*
X107509179Y-101055028D01*
G37*
G36*
X101858736Y-101230037D02*
G01*
X101903204Y-101243527D01*
X101944177Y-101265427D01*
X101980096Y-101294904D01*
X102009573Y-101330823D01*
X102031473Y-101371796D01*
X102044963Y-101416264D01*
X102050000Y-101467408D01*
X102050000Y-102132592D01*
X102044963Y-102183736D01*
X102031473Y-102228204D01*
X102009573Y-102269177D01*
X101980096Y-102305096D01*
X101944177Y-102334573D01*
X101903204Y-102356473D01*
X101858736Y-102369963D01*
X101807592Y-102375000D01*
X101042408Y-102375000D01*
X100991264Y-102369963D01*
X100946796Y-102356473D01*
X100905823Y-102334573D01*
X100869904Y-102305096D01*
X100840427Y-102269177D01*
X100818527Y-102228204D01*
X100805037Y-102183736D01*
X100800000Y-102132592D01*
X100800000Y-101467408D01*
X100805037Y-101416264D01*
X100818527Y-101371796D01*
X100840427Y-101330823D01*
X100869904Y-101294904D01*
X100905823Y-101265427D01*
X100946796Y-101243527D01*
X100991264Y-101230037D01*
X101042408Y-101225000D01*
X101807592Y-101225000D01*
X101858736Y-101230037D01*
G37*
G36*
X100058736Y-101230037D02*
G01*
X100103204Y-101243527D01*
X100144177Y-101265427D01*
X100180096Y-101294904D01*
X100209573Y-101330823D01*
X100231473Y-101371796D01*
X100244963Y-101416264D01*
X100250000Y-101467408D01*
X100250000Y-102132592D01*
X100244963Y-102183736D01*
X100231473Y-102228204D01*
X100209573Y-102269177D01*
X100180096Y-102305096D01*
X100144177Y-102334573D01*
X100103204Y-102356473D01*
X100058736Y-102369963D01*
X100007592Y-102375000D01*
X99242408Y-102375000D01*
X99191264Y-102369963D01*
X99146796Y-102356473D01*
X99105823Y-102334573D01*
X99069904Y-102305096D01*
X99040427Y-102269177D01*
X99018527Y-102228204D01*
X99005037Y-102183736D01*
X99000000Y-102132592D01*
X99000000Y-101467408D01*
X99005037Y-101416264D01*
X99018527Y-101371796D01*
X99040427Y-101330823D01*
X99069904Y-101294904D01*
X99105823Y-101265427D01*
X99146796Y-101243527D01*
X99191264Y-101230037D01*
X99242408Y-101225000D01*
X100007592Y-101225000D01*
X100058736Y-101230037D01*
G37*
G36*
X103608736Y-101230037D02*
G01*
X103653204Y-101243527D01*
X103694177Y-101265427D01*
X103730096Y-101294904D01*
X103759573Y-101330823D01*
X103781473Y-101371796D01*
X103794963Y-101416264D01*
X103800000Y-101467408D01*
X103800000Y-102132592D01*
X103794963Y-102183736D01*
X103781473Y-102228204D01*
X103759573Y-102269177D01*
X103730096Y-102305096D01*
X103694177Y-102334573D01*
X103653204Y-102356473D01*
X103608736Y-102369963D01*
X103557592Y-102375000D01*
X102792408Y-102375000D01*
X102741264Y-102369963D01*
X102696796Y-102356473D01*
X102655823Y-102334573D01*
X102619904Y-102305096D01*
X102590427Y-102269177D01*
X102568527Y-102228204D01*
X102555037Y-102183736D01*
X102550000Y-102132592D01*
X102550000Y-101467408D01*
X102555037Y-101416264D01*
X102568527Y-101371796D01*
X102590427Y-101330823D01*
X102619904Y-101294904D01*
X102655823Y-101265427D01*
X102696796Y-101243527D01*
X102741264Y-101230037D01*
X102792408Y-101225000D01*
X103557592Y-101225000D01*
X103608736Y-101230037D01*
G37*
G36*
X98308736Y-101230037D02*
G01*
X98353204Y-101243527D01*
X98394177Y-101265427D01*
X98430096Y-101294904D01*
X98459573Y-101330823D01*
X98481473Y-101371796D01*
X98494963Y-101416264D01*
X98500000Y-101467408D01*
X98500000Y-102132592D01*
X98494963Y-102183736D01*
X98481473Y-102228204D01*
X98459573Y-102269177D01*
X98430096Y-102305096D01*
X98394177Y-102334573D01*
X98353204Y-102356473D01*
X98308736Y-102369963D01*
X98257592Y-102375000D01*
X97492408Y-102375000D01*
X97441264Y-102369963D01*
X97396796Y-102356473D01*
X97355823Y-102334573D01*
X97319904Y-102305096D01*
X97290427Y-102269177D01*
X97268527Y-102228204D01*
X97255037Y-102183736D01*
X97250000Y-102132592D01*
X97250000Y-101467408D01*
X97255037Y-101416264D01*
X97268527Y-101371796D01*
X97290427Y-101330823D01*
X97319904Y-101294904D01*
X97355823Y-101265427D01*
X97396796Y-101243527D01*
X97441264Y-101230037D01*
X97492408Y-101225000D01*
X98257592Y-101225000D01*
X98308736Y-101230037D01*
G37*
G36*
X98308736Y-99580037D02*
G01*
X98353204Y-99593527D01*
X98394177Y-99615427D01*
X98430096Y-99644904D01*
X98459573Y-99680823D01*
X98481473Y-99721796D01*
X98494963Y-99766264D01*
X98500000Y-99817408D01*
X98500000Y-100482592D01*
X98494963Y-100533736D01*
X98481473Y-100578204D01*
X98459573Y-100619177D01*
X98430096Y-100655096D01*
X98394177Y-100684573D01*
X98353204Y-100706473D01*
X98308736Y-100719963D01*
X98257592Y-100725000D01*
X97492408Y-100725000D01*
X97441264Y-100719963D01*
X97396796Y-100706473D01*
X97355823Y-100684573D01*
X97319904Y-100655096D01*
X97290427Y-100619177D01*
X97268527Y-100578204D01*
X97255037Y-100533736D01*
X97250000Y-100482592D01*
X97250000Y-99817408D01*
X97255037Y-99766264D01*
X97268527Y-99721796D01*
X97290427Y-99680823D01*
X97319904Y-99644904D01*
X97355823Y-99615427D01*
X97396796Y-99593527D01*
X97441264Y-99580037D01*
X97492408Y-99575000D01*
X98257592Y-99575000D01*
X98308736Y-99580037D01*
G37*
G36*
X100058736Y-99580037D02*
G01*
X100103204Y-99593527D01*
X100144177Y-99615427D01*
X100180096Y-99644904D01*
X100209573Y-99680823D01*
X100231473Y-99721796D01*
X100244963Y-99766264D01*
X100250000Y-99817408D01*
X100250000Y-100482592D01*
X100244963Y-100533736D01*
X100231473Y-100578204D01*
X100209573Y-100619177D01*
X100180096Y-100655096D01*
X100144177Y-100684573D01*
X100103204Y-100706473D01*
X100058736Y-100719963D01*
X100007592Y-100725000D01*
X99242408Y-100725000D01*
X99191264Y-100719963D01*
X99146796Y-100706473D01*
X99105823Y-100684573D01*
X99069904Y-100655096D01*
X99040427Y-100619177D01*
X99018527Y-100578204D01*
X99005037Y-100533736D01*
X99000000Y-100482592D01*
X99000000Y-99817408D01*
X99005037Y-99766264D01*
X99018527Y-99721796D01*
X99040427Y-99680823D01*
X99069904Y-99644904D01*
X99105823Y-99615427D01*
X99146796Y-99593527D01*
X99191264Y-99580037D01*
X99242408Y-99575000D01*
X100007592Y-99575000D01*
X100058736Y-99580037D01*
G37*
G36*
X101959179Y-99105028D02*
G01*
X102003540Y-99118485D01*
X102044419Y-99140335D01*
X102080255Y-99169745D01*
X102109665Y-99205581D01*
X102131515Y-99246460D01*
X102144972Y-99290821D01*
X102150000Y-99341873D01*
X102150000Y-100458127D01*
X102144972Y-100509179D01*
X102131515Y-100553540D01*
X102109665Y-100594419D01*
X102080255Y-100630255D01*
X102044419Y-100659665D01*
X102003540Y-100681515D01*
X101959179Y-100694972D01*
X101908127Y-100700000D01*
X101041873Y-100700000D01*
X100990821Y-100694972D01*
X100946460Y-100681515D01*
X100905581Y-100659665D01*
X100869745Y-100630255D01*
X100840335Y-100594419D01*
X100818485Y-100553540D01*
X100805028Y-100509179D01*
X100800000Y-100458127D01*
X100800000Y-99341873D01*
X100805028Y-99290821D01*
X100818485Y-99246460D01*
X100840335Y-99205581D01*
X100869745Y-99169745D01*
X100905581Y-99140335D01*
X100946460Y-99118485D01*
X100990821Y-99105028D01*
X101041873Y-99100000D01*
X101908127Y-99100000D01*
X101959179Y-99105028D01*
G37*
G36*
X104009179Y-99105028D02*
G01*
X104053540Y-99118485D01*
X104094419Y-99140335D01*
X104130255Y-99169745D01*
X104159665Y-99205581D01*
X104181515Y-99246460D01*
X104194972Y-99290821D01*
X104200000Y-99341873D01*
X104200000Y-100458127D01*
X104194972Y-100509179D01*
X104181515Y-100553540D01*
X104159665Y-100594419D01*
X104130255Y-100630255D01*
X104094419Y-100659665D01*
X104053540Y-100681515D01*
X104009179Y-100694972D01*
X103958127Y-100700000D01*
X103091873Y-100700000D01*
X103040821Y-100694972D01*
X102996460Y-100681515D01*
X102955581Y-100659665D01*
X102919745Y-100630255D01*
X102890335Y-100594419D01*
X102868485Y-100553540D01*
X102855028Y-100509179D01*
X102850000Y-100458127D01*
X102850000Y-99341873D01*
X102855028Y-99290821D01*
X102868485Y-99246460D01*
X102890335Y-99205581D01*
X102919745Y-99169745D01*
X102955581Y-99140335D01*
X102996460Y-99118485D01*
X103040821Y-99105028D01*
X103091873Y-99100000D01*
X103958127Y-99100000D01*
X104009179Y-99105028D01*
G37*
G36*
X96383736Y-99405037D02*
G01*
X96428204Y-99418527D01*
X96469177Y-99440427D01*
X96505096Y-99469904D01*
X96534573Y-99505823D01*
X96556473Y-99546796D01*
X96569963Y-99591264D01*
X96575000Y-99642408D01*
X96575000Y-100407592D01*
X96569963Y-100458736D01*
X96556473Y-100503204D01*
X96534573Y-100544177D01*
X96505096Y-100580096D01*
X96469177Y-100609573D01*
X96428204Y-100631473D01*
X96383736Y-100644963D01*
X96332592Y-100650000D01*
X95667408Y-100650000D01*
X95616264Y-100644963D01*
X95571796Y-100631473D01*
X95530823Y-100609573D01*
X95494904Y-100580096D01*
X95465427Y-100544177D01*
X95443527Y-100503204D01*
X95430037Y-100458736D01*
X95425000Y-100407592D01*
X95425000Y-99642408D01*
X95430037Y-99591264D01*
X95443527Y-99546796D01*
X95465427Y-99505823D01*
X95494904Y-99469904D01*
X95530823Y-99440427D01*
X95571796Y-99418527D01*
X95616264Y-99405037D01*
X95667408Y-99400000D01*
X96332592Y-99400000D01*
X96383736Y-99405037D01*
G37*
G36*
X107509179Y-99005028D02*
G01*
X107553540Y-99018485D01*
X107594419Y-99040335D01*
X107630255Y-99069745D01*
X107659665Y-99105581D01*
X107681515Y-99146460D01*
X107694972Y-99190821D01*
X107700000Y-99241873D01*
X107700000Y-100108127D01*
X107694972Y-100159179D01*
X107681515Y-100203540D01*
X107659665Y-100244419D01*
X107630255Y-100280255D01*
X107594419Y-100309665D01*
X107553540Y-100331515D01*
X107509179Y-100344972D01*
X107458127Y-100350000D01*
X106341873Y-100350000D01*
X106290821Y-100344972D01*
X106246460Y-100331515D01*
X106205581Y-100309665D01*
X106169745Y-100280255D01*
X106140335Y-100244419D01*
X106118485Y-100203540D01*
X106105028Y-100159179D01*
X106100000Y-100108127D01*
X106100000Y-99241873D01*
X106105028Y-99190821D01*
X106118485Y-99146460D01*
X106140335Y-99105581D01*
X106169745Y-99069745D01*
X106205581Y-99040335D01*
X106246460Y-99018485D01*
X106290821Y-99005028D01*
X106341873Y-99000000D01*
X107458127Y-99000000D01*
X107509179Y-99005028D01*
G37*
G36*
X86737105Y-98086508D02*
G01*
X86909994Y-98158121D01*
X87065590Y-98262087D01*
X87197913Y-98394410D01*
X87301879Y-98550006D01*
X87373492Y-98722895D01*
X87410000Y-98906433D01*
X87410000Y-99093567D01*
X87373492Y-99277105D01*
X87301879Y-99449994D01*
X87197913Y-99605590D01*
X87065590Y-99737913D01*
X86909994Y-99841879D01*
X86737105Y-99913492D01*
X86553567Y-99950000D01*
X86366433Y-99950000D01*
X86182895Y-99913492D01*
X86010006Y-99841879D01*
X85854410Y-99737913D01*
X85722087Y-99605590D01*
X85618121Y-99449994D01*
X85546508Y-99277105D01*
X85510000Y-99093567D01*
X85510000Y-98906433D01*
X85546508Y-98722895D01*
X85618121Y-98550006D01*
X85722087Y-98394410D01*
X85854410Y-98262087D01*
X86010006Y-98158121D01*
X86182895Y-98086508D01*
X86366433Y-98050000D01*
X86553567Y-98050000D01*
X86737105Y-98086508D01*
G37*
G36*
X114017105Y-98086508D02*
G01*
X114189994Y-98158121D01*
X114345590Y-98262087D01*
X114477913Y-98394410D01*
X114581879Y-98550006D01*
X114653492Y-98722895D01*
X114690000Y-98906433D01*
X114690000Y-99093567D01*
X114653492Y-99277105D01*
X114581879Y-99449994D01*
X114477913Y-99605590D01*
X114345590Y-99737913D01*
X114189994Y-99841879D01*
X114017105Y-99913492D01*
X113833567Y-99950000D01*
X113646433Y-99950000D01*
X113462895Y-99913492D01*
X113290006Y-99841879D01*
X113134410Y-99737913D01*
X113002087Y-99605590D01*
X112898121Y-99449994D01*
X112826508Y-99277105D01*
X112790000Y-99093567D01*
X112790000Y-98906433D01*
X112826508Y-98722895D01*
X112898121Y-98550006D01*
X113002087Y-98394410D01*
X113134410Y-98262087D01*
X113290006Y-98158121D01*
X113462895Y-98086508D01*
X113646433Y-98050000D01*
X113833567Y-98050000D01*
X114017105Y-98086508D01*
G37*
G36*
X107623125Y-97995000D02*
G01*
X92976875Y-97995000D01*
X92976875Y-97295000D01*
X107623125Y-97295000D01*
X107623125Y-97995000D01*
G37*
G36*
X114017105Y-95546508D02*
G01*
X114189994Y-95618121D01*
X114345590Y-95722087D01*
X114477913Y-95854410D01*
X114581879Y-96010006D01*
X114653492Y-96182895D01*
X114690000Y-96366433D01*
X114690000Y-96553567D01*
X114653492Y-96737105D01*
X114581879Y-96909994D01*
X114477913Y-97065590D01*
X114345590Y-97197913D01*
X114189994Y-97301879D01*
X114017105Y-97373492D01*
X113833567Y-97410000D01*
X113646433Y-97410000D01*
X113462895Y-97373492D01*
X113290006Y-97301879D01*
X113134410Y-97197913D01*
X113002087Y-97065590D01*
X112898121Y-96909994D01*
X112826508Y-96737105D01*
X112790000Y-96553567D01*
X112790000Y-96366433D01*
X112826508Y-96182895D01*
X112898121Y-96010006D01*
X113002087Y-95854410D01*
X113134410Y-95722087D01*
X113290006Y-95618121D01*
X113462895Y-95546508D01*
X113646433Y-95510000D01*
X113833567Y-95510000D01*
X114017105Y-95546508D01*
G37*
G36*
X86737105Y-95546508D02*
G01*
X86909994Y-95618121D01*
X87065590Y-95722087D01*
X87197913Y-95854410D01*
X87301879Y-96010006D01*
X87373492Y-96182895D01*
X87410000Y-96366433D01*
X87410000Y-96553567D01*
X87373492Y-96737105D01*
X87301879Y-96909994D01*
X87197913Y-97065590D01*
X87065590Y-97197913D01*
X86909994Y-97301879D01*
X86737105Y-97373492D01*
X86553567Y-97410000D01*
X86366433Y-97410000D01*
X86182895Y-97373492D01*
X86010006Y-97301879D01*
X85854410Y-97197913D01*
X85722087Y-97065590D01*
X85618121Y-96909994D01*
X85546508Y-96737105D01*
X85510000Y-96553567D01*
X85510000Y-96366433D01*
X85546508Y-96182895D01*
X85618121Y-96010006D01*
X85722087Y-95854410D01*
X85854410Y-95722087D01*
X86010006Y-95618121D01*
X86182895Y-95546508D01*
X86366433Y-95510000D01*
X86553567Y-95510000D01*
X86737105Y-95546508D01*
G37*
G36*
X111500000Y-95000000D02*
G01*
X103839999Y-95000000D01*
X103820490Y-95001921D01*
X103801731Y-95007612D01*
X103784443Y-95016853D01*
X103769289Y-95029289D01*
X103756853Y-95044443D01*
X103747612Y-95061731D01*
X103741921Y-95080490D01*
X103741255Y-95087257D01*
X103740000Y-95093566D01*
X103740000Y-95093567D01*
X103703492Y-95277105D01*
X103631879Y-95449994D01*
X103527913Y-95605590D01*
X103395590Y-95737913D01*
X103239994Y-95841879D01*
X103067105Y-95913492D01*
X102883567Y-95950000D01*
X102696433Y-95950000D01*
X102512895Y-95913492D01*
X102340006Y-95841879D01*
X102184410Y-95737913D01*
X102052087Y-95605590D01*
X101948121Y-95449994D01*
X101876508Y-95277105D01*
X101840000Y-95093567D01*
X101840000Y-95093566D01*
X101838745Y-95087257D01*
X101838079Y-95080490D01*
X101832388Y-95061731D01*
X101823147Y-95044443D01*
X101810711Y-95029289D01*
X101795557Y-95016853D01*
X101778269Y-95007612D01*
X101759510Y-95001921D01*
X101740001Y-95000000D01*
X101299999Y-95000000D01*
X101280490Y-95001921D01*
X101261731Y-95007612D01*
X101244443Y-95016853D01*
X101229289Y-95029289D01*
X101216853Y-95044443D01*
X101207612Y-95061731D01*
X101201921Y-95080490D01*
X101201255Y-95087257D01*
X101200000Y-95093566D01*
X101200000Y-95093567D01*
X101163492Y-95277105D01*
X101091879Y-95449994D01*
X100987913Y-95605590D01*
X100855590Y-95737913D01*
X100699994Y-95841879D01*
X100527105Y-95913492D01*
X100343567Y-95950000D01*
X100156433Y-95950000D01*
X99972895Y-95913492D01*
X99800006Y-95841879D01*
X99644410Y-95737913D01*
X99512087Y-95605590D01*
X99408121Y-95449994D01*
X99336508Y-95277105D01*
X99300000Y-95093567D01*
X99300000Y-95093566D01*
X99298745Y-95087257D01*
X99298079Y-95080490D01*
X99292388Y-95061731D01*
X99283147Y-95044443D01*
X99270711Y-95029289D01*
X99255557Y-95016853D01*
X99238269Y-95007612D01*
X99219510Y-95001921D01*
X99200001Y-95000000D01*
X98759999Y-95000000D01*
X98740490Y-95001921D01*
X98721731Y-95007612D01*
X98704443Y-95016853D01*
X98689289Y-95029289D01*
X98676853Y-95044443D01*
X98667612Y-95061731D01*
X98661921Y-95080490D01*
X98661255Y-95087257D01*
X98660000Y-95093566D01*
X98660000Y-95093567D01*
X98623492Y-95277105D01*
X98551879Y-95449994D01*
X98447913Y-95605590D01*
X98315590Y-95737913D01*
X98159994Y-95841879D01*
X97987105Y-95913492D01*
X97803567Y-95950000D01*
X97616433Y-95950000D01*
X97432895Y-95913492D01*
X97260006Y-95841879D01*
X97104410Y-95737913D01*
X96972087Y-95605590D01*
X96868121Y-95449994D01*
X96796508Y-95277105D01*
X96760000Y-95093567D01*
X96760000Y-95093566D01*
X96758745Y-95087257D01*
X96758079Y-95080490D01*
X96752388Y-95061731D01*
X96743147Y-95044443D01*
X96730711Y-95029289D01*
X96715557Y-95016853D01*
X96698269Y-95007612D01*
X96679510Y-95001921D01*
X96660001Y-95000000D01*
X89000000Y-95000000D01*
X89000000Y-73000000D01*
X111500000Y-73000000D01*
X111500000Y-95000000D01*
G37*
G36*
X114017105Y-93006508D02*
G01*
X114189994Y-93078121D01*
X114345590Y-93182087D01*
X114477913Y-93314410D01*
X114581879Y-93470006D01*
X114653492Y-93642895D01*
X114690000Y-93826433D01*
X114690000Y-94013567D01*
X114653492Y-94197105D01*
X114581879Y-94369994D01*
X114477913Y-94525590D01*
X114345590Y-94657913D01*
X114189994Y-94761879D01*
X114017105Y-94833492D01*
X113833567Y-94870000D01*
X113646433Y-94870000D01*
X113462895Y-94833492D01*
X113290006Y-94761879D01*
X113134410Y-94657913D01*
X113002087Y-94525590D01*
X112898121Y-94369994D01*
X112826508Y-94197105D01*
X112790000Y-94013567D01*
X112790000Y-93826433D01*
X112826508Y-93642895D01*
X112898121Y-93470006D01*
X113002087Y-93314410D01*
X113134410Y-93182087D01*
X113290006Y-93078121D01*
X113462895Y-93006508D01*
X113646433Y-92970000D01*
X113833567Y-92970000D01*
X114017105Y-93006508D01*
G37*
G36*
X86737105Y-93006508D02*
G01*
X86909994Y-93078121D01*
X87065590Y-93182087D01*
X87197913Y-93314410D01*
X87301879Y-93470006D01*
X87373492Y-93642895D01*
X87410000Y-93826433D01*
X87410000Y-94013567D01*
X87373492Y-94197105D01*
X87301879Y-94369994D01*
X87197913Y-94525590D01*
X87065590Y-94657913D01*
X86909994Y-94761879D01*
X86737105Y-94833492D01*
X86553567Y-94870000D01*
X86366433Y-94870000D01*
X86182895Y-94833492D01*
X86010006Y-94761879D01*
X85854410Y-94657913D01*
X85722087Y-94525590D01*
X85618121Y-94369994D01*
X85546508Y-94197105D01*
X85510000Y-94013567D01*
X85510000Y-93826433D01*
X85546508Y-93642895D01*
X85618121Y-93470006D01*
X85722087Y-93314410D01*
X85854410Y-93182087D01*
X86010006Y-93078121D01*
X86182895Y-93006508D01*
X86366433Y-92970000D01*
X86553567Y-92970000D01*
X86737105Y-93006508D01*
G37*
G36*
X86737105Y-90466508D02*
G01*
X86909994Y-90538121D01*
X87065590Y-90642087D01*
X87197913Y-90774410D01*
X87301879Y-90930006D01*
X87373492Y-91102895D01*
X87410000Y-91286433D01*
X87410000Y-91473567D01*
X87373492Y-91657105D01*
X87301879Y-91829994D01*
X87197913Y-91985590D01*
X87065590Y-92117913D01*
X86909994Y-92221879D01*
X86737105Y-92293492D01*
X86553567Y-92330000D01*
X86366433Y-92330000D01*
X86182895Y-92293492D01*
X86010006Y-92221879D01*
X85854410Y-92117913D01*
X85722087Y-91985590D01*
X85618121Y-91829994D01*
X85546508Y-91657105D01*
X85510000Y-91473567D01*
X85510000Y-91286433D01*
X85546508Y-91102895D01*
X85618121Y-90930006D01*
X85722087Y-90774410D01*
X85854410Y-90642087D01*
X86010006Y-90538121D01*
X86182895Y-90466508D01*
X86366433Y-90430000D01*
X86553567Y-90430000D01*
X86737105Y-90466508D01*
G37*
G36*
X114017105Y-90466508D02*
G01*
X114189994Y-90538121D01*
X114345590Y-90642087D01*
X114477913Y-90774410D01*
X114581879Y-90930006D01*
X114653492Y-91102895D01*
X114690000Y-91286433D01*
X114690000Y-91473567D01*
X114653492Y-91657105D01*
X114581879Y-91829994D01*
X114477913Y-91985590D01*
X114345590Y-92117913D01*
X114189994Y-92221879D01*
X114017105Y-92293492D01*
X113833567Y-92330000D01*
X113646433Y-92330000D01*
X113462895Y-92293492D01*
X113290006Y-92221879D01*
X113134410Y-92117913D01*
X113002087Y-91985590D01*
X112898121Y-91829994D01*
X112826508Y-91657105D01*
X112790000Y-91473567D01*
X112790000Y-91286433D01*
X112826508Y-91102895D01*
X112898121Y-90930006D01*
X113002087Y-90774410D01*
X113134410Y-90642087D01*
X113290006Y-90538121D01*
X113462895Y-90466508D01*
X113646433Y-90430000D01*
X113833567Y-90430000D01*
X114017105Y-90466508D01*
G37*
G36*
X86737105Y-87926508D02*
G01*
X86909994Y-87998121D01*
X87065590Y-88102087D01*
X87197913Y-88234410D01*
X87301879Y-88390006D01*
X87373492Y-88562895D01*
X87410000Y-88746433D01*
X87410000Y-88933567D01*
X87373492Y-89117105D01*
X87301879Y-89289994D01*
X87197913Y-89445590D01*
X87065590Y-89577913D01*
X86909994Y-89681879D01*
X86737105Y-89753492D01*
X86553567Y-89790000D01*
X86366433Y-89790000D01*
X86182895Y-89753492D01*
X86010006Y-89681879D01*
X85854410Y-89577913D01*
X85722087Y-89445590D01*
X85618121Y-89289994D01*
X85546508Y-89117105D01*
X85510000Y-88933567D01*
X85510000Y-88746433D01*
X85546508Y-88562895D01*
X85618121Y-88390006D01*
X85722087Y-88234410D01*
X85854410Y-88102087D01*
X86010006Y-87998121D01*
X86182895Y-87926508D01*
X86366433Y-87890000D01*
X86553567Y-87890000D01*
X86737105Y-87926508D01*
G37*
G36*
X114017105Y-87926508D02*
G01*
X114189994Y-87998121D01*
X114345590Y-88102087D01*
X114477913Y-88234410D01*
X114581879Y-88390006D01*
X114653492Y-88562895D01*
X114690000Y-88746433D01*
X114690000Y-88933567D01*
X114653492Y-89117105D01*
X114581879Y-89289994D01*
X114477913Y-89445590D01*
X114345590Y-89577913D01*
X114189994Y-89681879D01*
X114017105Y-89753492D01*
X113833567Y-89790000D01*
X113646433Y-89790000D01*
X113462895Y-89753492D01*
X113290006Y-89681879D01*
X113134410Y-89577913D01*
X113002087Y-89445590D01*
X112898121Y-89289994D01*
X112826508Y-89117105D01*
X112790000Y-88933567D01*
X112790000Y-88746433D01*
X112826508Y-88562895D01*
X112898121Y-88390006D01*
X113002087Y-88234410D01*
X113134410Y-88102087D01*
X113290006Y-87998121D01*
X113462895Y-87926508D01*
X113646433Y-87890000D01*
X113833567Y-87890000D01*
X114017105Y-87926508D01*
G37*
G36*
X86737105Y-85386508D02*
G01*
X86909994Y-85458121D01*
X87065590Y-85562087D01*
X87197913Y-85694410D01*
X87301879Y-85850006D01*
X87373492Y-86022895D01*
X87410000Y-86206433D01*
X87410000Y-86393567D01*
X87373492Y-86577105D01*
X87301879Y-86749994D01*
X87197913Y-86905590D01*
X87065590Y-87037913D01*
X86909994Y-87141879D01*
X86737105Y-87213492D01*
X86553567Y-87250000D01*
X86366433Y-87250000D01*
X86182895Y-87213492D01*
X86010006Y-87141879D01*
X85854410Y-87037913D01*
X85722087Y-86905590D01*
X85618121Y-86749994D01*
X85546508Y-86577105D01*
X85510000Y-86393567D01*
X85510000Y-86206433D01*
X85546508Y-86022895D01*
X85618121Y-85850006D01*
X85722087Y-85694410D01*
X85854410Y-85562087D01*
X86010006Y-85458121D01*
X86182895Y-85386508D01*
X86366433Y-85350000D01*
X86553567Y-85350000D01*
X86737105Y-85386508D01*
G37*
G36*
X114017105Y-85386508D02*
G01*
X114189994Y-85458121D01*
X114345590Y-85562087D01*
X114477913Y-85694410D01*
X114581879Y-85850006D01*
X114653492Y-86022895D01*
X114690000Y-86206433D01*
X114690000Y-86393567D01*
X114653492Y-86577105D01*
X114581879Y-86749994D01*
X114477913Y-86905590D01*
X114345590Y-87037913D01*
X114189994Y-87141879D01*
X114017105Y-87213492D01*
X113833567Y-87250000D01*
X113646433Y-87250000D01*
X113462895Y-87213492D01*
X113290006Y-87141879D01*
X113134410Y-87037913D01*
X113002087Y-86905590D01*
X112898121Y-86749994D01*
X112826508Y-86577105D01*
X112790000Y-86393567D01*
X112790000Y-86206433D01*
X112826508Y-86022895D01*
X112898121Y-85850006D01*
X113002087Y-85694410D01*
X113134410Y-85562087D01*
X113290006Y-85458121D01*
X113462895Y-85386508D01*
X113646433Y-85350000D01*
X113833567Y-85350000D01*
X114017105Y-85386508D01*
G37*
G36*
X86737105Y-82846508D02*
G01*
X86909994Y-82918121D01*
X87065590Y-83022087D01*
X87197913Y-83154410D01*
X87301879Y-83310006D01*
X87373492Y-83482895D01*
X87410000Y-83666433D01*
X87410000Y-83853567D01*
X87373492Y-84037105D01*
X87301879Y-84209994D01*
X87197913Y-84365590D01*
X87065590Y-84497913D01*
X86909994Y-84601879D01*
X86737105Y-84673492D01*
X86553567Y-84710000D01*
X86366433Y-84710000D01*
X86182895Y-84673492D01*
X86010006Y-84601879D01*
X85854410Y-84497913D01*
X85722087Y-84365590D01*
X85618121Y-84209994D01*
X85546508Y-84037105D01*
X85510000Y-83853567D01*
X85510000Y-83666433D01*
X85546508Y-83482895D01*
X85618121Y-83310006D01*
X85722087Y-83154410D01*
X85854410Y-83022087D01*
X86010006Y-82918121D01*
X86182895Y-82846508D01*
X86366433Y-82810000D01*
X86553567Y-82810000D01*
X86737105Y-82846508D01*
G37*
G36*
X114017105Y-82846508D02*
G01*
X114189994Y-82918121D01*
X114345590Y-83022087D01*
X114477913Y-83154410D01*
X114581879Y-83310006D01*
X114653492Y-83482895D01*
X114690000Y-83666433D01*
X114690000Y-83853567D01*
X114653492Y-84037105D01*
X114581879Y-84209994D01*
X114477913Y-84365590D01*
X114345590Y-84497913D01*
X114189994Y-84601879D01*
X114017105Y-84673492D01*
X113833567Y-84710000D01*
X113646433Y-84710000D01*
X113462895Y-84673492D01*
X113290006Y-84601879D01*
X113134410Y-84497913D01*
X113002087Y-84365590D01*
X112898121Y-84209994D01*
X112826508Y-84037105D01*
X112790000Y-83853567D01*
X112790000Y-83666433D01*
X112826508Y-83482895D01*
X112898121Y-83310006D01*
X113002087Y-83154410D01*
X113134410Y-83022087D01*
X113290006Y-82918121D01*
X113462895Y-82846508D01*
X113646433Y-82810000D01*
X113833567Y-82810000D01*
X114017105Y-82846508D01*
G37*
G36*
X114017105Y-80306508D02*
G01*
X114189994Y-80378121D01*
X114345590Y-80482087D01*
X114477913Y-80614410D01*
X114581879Y-80770006D01*
X114653492Y-80942895D01*
X114690000Y-81126433D01*
X114690000Y-81313567D01*
X114653492Y-81497105D01*
X114581879Y-81669994D01*
X114477913Y-81825590D01*
X114345590Y-81957913D01*
X114189994Y-82061879D01*
X114017105Y-82133492D01*
X113833567Y-82170000D01*
X113646433Y-82170000D01*
X113462895Y-82133492D01*
X113290006Y-82061879D01*
X113134410Y-81957913D01*
X113002087Y-81825590D01*
X112898121Y-81669994D01*
X112826508Y-81497105D01*
X112790000Y-81313567D01*
X112790000Y-81126433D01*
X112826508Y-80942895D01*
X112898121Y-80770006D01*
X113002087Y-80614410D01*
X113134410Y-80482087D01*
X113290006Y-80378121D01*
X113462895Y-80306508D01*
X113646433Y-80270000D01*
X113833567Y-80270000D01*
X114017105Y-80306508D01*
G37*
G36*
X86737105Y-80306508D02*
G01*
X86909994Y-80378121D01*
X87065590Y-80482087D01*
X87197913Y-80614410D01*
X87301879Y-80770006D01*
X87373492Y-80942895D01*
X87410000Y-81126433D01*
X87410000Y-81313567D01*
X87373492Y-81497105D01*
X87301879Y-81669994D01*
X87197913Y-81825590D01*
X87065590Y-81957913D01*
X86909994Y-82061879D01*
X86737105Y-82133492D01*
X86553567Y-82170000D01*
X86366433Y-82170000D01*
X86182895Y-82133492D01*
X86010006Y-82061879D01*
X85854410Y-81957913D01*
X85722087Y-81825590D01*
X85618121Y-81669994D01*
X85546508Y-81497105D01*
X85510000Y-81313567D01*
X85510000Y-81126433D01*
X85546508Y-80942895D01*
X85618121Y-80770006D01*
X85722087Y-80614410D01*
X85854410Y-80482087D01*
X86010006Y-80378121D01*
X86182895Y-80306508D01*
X86366433Y-80270000D01*
X86553567Y-80270000D01*
X86737105Y-80306508D01*
G37*
G36*
X86737105Y-77766508D02*
G01*
X86909994Y-77838121D01*
X87065590Y-77942087D01*
X87197913Y-78074410D01*
X87301879Y-78230006D01*
X87373492Y-78402895D01*
X87410000Y-78586433D01*
X87410000Y-78773567D01*
X87373492Y-78957105D01*
X87301879Y-79129994D01*
X87197913Y-79285590D01*
X87065590Y-79417913D01*
X86909994Y-79521879D01*
X86737105Y-79593492D01*
X86553567Y-79630000D01*
X86366433Y-79630000D01*
X86182895Y-79593492D01*
X86010006Y-79521879D01*
X85854410Y-79417913D01*
X85722087Y-79285590D01*
X85618121Y-79129994D01*
X85546508Y-78957105D01*
X85510000Y-78773567D01*
X85510000Y-78586433D01*
X85546508Y-78402895D01*
X85618121Y-78230006D01*
X85722087Y-78074410D01*
X85854410Y-77942087D01*
X86010006Y-77838121D01*
X86182895Y-77766508D01*
X86366433Y-77730000D01*
X86553567Y-77730000D01*
X86737105Y-77766508D01*
G37*
G36*
X114017105Y-77766508D02*
G01*
X114189994Y-77838121D01*
X114345590Y-77942087D01*
X114477913Y-78074410D01*
X114581879Y-78230006D01*
X114653492Y-78402895D01*
X114690000Y-78586433D01*
X114690000Y-78773567D01*
X114653492Y-78957105D01*
X114581879Y-79129994D01*
X114477913Y-79285590D01*
X114345590Y-79417913D01*
X114189994Y-79521879D01*
X114017105Y-79593492D01*
X113833567Y-79630000D01*
X113646433Y-79630000D01*
X113462895Y-79593492D01*
X113290006Y-79521879D01*
X113134410Y-79417913D01*
X113002087Y-79285590D01*
X112898121Y-79129994D01*
X112826508Y-78957105D01*
X112790000Y-78773567D01*
X112790000Y-78586433D01*
X112826508Y-78402895D01*
X112898121Y-78230006D01*
X113002087Y-78074410D01*
X113134410Y-77942087D01*
X113290006Y-77838121D01*
X113462895Y-77766508D01*
X113646433Y-77730000D01*
X113833567Y-77730000D01*
X114017105Y-77766508D01*
G37*
G36*
X101607105Y-68336508D02*
G01*
X101779994Y-68408121D01*
X101935590Y-68512087D01*
X102067913Y-68644410D01*
X102171879Y-68800006D01*
X102243492Y-68972895D01*
X102280000Y-69156433D01*
X102280000Y-69343567D01*
X102243492Y-69527105D01*
X102171879Y-69699994D01*
X102067913Y-69855590D01*
X101935590Y-69987913D01*
X101779994Y-70091879D01*
X101607105Y-70163492D01*
X101423567Y-70200000D01*
X101236433Y-70200000D01*
X101052895Y-70163492D01*
X100880006Y-70091879D01*
X100724410Y-69987913D01*
X100592087Y-69855590D01*
X100488121Y-69699994D01*
X100416508Y-69527105D01*
X100380000Y-69343567D01*
X100380000Y-69156433D01*
X100416508Y-68972895D01*
X100488121Y-68800006D01*
X100592087Y-68644410D01*
X100724410Y-68512087D01*
X100880006Y-68408121D01*
X101052895Y-68336508D01*
X101236433Y-68300000D01*
X101423567Y-68300000D01*
X101607105Y-68336508D01*
G37*
G36*
X104147105Y-68336508D02*
G01*
X104319994Y-68408121D01*
X104475590Y-68512087D01*
X104607913Y-68644410D01*
X104711879Y-68800006D01*
X104783492Y-68972895D01*
X104820000Y-69156433D01*
X104820000Y-69343567D01*
X104783492Y-69527105D01*
X104711879Y-69699994D01*
X104607913Y-69855590D01*
X104475590Y-69987913D01*
X104319994Y-70091879D01*
X104147105Y-70163492D01*
X103963567Y-70200000D01*
X103776433Y-70200000D01*
X103592895Y-70163492D01*
X103420006Y-70091879D01*
X103264410Y-69987913D01*
X103132087Y-69855590D01*
X103028121Y-69699994D01*
X102956508Y-69527105D01*
X102920000Y-69343567D01*
X102920000Y-69156433D01*
X102956508Y-68972895D01*
X103028121Y-68800006D01*
X103132087Y-68644410D01*
X103264410Y-68512087D01*
X103420006Y-68408121D01*
X103592895Y-68336508D01*
X103776433Y-68300000D01*
X103963567Y-68300000D01*
X104147105Y-68336508D01*
G37*
G36*
X97200000Y-70200000D02*
G01*
X95300000Y-70200000D01*
X95300000Y-68300000D01*
X97200000Y-68300000D01*
X97200000Y-70200000D01*
G37*
G36*
X99067105Y-68336508D02*
G01*
X99239994Y-68408121D01*
X99395590Y-68512087D01*
X99527913Y-68644410D01*
X99631879Y-68800006D01*
X99703492Y-68972895D01*
X99740000Y-69156433D01*
X99740000Y-69343567D01*
X99703492Y-69527105D01*
X99631879Y-69699994D01*
X99527913Y-69855590D01*
X99395590Y-69987913D01*
X99239994Y-70091879D01*
X99067105Y-70163492D01*
X98883567Y-70200000D01*
X98696433Y-70200000D01*
X98512895Y-70163492D01*
X98340006Y-70091879D01*
X98184410Y-69987913D01*
X98052087Y-69855590D01*
X97948121Y-69699994D01*
X97876508Y-69527105D01*
X97840000Y-69343567D01*
X97840000Y-69156433D01*
X97876508Y-68972895D01*
X97948121Y-68800006D01*
X98052087Y-68644410D01*
X98184410Y-68512087D01*
X98340006Y-68408121D01*
X98512895Y-68336508D01*
X98696433Y-68300000D01*
X98883567Y-68300000D01*
X99067105Y-68336508D01*
G37*
M02*
