G04 #@! TF.GenerationSoftware,KiCad,Pcbnew,(5.1.6-0-10_14)*
G04 #@! TF.CreationDate,2020-12-22T18:49:04+01:00*
G04 #@! TF.ProjectId,cdm324,63646d33-3234-42e6-9b69-6361645f7063,rev?*
G04 #@! TF.SameCoordinates,Original*
G04 #@! TF.FileFunction,Legend,Top*
G04 #@! TF.FilePolarity,Positive*
%FSLAX46Y46*%
G04 Gerber Fmt 4.6, Leading zero omitted, Abs format (unit mm)*
G04 Created by KiCad (PCBNEW (5.1.6-0-10_14)) date 2020-12-22 18:49:04*
%MOMM*%
%LPD*%
G01*
G04 APERTURE LIST*
%ADD10C,0.120000*%
%ADD11C,0.153000*%
G04 APERTURE END LIST*
D10*
X91040000Y-125021267D02*
X91040000Y-124678733D01*
X92060000Y-125021267D02*
X92060000Y-124678733D01*
X98147936Y-116040000D02*
X99352064Y-116040000D01*
X98147936Y-117860000D02*
X99352064Y-117860000D01*
X98010000Y-128947936D02*
X98010000Y-130152064D01*
X96190000Y-128947936D02*
X96190000Y-130152064D01*
X98921267Y-102310000D02*
X98578733Y-102310000D01*
X98921267Y-101290000D02*
X98578733Y-101290000D01*
X110590000Y-110961252D02*
X110590000Y-110438748D01*
X112010000Y-110961252D02*
X112010000Y-110438748D01*
X107760000Y-109438748D02*
X107760000Y-109961252D01*
X106340000Y-109438748D02*
X106340000Y-109961252D01*
X106190000Y-100961252D02*
X106190000Y-100438748D01*
X107610000Y-100961252D02*
X107610000Y-100438748D01*
X102238748Y-99190000D02*
X102761252Y-99190000D01*
X102238748Y-100610000D02*
X102761252Y-100610000D01*
X100500000Y-102840000D02*
X98550000Y-102840000D01*
X100500000Y-102840000D02*
X102450000Y-102840000D01*
X100500000Y-107960000D02*
X98550000Y-107960000D01*
X100500000Y-107960000D02*
X103950000Y-107960000D01*
X89710000Y-126430000D02*
X89710000Y-125500000D01*
X89710000Y-123270000D02*
X89710000Y-124200000D01*
X89710000Y-123270000D02*
X87550000Y-123270000D01*
X89710000Y-126430000D02*
X88250000Y-126430000D01*
X85840000Y-124971267D02*
X85840000Y-124628733D01*
X86860000Y-124971267D02*
X86860000Y-124628733D01*
X96510000Y-126430000D02*
X96510000Y-125500000D01*
X96510000Y-123270000D02*
X96510000Y-124200000D01*
X96510000Y-123270000D02*
X94350000Y-123270000D01*
X96510000Y-126430000D02*
X95050000Y-126430000D01*
X92640000Y-125021267D02*
X92640000Y-124678733D01*
X93660000Y-125021267D02*
X93660000Y-124678733D01*
X93640000Y-104771267D02*
X93640000Y-104428733D01*
X94660000Y-104771267D02*
X94660000Y-104428733D01*
X101860000Y-110247936D02*
X101860000Y-111452064D01*
X100040000Y-110247936D02*
X100040000Y-111452064D01*
X104740000Y-109871267D02*
X104740000Y-109528733D01*
X105760000Y-109871267D02*
X105760000Y-109528733D01*
X106078733Y-112040000D02*
X106421267Y-112040000D01*
X106078733Y-113060000D02*
X106421267Y-113060000D01*
X102128733Y-101290000D02*
X102471267Y-101290000D01*
X102128733Y-102310000D02*
X102471267Y-102310000D01*
X98578733Y-99640000D02*
X98921267Y-99640000D01*
X98578733Y-100660000D02*
X98921267Y-100660000D01*
X107680000Y-106221267D02*
X107680000Y-105878733D01*
X106660000Y-106221267D02*
X106660000Y-105878733D01*
X105840000Y-106221267D02*
X105840000Y-105878733D01*
X104820000Y-106221267D02*
X104820000Y-105878733D01*
X104210000Y-110247936D02*
X104210000Y-111452064D01*
X102390000Y-110247936D02*
X102390000Y-111452064D01*
X99460000Y-110247936D02*
X99460000Y-111452064D01*
X97640000Y-110247936D02*
X97640000Y-111452064D01*
X94660000Y-110247936D02*
X94660000Y-111452064D01*
X92840000Y-110247936D02*
X92840000Y-111452064D01*
X97060000Y-110247936D02*
X97060000Y-111452064D01*
X95240000Y-110247936D02*
X95240000Y-111452064D01*
X106371267Y-103910000D02*
X106028733Y-103910000D01*
X106371267Y-102890000D02*
X106028733Y-102890000D01*
X95221267Y-108010000D02*
X94878733Y-108010000D01*
X95221267Y-106990000D02*
X94878733Y-106990000D01*
X95340000Y-104771267D02*
X95340000Y-104428733D01*
X96360000Y-104771267D02*
X96360000Y-104428733D01*
X96510000Y-100728733D02*
X96510000Y-101071267D01*
X95490000Y-100728733D02*
X95490000Y-101071267D01*
D11*
X91861904Y-122433333D02*
X91480952Y-122700000D01*
X91861904Y-122890476D02*
X91061904Y-122890476D01*
X91061904Y-122585714D01*
X91100000Y-122509523D01*
X91138095Y-122471428D01*
X91214285Y-122433333D01*
X91328571Y-122433333D01*
X91404761Y-122471428D01*
X91442857Y-122509523D01*
X91480952Y-122585714D01*
X91480952Y-122890476D01*
X91061904Y-121747619D02*
X91061904Y-121900000D01*
X91100000Y-121976190D01*
X91138095Y-122014285D01*
X91252380Y-122090476D01*
X91404761Y-122128571D01*
X91709523Y-122128571D01*
X91785714Y-122090476D01*
X91823809Y-122052380D01*
X91861904Y-121976190D01*
X91861904Y-121823809D01*
X91823809Y-121747619D01*
X91785714Y-121709523D01*
X91709523Y-121671428D01*
X91519047Y-121671428D01*
X91442857Y-121709523D01*
X91404761Y-121747619D01*
X91366666Y-121823809D01*
X91366666Y-121976190D01*
X91404761Y-122052380D01*
X91442857Y-122090476D01*
X91519047Y-122128571D01*
X102485714Y-116285714D02*
X102447619Y-116323809D01*
X102333333Y-116361904D01*
X102257142Y-116361904D01*
X102142857Y-116323809D01*
X102066666Y-116247619D01*
X102028571Y-116171428D01*
X101990476Y-116019047D01*
X101990476Y-115904761D01*
X102028571Y-115752380D01*
X102066666Y-115676190D01*
X102142857Y-115600000D01*
X102257142Y-115561904D01*
X102333333Y-115561904D01*
X102447619Y-115600000D01*
X102485714Y-115638095D01*
X103247619Y-116361904D02*
X102790476Y-116361904D01*
X103019047Y-116361904D02*
X103019047Y-115561904D01*
X102942857Y-115676190D01*
X102866666Y-115752380D01*
X102790476Y-115790476D01*
X103514285Y-115561904D02*
X104009523Y-115561904D01*
X103742857Y-115866666D01*
X103857142Y-115866666D01*
X103933333Y-115904761D01*
X103971428Y-115942857D01*
X104009523Y-116019047D01*
X104009523Y-116209523D01*
X103971428Y-116285714D01*
X103933333Y-116323809D01*
X103857142Y-116361904D01*
X103628571Y-116361904D01*
X103552380Y-116323809D01*
X103514285Y-116285714D01*
X98285714Y-126014285D02*
X98323809Y-126052380D01*
X98361904Y-126166666D01*
X98361904Y-126242857D01*
X98323809Y-126357142D01*
X98247619Y-126433333D01*
X98171428Y-126471428D01*
X98019047Y-126509523D01*
X97904761Y-126509523D01*
X97752380Y-126471428D01*
X97676190Y-126433333D01*
X97600000Y-126357142D01*
X97561904Y-126242857D01*
X97561904Y-126166666D01*
X97600000Y-126052380D01*
X97638095Y-126014285D01*
X98361904Y-125252380D02*
X98361904Y-125709523D01*
X98361904Y-125480952D02*
X97561904Y-125480952D01*
X97676190Y-125557142D01*
X97752380Y-125633333D01*
X97790476Y-125709523D01*
X97561904Y-124528571D02*
X97561904Y-124909523D01*
X97942857Y-124947619D01*
X97904761Y-124909523D01*
X97866666Y-124833333D01*
X97866666Y-124642857D01*
X97904761Y-124566666D01*
X97942857Y-124528571D01*
X98019047Y-124490476D01*
X98209523Y-124490476D01*
X98285714Y-124528571D01*
X98323809Y-124566666D01*
X98361904Y-124642857D01*
X98361904Y-124833333D01*
X98323809Y-124909523D01*
X98285714Y-124947619D01*
X99416666Y-99361904D02*
X99150000Y-98980952D01*
X98959523Y-99361904D02*
X98959523Y-98561904D01*
X99264285Y-98561904D01*
X99340476Y-98600000D01*
X99378571Y-98638095D01*
X99416666Y-98714285D01*
X99416666Y-98828571D01*
X99378571Y-98904761D01*
X99340476Y-98942857D01*
X99264285Y-98980952D01*
X98959523Y-98980952D01*
X100140476Y-98561904D02*
X99759523Y-98561904D01*
X99721428Y-98942857D01*
X99759523Y-98904761D01*
X99835714Y-98866666D01*
X100026190Y-98866666D01*
X100102380Y-98904761D01*
X100140476Y-98942857D01*
X100178571Y-99019047D01*
X100178571Y-99209523D01*
X100140476Y-99285714D01*
X100102380Y-99323809D01*
X100026190Y-99361904D01*
X99835714Y-99361904D01*
X99759523Y-99323809D01*
X99721428Y-99285714D01*
X112685714Y-114014285D02*
X112723809Y-114052380D01*
X112761904Y-114166666D01*
X112761904Y-114242857D01*
X112723809Y-114357142D01*
X112647619Y-114433333D01*
X112571428Y-114471428D01*
X112419047Y-114509523D01*
X112304761Y-114509523D01*
X112152380Y-114471428D01*
X112076190Y-114433333D01*
X112000000Y-114357142D01*
X111961904Y-114242857D01*
X111961904Y-114166666D01*
X112000000Y-114052380D01*
X112038095Y-114014285D01*
X112761904Y-113252380D02*
X112761904Y-113709523D01*
X112761904Y-113480952D02*
X111961904Y-113480952D01*
X112076190Y-113557142D01*
X112152380Y-113633333D01*
X112190476Y-113709523D01*
X112228571Y-112566666D02*
X112761904Y-112566666D01*
X111923809Y-112757142D02*
X112495238Y-112947619D01*
X112495238Y-112452380D01*
X110135714Y-109514285D02*
X110173809Y-109552380D01*
X110211904Y-109666666D01*
X110211904Y-109742857D01*
X110173809Y-109857142D01*
X110097619Y-109933333D01*
X110021428Y-109971428D01*
X109869047Y-110009523D01*
X109754761Y-110009523D01*
X109602380Y-109971428D01*
X109526190Y-109933333D01*
X109450000Y-109857142D01*
X109411904Y-109742857D01*
X109411904Y-109666666D01*
X109450000Y-109552380D01*
X109488095Y-109514285D01*
X110211904Y-108752380D02*
X110211904Y-109209523D01*
X110211904Y-108980952D02*
X109411904Y-108980952D01*
X109526190Y-109057142D01*
X109602380Y-109133333D01*
X109640476Y-109209523D01*
X109411904Y-108257142D02*
X109411904Y-108180952D01*
X109450000Y-108104761D01*
X109488095Y-108066666D01*
X109564285Y-108028571D01*
X109716666Y-107990476D01*
X109907142Y-107990476D01*
X110059523Y-108028571D01*
X110135714Y-108066666D01*
X110173809Y-108104761D01*
X110211904Y-108180952D01*
X110211904Y-108257142D01*
X110173809Y-108333333D01*
X110135714Y-108371428D01*
X110059523Y-108409523D01*
X109907142Y-108447619D01*
X109716666Y-108447619D01*
X109564285Y-108409523D01*
X109488095Y-108371428D01*
X109450000Y-108333333D01*
X109411904Y-108257142D01*
X109885714Y-99933333D02*
X109923809Y-99971428D01*
X109961904Y-100085714D01*
X109961904Y-100161904D01*
X109923809Y-100276190D01*
X109847619Y-100352380D01*
X109771428Y-100390476D01*
X109619047Y-100428571D01*
X109504761Y-100428571D01*
X109352380Y-100390476D01*
X109276190Y-100352380D01*
X109200000Y-100276190D01*
X109161904Y-100161904D01*
X109161904Y-100085714D01*
X109200000Y-99971428D01*
X109238095Y-99933333D01*
X109961904Y-99552380D02*
X109961904Y-99400000D01*
X109923809Y-99323809D01*
X109885714Y-99285714D01*
X109771428Y-99209523D01*
X109619047Y-99171428D01*
X109314285Y-99171428D01*
X109238095Y-99209523D01*
X109200000Y-99247619D01*
X109161904Y-99323809D01*
X109161904Y-99476190D01*
X109200000Y-99552380D01*
X109238095Y-99590476D01*
X109314285Y-99628571D01*
X109504761Y-99628571D01*
X109580952Y-99590476D01*
X109619047Y-99552380D01*
X109657142Y-99476190D01*
X109657142Y-99323809D01*
X109619047Y-99247619D01*
X109580952Y-99209523D01*
X109504761Y-99171428D01*
X102366666Y-98885714D02*
X102328571Y-98923809D01*
X102214285Y-98961904D01*
X102138095Y-98961904D01*
X102023809Y-98923809D01*
X101947619Y-98847619D01*
X101909523Y-98771428D01*
X101871428Y-98619047D01*
X101871428Y-98504761D01*
X101909523Y-98352380D01*
X101947619Y-98276190D01*
X102023809Y-98200000D01*
X102138095Y-98161904D01*
X102214285Y-98161904D01*
X102328571Y-98200000D01*
X102366666Y-98238095D01*
X102633333Y-98161904D02*
X103166666Y-98161904D01*
X102823809Y-98961904D01*
X99890476Y-105161904D02*
X99890476Y-105809523D01*
X99928571Y-105885714D01*
X99966666Y-105923809D01*
X100042857Y-105961904D01*
X100195238Y-105961904D01*
X100271428Y-105923809D01*
X100309523Y-105885714D01*
X100347619Y-105809523D01*
X100347619Y-105161904D01*
X101147619Y-105961904D02*
X100690476Y-105961904D01*
X100919047Y-105961904D02*
X100919047Y-105161904D01*
X100842857Y-105276190D01*
X100766666Y-105352380D01*
X100690476Y-105390476D01*
X89388095Y-122326190D02*
X89350000Y-122402380D01*
X89273809Y-122478571D01*
X89159523Y-122592857D01*
X89121428Y-122669047D01*
X89121428Y-122745238D01*
X89311904Y-122707142D02*
X89273809Y-122783333D01*
X89197619Y-122859523D01*
X89045238Y-122897619D01*
X88778571Y-122897619D01*
X88626190Y-122859523D01*
X88550000Y-122783333D01*
X88511904Y-122707142D01*
X88511904Y-122554761D01*
X88550000Y-122478571D01*
X88626190Y-122402380D01*
X88778571Y-122364285D01*
X89045238Y-122364285D01*
X89197619Y-122402380D01*
X89273809Y-122478571D01*
X89311904Y-122554761D01*
X89311904Y-122707142D01*
X89311904Y-121602380D02*
X89311904Y-122059523D01*
X89311904Y-121830952D02*
X88511904Y-121830952D01*
X88626190Y-121907142D01*
X88702380Y-121983333D01*
X88740476Y-122059523D01*
X86761904Y-122383333D02*
X86380952Y-122650000D01*
X86761904Y-122840476D02*
X85961904Y-122840476D01*
X85961904Y-122535714D01*
X86000000Y-122459523D01*
X86038095Y-122421428D01*
X86114285Y-122383333D01*
X86228571Y-122383333D01*
X86304761Y-122421428D01*
X86342857Y-122459523D01*
X86380952Y-122535714D01*
X86380952Y-122840476D01*
X86761904Y-121621428D02*
X86761904Y-122078571D01*
X86761904Y-121850000D02*
X85961904Y-121850000D01*
X86076190Y-121926190D01*
X86152380Y-122002380D01*
X86190476Y-122078571D01*
X95938095Y-122076190D02*
X95900000Y-122152380D01*
X95823809Y-122228571D01*
X95709523Y-122342857D01*
X95671428Y-122419047D01*
X95671428Y-122495238D01*
X95861904Y-122457142D02*
X95823809Y-122533333D01*
X95747619Y-122609523D01*
X95595238Y-122647619D01*
X95328571Y-122647619D01*
X95176190Y-122609523D01*
X95100000Y-122533333D01*
X95061904Y-122457142D01*
X95061904Y-122304761D01*
X95100000Y-122228571D01*
X95176190Y-122152380D01*
X95328571Y-122114285D01*
X95595238Y-122114285D01*
X95747619Y-122152380D01*
X95823809Y-122228571D01*
X95861904Y-122304761D01*
X95861904Y-122457142D01*
X95138095Y-121809523D02*
X95100000Y-121771428D01*
X95061904Y-121695238D01*
X95061904Y-121504761D01*
X95100000Y-121428571D01*
X95138095Y-121390476D01*
X95214285Y-121352380D01*
X95290476Y-121352380D01*
X95404761Y-121390476D01*
X95861904Y-121847619D01*
X95861904Y-121352380D01*
X93511904Y-122514285D02*
X93130952Y-122780952D01*
X93511904Y-122971428D02*
X92711904Y-122971428D01*
X92711904Y-122666666D01*
X92750000Y-122590476D01*
X92788095Y-122552380D01*
X92864285Y-122514285D01*
X92978571Y-122514285D01*
X93054761Y-122552380D01*
X93092857Y-122590476D01*
X93130952Y-122666666D01*
X93130952Y-122971428D01*
X93511904Y-121752380D02*
X93511904Y-122209523D01*
X93511904Y-121980952D02*
X92711904Y-121980952D01*
X92826190Y-122057142D01*
X92902380Y-122133333D01*
X92940476Y-122209523D01*
X93511904Y-120990476D02*
X93511904Y-121447619D01*
X93511904Y-121219047D02*
X92711904Y-121219047D01*
X92826190Y-121295238D01*
X92902380Y-121371428D01*
X92940476Y-121447619D01*
X93411904Y-102314285D02*
X93030952Y-102580952D01*
X93411904Y-102771428D02*
X92611904Y-102771428D01*
X92611904Y-102466666D01*
X92650000Y-102390476D01*
X92688095Y-102352380D01*
X92764285Y-102314285D01*
X92878571Y-102314285D01*
X92954761Y-102352380D01*
X92992857Y-102390476D01*
X93030952Y-102466666D01*
X93030952Y-102771428D01*
X93411904Y-101552380D02*
X93411904Y-102009523D01*
X93411904Y-101780952D02*
X92611904Y-101780952D01*
X92726190Y-101857142D01*
X92802380Y-101933333D01*
X92840476Y-102009523D01*
X92611904Y-101057142D02*
X92611904Y-100980952D01*
X92650000Y-100904761D01*
X92688095Y-100866666D01*
X92764285Y-100828571D01*
X92916666Y-100790476D01*
X93107142Y-100790476D01*
X93259523Y-100828571D01*
X93335714Y-100866666D01*
X93373809Y-100904761D01*
X93411904Y-100980952D01*
X93411904Y-101057142D01*
X93373809Y-101133333D01*
X93335714Y-101171428D01*
X93259523Y-101209523D01*
X93107142Y-101247619D01*
X92916666Y-101247619D01*
X92764285Y-101209523D01*
X92688095Y-101171428D01*
X92650000Y-101133333D01*
X92611904Y-101057142D01*
X100866666Y-111135714D02*
X100828571Y-111173809D01*
X100714285Y-111211904D01*
X100638095Y-111211904D01*
X100523809Y-111173809D01*
X100447619Y-111097619D01*
X100409523Y-111021428D01*
X100371428Y-110869047D01*
X100371428Y-110754761D01*
X100409523Y-110602380D01*
X100447619Y-110526190D01*
X100523809Y-110450000D01*
X100638095Y-110411904D01*
X100714285Y-110411904D01*
X100828571Y-110450000D01*
X100866666Y-110488095D01*
X101552380Y-110678571D02*
X101552380Y-111211904D01*
X101361904Y-110373809D02*
X101171428Y-110945238D01*
X101666666Y-110945238D01*
X109861904Y-110883333D02*
X109480952Y-111150000D01*
X109861904Y-111340476D02*
X109061904Y-111340476D01*
X109061904Y-111035714D01*
X109100000Y-110959523D01*
X109138095Y-110921428D01*
X109214285Y-110883333D01*
X109328571Y-110883333D01*
X109404761Y-110921428D01*
X109442857Y-110959523D01*
X109480952Y-111035714D01*
X109480952Y-111340476D01*
X109404761Y-110426190D02*
X109366666Y-110502380D01*
X109328571Y-110540476D01*
X109252380Y-110578571D01*
X109214285Y-110578571D01*
X109138095Y-110540476D01*
X109100000Y-110502380D01*
X109061904Y-110426190D01*
X109061904Y-110273809D01*
X109100000Y-110197619D01*
X109138095Y-110159523D01*
X109214285Y-110121428D01*
X109252380Y-110121428D01*
X109328571Y-110159523D01*
X109366666Y-110197619D01*
X109404761Y-110273809D01*
X109404761Y-110426190D01*
X109442857Y-110502380D01*
X109480952Y-110540476D01*
X109557142Y-110578571D01*
X109709523Y-110578571D01*
X109785714Y-110540476D01*
X109823809Y-110502380D01*
X109861904Y-110426190D01*
X109861904Y-110273809D01*
X109823809Y-110197619D01*
X109785714Y-110159523D01*
X109709523Y-110121428D01*
X109557142Y-110121428D01*
X109480952Y-110159523D01*
X109442857Y-110197619D01*
X109404761Y-110273809D01*
X109666666Y-113261904D02*
X109400000Y-112880952D01*
X109209523Y-113261904D02*
X109209523Y-112461904D01*
X109514285Y-112461904D01*
X109590476Y-112500000D01*
X109628571Y-112538095D01*
X109666666Y-112614285D01*
X109666666Y-112728571D01*
X109628571Y-112804761D01*
X109590476Y-112842857D01*
X109514285Y-112880952D01*
X109209523Y-112880952D01*
X110352380Y-112728571D02*
X110352380Y-113261904D01*
X110161904Y-112423809D02*
X109971428Y-112995238D01*
X110466666Y-112995238D01*
X90566666Y-119361904D02*
X90185714Y-119361904D01*
X90185714Y-118561904D01*
X91252380Y-119361904D02*
X90795238Y-119361904D01*
X91023809Y-119361904D02*
X91023809Y-118561904D01*
X90947619Y-118676190D01*
X90871428Y-118752380D01*
X90795238Y-118790476D01*
X104516666Y-102211904D02*
X104250000Y-101830952D01*
X104059523Y-102211904D02*
X104059523Y-101411904D01*
X104364285Y-101411904D01*
X104440476Y-101450000D01*
X104478571Y-101488095D01*
X104516666Y-101564285D01*
X104516666Y-101678571D01*
X104478571Y-101754761D01*
X104440476Y-101792857D01*
X104364285Y-101830952D01*
X104059523Y-101830952D01*
X104783333Y-101411904D02*
X105278571Y-101411904D01*
X105011904Y-101716666D01*
X105126190Y-101716666D01*
X105202380Y-101754761D01*
X105240476Y-101792857D01*
X105278571Y-101869047D01*
X105278571Y-102059523D01*
X105240476Y-102135714D01*
X105202380Y-102173809D01*
X105126190Y-102211904D01*
X104897619Y-102211904D01*
X104821428Y-102173809D01*
X104783333Y-102135714D01*
X97716666Y-98961904D02*
X97450000Y-98580952D01*
X97259523Y-98961904D02*
X97259523Y-98161904D01*
X97564285Y-98161904D01*
X97640476Y-98200000D01*
X97678571Y-98238095D01*
X97716666Y-98314285D01*
X97716666Y-98428571D01*
X97678571Y-98504761D01*
X97640476Y-98542857D01*
X97564285Y-98580952D01*
X97259523Y-98580952D01*
X98021428Y-98238095D02*
X98059523Y-98200000D01*
X98135714Y-98161904D01*
X98326190Y-98161904D01*
X98402380Y-98200000D01*
X98440476Y-98238095D01*
X98478571Y-98314285D01*
X98478571Y-98390476D01*
X98440476Y-98504761D01*
X97983333Y-98961904D01*
X98478571Y-98961904D01*
X111111904Y-105933333D02*
X110730952Y-106200000D01*
X111111904Y-106390476D02*
X110311904Y-106390476D01*
X110311904Y-106085714D01*
X110350000Y-106009523D01*
X110388095Y-105971428D01*
X110464285Y-105933333D01*
X110578571Y-105933333D01*
X110654761Y-105971428D01*
X110692857Y-106009523D01*
X110730952Y-106085714D01*
X110730952Y-106390476D01*
X111111904Y-105552380D02*
X111111904Y-105400000D01*
X111073809Y-105323809D01*
X111035714Y-105285714D01*
X110921428Y-105209523D01*
X110769047Y-105171428D01*
X110464285Y-105171428D01*
X110388095Y-105209523D01*
X110350000Y-105247619D01*
X110311904Y-105323809D01*
X110311904Y-105476190D01*
X110350000Y-105552380D01*
X110388095Y-105590476D01*
X110464285Y-105628571D01*
X110654761Y-105628571D01*
X110730952Y-105590476D01*
X110769047Y-105552380D01*
X110807142Y-105476190D01*
X110807142Y-105323809D01*
X110769047Y-105247619D01*
X110730952Y-105209523D01*
X110654761Y-105171428D01*
X109835714Y-106364285D02*
X109873809Y-106402380D01*
X109911904Y-106516666D01*
X109911904Y-106592857D01*
X109873809Y-106707142D01*
X109797619Y-106783333D01*
X109721428Y-106821428D01*
X109569047Y-106859523D01*
X109454761Y-106859523D01*
X109302380Y-106821428D01*
X109226190Y-106783333D01*
X109150000Y-106707142D01*
X109111904Y-106592857D01*
X109111904Y-106516666D01*
X109150000Y-106402380D01*
X109188095Y-106364285D01*
X109911904Y-105602380D02*
X109911904Y-106059523D01*
X109911904Y-105830952D02*
X109111904Y-105830952D01*
X109226190Y-105907142D01*
X109302380Y-105983333D01*
X109340476Y-106059523D01*
X109911904Y-104840476D02*
X109911904Y-105297619D01*
X109911904Y-105069047D02*
X109111904Y-105069047D01*
X109226190Y-105145238D01*
X109302380Y-105221428D01*
X109340476Y-105297619D01*
X103166666Y-111185714D02*
X103128571Y-111223809D01*
X103014285Y-111261904D01*
X102938095Y-111261904D01*
X102823809Y-111223809D01*
X102747619Y-111147619D01*
X102709523Y-111071428D01*
X102671428Y-110919047D01*
X102671428Y-110804761D01*
X102709523Y-110652380D01*
X102747619Y-110576190D01*
X102823809Y-110500000D01*
X102938095Y-110461904D01*
X103014285Y-110461904D01*
X103128571Y-110500000D01*
X103166666Y-110538095D01*
X103890476Y-110461904D02*
X103509523Y-110461904D01*
X103471428Y-110842857D01*
X103509523Y-110804761D01*
X103585714Y-110766666D01*
X103776190Y-110766666D01*
X103852380Y-110804761D01*
X103890476Y-110842857D01*
X103928571Y-110919047D01*
X103928571Y-111109523D01*
X103890476Y-111185714D01*
X103852380Y-111223809D01*
X103776190Y-111261904D01*
X103585714Y-111261904D01*
X103509523Y-111223809D01*
X103471428Y-111185714D01*
X98416666Y-111135714D02*
X98378571Y-111173809D01*
X98264285Y-111211904D01*
X98188095Y-111211904D01*
X98073809Y-111173809D01*
X97997619Y-111097619D01*
X97959523Y-111021428D01*
X97921428Y-110869047D01*
X97921428Y-110754761D01*
X97959523Y-110602380D01*
X97997619Y-110526190D01*
X98073809Y-110450000D01*
X98188095Y-110411904D01*
X98264285Y-110411904D01*
X98378571Y-110450000D01*
X98416666Y-110488095D01*
X98683333Y-110411904D02*
X99178571Y-110411904D01*
X98911904Y-110716666D01*
X99026190Y-110716666D01*
X99102380Y-110754761D01*
X99140476Y-110792857D01*
X99178571Y-110869047D01*
X99178571Y-111059523D01*
X99140476Y-111135714D01*
X99102380Y-111173809D01*
X99026190Y-111211904D01*
X98797619Y-111211904D01*
X98721428Y-111173809D01*
X98683333Y-111135714D01*
X93616666Y-111135714D02*
X93578571Y-111173809D01*
X93464285Y-111211904D01*
X93388095Y-111211904D01*
X93273809Y-111173809D01*
X93197619Y-111097619D01*
X93159523Y-111021428D01*
X93121428Y-110869047D01*
X93121428Y-110754761D01*
X93159523Y-110602380D01*
X93197619Y-110526190D01*
X93273809Y-110450000D01*
X93388095Y-110411904D01*
X93464285Y-110411904D01*
X93578571Y-110450000D01*
X93616666Y-110488095D01*
X94378571Y-111211904D02*
X93921428Y-111211904D01*
X94150000Y-111211904D02*
X94150000Y-110411904D01*
X94073809Y-110526190D01*
X93997619Y-110602380D01*
X93921428Y-110640476D01*
X96016666Y-111135714D02*
X95978571Y-111173809D01*
X95864285Y-111211904D01*
X95788095Y-111211904D01*
X95673809Y-111173809D01*
X95597619Y-111097619D01*
X95559523Y-111021428D01*
X95521428Y-110869047D01*
X95521428Y-110754761D01*
X95559523Y-110602380D01*
X95597619Y-110526190D01*
X95673809Y-110450000D01*
X95788095Y-110411904D01*
X95864285Y-110411904D01*
X95978571Y-110450000D01*
X96016666Y-110488095D01*
X96321428Y-110488095D02*
X96359523Y-110450000D01*
X96435714Y-110411904D01*
X96626190Y-110411904D01*
X96702380Y-110450000D01*
X96740476Y-110488095D01*
X96778571Y-110564285D01*
X96778571Y-110640476D01*
X96740476Y-110754761D01*
X96283333Y-111211904D01*
X96778571Y-111211904D01*
X105733333Y-124561904D02*
X105733333Y-125133333D01*
X105695238Y-125247619D01*
X105619047Y-125323809D01*
X105504761Y-125361904D01*
X105428571Y-125361904D01*
X106076190Y-124638095D02*
X106114285Y-124600000D01*
X106190476Y-124561904D01*
X106380952Y-124561904D01*
X106457142Y-124600000D01*
X106495238Y-124638095D01*
X106533333Y-124714285D01*
X106533333Y-124790476D01*
X106495238Y-124904761D01*
X106038095Y-125361904D01*
X106533333Y-125361904D01*
X109616666Y-103861904D02*
X109350000Y-103480952D01*
X109159523Y-103861904D02*
X109159523Y-103061904D01*
X109464285Y-103061904D01*
X109540476Y-103100000D01*
X109578571Y-103138095D01*
X109616666Y-103214285D01*
X109616666Y-103328571D01*
X109578571Y-103404761D01*
X109540476Y-103442857D01*
X109464285Y-103480952D01*
X109159523Y-103480952D01*
X109883333Y-103061904D02*
X110416666Y-103061904D01*
X110073809Y-103861904D01*
X93285714Y-107633333D02*
X93323809Y-107671428D01*
X93361904Y-107785714D01*
X93361904Y-107861904D01*
X93323809Y-107976190D01*
X93247619Y-108052380D01*
X93171428Y-108090476D01*
X93019047Y-108128571D01*
X92904761Y-108128571D01*
X92752380Y-108090476D01*
X92676190Y-108052380D01*
X92600000Y-107976190D01*
X92561904Y-107861904D01*
X92561904Y-107785714D01*
X92600000Y-107671428D01*
X92638095Y-107633333D01*
X92561904Y-106947619D02*
X92561904Y-107100000D01*
X92600000Y-107176190D01*
X92638095Y-107214285D01*
X92752380Y-107290476D01*
X92904761Y-107328571D01*
X93209523Y-107328571D01*
X93285714Y-107290476D01*
X93323809Y-107252380D01*
X93361904Y-107176190D01*
X93361904Y-107023809D01*
X93323809Y-106947619D01*
X93285714Y-106909523D01*
X93209523Y-106871428D01*
X93019047Y-106871428D01*
X92942857Y-106909523D01*
X92904761Y-106947619D01*
X92866666Y-107023809D01*
X92866666Y-107176190D01*
X92904761Y-107252380D01*
X92942857Y-107290476D01*
X93019047Y-107328571D01*
X94385714Y-102314285D02*
X94423809Y-102352380D01*
X94461904Y-102466666D01*
X94461904Y-102542857D01*
X94423809Y-102657142D01*
X94347619Y-102733333D01*
X94271428Y-102771428D01*
X94119047Y-102809523D01*
X94004761Y-102809523D01*
X93852380Y-102771428D01*
X93776190Y-102733333D01*
X93700000Y-102657142D01*
X93661904Y-102542857D01*
X93661904Y-102466666D01*
X93700000Y-102352380D01*
X93738095Y-102314285D01*
X94461904Y-101552380D02*
X94461904Y-102009523D01*
X94461904Y-101780952D02*
X93661904Y-101780952D01*
X93776190Y-101857142D01*
X93852380Y-101933333D01*
X93890476Y-102009523D01*
X93738095Y-101247619D02*
X93700000Y-101209523D01*
X93661904Y-101133333D01*
X93661904Y-100942857D01*
X93700000Y-100866666D01*
X93738095Y-100828571D01*
X93814285Y-100790476D01*
X93890476Y-100790476D01*
X94004761Y-100828571D01*
X94461904Y-101285714D01*
X94461904Y-100790476D01*
X95766666Y-99035714D02*
X95728571Y-99073809D01*
X95614285Y-99111904D01*
X95538095Y-99111904D01*
X95423809Y-99073809D01*
X95347619Y-98997619D01*
X95309523Y-98921428D01*
X95271428Y-98769047D01*
X95271428Y-98654761D01*
X95309523Y-98502380D01*
X95347619Y-98426190D01*
X95423809Y-98350000D01*
X95538095Y-98311904D01*
X95614285Y-98311904D01*
X95728571Y-98350000D01*
X95766666Y-98388095D01*
X96223809Y-98654761D02*
X96147619Y-98616666D01*
X96109523Y-98578571D01*
X96071428Y-98502380D01*
X96071428Y-98464285D01*
X96109523Y-98388095D01*
X96147619Y-98350000D01*
X96223809Y-98311904D01*
X96376190Y-98311904D01*
X96452380Y-98350000D01*
X96490476Y-98388095D01*
X96528571Y-98464285D01*
X96528571Y-98502380D01*
X96490476Y-98578571D01*
X96452380Y-98616666D01*
X96376190Y-98654761D01*
X96223809Y-98654761D01*
X96147619Y-98692857D01*
X96109523Y-98730952D01*
X96071428Y-98807142D01*
X96071428Y-98959523D01*
X96109523Y-99035714D01*
X96147619Y-99073809D01*
X96223809Y-99111904D01*
X96376190Y-99111904D01*
X96452380Y-99073809D01*
X96490476Y-99035714D01*
X96528571Y-98959523D01*
X96528571Y-98807142D01*
X96490476Y-98730952D01*
X96452380Y-98692857D01*
X96376190Y-98654761D01*
M02*
