G04 #@! TF.GenerationSoftware,KiCad,Pcbnew,(5.1.6-0-10_14)*
G04 #@! TF.CreationDate,2020-12-22T18:49:04+01:00*
G04 #@! TF.ProjectId,cdm324,63646d33-3234-42e6-9b69-6361645f7063,rev?*
G04 #@! TF.SameCoordinates,Original*
G04 #@! TF.FileFunction,Legend,Bot*
G04 #@! TF.FilePolarity,Positive*
%FSLAX46Y46*%
G04 Gerber Fmt 4.6, Leading zero omitted, Abs format (unit mm)*
G04 Created by KiCad (PCBNEW (5.1.6-0-10_14)) date 2020-12-22 18:49:04*
%MOMM*%
%LPD*%
G01*
G04 APERTURE LIST*
%ADD10C,0.120000*%
%ADD11C,0.153000*%
G04 APERTURE END LIST*
D10*
X95040000Y-59160000D02*
X95040000Y-67790000D01*
X95158095Y-59160000D02*
X95158095Y-67790000D01*
X95276190Y-59160000D02*
X95276190Y-67790000D01*
X95394285Y-59160000D02*
X95394285Y-67790000D01*
X95512380Y-59160000D02*
X95512380Y-67790000D01*
X95630475Y-59160000D02*
X95630475Y-67790000D01*
X95748570Y-59160000D02*
X95748570Y-67790000D01*
X95866665Y-59160000D02*
X95866665Y-67790000D01*
X95984760Y-59160000D02*
X95984760Y-67790000D01*
X96102855Y-59160000D02*
X96102855Y-67790000D01*
X96220950Y-59160000D02*
X96220950Y-67790000D01*
X96339045Y-59160000D02*
X96339045Y-67790000D01*
X96457140Y-59160000D02*
X96457140Y-67790000D01*
X96575235Y-59160000D02*
X96575235Y-67790000D01*
X96693330Y-59160000D02*
X96693330Y-67790000D01*
X96811425Y-59160000D02*
X96811425Y-67790000D01*
X96929520Y-59160000D02*
X96929520Y-67790000D01*
X97047615Y-59160000D02*
X97047615Y-67790000D01*
X97165710Y-59160000D02*
X97165710Y-67790000D01*
X97283805Y-59160000D02*
X97283805Y-67790000D01*
X97401900Y-59160000D02*
X97401900Y-67790000D01*
X95890000Y-67790000D02*
X95890000Y-68140000D01*
X96610000Y-67790000D02*
X96610000Y-68140000D01*
X98430000Y-67790000D02*
X98430000Y-68200000D01*
X99150000Y-67790000D02*
X99150000Y-68200000D01*
X100970000Y-67790000D02*
X100970000Y-68200000D01*
X101690000Y-67790000D02*
X101690000Y-68200000D01*
X103510000Y-67790000D02*
X103510000Y-68200000D01*
X104230000Y-67790000D02*
X104230000Y-68200000D01*
X97520000Y-59160000D02*
X97520000Y-67790000D01*
X100060000Y-59160000D02*
X100060000Y-67790000D01*
X102600000Y-59160000D02*
X102600000Y-67790000D01*
X94920000Y-59160000D02*
X94920000Y-67790000D01*
X94920000Y-67790000D02*
X105200000Y-67790000D01*
X105200000Y-59160000D02*
X105200000Y-67790000D01*
X94920000Y-59160000D02*
X105200000Y-59160000D01*
X94920000Y-70360000D02*
X96250000Y-70360000D01*
X94920000Y-69250000D02*
X94920000Y-70360000D01*
D11*
X101599523Y-81021904D02*
X101599523Y-81669523D01*
X101561428Y-81745714D01*
X101523333Y-81783809D01*
X101447142Y-81821904D01*
X101294761Y-81821904D01*
X101218571Y-81783809D01*
X101180476Y-81745714D01*
X101142380Y-81669523D01*
X101142380Y-81021904D01*
X100799523Y-81098095D02*
X100761428Y-81060000D01*
X100685238Y-81021904D01*
X100494761Y-81021904D01*
X100418571Y-81060000D01*
X100380476Y-81098095D01*
X100342380Y-81174285D01*
X100342380Y-81250476D01*
X100380476Y-81364761D01*
X100837619Y-81821904D01*
X100342380Y-81821904D01*
X93041904Y-64603333D02*
X93613333Y-64603333D01*
X93727619Y-64565238D01*
X93803809Y-64489047D01*
X93841904Y-64374761D01*
X93841904Y-64298571D01*
X93041904Y-64908095D02*
X93041904Y-65403333D01*
X93346666Y-65136666D01*
X93346666Y-65250952D01*
X93384761Y-65327142D01*
X93422857Y-65365238D01*
X93499047Y-65403333D01*
X93689523Y-65403333D01*
X93765714Y-65365238D01*
X93803809Y-65327142D01*
X93841904Y-65250952D01*
X93841904Y-65022380D01*
X93803809Y-64946190D01*
X93765714Y-64908095D01*
M02*
