M48
; DRILL file {KiCad (5.1.6-0-10_14)} date Tuesday, December 22, 2020 at 06:50:36 PM
; FORMAT={-:-/ absolute / inch / decimal}
; #@! TF.CreationDate,2020-12-22T18:50:36+01:00
; #@! TF.GenerationSoftware,Kicad,Pcbnew,(5.1.6-0-10_14)
; #@! TF.FileFunction,Plated,1,2,PTH
FMAT,2
INCH
T1C0.0118
T2C0.0394
T3C0.0591
%
G90
G05
T1
X3.3839Y-5.0492
X3.4213Y-4.8071
X3.4449Y-2.7559
X3.4449Y-2.9528
X3.5059Y-4.8031
X3.5433Y-3.8386
X3.5433Y-4.0354
X3.5433Y-4.2323
X3.5433Y-4.4291
X3.5433Y-4.5276
X3.5925Y-4.8366
X3.6417Y-2.7559
X3.6417Y-2.9528
X3.6417Y-3.1496
X3.6417Y-3.3465
X3.6417Y-3.5433
X3.6417Y-3.7402
X3.6909Y-4.3543
X3.7185Y-4.0079
X3.7382Y-4.1969
X3.7441Y-4.5984
X3.7618Y-5.0492
X3.8366Y-4.9665
X3.8386Y-2.9528
X3.8386Y-3.1496
X3.8386Y-3.3465
X3.8386Y-3.5433
X3.9272Y-4.185
X3.937Y-4.9213
X3.937Y-5.1181
X3.9587Y-4.0748
X4.0354Y-2.9528
X4.0354Y-3.1496
X4.0354Y-3.3465
X4.0354Y-3.5433
X4.0354Y-4.5846
X4.1339Y-4.9213
X4.1339Y-5.1181
X4.1417Y-4.0157
X4.1457Y-3.9685
X4.1496Y-3.9193
X4.2323Y-2.7559
X4.2323Y-2.9528
X4.2323Y-3.1496
X4.2323Y-3.3465
X4.2323Y-3.5433
X4.2323Y-3.7402
X4.3307Y-3.8386
X4.3307Y-4.0354
X4.3307Y-4.2323
X4.3307Y-4.5039
X4.3307Y-4.9213
X4.3307Y-5.1181
X4.3819Y-4.6378
X4.4291Y-2.7559
X4.4291Y-2.9528
X4.4626Y-4.6299
X4.4882Y-4.9213
X4.4882Y-5.1181
T2
X3.7894Y-2.7264
X3.8894Y-2.7264
X3.9894Y-2.7264
X4.0894Y-2.7264
X3.4039Y-3.0976
X3.4039Y-3.1976
X3.4039Y-3.2976
X3.4039Y-3.3976
X3.4039Y-3.4976
X3.4039Y-3.5976
X3.4039Y-3.6976
X3.4039Y-3.7976
X3.4039Y-3.8976
X3.4039Y-3.9976
X3.4039Y-4.0976
X3.4039Y-4.1976
X3.4039Y-4.2976
X3.4039Y-4.3976
X4.478Y-3.0976
X4.478Y-3.1976
X4.478Y-3.2976
X4.478Y-3.3976
X4.478Y-3.4976
X4.478Y-3.5976
X4.478Y-3.6976
X4.478Y-3.7976
X4.478Y-3.8976
X4.478Y-3.9976
X4.478Y-4.0976
X4.478Y-4.1976
X4.478Y-4.2976
X4.478Y-4.3976
X3.8469Y-3.7402
X3.9469Y-3.7402
X4.0469Y-3.7402
T3
X4.0846Y-4.8362
X4.2618Y-4.8362
T0
M30
